<svg width="120" height="206" viewBox="0 0 120 206" fill="none" xmlns="http://www.w3.org/2000/svg">
<path d="M120 66.0714C120 29.3651 93 0 60 0C27 0 0 29.3651 0 66.0714C0 93.9683 16.5 118.194 39 127.738L32.25 134.345C30.75 135.813 30 138.016 30 140.218C30 142.421 31.5 144.623 33 145.357C39.75 149.762 46.5 151.964 54 152.698L57.75 163.71C58.5 166.647 58.5 169.583 57 171.786C53.25 179.127 53.25 187.202 57 194.544L60.75 201.151C62.25 204.087 64.5 205.556 67.5 205.556C69 205.556 69.75 205.556 70.5 204.821C74.25 203.353 75.75 198.948 73.5 195.278L69.75 188.671C68.25 185.734 68.25 182.064 69.75 179.127C72.75 173.254 73.5 166.647 71.25 160.04L69 152.698C75 151.23 80.25 149.028 85.5 146.091C87 144.623 88.5 143.155 88.5 140.952C88.5 138.75 87.75 136.548 86.25 135.079L79.5 128.472C103.5 118.194 120 93.9683 120 66.0714Z" fill="#E11C1C"/>
<path d="M74.128 42.072V72.664C74.128 77.4 72.784 81.048 70.096 83.608C67.4507 86.168 63.8667 87.448 59.344 87.448C54.608 87.448 50.8107 86.104 47.952 83.416C45.0933 80.728 43.664 76.9093 43.664 71.96H54.544C54.544 73.8373 54.928 75.2667 55.696 76.248C56.464 77.1867 57.5733 77.656 59.024 77.656C60.3467 77.656 61.3707 77.2293 62.096 76.376C62.8213 75.5227 63.184 74.2853 63.184 72.664V42.072H74.128Z" fill="white"/>
</svg>
