<svg width="120" height="206" viewBox="0 0 120 206" fill="none" xmlns="http://www.w3.org/2000/svg">
<path d="M120 66.0714C120 29.3651 93 0 60 0C27 0 0 29.3651 0 66.0714C0 93.9683 16.5 118.194 39 127.738L32.25 134.345C30.75 135.813 30 138.016 30 140.218C30 142.421 31.5 144.623 33 145.357C39.75 149.762 46.5 151.964 54 152.698L57.75 163.71C58.5 166.647 58.5 169.583 57 171.786C53.25 179.127 53.25 187.202 57 194.544L60.75 201.151C62.25 204.087 64.5 205.556 67.5 205.556C69 205.556 69.75 205.556 70.5 204.821C74.25 203.353 75.75 198.948 73.5 195.278L69.75 188.671C68.25 185.734 68.25 182.064 69.75 179.127C72.75 173.254 73.5 166.647 71.25 160.04L69 152.698C75 151.23 80.25 149.028 85.5 146.091C87 144.623 88.5 143.155 88.5 140.952C88.5 138.75 87.75 136.548 86.25 135.079L79.5 128.472C103.5 118.194 120 93.9683 120 66.0714Z" fill="#E17B1C"/>
<path d="M78.2393 56.536C78.2393 59.1387 77.6419 61.528 76.4473 63.704C75.2526 65.8373 73.4179 67.5653 70.9433 68.888C68.4686 70.2107 65.3966 70.872 61.7273 70.872H54.9433V87H43.9993V42.072H61.7273C65.3113 42.072 68.3406 42.6907 70.8153 43.928C73.2899 45.1653 75.1459 46.872 76.3833 49.048C77.6206 51.224 78.2393 53.72 78.2393 56.536ZM60.8953 62.168C62.9859 62.168 64.5433 61.6773 65.5673 60.696C66.5913 59.7147 67.1033 58.328 67.1033 56.536C67.1033 54.744 66.5913 53.3573 65.5673 52.376C64.5433 51.3947 62.9859 50.904 60.8953 50.904H54.9433V62.168H60.8953Z" fill="white"/>
</svg>
