<svg width="120" height="206" viewBox="0 0 120 206" fill="none" xmlns="http://www.w3.org/2000/svg">
<path d="M120 66.0714C120 29.3651 93 0 60 0C27 0 0 29.3651 0 66.0714C0 93.9683 16.5 118.194 39 127.738L32.25 134.345C30.75 135.813 30 138.016 30 140.218C30 142.421 31.5 144.623 33 145.357C39.75 149.762 46.5 151.964 54 152.698L57.75 163.71C58.5 166.647 58.5 169.583 57 171.786C53.25 179.127 53.25 187.202 57 194.544L60.75 201.151C62.25 204.087 64.5 205.556 67.5 205.556C69 205.556 69.75 205.556 70.5 204.821C74.25 203.353 75.75 198.948 73.5 195.278L69.75 188.671C68.25 185.734 68.25 182.064 69.75 179.127C72.75 173.254 73.5 166.647 71.25 160.04L69 152.698C75 151.23 80.25 149.028 85.5 146.091C87 144.623 88.5 143.155 88.5 140.952C88.5 138.75 87.75 136.548 86.25 135.079L79.5 128.472C103.5 118.194 120 93.9683 120 66.0714Z" fill="#E1C01C"/>
<path d="M70.5743 63.96C73.1769 64.5147 75.2676 65.816 76.8463 67.864C78.4249 69.8693 79.2143 72.1733 79.2143 74.776C79.2143 78.5307 77.8916 81.5173 75.2463 83.736C72.6436 85.912 68.9956 87 64.3023 87H43.3743V42.072H63.5983C68.1636 42.072 71.7263 43.1173 74.2863 45.208C76.8889 47.2987 78.1903 50.136 78.1903 53.72C78.1903 56.3653 77.4863 58.5627 76.0783 60.312C74.7129 62.0613 72.8783 63.2773 70.5743 63.96ZM54.3183 60.248H61.4863C63.2783 60.248 64.6436 59.864 65.5823 59.096C66.5636 58.2853 67.0543 57.112 67.0543 55.576C67.0543 54.04 66.5636 52.8667 65.5823 52.056C64.6436 51.2453 63.2783 50.84 61.4863 50.84H54.3183V60.248ZM62.3823 78.168C64.2169 78.168 65.6249 77.7627 66.6063 76.952C67.6303 76.0987 68.1423 74.8827 68.1423 73.304C68.1423 71.7253 67.6089 70.488 66.5423 69.592C65.5183 68.696 64.0889 68.248 62.2543 68.248H54.3183V78.168H62.3823Z" fill="white"/>
</svg>
