<svg width="120" height="206" viewBox="0 0 120 206" fill="none" xmlns="http://www.w3.org/2000/svg">
<path d="M120 66.0714C120 29.3651 93 0 60 0C27 0 0 29.3651 0 66.0714C0 93.9683 16.5 118.194 39 127.738L32.25 134.345C30.75 135.813 30 138.016 30 140.218C30 142.421 31.5 144.623 33 145.357C39.75 149.762 46.5 151.964 54 152.698L57.75 163.71C58.5 166.647 58.5 169.583 57 171.786C53.25 179.127 53.25 187.202 57 194.544L60.75 201.151C62.25 204.087 64.5 205.556 67.5 205.556C69 205.556 69.75 205.556 70.5 204.821C74.25 203.353 75.75 198.948 73.5 195.278L69.75 188.671C68.25 185.734 68.25 182.064 69.75 179.127C72.75 173.254 73.5 166.647 71.25 160.04L69 152.698C75 151.23 80.25 149.028 85.5 146.091C87 144.623 88.5 143.155 88.5 140.952C88.5 138.75 87.75 136.548 86.25 135.079L79.5 128.472C103.5 118.194 120 93.9683 120 66.0714Z" fill="#E11C1C"/>
<path d="M69.917 56.28C69.1063 54.7867 67.933 53.656 66.397 52.888C64.9037 52.0773 63.133 51.672 61.085 51.672C57.5437 51.672 54.7063 52.8453 52.573 55.192C50.4397 57.496 49.373 60.5893 49.373 64.472C49.373 68.6107 50.4823 71.8533 52.701 74.2C54.9623 76.504 58.0557 77.656 61.981 77.656C64.669 77.656 66.9303 76.9733 68.765 75.608C70.6423 74.2427 72.0077 72.28 72.861 69.72H58.973V61.656H82.781V71.832C81.9703 74.5627 80.5837 77.1013 78.621 79.448C76.701 81.7947 74.2477 83.6933 71.261 85.144C68.2743 86.5947 64.9037 87.32 61.149 87.32C56.7117 87.32 52.7437 86.36 49.245 84.44C45.789 82.4773 43.0797 79.768 41.117 76.312C39.197 72.856 38.237 68.9093 38.237 64.472C38.237 60.0347 39.197 56.088 41.117 52.632C43.0797 49.1333 45.789 46.424 49.245 44.504C52.701 42.5413 56.6477 41.56 61.085 41.56C66.461 41.56 70.9837 42.8613 74.653 45.464C78.365 48.0667 80.8183 51.672 82.013 56.28H69.917Z" fill="white"/>
</svg>
