<svg width="120" height="206" viewBox="0 0 120 206" fill="none" xmlns="http://www.w3.org/2000/svg">
<path d="M120 66.0714C120 29.3651 93 0 60 0C27 0 0 29.3651 0 66.0714C0 93.9683 16.5 118.194 39 127.738L32.25 134.345C30.75 135.813 30 138.016 30 140.218C30 142.421 31.5 144.623 33 145.357C39.75 149.762 46.5 151.964 54 152.698L57.75 163.71C58.5 166.647 58.5 169.583 57 171.786C53.25 179.127 53.25 187.202 57 194.544L60.75 201.151C62.25 204.087 64.5 205.556 67.5 205.556C69 205.556 69.75 205.556 70.5 204.821C74.25 203.353 75.75 198.948 73.5 195.278L69.75 188.671C68.25 185.734 68.25 182.064 69.75 179.127C72.75 173.254 73.5 166.647 71.25 160.04L69 152.698C75 151.23 80.25 149.028 85.5 146.091C87 144.623 88.5 143.155 88.5 140.952C88.5 138.75 87.75 136.548 86.25 135.079L79.5 128.472C103.5 118.194 120 93.9683 120 66.0714Z" fill="#A21CE1"/>
<path d="M66.005 87L56.661 70.04H54.037V87H43.093V42.072H61.461C65.0023 42.072 68.0103 42.6907 70.485 43.928C73.0023 45.1653 74.8797 46.872 76.117 49.048C77.3543 51.1813 77.973 53.5707 77.973 56.216C77.973 59.2027 77.1197 61.8693 75.413 64.216C73.749 66.5627 71.2743 68.2267 67.989 69.208L78.357 87H66.005ZM54.037 62.296H60.821C62.8263 62.296 64.3197 61.8053 65.301 60.824C66.325 59.8427 66.837 58.456 66.837 56.664C66.837 54.9573 66.325 53.6133 65.301 52.632C64.3197 51.6507 62.8263 51.16 60.821 51.16H54.037V62.296Z" fill="white"/>
</svg>
