<svg width="80" height="60" viewBox="0 0 80 60" fill="none" xmlns="http://www.w3.org/2000/svg">
<rect x="2.5" y="2.5" width="75" height="55" rx="7.5" fill="#3EADF1" stroke="#157DBE" stroke-width="5"/>
<path d="M39.096 21.08V38H34.392V28.664L31.2 38H27.264L24.048 28.592V38H19.344V21.08H25.032L29.28 32.072L33.432 21.08H39.096ZM49.8857 38.168C48.3017 38.168 46.8457 37.8 45.5177 37.064C44.1897 36.312 43.1337 35.28 42.3497 33.968C41.5817 32.64 41.1977 31.144 41.1977 29.48C41.1977 27.816 41.5817 26.328 42.3497 25.016C43.1337 23.688 44.1897 22.656 45.5177 21.92C46.8457 21.184 48.3017 20.816 49.8857 20.816C51.4857 20.816 52.9417 21.184 54.2537 21.92C55.5817 22.656 56.6297 23.688 57.3977 25.016C58.1657 26.328 58.5497 27.816 58.5497 29.48C58.5497 31.144 58.1657 32.64 57.3977 33.968C56.6297 35.28 55.5817 36.312 54.2537 37.064C52.9257 37.8 51.4697 38.168 49.8857 38.168ZM49.8857 33.8C51.0857 33.8 52.0297 33.408 52.7177 32.624C53.4217 31.84 53.7737 30.792 53.7737 29.48C53.7737 28.136 53.4217 27.08 52.7177 26.312C52.0297 25.528 51.0857 25.136 49.8857 25.136C48.6697 25.136 47.7177 25.528 47.0297 26.312C46.3417 27.08 45.9977 28.136 45.9977 29.48C45.9977 30.808 46.3417 31.864 47.0297 32.648C47.7177 33.416 48.6697 33.8 49.8857 33.8Z" fill="white"/>
</svg>
