<svg width="80" height="60" viewBox="0 0 80 60" fill="none" xmlns="http://www.w3.org/2000/svg">
<rect x="2.5" y="2.5" width="75" height="55" rx="7.5" fill="#3EADF1" stroke="#157DBE" stroke-width="5"/>
<path d="M41.712 26.72C41.712 27.744 41.472 28.68 40.992 29.528C40.528 30.36 39.816 31.032 38.856 31.544C37.912 32.04 36.752 32.288 35.376 32.288H33.048V38H28.344V21.08H35.376C36.736 21.08 37.888 21.32 38.832 21.8C39.792 22.28 40.512 22.944 40.992 23.792C41.472 24.64 41.712 25.616 41.712 26.72ZM34.92 28.544C36.248 28.544 36.912 27.936 36.912 26.72C36.912 25.488 36.248 24.872 34.92 24.872H33.048V28.544H34.92ZM48.3058 24.848V27.608H53.7058V31.184H48.3058V34.232H54.4258V38H43.6018V21.08H54.4258V24.848H48.3058ZM48.9298 18.176L45.0658 20.096V16.952L48.9298 15.104L52.7458 16.952V20.096L48.9298 18.176Z" fill="white"/>
</svg>
