<svg width="133" height="217" viewBox="0 0 133 217" fill="none" xmlns="http://www.w3.org/2000/svg">
<path d="M81.6297 165.604L80.1487 160.761C85.3572 159.258 90.0558 157.189 94.7224 154.573L95.0129 154.41L95.2507 154.177C95.3089 154.12 95.3691 154.061 95.431 154C96.8003 152.664 99 150.518 99 147.242C99 144.525 98.0841 141.615 96.0007 139.572L91.8348 135.485C114.929 124.038 130.5 99.8334 130.5 72.1991C130.5 34.2608 102.598 3.48486 68 3.48486C33.4017 3.48486 5.5 34.2608 5.5 72.1991C5.5 99.7145 20.9477 123.88 42.6662 134.748L38.4993 138.836C36.4159 140.88 35.5 143.789 35.5 146.506C35.5 148.157 36.052 149.707 36.8048 150.938C37.514 152.097 38.5289 153.18 39.7439 153.822C46.3249 158.103 52.9382 160.403 60.1434 161.32L63.3504 170.758C64.0032 173.381 63.8279 175.419 62.9323 176.737L62.844 176.867L62.7726 177.007C58.6591 185.077 58.6591 194.014 62.7726 202.084L62.7976 202.133L62.8246 202.181L66.5488 208.757C67.4489 210.506 68.6446 211.96 70.1942 212.974C71.7722 214.006 73.5723 214.485 75.5 214.485C75.5801 214.485 75.6625 214.485 75.7467 214.486C76.9083 214.492 78.445 214.5 79.8394 213.397C84.7632 211.18 86.5671 205.225 83.6561 200.419L79.9544 193.883C78.8409 191.66 78.8486 188.849 79.9773 186.634C83.2527 180.208 84.0987 172.903 81.6297 165.604Z" fill="#6AC3FA"/>
<path d="M81.6297 165.604L80.1487 160.761C85.3572 159.258 90.0558 157.189 94.7224 154.573L95.0129 154.41L95.2507 154.177C95.3089 154.12 95.3691 154.061 95.431 154C96.8003 152.664 99 150.518 99 147.242C99 144.525 98.0841 141.615 96.0007 139.572L91.8348 135.485C114.929 124.038 130.5 99.8334 130.5 72.1991C130.5 34.2608 102.598 3.48486 68 3.48486C33.4017 3.48486 5.5 34.2608 5.5 72.1991C5.5 99.7145 20.9477 123.88 42.6662 134.748L38.4993 138.836C36.4159 140.88 35.5 143.789 35.5 146.506C35.5 148.157 36.052 149.707 36.8048 150.938C37.514 152.097 38.5289 153.18 39.7439 153.822C46.3249 158.103 52.9382 160.403 60.1434 161.32L63.3504 170.758C64.0032 173.381 63.8279 175.419 62.9323 176.737L62.844 176.867L62.7726 177.007C58.6591 185.077 58.6591 194.014 62.7726 202.084L62.7976 202.133L62.8246 202.181L66.5488 208.757C67.4489 210.506 68.6446 211.96 70.1942 212.974C71.7722 214.006 73.5723 214.485 75.5 214.485C75.5801 214.485 75.6625 214.485 75.7467 214.486C76.9083 214.492 78.445 214.5 79.8394 213.397C84.7632 211.18 86.5671 205.225 83.6561 200.419L79.9544 193.883C78.8409 191.66 78.8486 188.849 79.9773 186.634C83.2527 180.208 84.0987 172.903 81.6297 165.604Z" stroke="black" stroke-width="5"/>
<path d="M81.6297 165.604L80.1487 160.761C85.3572 159.258 90.0558 157.189 94.7224 154.573L95.0129 154.41L95.2507 154.177C95.3089 154.12 95.3691 154.061 95.431 154C96.8003 152.664 99 150.518 99 147.242C99 144.525 98.0841 141.615 96.0007 139.572L91.8348 135.485C114.929 124.038 130.5 99.8334 130.5 72.1991C130.5 34.2608 102.598 3.48486 68 3.48486C33.4017 3.48486 5.5 34.2608 5.5 72.1991C5.5 99.7145 20.9477 123.88 42.6662 134.748L38.4993 138.836C36.4159 140.88 35.5 143.789 35.5 146.506C35.5 148.157 36.052 149.707 36.8048 150.938C37.514 152.097 38.5289 153.18 39.7439 153.822C46.3249 158.103 52.9382 160.403 60.1434 161.32L63.3504 170.758C64.0032 173.381 63.8279 175.419 62.9323 176.737L62.844 176.867L62.7726 177.007C58.6591 185.077 58.6591 194.014 62.7726 202.084L62.7976 202.133L62.8246 202.181L66.5488 208.757C67.4489 210.506 68.6446 211.96 70.1942 212.974C71.7722 214.006 73.5723 214.485 75.5 214.485C75.5801 214.485 75.6625 214.485 75.7467 214.486C76.9083 214.492 78.445 214.5 79.8394 213.397C84.7632 211.18 86.5671 205.225 83.6561 200.419L79.9544 193.883C78.8409 191.66 78.8486 188.849 79.9773 186.634C83.2527 180.208 84.0987 172.903 81.6297 165.604Z" stroke="black" stroke-width="5"/>
<path d="M76.3423 84.064H59.5743L56.8863 92H45.4303L61.6863 47.072H74.3583L90.6143 92H79.0303L76.3423 84.064ZM73.5263 75.616L67.9583 59.168L62.4543 75.616H73.5263Z" fill="black"/>
</svg>
