<svg width="135" height="222" viewBox="0 0 135 222" fill="none" xmlns="http://www.w3.org/2000/svg">
<path d="M78.6294 164.395L77.1499 159.564C82.3573 158.063 87.0552 155.997 91.7211 153.386L92.0116 153.223L92.2494 152.99C92.3078 152.933 92.3681 152.874 92.4301 152.814C93.7989 151.48 96 149.335 96 146.061C96 143.346 95.0835 140.439 92.9994 138.398L88.8386 134.322C111.929 122.89 127.5 98.7196 127.5 71.1225C127.5 33.2317 99.5952 2.5 65 2.5C30.4048 2.5 2.5 33.2317 2.5 71.1225C2.5 98.6007 17.947 122.731 39.6624 133.586L35.5006 137.663C33.4165 139.705 32.5 142.611 32.5 145.327C32.5 146.977 33.0525 148.525 33.8056 149.755C34.5152 150.913 35.5304 151.995 36.7452 152.636C43.3263 156.911 49.9394 159.207 57.1442 160.123L60.3507 169.546C61.0032 172.165 60.8276 174.198 59.9332 175.512L59.8448 175.642L59.7733 175.782C55.6589 183.843 55.6589 192.77 59.7733 200.83L59.7983 200.879L59.8254 200.927L63.5495 207.494C64.4499 209.241 65.6459 210.693 67.1955 211.705C68.7733 212.736 70.573 213.214 72.5 213.214C72.5802 213.214 72.6626 213.215 72.7469 213.215C73.9082 213.221 75.444 213.229 76.8381 212.128C81.7613 209.915 83.5689 203.965 80.6553 199.161L76.9538 192.634C75.8411 190.417 75.8488 187.612 76.9767 185.402C80.2526 178.984 81.099 171.686 78.6294 164.395Z" fill="#6AFA78"/>
<path d="M78.6294 164.395L77.1499 159.564C82.3573 158.063 87.0552 155.997 91.7211 153.386L92.0116 153.223L92.2494 152.99C92.3078 152.933 92.3681 152.874 92.4301 152.814C93.7989 151.48 96 149.335 96 146.061C96 143.346 95.0835 140.439 92.9994 138.398L88.8386 134.322C111.929 122.89 127.5 98.7196 127.5 71.1225C127.5 33.2317 99.5952 2.5 65 2.5C30.4048 2.5 2.5 33.2317 2.5 71.1225C2.5 98.6007 17.947 122.731 39.6624 133.586L35.5006 137.663C33.4165 139.705 32.5 142.611 32.5 145.327C32.5 146.977 33.0525 148.525 33.8056 149.755C34.5152 150.913 35.5304 151.995 36.7452 152.636C43.3263 156.911 49.9394 159.207 57.1442 160.123L60.3507 169.546C61.0032 172.165 60.8276 174.198 59.9332 175.512L59.8448 175.642L59.7733 175.782C55.6589 183.843 55.6589 192.77 59.7733 200.83L59.7983 200.879L59.8254 200.927L63.5495 207.494C64.4499 209.241 65.6459 210.693 67.1955 211.705C68.7733 212.736 70.573 213.214 72.5 213.214C72.5802 213.214 72.6626 213.215 72.7469 213.215C73.9082 213.221 75.444 213.229 76.8381 212.128C81.7613 209.915 83.5689 203.965 80.6553 199.161L76.9538 192.634C75.8411 190.417 75.8488 187.612 76.9767 185.402C80.2526 178.984 81.099 171.686 78.6294 164.395Z" stroke="#3EF150" stroke-width="5"/>
<path d="M78.6294 164.395L77.1499 159.564C82.3573 158.063 87.0552 155.997 91.7211 153.386L92.0116 153.223L92.2494 152.99C92.3078 152.933 92.3681 152.874 92.4301 152.814C93.7989 151.48 96 149.335 96 146.061C96 143.346 95.0835 140.439 92.9994 138.398L88.8386 134.322C111.929 122.89 127.5 98.7196 127.5 71.1225C127.5 33.2317 99.5952 2.5 65 2.5C30.4048 2.5 2.5 33.2317 2.5 71.1225C2.5 98.6007 17.947 122.731 39.6624 133.586L35.5006 137.663C33.4165 139.705 32.5 142.611 32.5 145.327C32.5 146.977 33.0525 148.525 33.8056 149.755C34.5152 150.913 35.5304 151.995 36.7452 152.636C43.3263 156.911 49.9394 159.207 57.1442 160.123L60.3507 169.546C61.0032 172.165 60.8276 174.198 59.9332 175.512L59.8448 175.642L59.7733 175.782C55.6589 183.843 55.6589 192.77 59.7733 200.83L59.7983 200.879L59.8254 200.927L63.5495 207.494C64.4499 209.241 65.6459 210.693 67.1955 211.705C68.7733 212.736 70.573 213.214 72.5 213.214C72.5802 213.214 72.6626 213.215 72.7469 213.215C73.9082 213.221 75.444 213.229 76.8381 212.128C81.7613 209.915 83.5689 203.965 80.6553 199.161L76.9538 192.634C75.8411 190.417 75.8488 187.612 76.9767 185.402C80.2526 178.984 81.099 171.686 78.6294 164.395Z" stroke="#3EF150" stroke-width="5"/>
<path d="M73.3423 83.064H56.5743L53.8863 91H42.4303L58.6863 46.072H71.3583L87.6143 91H76.0303L73.3423 83.064ZM70.5263 74.616L64.9583 58.168L59.4543 74.616H70.5263Z" fill="black"/>
</svg>
