<svg width="33" height="38" viewBox="0 0 33 38" fill="none" xmlns="http://www.w3.org/2000/svg">
<path fill-rule="evenodd" clip-rule="evenodd" d="M4.34561 31.7208C4.34561 32.7836 5.26093 33.2379 6.38873 33.2379H8.43184C9.55964 33.2379 10.475 32.7836 10.475 31.7208V29.7955C10.475 27.6679 12.3035 25.5365 14.5612 25.5365H18.6474C20.9051 25.5365 22.7336 27.6679 22.7336 29.7955V31.7208C22.7336 32.7836 23.649 33.2379 24.7768 33.2379H26.8199C27.9477 33.2379 28.863 32.7836 28.863 31.7208V16.1967C28.863 15.9406 28.7547 15.6961 28.5647 15.5151L18.0692 5.62656C17.2704 4.87376 15.977 4.87376 15.1802 5.62656L4.6439 15.5536C4.45389 15.7346 4.34561 15.9792 4.34561 16.2333V31.7208ZM0.25938 15.1878C0.25938 14.6776 0.473877 14.1905 0.853901 13.8285L13.7235 1.64109C15.3171 0.133552 17.9058 0.127812 19.5055 1.62958L32.3485 13.6919C32.7326 14.0538 32.9492 14.5429 32.9492 15.055V33.6461C32.9492 35.7736 31.1206 37.0886 28.863 37.0886H22.7336C20.476 37.0886 18.6474 35.7736 18.6474 33.6461V31.7208C18.6474 30.658 17.7321 29.7955 16.6043 29.7955C15.4765 29.7955 14.5612 30.658 14.5612 31.7208V33.6461C14.5612 35.7736 12.7326 37.0886 10.475 37.0886H4.34561C2.08797 37.0886 0.25938 35.7736 0.25938 33.6461V15.1878Z" fill="#1C96E1"/>
</svg>
