<svg width="39" height="39" viewBox="0 0 39 39" fill="none" xmlns="http://www.w3.org/2000/svg">
<path fill-rule="evenodd" clip-rule="evenodd" d="M34.7532 5.61577C34.6323 4.63882 33.7996 3.9 32.8148 3.9H27.9808C28.4429 7.0473 28.8466 11.3451 28.168 13.9561C31.3055 14.2135 33.9458 13.5798 34.8584 13.063C35.2348 11.9262 35.1666 8.95027 34.7532 5.61577ZM31.2002 17.8504C28.9928 18.0181 26.5085 17.8836 24.461 17.1972C22.8913 17.6672 20.9803 17.9204 19.0849 17.9204C17.2402 17.9204 15.4325 17.6789 13.9934 17.1953C12.3262 17.6965 10.1851 17.9887 7.80023 17.899V33.15C7.80023 34.2264 8.67188 35.1 9.75023 35.1H17.5502V29.25C17.5502 28.1736 18.4219 27.3 19.5002 27.3C20.5766 27.3 21.4502 28.1736 21.4502 29.25V35.1H29.2502C30.3266 35.1 31.2002 34.2264 31.2002 33.15V17.8504ZM10.8013 13.8842C10.1987 11.2244 10.5478 7.0005 10.9554 3.9H6.13302C5.13072 3.9 4.29807 4.66455 4.19082 5.661C3.81837 9.0891 3.78718 12.1347 4.17523 13.2696C5.66503 14.1023 9.00339 14.1085 10.8013 13.8842ZM14.6467 13.2696C16.6026 14.3616 22.4136 14.1862 24.3948 13.063C24.8335 11.7331 24.6658 7.89165 24.0496 3.9H14.8768C14.3132 8.00475 14.1924 11.9436 14.6467 13.2696ZM37.7639 15.7304C37.175 16.3174 36.2293 16.7875 35.1002 17.1444V35.1C35.1002 37.2528 33.353 39 31.2002 39H7.80023C5.64548 39 3.90023 37.2528 3.90023 35.1V17.3182C2.67173 16.9574 1.66752 16.4344 1.09812 15.7304C-0.555479 13.6829 0.004142 7.32813 0.555992 3.35013C0.823142 1.42353 2.47286 0 4.41701 0H34.5016C36.4263 0 38.0604 1.39223 38.3568 3.29348C38.9827 7.32413 39.6437 13.8506 37.7639 15.7304ZM13.6502 19.5C12.5719 19.5 11.7002 20.3736 11.7002 21.45V25.35C11.7002 26.4264 12.5719 27.3 13.6502 27.3C14.7266 27.3 15.6002 26.4264 15.6002 25.35V21.45C15.6002 20.3736 14.7266 19.5 13.6502 19.5ZM27.3002 21.45V25.35C27.3002 26.4264 26.4266 27.3 25.3502 27.3C24.2719 27.3 23.4002 26.4264 23.4002 25.35V21.45C23.4002 20.3736 24.2719 19.5 25.3502 19.5C26.4266 19.5 27.3002 20.3736 27.3002 21.45Z" fill="white"/>
</svg>
