<svg width="33" height="38" viewBox="0 0 33 38" fill="none" xmlns="http://www.w3.org/2000/svg">
<path fill-rule="evenodd" clip-rule="evenodd" d="M4.08621 31.7208C4.08621 32.7836 5.00153 33.2379 6.12933 33.2379H8.17244C9.30024 33.2379 10.2156 32.7836 10.2156 31.7208V29.7955C10.2156 27.6679 12.0441 25.5365 14.3018 25.5365H18.388C20.6457 25.5365 22.4742 27.6679 22.4742 29.7955V31.7208C22.4742 32.7836 23.3896 33.2379 24.5174 33.2379H26.5605C27.6883 33.2379 28.6036 32.7836 28.6036 31.7208V16.1967C28.6036 15.9406 28.4953 15.6961 28.3053 15.5151L17.8098 5.62656C17.011 4.87376 15.7176 4.87376 14.9208 5.62656L4.3845 15.5536C4.19449 15.7346 4.08621 15.9792 4.08621 16.2333V31.7208ZM-1.90735e-05 15.1878C-1.90735e-05 14.6776 0.214478 14.1905 0.594501 13.8285L13.4641 1.64109C15.0577 0.133552 17.6464 0.127812 19.2461 1.62958L32.0891 13.6919C32.4732 14.0538 32.6898 14.5429 32.6898 15.055V33.6461C32.6898 35.7736 30.8612 37.0886 28.6036 37.0886H22.4742C20.2166 37.0886 18.388 35.7736 18.388 33.6461V31.7208C18.388 30.658 17.4727 29.7955 16.3449 29.7955C15.2171 29.7955 14.3018 30.658 14.3018 31.7208V33.6461C14.3018 35.7736 12.4732 37.0886 10.2156 37.0886H4.08621C1.82857 37.0886 -1.90735e-05 35.7736 -1.90735e-05 33.6461V15.1878Z" fill="#EBF7FF"/>
</svg>
