<?xml version="1.0" encoding="iso-8859-1"?>
<!-- Uploaded to: SVG Repo, www.svgrepo.com, Generator: SVG Repo Mixer Tools -->
<!DOCTYPE svg PUBLIC "-//W3C//DTD SVG 1.1//EN" "http://www.w3.org/Graphics/SVG/1.1/DTD/svg11.dtd">
<svg fill="#000000" version="1.1" id="Capa_1" xmlns="http://www.w3.org/2000/svg" xmlns:xlink="http://www.w3.org/1999/xlink" 
	 width="800px" height="800px" viewBox="0 0 48.446 48.445"
	 xml:space="preserve">
<g>
	<g id="Layer_28_32_">
		<g>
			<polygon points="48.446,27.855 48.446,4.35 11.757,4.35 11.757,16.22 14.441,16.22 14.441,7.034 45.762,7.034 45.762,24.394 
				31.137,24.394 31.137,30.617 40.823,30.617 40.823,29.367 33.165,29.367 33.165,27.855 			"/>
			<polygon points="17.904,34.635 17.177,34.635 14.411,34.635 14.411,35.795 21.149,35.795 21.149,36.301 14.411,36.301 
				14.411,37.348 33.971,37.348 33.971,34.82 30.297,34.635 			"/>
			<path d="M0,44.096h13.537V23.787H0V44.096z M7.055,43.076c-0.361,0-0.653-0.295-0.653-0.652c0-0.361,0.292-0.652,0.653-0.652
				c0.36,0,0.652,0.291,0.652,0.652C7.707,42.783,7.415,43.076,7.055,43.076z M1.957,25.744h9.625l-0.001,14.982H1.957V25.744z"/>
			<polygon points="6.696,18.938 28.389,18.938 28.389,31.943 14.411,31.943 14.411,33.854 30.301,33.854 30.301,17.029 
				4.785,17.029 4.785,22.919 6.696,22.919 			"/>
		</g>
	</g>
</g>
</svg>