<?xml version="1.0" encoding="UTF-8" standalone="no"?>
<!-- Created with Inkscape (http://www.inkscape.org/) -->

<svg
   width="40.937111mm"
   height="46.337418mm"
   viewBox="0 0 40.937111 46.337418"
   version="1.1"
   id="svg1"
   xml:space="preserve"
   xmlns:inkscape="http://www.inkscape.org/namespaces/inkscape"
   xmlns:sodipodi="http://sodipodi.sourceforge.net/DTD/sodipodi-0.dtd"
   xmlns="http://www.w3.org/2000/svg"
   xmlns:svg="http://www.w3.org/2000/svg"><sodipodi:namedview
     id="namedview1"
     pagecolor="#ffffff"
     bordercolor="#000000"
     borderopacity="0.25"
     inkscape:showpageshadow="2"
     inkscape:pageopacity="0.0"
     inkscape:pagecheckerboard="0"
     inkscape:deskcolor="#d1d1d1"
     inkscape:document-units="mm" /><defs
     id="defs1"><clipPath
       id="clip0_429_11071-1-5"><rect
         width="24"
         height="24"
         fill="#ffffff"
         id="rect2-7-5"
         x="0"
         y="0" /></clipPath></defs><g
     inkscape:label="Camada 1"
     inkscape:groupmode="layer"
     id="layer1"
     transform="translate(-12.85632,-182.42289)"><g
       id="g6-8-8"
       transform="translate(-110.91323,54.632698)"
       style="stroke-width:1.32292;stroke-dasharray:none"><rect
         style="display:inline;fill:#f9f9f9;fill-opacity:1;stroke:#000000;stroke-width:1.85208;stroke-linejoin:round;stroke-dasharray:none;stroke-opacity:1;paint-order:markers stroke fill"
         id="rect5-8-0"
         width="19.335522"
         height="25.700689"
         x="135.19017"
         y="141.07053"
         rx="0"
         ry="0" /><rect
         style="fill:#000000;fill-opacity:1;stroke:#000000;stroke-width:0.529167;stroke-linejoin:round;stroke-dasharray:none;stroke-opacity:1;paint-order:markers stroke fill"
         id="rect6-5-4"
         width="15.111472"
         height="0.48434225"
         x="137.66774"
         y="143.62357" /><rect
         style="fill:#000000;fill-opacity:1;stroke:#000000;stroke-width:0.529167;stroke-linejoin:round;stroke-dasharray:none;stroke-opacity:1;paint-order:markers stroke fill"
         id="rect6-9-5-6"
         width="15.111472"
         height="0.48434225"
         x="137.66774"
         y="145.18539" /><rect
         style="fill:#000000;fill-opacity:1;stroke:#000000;stroke-width:0.529167;stroke-linejoin:round;stroke-dasharray:none;stroke-opacity:1;paint-order:markers stroke fill"
         id="rect6-9-8-5-6"
         width="15.111472"
         height="0.48434225"
         x="137.66774"
         y="146.70927" /><rect
         style="fill:#000000;fill-opacity:1;stroke:#000000;stroke-width:0.529167;stroke-linejoin:round;stroke-dasharray:none;stroke-opacity:1;paint-order:markers stroke fill"
         id="rect6-9-8-7-9-9"
         width="15.111472"
         height="0.48434225"
         x="137.66774"
         y="148.43219" /><rect
         style="fill:#000000;fill-opacity:1;stroke:#000000;stroke-width:0.529167;stroke-linejoin:round;stroke-dasharray:none;stroke-opacity:1;paint-order:markers stroke fill"
         id="rect6-9-8-7-4-7-3"
         width="15.111472"
         height="0.48434225"
         x="137.66774"
         y="150.3103" /><rect
         style="fill:#000000;fill-opacity:1;stroke:#000000;stroke-width:0.529167;stroke-linejoin:round;stroke-dasharray:none;stroke-opacity:1;paint-order:markers stroke fill"
         id="rect6-9-8-7-4-1-81-2"
         width="15.111472"
         height="0.48434225"
         x="137.66774"
         y="152.10408" /><rect
         style="fill:#000000;fill-opacity:1;stroke:#000000;stroke-width:0.529167;stroke-linejoin:round;stroke-dasharray:none;stroke-opacity:1;paint-order:markers stroke fill"
         id="rect6-9-8-7-4-1-8-5-1"
         width="15.111472"
         height="0.48434225"
         x="137.66774"
         y="154.02074" /><rect
         style="fill:#000000;fill-opacity:1;stroke:#000000;stroke-width:0.529167;stroke-linejoin:round;stroke-dasharray:none;stroke-opacity:1;paint-order:markers stroke fill"
         id="rect6-9-8-7-4-1-8-2-3-2"
         width="15.111472"
         height="0.48434225"
         x="137.66774"
         y="156.24777" /><rect
         style="fill:#000000;fill-opacity:1;stroke:#000000;stroke-width:0.529167;stroke-linejoin:round;stroke-dasharray:none;stroke-opacity:1;paint-order:markers stroke fill"
         id="rect6-9-8-7-4-1-8-2-0-1-3"
         width="15.111472"
         height="0.48434225"
         x="137.66774"
         y="158.0666" /><rect
         style="fill:#000000;fill-opacity:1;stroke:#000000;stroke-width:0.529167;stroke-linejoin:round;stroke-dasharray:none;stroke-opacity:1;paint-order:markers stroke fill"
         id="rect6-9-8-7-4-1-8-2-0-2-5-5"
         width="15.111472"
         height="0.48434225"
         x="137.66774"
         y="160.03531" /><rect
         style="fill:#000000;fill-opacity:1;stroke:#000000;stroke-width:0.529167;stroke-linejoin:round;stroke-dasharray:none;stroke-opacity:1;paint-order:markers stroke fill"
         id="rect6-9-8-7-4-1-8-2-0-2-3-4-2"
         width="15.111472"
         height="0.48434225"
         x="137.66774"
         y="161.89993" /><rect
         style="fill:#000000;fill-opacity:1;stroke:#000000;stroke-width:0.529167;stroke-linejoin:round;stroke-dasharray:none;stroke-opacity:1;paint-order:markers stroke fill"
         id="rect6-9-8-7-4-1-8-2-0-2-3-7-8-3"
         width="15.111472"
         height="0.48434225"
         x="137.66774"
         y="163.60405" /></g><g
       clip-path="url(#clip0_429_11071-1-5)"
       id="g2-8-8"
       style="display:inline;fill:none;stroke:#000000;stroke-width:0.726317;stroke-dasharray:none;stroke-opacity:1"
       transform="matrix(-2.1112087,0.56569667,0.56569667,2.1112087,51.871129,176.16931)"><path
         d="m 12,2.99982 c 4.9706,0 9,4.02943 9,8.99998 0,4.9706 -4.0294,9 -9,9 -4.97056,0 -9,-4.0294 -9,-9 C 3,9.17255 4.30367,6.64977 6.34267,4.99982"
         stroke="#292929"
         stroke-width="2.5"
         stroke-linecap="round"
         stroke-linejoin="round"
         id="path1-4-1-1"
         style="stroke:#000000;stroke-width:0.726317;stroke-dasharray:none;stroke-opacity:1" /><path
         d="m 3,4.49982 h 4 v 4"
         stroke="#292929"
         stroke-width="2.5"
         stroke-linecap="round"
         stroke-linejoin="round"
         id="path2-4-9"
         style="stroke:#000000;stroke-width:0.726317;stroke-dasharray:none;stroke-opacity:1" /></g><g
       style="fill:#000000;fill-opacity:1;stroke:#000000;stroke-width:1.28118;stroke-dasharray:none;stroke-opacity:1"
       id="g3-5-7"
       transform="matrix(0.6195466,0,0,0.6195466,26.478751,180.65124)"><path
         d="m 11.2691,4.41115 c 0.2315,-0.51938 0.3473,-0.77907 0.5085,-0.85904 0.14,-0.06948 0.3044,-0.06948 0.4444,0 0.1612,0.07997 0.277,0.33966 0.5085,0.85904 l 1.844,4.13693 c 0.0685,0.15354 0.1027,0.23031 0.1557,0.2891 0.0468,0.05202 0.1041,0.09363 0.168,0.12211 0.0723,0.0322 0.1559,0.04102 0.3231,0.05866 l 4.5043,0.47541 c 0.5655,0.05968 0.8482,0.08952 0.9741,0.21811 0.1093,0.11169 0.1601,0.26809 0.1373,0.42273 -0.0262,0.178 -0.2374,0.3683 -0.6598,0.749 l -3.3647,3.0322 c -0.1248,0.1125 -0.1873,0.1688 -0.2268,0.2373 -0.035,0.0607 -0.0569,0.128 -0.0642,0.1976 -0.0083,0.0787 0.0091,0.1609 0.044,0.3254 l 0.9398,4.4307 c 0.118,0.5563 0.177,0.8344 0.0936,0.9938 -0.0725,0.1386 -0.2055,0.2352 -0.3596,0.2613 -0.1774,0.03 -0.4237,-0.112 -0.9163,-0.3961 l -3.9235,-2.263 c -0.1456,-0.084 -0.2184,-0.1259 -0.2958,-0.1424 -0.0685,-0.0145 -0.1393,-0.0145 -0.2078,0 -0.0774,0.0165 -0.1502,0.0584 -0.2958,0.1424 l -3.92348,2.263 C 7.18404,20.2495 6.93775,20.3915 6.76034,20.3615 6.60623,20.3354 6.47319,20.2388 6.40075,20.1002 6.31736,19.9408 6.37635,19.6627 6.49434,19.1064 L 7.4341,14.6757 C 7.46898,14.5112 7.48642,14.429 7.47814,14.3503 7.47081,14.2807 7.44894,14.2134 7.41394,14.1527 7.37439,14.0842 7.31195,14.0279 7.18708,13.9154 L 3.82246,10.8832 C 3.40005,10.5025 3.18884,10.3122 3.16258,10.1342 3.13978,9.97956 3.19059,9.82316 3.29993,9.71147 3.42581,9.58288 3.70856,9.55304 4.27406,9.49336 L 8.77835,9.01795 C 8.94553,9.00031 9.02911,8.99149 9.10139,8.95929 9.16534,8.93081 9.2226,8.8892 9.26946,8.83718 9.32241,8.77839 9.35663,8.70162 9.42508,8.54808 Z"
         stroke="#000000"
         stroke-width="2"
         stroke-linecap="round"
         stroke-linejoin="round"
         id="path1-22-3"
         style="fill:#000000;fill-opacity:1;stroke:#000000;stroke-width:1.28118;stroke-dasharray:none;stroke-opacity:1" /></g><g
       id="g7-3-8"
       transform="translate(-113.10892,53.985564)"
       style="fill:#000000;fill-opacity:1;stroke:none;stroke-opacity:1"><rect
         style="fill:#ffffff;fill-opacity:1;stroke:none;stroke-width:0.915733;stroke-linejoin:round;stroke-dasharray:none;stroke-opacity:1;paint-order:markers stroke fill"
         id="rect7-5-1"
         width="22.731787"
         height="8.0259161"
         x="136.1324"
         y="149.64317" /><g
         id="g5-8-1"
         transform="matrix(1.0106626,0,0,1.0106626,130.7731,130.7837)"
         style="fill:#000000;fill-opacity:1;stroke:none;stroke-width:0.539883;stroke-dasharray:none;stroke-opacity:1"><path
           d="M 28.2,18.3 C 26.9,16.9 25,16 23,16 H 9.3 c -3.9,0 -7.1,3 -7.2,6.8 -0.1,1.9 0.6,3.7 2,5.1 1.2,1.3 3,2.1 4.9,2.1 3,0 5.6,-1.9 6.6,-4.7 0.1,-0.4 0.7,-0.4 0.8,0 1.1,3.2 4.3,5.1 7.7,4.6 3,-0.5 5.5,-3 5.9,-6.1 0.2,-2 -0.4,-4 -1.8,-5.5 z M 11,24 h -1 v 1 C 10,25.6 9.6,26 9,26 8.4,26 8,25.6 8,25 V 24 H 7 C 6.4,24 6,23.6 6,23 6,22.4 6.4,22 7,22 h 1 v -1 c 0,-0.6 0.4,-1 1,-1 0.6,0 1,0.4 1,1 v 1 h 1 c 0.6,0 1,0.4 1,1 0,0.6 -0.4,1 -1,1 z m 11.1,-3.4 c 0,-0.1 0.1,-0.2 0.2,-0.3 0.4,-0.4 1,-0.4 1.4,0 0.1,0.1 0.2,0.2 0.2,0.3 0,0.1 0.1,0.3 0.1,0.4 0,0.1 0,0.3 -0.1,0.4 -0.1,0.1 -0.1,0.2 -0.2,0.3 C 23.5,21.9 23.3,22 23,22 22.7,22 22.5,21.9 22.3,21.7 22.2,21.6 22.1,21.5 22.1,21.4 22.1,21.3 22,21.1 22,21 c 0,-0.1 0,-0.3 0.1,-0.4 z m -0.4,3.1 C 21.5,23.9 21.3,24 21,24 20.7,24 20.5,23.9 20.3,23.7 20.2,23.6 20.1,23.5 20.1,23.4 20.1,23.3 20,23.1 20,23 c 0,-0.1 0,-0.3 0.1,-0.4 0,-0.1 0.1,-0.2 0.2,-0.3 0.2,-0.2 0.6,-0.3 0.9,-0.3 0.1,0 0.1,0 0.2,0.1 0.1,0 0.1,0 0.2,0.1 0.1,0 0.1,0.1 0.2,0.1 0.1,0.1 0.2,0.2 0.2,0.3 0,0.1 0.1,0.3 0.1,0.4 0,0.1 0,0.3 -0.1,0.4 -0.1,0.1 -0.2,0.2 -0.3,0.3 z m 2.2,1.7 c 0,0.1 -0.1,0.2 -0.2,0.3 C 23.5,25.9 23.3,26 23,26 22.7,26 22.5,25.9 22.3,25.7 22.2,25.6 22.1,25.5 22.1,25.4 22.1,25.3 22,25.1 22,25 c 0,-0.1 0,-0.3 0.1,-0.4 0,-0.1 0.1,-0.2 0.2,-0.3 0.2,-0.2 0.6,-0.3 0.9,-0.3 0.1,0 0.1,0 0.2,0.1 0.1,0 0.1,0 0.2,0.1 0.1,0 0.1,0.1 0.2,0.1 0.1,0.1 0.2,0.2 0.2,0.3 0,0.1 0.1,0.3 0.1,0.4 0,0.1 -0.1,0.3 -0.2,0.4 z m 2,-2 c 0,0.1 -0.1,0.2 -0.2,0.3 C 25.5,23.9 25.3,24 25,24 24.7,24 24.5,23.9 24.3,23.7 24.2,23.6 24.1,23.5 24.1,23.4 24.1,23.3 24,23.1 24,23 c 0,-0.1 0,-0.3 0.1,-0.4 0,-0.1 0.1,-0.2 0.2,-0.3 0.2,-0.2 0.6,-0.3 0.9,-0.3 0.1,0 0.1,0 0.2,0.1 0.1,0 0.1,0 0.2,0.1 0,0 0.1,0.1 0.2,0.1 0.1,0.1 0.2,0.2 0.2,0.3 0,0.1 0.1,0.3 0.1,0.4 0,0.1 -0.1,0.3 -0.2,0.4 z"
           id="path2-6-1-0"
           style="fill:#000000;fill-opacity:1;stroke:none;stroke-width:0.539883;stroke-dasharray:none;stroke-opacity:1" /></g></g></g><style
     type="text/css"
     id="style1">
	.st0{fill:none;stroke:#000000;stroke-width:2;stroke-linecap:round;stroke-linejoin:round;stroke-miterlimit:10;}
</style></svg>
