<svg width="79" height="79" viewBox="0 0 79 79" fill="none" xmlns="http://www.w3.org/2000/svg">
<path d="M43.6216 2.41472C42.0764 0.869057 39.9805 0.00046677 37.7949 0H8.24137C6.05562 0 3.9594 0.868284 2.41384 2.41384C0.868284 3.9594 0 6.05562 0 8.24137V37.7949C0.00046677 39.9805 0.869057 42.0764 2.41472 43.6216L35.3802 76.587C36.9257 78.1321 39.0215 79 41.2068 79C43.3922 79 45.488 78.1321 47.0335 76.587L76.587 47.0335C78.1321 45.488 79 43.3922 79 41.2068C79 39.0215 78.1321 36.9257 76.587 35.3802L43.6216 2.41472ZM20.6034 28.8448C18.4171 28.8442 16.3206 27.9752 14.775 26.4289C13.2295 24.8826 12.3615 22.7856 12.3621 20.5993C12.3626 18.413 13.2316 16.3165 14.778 14.7709C16.3243 13.2254 18.4212 12.3574 20.6075 12.3579C22.7938 12.3585 24.8904 13.2275 26.4359 14.7738C27.9815 16.3202 28.8495 18.4171 28.8489 20.6034C28.8484 22.7897 27.9793 24.8862 26.433 26.4318C24.8867 27.9774 22.7897 28.8453 20.6034 28.8448Z" fill="#353636"/>
</svg>
