<svg width="82" height="63" viewBox="0 0 82 63" fill="none" xmlns="http://www.w3.org/2000/svg">
<path d="M43.2457 41.7966C41.8763 43.167 41.8752 45.3982 43.2457 46.7744C43.9093 47.4381 44.792 47.8039 45.7322 47.8039C46.6724 47.8039 47.554 47.4392 48.2212 46.7744L61.0165 33.9825C61.3342 33.6577 61.5862 33.2792 61.775 32.83C61.9486 32.3997 62.0376 31.9542 62.0376 31.5005C62.0376 31.0467 61.9496 30.6012 61.7632 30.1393C61.5815 29.7114 61.3271 29.3327 61.0057 29.0126L48.2209 16.2278C47.5573 15.5631 46.6733 15.1973 45.732 15.1973C44.7905 15.1973 43.9065 15.5641 43.2454 16.2278C41.8737 17.5996 41.8737 19.8318 43.2454 21.2033L50.0242 27.9821H3.5171C1.57803 27.9823 0 29.5616 0 31.4996C0 33.4376 1.57803 35.0167 3.5171 35.0167H50.0242L43.2457 41.7966Z" fill="#353636"/>
<path d="M69.6111 0H30.0584C23.5915 0 18.3321 5.25938 18.3321 11.7239L18.3392 24.1606H19.0426C19.6862 25.02 20.7109 25.5804 21.8516 25.5804C23.0263 25.5804 24.0569 25.0189 24.6934 24.1431L25.3698 24.1336V11.7237C25.3698 9.14097 27.4731 7.03765 30.0582 7.03765H69.6111C72.195 7.03765 74.2994 9.14097 74.2994 11.7237V51.2774C74.2994 53.8625 72.195 55.9634 69.6111 55.9634H30.0584C27.4733 55.9634 25.37 53.8625 25.37 51.2774L25.3642 38.8349H24.6585C24.0148 37.9768 22.9901 37.4187 21.8505 37.4187C20.7027 37.4187 19.6722 37.985 19.0299 38.8549L18.3311 38.8655V51.2774C18.3311 57.7408 23.5904 63 30.0573 63H69.6111C76.0766 63 81.3349 57.7406 81.3349 51.2774V11.7237C81.3349 5.25916 76.0766 0 69.6111 0Z" fill="#353636"/>
</svg>
