<svg width="73" height="82" viewBox="0 0 73 82" fill="none" xmlns="http://www.w3.org/2000/svg">
<path fill-rule="evenodd" clip-rule="evenodd" d="M51.4034 24.7059C51.4034 15.678 44.7192 8.33616 36.5 8.33616C28.2808 8.33616 21.5966 15.678 21.5966 24.7059C21.5966 33.7338 28.2808 41.0756 36.5 41.0756C44.7192 41.0756 51.4034 33.7338 51.4034 24.7059ZM65.502 81.9999H58.8551C56.7984 81.9999 55.1293 80.1665 55.1293 77.9074C55.1293 75.6484 56.7984 73.815 58.8551 73.815H60.4534C63.0317 73.815 64.9357 70.9625 63.9595 68.3393C59.4475 56.2093 48.8512 49.2604 36.5 49.2604C24.1488 49.2604 13.5525 56.2093 9.04049 68.3393C8.06432 70.9625 9.96829 73.815 12.5466 73.815H14.1449C16.2016 73.815 17.8707 75.6484 17.8707 77.9074C17.8707 80.1665 16.2016 81.9999 14.1449 81.9999H7.49798C2.84067 81.9999 -0.825563 77.3222 0.161786 72.3253C2.8742 58.5788 11.3431 48.4337 22.4983 43.8297C17.4088 39.3321 14.1449 32.4406 14.1449 24.7059C14.1449 10.1737 25.6355 -1.40794 39.1789 0.323154C48.9928 1.57544 57.1225 10.1653 58.5942 20.8997C59.861 30.1527 56.4146 38.6036 50.5017 43.8297C61.6569 48.4337 70.1258 58.5788 72.8382 72.3253C73.8256 77.3222 70.1593 81.9999 65.502 81.9999ZM47.6776 77.9074C47.6776 80.1665 46.0084 81.9999 43.9517 81.9999H29.0483C26.9916 81.9999 25.3224 80.1665 25.3224 77.9074C25.3224 75.6484 26.9916 73.815 29.0483 73.815H43.9517C46.0084 73.815 47.6776 75.6484 47.6776 77.9074Z" fill="#353636"/>
</svg>
