<svg width="558" height="451" viewBox="0 0 558 451" fill="none" xmlns="http://www.w3.org/2000/svg">
<g clip-path="url(#clip0_1539_63)">
<path d="M296.111 1.12006C241.834 0.471335 138.184 47.5813 123.546 50.8208C107.554 54.3598 127.79 92.399 148.291 101.021C149.821 101.664 156.977 103.283 155.49 103.971C148.924 107.006 140.958 117.273 137.114 122.274C129.037 132.78 129.479 134.916 136.422 139.494C143.646 144.258 154.375 152.076 164.701 150.641C164.982 150.602 191.597 172.174 166.839 173.445C114.066 143.067 81.7561 121.774 26.4661 82.6393C-11.0711 144.627 -0.98472 187.206 42.8378 208.959C47.1188 211.084 0.0365974 213.143 0.0071976 214.714C-0.594886 246.881 36.7095 274.601 61.9133 274.837C64.8243 274.865 29.657 290.349 31.4251 292.651C57.8826 327.112 136.928 340.983 178.568 327.301C179.274 327.069 178.048 327.312 180.081 345.774C180.541 349.948 153.341 350.459 128.89 349.924C110.637 349.524 77.0663 337.613 61.4622 336.674C46.53 335.776 49.2443 345.793 49.3113 346.042C50.55 350.654 53.5483 354.558 57.972 357.85C58.6172 358.331 18.752 348.674 17.9132 348.627C1.35557 347.686 3.16303 368.795 5.45647 373.957C8.22579 380.19 12.5735 384.558 18.0983 389.626C33.1113 403.397 75.484 429.58 115.602 417.317C116.056 417.178 111.64 421.583 111.609 422.066C110.254 443.036 164.886 435.367 191.823 397.731C192.248 397.137 191.393 396.77 191.896 397.272C246.043 451.46 257.718 426.37 283.531 393.95C298.103 393.95 314.356 407.029 333.454 412.679C341.618 415.094 350.531 418.735 357.977 413.966C370.521 405.933 400.352 387.17 384.32 368.769C383.714 368.072 362.43 340.604 365.189 338.719C367.274 337.294 368.36 323.836 368.36 323.836C457.827 371.786 525.875 304.441 525.875 304.441L455.585 291.288C499.427 308.297 557.39 245.363 558 198.627L507.37 194.03C562.822 162.188 535.847 103.938 521.712 95.3012C521.712 95.3012 490.309 107.561 448.049 129.034C441.235 135.815 464.505 147.367 462.326 133.709C460.712 123.596 458.436 113.908 455.532 104.699C433.483 34.787 375.241 -7.54975 296.111 1.12006Z" fill="#03A9F5"/>
<path d="M270.686 136.381C314.289 148.448 371.852 222.461 361.769 276.683C329.505 450.188 165.049 348.26 195.682 208.978C196.352 205.932 181.026 172.344 181.905 169.296C182.248 168.103 183.073 166.407 184.448 164.446C192.235 153.336 215.247 121.039 270.686 136.381Z" fill="#FFD13E"/>
<path d="M388.303 236.638C380.498 253.781 376.328 263.363 331.657 274.439C292.139 284.237 214.386 271.808 188.92 199.62C176.632 164.789 210.081 167.666 253.875 167.283C299.977 166.881 405.265 199.384 388.303 236.638Z" fill="#0F261D"/>
<path d="M373.644 141.181C361.874 124.334 399.064 157.184 413.659 171.686C428.253 186.187 428.253 210.483 413.659 224.984C399.064 239.486 373.751 232.117 359.156 217.615C349.674 208.194 327.928 184.232 340.567 182.834C365.647 180.061 378.888 148.686 373.644 141.181Z" fill="#292B2A"/>
<path d="M398.308 230.554C392.204 238.605 384.375 227.898 371.23 227.898C358.084 227.898 347.428 219.726 347.428 209.646C347.428 199.566 358.084 191.394 371.23 191.394C384.375 191.394 413.486 210.534 398.308 230.554Z" fill="#FF5555" stroke="#D71313" stroke-width="5" stroke-linecap="round"/>
<path d="M422.982 184.506C444.153 186.246 426.309 227.19 390.478 247.572C368.08 260.314 327.875 200.162 343.557 179.187C349.559 176.339 369.217 233.89 393.563 227.887C395.072 227.514 396.421 228.119 397.953 227.273C411.082 223.975 419.629 210.267 421.14 199.365C422.395 190.314 416.83 183.348 422.982 184.506Z" fill="#656661"/>
<path d="M487.884 160.393C487.661 190.586 479.117 235.179 448.445 235.179C437.404 235.179 448.493 194.849 431.177 191.406C396.333 184.476 375.404 174.223 374.073 159.915C373.43 153.01 371.748 146.414 369.735 140.277C360.317 111.571 394.6 85.6074 425.272 85.6074C455.945 85.6074 488.127 127.292 487.884 160.393Z" fill="#656661"/>
<path d="M322.504 392.745C311.998 404.195 304.054 411.828 298.031 418.063C284.828 431.729 281.752 441.652 271.431 448.577C264.941 452.932 248.601 451.45 246.917 443.851C228.591 361.177 353.446 359.024 322.504 392.745Z" fill="#656661"/>
<path d="M324.26 391.762C316.087 400.669 301.111 415.348 296.425 420.198C286.155 430.828 279.795 443.518 271.766 448.905C266.718 452.292 254.007 451.14 252.697 445.228C238.442 380.916 348.329 365.531 324.26 391.762Z" fill="black"/>
<path d="M424.968 386.84C423.743 388.601 420.092 391.873 418.458 392.985C405.838 401.578 403.349 406.776 397.811 411.795C383.267 424.976 383.291 430.676 373.041 437.705C365.453 442.907 352.569 442.116 350.722 434.554C336.341 375.681 403.099 358.528 419.294 371.969C423.333 375.321 429.388 380.486 424.968 386.84Z" fill="#656661"/>
<path d="M425.247 386.504C424.345 387.801 411.889 398.129 410.793 399.085C402.747 406.101 400.242 409.547 396.162 413.245C385.448 422.955 380.923 433.152 372.335 438.33C366.529 441.83 357.986 439.034 356.625 433.464C346.031 390.095 409.137 365.646 421.068 375.548C424.043 378.018 428.503 381.822 425.247 386.504Z" fill="black"/>
<path d="M348.851 178.071L355.357 177.134C354.735 177.409 352.334 190.257 354.576 192.96C357.526 199.398 358.644 210.42 364.482 218.407C372.597 229.51 386.52 241.914 400.322 241.947C267.701 326.561 93.8907 137.919 280.411 182.016C301.279 186.95 348.851 178.071 348.851 178.071Z" fill="white"/>
<path d="M298.15 199.576C328.822 199.576 353.687 175.099 353.687 144.906C353.687 114.713 328.822 90.2363 298.15 90.2363C267.477 90.2363 242.612 114.713 242.612 144.906C242.612 175.099 267.477 199.576 298.15 199.576Z" fill="white"/>
<path d="M298.406 179.849C317.777 179.849 333.481 164.39 333.481 145.322C333.481 126.253 317.777 110.795 298.406 110.795C279.035 110.795 263.331 126.253 263.331 145.322C263.331 164.39 279.035 179.849 298.406 179.849Z" fill="black"/>
<path d="M271.18 145.915C280.276 145.915 287.65 138.656 287.65 129.702C287.65 120.748 280.276 113.489 271.18 113.489C262.084 113.489 254.71 120.748 254.71 129.702C254.71 138.656 262.084 145.915 271.18 145.915Z" fill="white"/>
<path d="M435.031 87.9146C416.023 77.688 380.473 114.668 360.693 86.6974C351.193 45.1118 242.066 25.7979 202.804 22.0728C413.559 -55.8104 459.536 101.099 435.031 87.9146Z" fill="#00D985"/>
<path d="M343.722 110.69C347.911 115.398 352.535 127.515 348.469 122.702C303.39 69.3389 251.853 101.154 244.511 131.534C243.034 137.644 229.728 113.452 233.01 108.081C234.906 104.979 239.864 103.681 243.222 101.16C266.082 84.005 316.516 80.1165 343.722 110.69Z" fill="#0F261D"/>
</g>
<defs>
<clipPath id="clip0_1539_63">
<rect width="558" height="451" fill="white"/>
</clipPath>
</defs>
</svg>
