<svg width="607" height="490" viewBox="0 0 607 490" fill="none" xmlns="http://www.w3.org/2000/svg">
<g clip-path="url(#clip0_1006_24)">
<path d="M322.113 1.21691C263.07 0.512093 150.319 51.6958 134.395 55.2155C116.998 59.0605 139.012 100.389 161.313 109.756C162.978 110.456 170.762 112.215 169.144 112.962C162.002 116.259 153.337 127.414 149.154 132.848C140.368 144.262 140.849 146.583 148.402 151.557C156.261 156.732 167.932 165.226 179.164 163.668C179.469 163.625 208.422 187.062 181.489 188.444C124.083 155.438 88.9355 132.305 28.7902 89.7855C-12.0433 157.134 -1.07119 203.395 46.5996 227.029C51.2565 229.338 0.0398112 231.575 0.00782965 233.281C-0.647125 268.23 39.933 298.347 67.3501 298.604C70.5167 298.634 32.2613 315.456 34.1846 317.958C62.9655 355.399 148.952 370.47 194.249 355.604C195.017 355.352 193.683 355.617 195.895 375.675C196.395 380.209 166.807 380.765 140.208 380.183C120.352 379.749 83.8338 366.808 66.8594 365.788C50.616 364.812 53.5686 375.695 53.6415 375.966C54.989 380.976 58.2505 385.219 63.0628 388.795C63.7646 389.317 20.3986 378.826 19.4862 378.774C1.47461 377.752 3.44079 400.687 5.93563 406.295C8.94812 413.067 13.6776 417.813 19.6876 423.319C36.019 438.281 82.1125 466.728 125.753 453.404C126.248 453.253 121.444 458.04 121.41 458.564C119.935 481.347 179.365 473.015 208.667 432.125C209.13 431.48 208.2 431.08 208.747 431.626C267.648 490.5 280.349 463.241 308.429 428.016C324.28 428.017 341.961 442.227 362.736 448.365C371.617 450.989 381.312 454.945 389.413 449.764C403.058 441.036 435.508 420.651 418.069 400.658C417.409 399.901 394.256 370.058 397.257 368.009C399.525 366.462 400.707 351.839 400.707 351.839C498.031 403.936 572.054 330.768 572.054 330.768L495.591 316.477C543.284 334.956 606.337 266.581 607 215.803L551.924 210.808C612.245 176.213 582.902 112.926 567.525 103.542C567.525 103.542 533.365 116.863 487.393 140.193C479.982 147.56 505.294 160.11 502.924 145.271C501.169 134.284 498.693 123.758 495.534 113.753C471.549 37.7952 408.192 -8.20261 322.113 1.21691Z" fill="#03A9F5"/>
<path d="M294.456 148.174C341.889 161.285 404.506 241.698 393.538 300.609C358.44 489.118 179.543 378.375 212.866 227.05C213.595 223.739 196.923 187.248 197.878 183.935C198.252 182.64 199.15 180.797 200.645 178.667C209.116 166.596 234.149 131.506 294.456 148.174Z" fill="#FFD13E"/>
<path d="M422.402 257.101C413.911 275.726 409.375 286.137 360.782 298.171C317.793 308.816 233.212 295.312 205.51 216.882C192.143 179.039 228.529 182.165 276.169 181.749C326.32 181.312 440.853 216.626 422.402 257.101Z" fill="#0F261D"/>
<path d="M406.455 153.389C393.652 135.085 434.107 170.777 449.983 186.532C465.86 202.288 465.86 228.684 449.983 244.44C434.107 260.195 406.571 252.189 390.695 236.433C380.38 226.197 356.724 200.163 370.474 198.645C397.755 195.632 412.159 161.543 406.455 153.389Z" fill="#292B2A"/>
<path d="M433.285 250.491C426.645 259.239 418.128 247.605 403.828 247.605C389.529 247.605 377.937 238.727 377.937 227.775C377.937 216.823 389.529 207.945 403.828 207.945C418.128 207.945 449.796 228.74 433.285 250.491Z" fill="#FF5555" stroke="#D71313" stroke-width="5" stroke-linecap="round"/>
<path d="M460.125 200.462C483.156 202.352 463.744 246.836 424.767 268.981C400.402 282.824 356.667 217.471 373.725 194.683C380.255 191.588 401.639 254.116 428.122 247.593C429.764 247.189 431.232 247.845 432.899 246.926C447.18 243.343 456.478 228.449 458.122 216.605C459.487 206.771 453.433 199.203 460.125 200.462Z" fill="#656661"/>
<path d="M530.726 174.263C530.484 207.066 521.19 255.516 487.824 255.516C475.814 255.516 487.876 211.698 469.04 207.957C431.136 200.429 408.37 189.289 406.921 173.744C406.222 166.242 404.392 159.075 402.202 152.407C391.957 121.219 429.251 93.0103 462.617 93.0103C495.983 93.0103 530.992 138.299 530.726 174.263Z" fill="#656661"/>
<path d="M350.825 426.707C339.396 439.147 330.754 447.441 324.202 454.215C309.84 469.062 306.494 479.844 295.266 487.368C288.206 492.099 270.432 490.489 268.6 482.233C248.665 392.41 384.483 390.07 350.825 426.707Z" fill="#656661"/>
<path d="M352.734 425.64C343.844 435.317 327.552 451.265 322.456 456.534C311.284 468.084 304.365 481.871 295.631 487.724C290.139 491.404 276.313 490.152 274.887 483.729C259.38 413.856 378.917 397.14 352.734 425.64Z" fill="black"/>
<path d="M462.286 420.292C460.953 422.205 456.981 425.76 455.204 426.968C441.476 436.304 438.769 441.952 432.744 447.405C416.923 461.726 416.949 467.919 405.799 475.555C397.544 481.208 383.529 480.347 381.52 472.132C365.876 408.168 438.496 389.531 456.114 404.135C460.507 407.777 467.094 413.388 462.286 420.292Z" fill="#656661"/>
<path d="M462.589 419.926C461.608 421.336 448.059 432.557 446.866 433.595C438.113 441.218 435.389 444.963 430.95 448.98C419.296 459.53 414.373 470.609 405.031 476.234C398.715 480.038 389.422 477 387.942 470.948C376.417 423.828 445.064 397.266 458.043 408.024C461.279 410.707 466.131 414.841 462.589 419.926Z" fill="black"/>
<path d="M379.485 193.469L386.563 192.452C385.886 192.75 383.274 206.709 385.713 209.646C388.922 216.64 390.138 228.616 396.489 237.294C405.317 249.357 420.462 262.834 435.476 262.87C291.209 354.8 102.136 149.845 305.035 197.756C327.736 203.116 379.485 193.469 379.485 193.469Z" fill="white"/>
<path d="M324.332 216.834C357.698 216.834 384.746 190.241 384.746 157.437C384.746 124.633 357.698 98.0396 324.332 98.0396C290.965 98.0396 263.917 124.633 263.917 157.437C263.917 190.241 290.965 216.834 324.332 216.834Z" fill="white"/>
<path d="M324.61 195.401C345.683 195.401 362.765 178.606 362.765 157.888C362.765 137.171 345.683 120.376 324.61 120.376C303.538 120.376 286.455 137.171 286.455 157.888C286.455 178.606 303.538 195.401 324.61 195.401Z" fill="black"/>
<path d="M294.994 158.533C304.889 158.533 312.91 150.646 312.91 140.918C312.91 131.19 304.889 123.303 294.994 123.303C285.099 123.303 277.077 131.19 277.077 140.918C277.077 150.646 285.099 158.533 294.994 158.533Z" fill="white"/>
<path d="M473.232 95.5168C452.556 84.4058 413.884 124.584 392.367 94.1944C382.033 49.0126 263.323 28.0286 220.613 23.9813C449.875 -60.6367 499.89 109.842 473.232 95.5168Z" fill="#00D985"/>
<path d="M373.906 120.262C378.463 125.377 383.493 138.541 379.07 133.312C330.032 75.3348 273.969 109.901 265.982 142.908C264.376 149.547 249.901 123.263 253.472 117.427C255.534 114.057 260.927 112.647 264.581 109.908C289.448 91.2692 344.31 87.0444 373.906 120.262Z" fill="#0F261D"/>
</g>
<defs>
<clipPath id="clip0_1006_24">
<rect width="607" height="490" fill="white"/>
</clipPath>
</defs>
</svg>
