<svg width="1920" height="1081" viewBox="0 0 1920 1081" fill="none" xmlns="http://www.w3.org/2000/svg">
<path d="M1920 0H0V1080H1920V0Z" fill="#B7EAFF"/>
<mask id="mask0_2626_1141" style="mask-type:luminance" maskUnits="userSpaceOnUse" x="0" y="0" width="1920" height="1081">
<path d="M1920 0H0V1080.33H1920V0Z" fill="white"/>
</mask>
<g mask="url(#mask0_2626_1141)">
<path d="M-58.2725 313.48C30.1627 292.166 135.029 293.639 221.46 317.413C307.891 341.187 374.373 386.844 398.795 439.203C439.326 432.343 487.257 445.067 503.619 467.032C545.068 417.24 646.202 385.448 743.289 391.688C840.376 397.928 926.158 441.74 946.579 495.508C962.081 474.178 1015.89 465.397 1049.27 478.747C1037.58 446.238 1065.42 410.403 1115.77 393.153C1166.12 375.902 1235.48 378.436 1281.44 399.207C1278.55 350.709 1342.32 303.541 1426.15 292.161C1509.99 280.781 1604.96 306.402 1641.69 350.307C1682.86 329.999 1752.56 331.853 1790.15 354.256C1773.06 326.95 1787.01 294.326 1824.32 274.388C1861.63 254.449 1920.25 248.287 1989.07 258.144C1973.55 391.117 1958.03 524.093 1942.51 657.067C1618.64 697.298 1293.85 737.614 963.809 756.103C633.768 774.596 296.647 770.813 -24.3077 723.749C-33.8463 593.081 -43.3848 462.411 -58.2725 313.48Z" fill="#03A9F5"/>
<path opacity="0.9882" d="M-58.2725 433.68C33.5265 423.946 133.72 451.622 177.196 498.72C220.673 545.818 203.942 608.555 137.871 646.164C185.153 646.326 230.062 666.329 241.762 692.441C299.193 648.089 407.696 627.668 500.171 643.808C592.646 659.949 662.48 711.498 666.489 766.573C696.944 751.641 747.947 753.149 775.53 769.799C788.904 739.925 830.81 714.743 882.443 705.551C934.076 696.36 993.68 703.471 1034.51 723.697C1028.24 668.652 1096.26 613.736 1189.36 598.67C1282.46 583.604 1390.95 609.953 1455.5 659.836C1504.58 638.366 1577.92 637.087 1629.22 656.807C1596.87 619.451 1603.73 572.068 1646.39 538.241C1689.04 504.413 1765.65 485.6 1838.08 491.164C1828.85 465.841 1844.15 438.066 1877.11 420.292C1910.08 402.519 1959.58 395.352 2003.43 402.007L2005 405.09L1974.56 1136.04L-18.0984 1127.94L-58.2725 433.68Z" fill="#FFD13E"/>
<path d="M-170.93 747.136C-90.1789 725.793 13.0173 735.09 77.8902 769.553C142.763 804.015 165.181 861.452 131.946 908.038C181.467 910.693 222.731 937.773 219.84 965.715C259.764 930.87 341.783 913.256 412.815 924.271C483.847 935.286 538.249 974.055 540.81 1015.49C569.295 1001.22 618.267 1002.8 662.776 1014.59C689.99 967.763 775.603 933.847 863.12 935.217C950.638 936.587 1032.77 973.128 1055.32 1020.73C1096.3 980.921 1202.94 968.895 1280.53 997.375C1303.76 955.294 1360.41 919.442 1431.96 901.528C1503.52 883.616 1588.77 883.944 1659.88 902.409C1666.57 870.125 1723.84 843.927 1781.38 846.835C1745.64 805.076 1760.12 751.362 1816.27 717.446C1872.41 683.53 1966.61 671.59 2048.09 686.762C2056.22 827.177 2044.4 967.96 2012.78 1107.32C1313.18 1120.41 613.578 1133.51 -86.024 1146.6C-89.7258 1010.46 -100.247 874.373 -170.93 747.136Z" fill="white"/>
</g>
<path d="M822.299 917.446C819.103 933.532 818.958 950.497 824.597 965.952C829.016 978.07 837.308 989.155 849.295 996.177C855.615 999.879 864.017 998.51 868.634 992.956C874.976 985.327 878.982 975.822 880.814 966.155C883.366 952.682 882.068 938.809 879.858 925.278C878.659 917.937 875.69 896.221 858.928 888.75C858.356 888.496 857.773 888.266 857.179 888.057C848.035 884.881 837.914 888.923 832.607 897.02C828.039 903.995 823.611 910.852 822.299 917.446Z" fill="#3E2336"/>
<path d="M721.114 844.056C746.198 882.35 780.798 914.362 825.158 937.278C844.051 937.278 856.935 907.538 848.692 890.223C829.868 867.59 814.711 841.911 803.987 814.494C780.182 834.487 749.558 846.211 721.114 844.056Z" fill="#FE8C6D"/>
<path d="M633.675 796.948C629.623 803.764 625.578 810.901 621.237 817.169C607.792 814.715 595.077 808.017 585.079 798.698C591.829 793.487 598.982 788.802 606.455 784.697C608.15 783.766 609.917 782.848 611.839 782.654C615.613 782.276 619.071 784.738 621.752 787.421C624.433 790.105 626.87 793.227 633.675 796.948Z" fill="#1C3C70"/>
<path d="M544.309 722.932C521.659 749.054 507.661 782.556 504.807 818.081C518.565 834.162 531.151 851.244 543.523 869.101C558.053 835.695 583.179 806.988 614.364 788.161C597.476 759.643 571.485 736.607 544.309 722.932Z" fill="#FE8C6D"/>
<path d="M631.567 711.541C614.164 708.855 596.57 706.16 579.016 707.557C561.463 708.954 543.685 714.844 534.686 729.087C572.189 744.54 602.6 776.368 621.24 817.171C641.765 817.954 662.289 818.74 685.687 819.904C693.11 835.385 702.492 849.926 716.018 862.939C734.329 866.8 753.616 861.81 770.074 852.902C786.532 843.994 800.635 831.384 813.624 816.319C803.976 787.645 794.329 758.974 784.684 730.3C733.927 731.825 684.274 719.677 631.567 711.541Z" fill="#29BFFF"/>
<path d="M693.1 744.328C689.419 768.191 687.713 792.355 688.003 816.497" stroke="#1F9EF2" stroke-miterlimit="10" stroke-linecap="round" stroke-linejoin="round"/>
<path d="M649.205 743.717C677.343 759.257 708.591 769.132 740.548 772.585" stroke="#1F9EF2" stroke-miterlimit="10" stroke-linecap="round" stroke-linejoin="round"/>
<path d="M657.147 782.59C679.799 786.481 702.7 788.927 725.665 789.91" stroke="#1F9EF2" stroke-miterlimit="10" stroke-linecap="round" stroke-linejoin="round"/>
<path d="M549.449 885.704C548.707 887.845 547.25 889.705 545.421 890.931C543.707 892.103 541.65 892.731 539.478 892.588C518.91 891.331 464.859 859.478 447.804 832.197C445.49 828.454 445.347 824.026 446.862 820.085C448.061 816.972 450.263 814.173 453.261 812.229C461.718 806.801 471.973 805.202 481.602 805.487C503.769 806.144 526.025 815.427 539.651 832.197C551.793 847.081 555.821 867.964 549.449 885.704Z" fill="#3E2336"/>
<path d="M545.421 890.928C543.707 892.1 541.65 892.727 539.478 892.585C518.91 891.328 464.859 859.475 447.804 832.194C445.49 828.451 445.347 824.023 446.862 820.082C453.919 820.509 460.976 822.196 467.66 824.653C479.03 828.881 489.486 835.223 499.856 841.535C510.654 848.105 521.539 854.789 530.365 863.818C537.679 871.332 543.479 880.73 545.421 890.928Z" fill="#633952"/>
<path d="M798.341 590.576C832.095 590.105 865.791 604.531 890.689 629.212C898.551 621.627 911.728 620.326 922.474 628.815C925.648 627.662 929.019 626.49 932.335 627.139C935.651 627.788 938.707 631.014 937.88 634.289C937.393 636.223 935.755 637.619 934.208 638.879C929.26 642.907 924.312 646.935 919.363 650.964C923.402 651.465 927.414 649.844 931.483 649.86C935.553 649.879 940.296 652.831 939.597 656.84C939.126 659.563 936.426 661.225 933.995 662.534C922.852 668.534 911.709 674.536 900.649 682.04C898.83 684.931 898.313 688.42 897.664 691.772C897.015 695.124 896.106 698.613 893.745 701.08C891.385 703.547 887.134 704.519 884.538 702.304C882.764 700.792 882.227 698.317 881.792 696.028C880.751 690.534 879.708 685.041 877.917 678.343C857.472 664.081 833.543 654.852 808.815 651.695C807.731 630.781 803.103 610.054 798.341 590.576Z" fill="#FE8C6D"/>
<path d="M919.87 630.527C913.799 632.132 908.105 635.158 903.382 639.293" stroke="#E0483A" stroke-miterlimit="10" stroke-linecap="round" stroke-linejoin="round"/>
<path d="M596.17 516.548C563.046 495.29 536.25 464.304 519.995 428.461C508.159 436.2 496.323 443.939 485.348 454.955C498.44 505.762 527.517 552.323 567.422 586.387C581.229 566.095 591.75 543.571 596.17 516.548Z" fill="#FE8C6D"/>
<path d="M593.721 518.23C583.641 540.209 569.966 560.531 552.453 582.143C569.421 607.057 591.575 628.425 617.902 648.131C618.784 661.988 619.665 675.847 620.914 692.929C615.703 696.588 612.4 700.739 614.364 709.042C642.252 722.444 670.442 738.02 700.677 744.587C730.915 751.154 763.833 750.215 792.316 733.083C790.813 727.097 787.255 721.645 783.879 717.044C779.275 701.722 774.672 686.401 771.641 667.599C787.784 663.22 803.062 659.005 817.093 655.199C821.059 632.15 816.609 607.745 803.952 587.466C774.579 577.983 744.045 572.101 711.066 569.322C669.286 562.221 629.176 545.472 593.721 518.23Z" fill="#F63B50"/>
<path d="M623.62 584.957C620.142 603.715 618.68 622.849 619.271 641.917" stroke="#D42C56" stroke-miterlimit="10" stroke-linecap="round" stroke-linejoin="round"/>
<path d="M644.906 634.992C656.98 666.657 681.853 693.228 712.655 707.364" stroke="#D42C56" stroke-miterlimit="10" stroke-linecap="round" stroke-linejoin="round"/>
<path d="M745.79 627.992C750.223 640.055 756.007 651.622 762.998 662.406" stroke="#D42C56" stroke-miterlimit="10" stroke-linecap="round" stroke-linejoin="round"/>
<path d="M730.854 571.378C730.797 572.807 730.682 574.234 730.512 575.663C728.74 592.004 720.514 607.144 708.887 615.058C696.232 623.63 680.034 623.342 667.577 614.316C664.179 611.83 661.063 608.746 658.379 605.145C651.21 595.69 646.809 582.92 646.582 569.863C672.69 571.205 701.83 572.777 730.854 571.378Z" fill="#FE8C6D"/>
<path d="M730.854 571.378C730.797 572.807 730.682 574.234 730.512 575.663C710.574 593.003 684.747 603.489 658.379 605.145C651.21 595.69 646.809 582.92 646.582 569.863C672.69 571.205 701.83 572.777 730.854 571.378Z" fill="#3E2336"/>
<path d="M619.997 400.957C609.933 422.709 601.052 445.005 593.404 467.72C588.568 482.081 584.178 497.005 585.194 512.124C586.67 534.122 599.913 554.378 617.902 567.126C635.891 579.876 658.16 585.64 680.196 586.429C711.981 587.565 744.374 578.422 769.683 559.162C794.991 539.903 812.693 510.333 815.735 478.674C818.775 447.015 806.457 413.828 782.206 393.251C765.419 379.009 743.93 371.166 722.182 367.767C703.796 364.895 684.747 365.051 666.827 370.073C648.909 375.095 628.357 382.886 619.997 400.957Z" fill="#FE8C6D"/>
<path d="M801.369 527.474C784.75 501.908 781.442 468.176 792.779 439.871C778.281 433.513 767.908 418.646 766.947 402.845C759.75 408.231 752.387 413.711 743.84 416.501C735.296 419.292 725.205 418.966 718.132 413.418C711.061 407.87 708.665 396.316 714.657 389.615C704.979 399.372 691.544 405.301 677.816 405.876C672.695 406.09 667.227 405.468 663.19 402.308C659.151 399.151 657.303 392.8 660.413 388.725C650.941 398.639 636.299 403.313 622.335 400.723C609.448 425.861 598.637 452.065 590.049 478.976C583.833 473.995 579.703 466.489 578.827 458.575C577.948 450.658 580.331 442.429 584.638 436.563C575.905 430.087 571.707 418.068 574.509 407.563C577.31 397.056 586.936 388.725 599.193 386.37C591.613 382.523 589.422 371.991 592.615 364.115C595.808 356.237 602.972 350.68 610.377 346.504C634.256 333.039 664.009 330.473 690.098 339.286C688.565 332.042 692.472 324.383 698.439 320.001C704.407 315.617 712.055 314.089 719.457 314.059C734.143 314.002 748.783 319.591 759.693 329.422C770.603 339.253 777.684 353.232 780.73 368.141C802.645 369.803 822.633 384.056 833.513 403.151C844.396 422.247 846.666 445.559 842.147 467.067C837.629 488.574 826.703 508.373 812.887 525.467C809.204 525.757 805.521 526.05 801.369 527.474Z" fill="#692539"/>
<path d="M790.062 523.378C797.051 514.672 810.064 511.436 820.316 515.853C830.569 520.27 837.155 531.949 835.633 543.007C834.154 553.744 825.933 562.581 816.398 567.735C808.229 572.152 798.664 574.373 789.523 572.744C780.379 571.112 771.808 565.309 767.952 556.858" fill="#FE8C6D"/>
<path d="M714.684 501.512C714.462 493.19 724.181 486.179 736.392 485.854C748.602 485.528 758.68 492.01 758.902 500.335C759.123 508.657 749.405 515.667 737.194 515.993C724.986 516.316 714.908 509.834 714.684 501.512Z" fill="#FB6F61"/>
<path d="M707.569 480.254C708.594 473.427 713.854 468.558 719.315 469.379C724.775 470.201 728.371 476.398 727.346 483.225C726.32 490.052 721.062 494.918 715.601 494.099C710.138 493.281 706.543 487.081 707.569 480.254Z" fill="#3E2336"/>
<path d="M629.628 489.175C631.852 481.721 625.717 472.662 615.925 468.943C606.132 465.224 596.389 468.253 594.162 475.707C591.936 483.161 598.073 492.22 607.866 495.939C617.661 499.657 627.402 496.629 629.628 489.175Z" fill="#FB6F61"/>
<path d="M642.564 470.491C643.589 463.664 639.996 457.467 634.533 456.645C629.072 455.824 623.814 460.693 622.787 467.519C621.76 474.346 625.356 480.543 630.819 481.365C636.28 482.184 641.537 477.315 642.564 470.491Z" fill="#3E2336"/>
<path d="M620.898 432.001C630.282 423.282 645.374 420.094 658.02 424.158C655.635 415.935 645.533 410.263 636.386 412.013C627.237 413.766 620.501 422.658 620.898 432.001Z" fill="#692539"/>
<path d="M708.993 432.367C724.408 430.57 740.655 438.167 747.679 450.457C748.794 444.567 748.58 438.32 745.79 432.884C742.999 427.449 737.32 422.971 730.635 422.213C725.928 421.676 721.097 422.996 717.159 425.345C713.222 427.692 710.116 431.006 708.993 432.367Z" fill="#692539"/>
<path d="M654.452 481.586C654.898 476.268 659.45 471.585 664.754 470.991C670.058 470.396 675.532 473.956 677.143 479.044" stroke="#E0483A" stroke-miterlimit="10" stroke-linecap="round" stroke-linejoin="round"/>
<path d="M706 536.008C699.343 548.35 685.489 556.806 671.463 556.061C662.322 555.576 653.693 551.291 647.094 544.918C644.55 542.462 642.323 539.718 640.467 536.72C633.782 525.979 631.811 512.723 633.44 500.181C634.382 500.266 635.324 500.353 636.239 500.408C659.951 502.237 682.918 500.78 705.001 495.607C705.658 496.722 706.285 497.894 706.8 499.063C709.029 503.719 710.313 508.719 710.686 513.747C711.228 521.439 709.686 529.208 706 536.008Z" fill="#3E2336"/>
<path d="M706.8 499.069C691.432 509.982 672.005 514.952 653.294 512.926C646.724 512.241 640.924 508.24 637.526 502.585C637.098 501.843 636.668 501.128 636.241 500.414C659.953 502.243 682.921 500.786 705.004 495.613C705.658 496.728 706.285 497.9 706.8 499.069Z" fill="white"/>
<path d="M706 536.007C699.343 548.349 685.489 556.806 671.463 556.061C662.322 555.576 653.693 551.29 647.094 544.918C652.094 532.318 661.977 521.663 674.377 516.121C685.689 511.065 698.831 510.408 710.686 513.749C711.228 521.439 709.686 529.208 706 536.007Z" fill="#FA4664"/>
<path d="M520.507 439.597C523.472 433.306 526.479 426.857 527.153 419.935C527.824 413.012 525.712 405.404 520.386 401.576C517.932 389.957 509.383 379.805 498.35 375.41C494.921 374.044 491.066 373.214 487.555 374.351C484.044 375.487 481.158 379.126 481.213 382.352C466.737 391.827 457.177 408.22 455.617 426.49C454.976 434.01 457.966 441.412 463.61 446.421C471.801 453.691 481.194 459.606 491.301 463.824C500.951 455.4 515.241 450.767 520.507 439.597Z" fill="#FE8C6D"/>
<path d="M462.257 438.24C466.143 440.888 470.648 442.625 475.306 443.268C477.327 443.547 479.501 443.594 481.273 442.583C482.848 441.685 483.896 440.034 484.376 438.287C484.858 436.54 484.827 434.691 484.644 432.887" fill="#FE8C6D"/>
<path d="M462.257 438.24C466.143 440.888 470.648 442.625 475.306 443.268C477.327 443.547 479.501 443.594 481.273 442.583C482.848 441.685 483.896 440.034 484.376 438.287C484.858 436.54 484.827 434.691 484.644 432.887" stroke="#E0483A" stroke-miterlimit="10" stroke-linecap="round" stroke-linejoin="round"/>
<path d="M462.033 421.856C466.086 423.702 469.284 426.985 473.008 429.425C476.733 431.865 481.621 433.434 485.591 431.421C489.291 429.546 491.005 425.101 491.189 420.955" fill="#FE8C6D"/>
<path d="M462.033 421.856C466.086 423.702 469.284 426.985 473.008 429.425C476.733 431.865 481.621 433.434 485.591 431.421C489.291 429.546 491.005 425.101 491.189 420.955" stroke="#E0483A" stroke-miterlimit="10" stroke-linecap="round" stroke-linejoin="round"/>
<path d="M469.52 404.695C473.323 407.694 476.21 411.698 479.822 414.929C483.434 418.157 488.251 420.669 492.991 419.669C498.125 418.585 501.759 413.365 501.934 408.121" fill="#FE8C6D"/>
<path d="M469.52 404.695C473.323 407.694 476.21 411.698 479.822 414.929C483.434 418.157 488.251 420.669 492.991 419.669C498.125 418.585 501.759 413.365 501.934 408.121" stroke="#E0483A" stroke-miterlimit="10" stroke-linecap="round" stroke-linejoin="round"/>
<path d="M483.146 386.697C488.048 395.091 494.593 402.52 502.578 408.054C505.412 408.744 508.471 407.008 509.887 404.456C511.303 401.907 511.294 398.757 510.503 395.948C509.712 393.141 508.208 390.594 506.719 388.083" fill="#FE8C6D"/>
<path d="M483.146 386.697C488.048 395.091 494.593 402.52 502.578 408.054C505.412 408.744 508.471 407.008 509.887 404.456C511.303 401.907 511.294 398.757 510.503 395.948C509.712 393.141 508.208 390.594 506.719 388.083" stroke="#E0483A" stroke-miterlimit="10" stroke-linecap="round" stroke-linejoin="round"/>
<path d="M517.478 401.226C509.221 400.193 500.965 399.158 492.709 398.126C491.082 397.923 489.428 397.718 487.81 397.991C486.194 398.265 484.589 399.087 483.762 400.5C482.623 402.45 483.25 405.043 484.663 406.806C486.076 408.57 488.119 409.685 490.11 410.755C493.199 412.418 496.291 414.083 499.054 416.131C494.757 423.834 495.25 433.964 500.278 441.21" fill="#FE8C6D"/>
<path d="M517.478 401.226C509.221 400.193 500.965 399.158 492.709 398.126C491.082 397.923 489.428 397.718 487.81 397.991C486.194 398.265 484.589 399.087 483.762 400.5C482.623 402.45 483.25 405.043 484.663 406.806C486.076 408.57 488.119 409.685 490.11 410.755C493.199 412.418 496.291 414.083 499.054 416.131C494.757 423.834 495.25 433.964 500.278 441.21" stroke="#E0483A" stroke-miterlimit="10" stroke-linecap="round" stroke-linejoin="round"/>
<path d="M475.205 443.824C470.39 467.813 474.249 493.448 485.915 514.955C493.747 529.395 504.84 541.822 513.132 556.004C521.421 570.184 526.852 587.376 521.87 603.026C517.932 615.393 508.2 624.849 500.13 635.011C492.057 645.174 485.137 658.063 488.338 670.641" stroke="#3E2336" stroke-miterlimit="10" stroke-linecap="round" stroke-linejoin="round"/>
<path d="M472.855 741.082C459.067 737.695 445.994 730.553 436.792 719.736C427.594 708.919 422.58 694.285 424.65 680.239C427.767 659.112 445.167 643.509 460.603 628.754C476.82 613.254 492.996 594.214 492.525 571.786C492.043 548.926 474.487 530.351 466.855 508.794C459.516 488.069 461.912 464.124 473.214 445.268" stroke="#3E2336" stroke-miterlimit="10" stroke-linecap="round" stroke-linejoin="round"/>
<path d="M495.97 281.965C501.954 320.552 507.934 359.14 513.918 397.727" stroke="#3E2336" stroke-miterlimit="10" stroke-linecap="round" stroke-linejoin="round"/>
<path d="M490.315 258.105C486.944 258.451 484.666 262.262 485.211 265.606C485.759 268.95 488.481 271.617 491.572 273C494.524 274.32 498.01 274.651 501.001 273.416C503.991 272.181 506.33 269.232 506.382 265.998C501.107 264.804 496.099 262.471 490.315 258.105Z" fill="#03A9F5"/>
<path d="M492.09 263.77C483.831 268.326 476.796 275.868 471.82 286.052C473.438 289.256 475.084 292.496 477.401 295.086C479.718 297.674 482.823 299.583 486.194 299.523C489.839 299.46 493.333 297.148 496.981 296.998C500.656 296.844 503.98 298.885 507.537 299.698C511.095 300.511 515.728 299.43 517.396 295.054C512.546 283.809 505.007 274.165 492.09 263.77Z" fill="#03A9F5"/>
<path d="M636.896 160.173C617.012 226.279 550.851 280.243 496.83 263.988C473.433 256.961 456.151 237.877 445.723 213.165C432.039 180.854 430.039 138.833 441.294 101.379C461.148 35.2732 514.8 8.36254 568.821 24.6179C603.016 34.9035 629.154 59.9849 638.698 93.7526C644.238 113.352 644.21 135.889 636.896 160.173Z" fill="#03A9F5"/>
<path opacity="0.502" d="M636.896 160.171C617.012 226.277 550.851 280.241 496.83 263.985C473.433 256.958 456.151 237.874 445.723 213.162C454.149 223.475 466.091 231.132 478.975 234.93C498.744 240.788 520.312 238.329 539.681 231.274C570.278 220.162 596.301 197.794 613.501 170.169C627.815 147.202 636.099 120.718 638.698 93.75C644.238 113.349 644.21 135.886 636.896 160.171Z" fill="#0D87BF"/>
<path d="M566.302 44.0517C550.126 35.8556 530.573 34.3302 513.236 39.9139C495.899 45.4976 481.002 58.1191 472.8 74.1663C468.463 82.6527 466.784 94.6608 474.599 100.182C481.196 104.842 490.663 101.781 497.068 96.8214C503.474 91.8621 508.572 85.1502 515.838 81.5218C522.955 77.9645 531.274 77.8139 539.235 78.1124C547.198 78.4109 555.337 79.0626 563.002 76.8911C570.667 74.7195 577.913 68.9578 579.096 61.1943C580.281 53.4336 572.165 47.0229 566.302 44.0517Z" fill="#03E6F5"/>
<path d="M485.32 267.701C490.504 272.044 497.693 273.89 504.328 272.581Z" fill="#03A9F5"/>
<path d="M485.32 267.701C490.504 272.044 497.693 273.89 504.328 272.581" stroke="#3E2336" stroke-miterlimit="10" stroke-linecap="round" stroke-linejoin="round"/>
<path d="M549.104 318.27C537.175 345.095 525.247 371.918 513.321 398.744" stroke="#3E2336" stroke-miterlimit="10" stroke-linecap="round" stroke-linejoin="round"/>
<path d="M554.118 296.12C550.78 295.534 547.549 298.581 547.165 301.95C546.782 305.318 548.674 308.623 551.276 310.795C553.757 312.868 557.021 314.136 560.233 313.761C563.445 313.385 566.499 311.184 567.427 308.087C562.681 305.504 558.497 301.892 554.118 296.12Z" fill="#004B6E"/>
<path d="M721.812 241.755C684.695 299.958 606.348 333.89 558.785 303.551C538.183 290.423 526.742 267.357 523.431 240.742C519.053 205.928 528.56 164.945 549.581 131.969C586.67 73.7577 645.618 62.4561 693.179 92.7953C723.288 111.994 741.617 143.243 741.614 178.33C741.617 198.696 735.455 220.376 721.812 241.755Z" fill="#FFD13E"/>
<path opacity="0.502" d="M721.812 241.752C684.695 299.955 606.349 333.887 558.785 303.548C538.183 290.42 526.742 267.354 523.431 240.739C528.736 252.955 538.142 263.572 549.507 270.733C566.937 281.747 588.36 285.25 608.917 283.73C641.381 281.358 672.512 266.916 696.575 245.011C716.595 226.803 731.772 203.573 741.611 178.33C741.617 198.693 735.455 220.373 721.812 241.752Z" fill="#90804B"/>
<path d="M685.47 110.809C672.134 98.5219 653.732 91.7361 635.532 92.3933C617.33 93.0505 599.56 101.143 587.303 114.356C580.821 121.341 575.938 132.44 581.957 139.878C587.037 146.157 596.98 145.787 604.492 142.756C612.003 139.724 618.737 134.656 626.717 133.139C634.533 131.654 642.578 133.771 650.161 136.225C657.741 138.678 665.398 141.518 673.364 141.515C681.332 141.513 689.871 137.939 693.121 130.789C696.372 123.639 690.304 115.262 685.47 110.809Z" fill="#FFF73E"/>
<path d="M549.11 303.158C539.533 307.674 531.189 314.769 526.263 323.494C535.267 325.991 536.535 339.99 545.355 343.085C550.602 344.925 556.219 342.055 561.052 339.306C565.885 336.556 571.562 333.752 576.765 335.715C575.056 331.041 573.128 326.446 570.992 321.949C569.481 318.773 567.758 315.517 564.875 313.501C562.035 311.516 558.456 310.998 555.219 309.758C551.982 308.515 548.729 305.973 549.11 303.158Z" fill="#004B6E"/>
<path d="M545.728 303.309C549.907 309.645 557.744 313.367 565.297 312.603Z" fill="#004B6E"/>
<path d="M545.728 303.309C549.907 309.645 557.744 313.367 565.297 312.603" stroke="#3E2336" stroke-miterlimit="10" stroke-linecap="round" stroke-linejoin="round"/>
<path d="M1375.13 468.82C1371.93 462.733 1368.67 456.492 1367.71 449.681C1366.74 442.871 1368.5 435.261 1373.59 431.246C1375.51 419.657 1383.51 409.254 1394.22 404.428C1397.55 402.931 1401.32 401.939 1404.84 402.909C1408.36 403.878 1411.37 407.348 1411.46 410.538C1426.18 419.268 1436.34 435.05 1438.68 453.033C1439.64 460.435 1437.01 467.881 1431.65 473.076C1423.87 480.617 1414.85 486.872 1405.05 491.481C1395.14 483.58 1380.82 479.626 1375.13 468.82Z" fill="#FE8C6D"/>
<path d="M1432.63 464.94C1428.9 467.728 1424.53 469.639 1419.95 470.477C1417.97 470.841 1415.82 470.984 1414.03 470.061C1412.43 469.242 1411.33 467.657 1410.78 465.95C1410.22 464.244 1410.17 462.418 1410.27 460.627" fill="#FE8C6D"/>
<path d="M1432.63 464.94C1428.9 467.728 1424.53 469.639 1419.95 470.477C1417.97 470.841 1415.82 470.984 1414.03 470.061C1412.43 469.242 1411.33 467.657 1410.78 465.95C1410.22 464.244 1410.17 462.418 1410.27 460.627" stroke="#E0483A" stroke-miterlimit="10" stroke-linecap="round" stroke-linejoin="round"/>
<path d="M1432.14 448.738C1428.21 450.737 1425.2 454.122 1421.62 456.696C1418.05 459.27 1413.28 461.034 1409.27 459.218C1405.53 457.526 1403.65 453.21 1403.28 449.122" fill="#FE8C6D"/>
<path d="M1432.14 448.738C1428.21 450.737 1425.2 454.122 1421.62 456.696C1418.05 459.27 1413.28 461.034 1409.27 459.218C1405.53 457.526 1403.65 453.21 1403.28 449.122" stroke="#E0483A" stroke-miterlimit="10" stroke-linecap="round" stroke-linejoin="round"/>
<path d="M1423.99 432.109C1420.36 435.239 1417.68 439.322 1414.26 442.669C1410.83 446.018 1406.18 448.707 1401.45 447.927C1396.33 447.08 1392.51 442.083 1392.11 436.907" fill="#FE8C6D"/>
<path d="M1423.99 432.109C1420.36 435.239 1417.68 439.322 1414.26 442.669C1410.83 446.018 1406.18 448.707 1401.45 447.927C1396.33 447.08 1392.51 442.083 1392.11 436.907" stroke="#E0483A" stroke-miterlimit="10" stroke-linecap="round" stroke-linejoin="round"/>
<path d="M1409.74 414.92C1405.26 423.426 1399.12 431.052 1391.47 436.871C1388.7 437.676 1385.6 436.096 1384.09 433.637C1382.58 431.178 1382.46 428.067 1383.11 425.258C1383.77 422.448 1385.15 419.868 1386.51 417.322" fill="#FE8C6D"/>
<path d="M1409.74 414.92C1405.26 423.426 1399.12 431.052 1391.47 436.871C1388.7 437.676 1385.6 436.096 1384.09 433.637C1382.58 431.178 1382.46 428.067 1383.11 425.258C1383.77 422.448 1385.15 419.868 1386.51 417.322" stroke="#E0483A" stroke-miterlimit="10" stroke-linecap="round" stroke-linejoin="round"/>
<path d="M1376.45 430.774C1384.56 429.394 1392.67 428.011 1400.79 426.63C1402.39 426.359 1404.01 426.086 1405.62 426.285C1407.23 426.485 1408.85 427.227 1409.73 428.588C1410.94 430.464 1410.43 433.055 1409.12 434.86C1407.8 436.661 1405.82 437.855 1403.91 439C1400.93 440.777 1397.95 442.557 1395.3 444.701C1399.88 452.125 1399.84 462.154 1395.19 469.534" fill="#FE8C6D"/>
<path d="M1376.45 430.774C1384.56 429.394 1392.67 428.011 1400.79 426.63C1402.39 426.359 1404.01 426.086 1405.62 426.285C1407.23 426.485 1408.85 427.227 1409.73 428.588C1410.94 430.464 1410.43 433.055 1409.12 434.86C1407.8 436.661 1405.82 437.855 1403.91 439C1400.93 440.777 1397.95 442.557 1395.3 444.701C1399.88 452.125 1399.84 462.154 1395.19 469.534" stroke="#E0483A" stroke-miterlimit="10" stroke-linecap="round" stroke-linejoin="round"/>
<path d="M1374.73 460.777L1361.3 477.668L1392.64 516.483L1407.01 488.449L1374.73 460.777Z" fill="#FE8C6D"/>
<path d="M1063.82 615.087C1068.72 605.19 1073.62 595.29 1078.51 585.394C1079.87 582.65 1081.26 579.498 1080.26 576.592C1078.86 572.545 1073.38 571.589 1069.76 573.64C1066.14 575.691 1063.98 579.668 1062 583.444C1059.63 574.473 1057.26 565.502 1054.88 556.533C1054.33 554.452 1053.75 552.302 1052.44 550.632C1051.13 548.962 1048.89 547.891 1046.95 548.66C1044.63 549.586 1043.82 552.535 1043.48 555.107C1042.56 562.076 1042.9 569.223 1044.47 576.064C1040.42 568.703 1035.23 562.038 1029.14 556.416C1027.05 554.485 1024.1 552.587 1021.67 554.022C1018.82 555.709 1019.51 560.151 1020.67 563.358C1023.12 570.193 1025.92 576.891 1028.64 582.653C1022.38 579.057 1015.81 576.037 1009.04 573.643C1006.57 572.77 1003.74 572.006 1001.46 573.323C998.372 575.103 998.065 579.9 999.829 583.093C1001.59 586.284 1004.9 588.077 1007.68 590.348C1010.06 592.295 1012.85 594.762 1015.22 598.382C1009.52 596.345 1005.25 593.56 1001.98 593.1C997.756 592.503 994.365 595.165 994.626 599.606C994.825 602.98 997.668 605.425 1000.27 607.427C1009.5 614.503 1018.79 621.495 1028.13 628.398C1039.38 624.737 1050.63 621.087 1063.82 615.087Z" fill="#FE8C6D"/>
<path d="M1058.17 587.568C1050.15 588.239 1042.82 594.453 1040.54 602.509" stroke="#E0483A" stroke-miterlimit="10" stroke-linecap="round" stroke-linejoin="round"/>
<path d="M1184.59 876.152C1212.27 922.741 1231.82 974.15 1242.09 1027.36C1260.49 1015.97 1279.69 1005.86 1299.27 993.551C1301.23 950.966 1294.35 907.994 1279.19 868.145C1246.87 871.981 1214.56 875.818 1184.59 876.152Z" fill="#FE8C6D"/>
<path d="M1357.63 1000.69C1356 1015.25 1263.58 1065.28 1245.01 1060.25C1244.53 1060.11 1244.07 1059.93 1243.7 1059.73C1233.3 1054.08 1239.67 1022.48 1249.76 1007.14C1259.81 991.799 1276.55 981.371 1294.5 977.516C1306.21 975.002 1318.61 975.174 1329.98 979.003C1340.61 982.543 1356.43 990.573 1357.57 998.971C1357.69 999.544 1357.69 1000.11 1357.63 1000.69Z" fill="#3E2336"/>
<path d="M1357.63 1000.69C1356 1015.25 1263.58 1065.28 1245.01 1060.25C1247.1 1053.37 1250.84 1046.91 1255.44 1041.31C1262.47 1032.82 1271.38 1026.11 1280.47 1019.85C1292.49 1011.6 1305.18 1003.97 1319.15 999.741C1331.57 995.971 1345.23 995.113 1357.57 998.969C1357.69 999.544 1357.69 1000.11 1357.63 1000.69Z" fill="#633952"/>
<path d="M1077.69 897.378C1076.88 883.466 1061.71 864.505 1053.4 866.795C1036.89 871.338 995.236 955.769 1005.81 970.639C1011.61 978.808 1045.08 964.861 1058.98 951.273C1072.89 937.688 1078.89 918.149 1077.69 897.378Z" fill="#3E2336"/>
<path d="M1185.06 866.304C1182.69 891.514 1176.82 916.393 1166.92 940.143C1163.31 948.813 1154.64 954.233 1145.26 953.748C1118.02 952.338 1090.98 946.899 1065.32 937.638C1064.98 922.02 1066.95 906.351 1072.96 890.449C1079.71 891.383 1086.52 891.848 1094.51 890.443C1095.63 890.246 1096.53 889.323 1096.69 888.195C1097.96 879.243 1097.85 870.097 1096.38 861.178C1125.22 861.58 1154.03 864.261 1185.06 866.304Z" fill="#FE8C6D"/>
<path d="M1119.85 729.649L1128.71 711.479C1106.04 713.065 1073.33 712.72 1053.14 709.716C1041.15 707.933 1030.29 700.739 1025.31 689.687C1018.08 673.623 1010.57 645.379 1007.98 626.361C1027.95 621.831 1046.03 615.056 1067.49 608.873C1071.77 617.357 1075.28 625.432 1079 633.267C1080.36 636.142 1083.48 637.772 1086.62 637.232C1139.84 628.086 1189.93 620.218 1241.56 608.087C1276.58 568.163 1317.01 532.824 1364.88 469.555C1380.87 479.503 1394.01 493.957 1403.16 513.775C1373.79 575.981 1333.89 633.204 1282.96 678.908C1278.85 706.663 1273.47 734.23 1266.31 763.206C1216.52 758.34 1167.2 748.615 1119.85 729.649Z" fill="#FFBE45"/>
<path d="M1155.66 671.75C1151.66 686.349 1143.02 699.641 1131.31 709.226" stroke="#F08826" stroke-miterlimit="10" stroke-linecap="round" stroke-linejoin="round"/>
<path d="M1084.49 641.547C1088.44 648.497 1090.52 656.493 1090.47 664.484" stroke="#F08826" stroke-miterlimit="10" stroke-linecap="round" stroke-linejoin="round"/>
<path d="M1092.92 643.953C1100.65 647.987 1106.99 654.625 1110.66 662.533" stroke="#F08826" stroke-miterlimit="10" stroke-linecap="round" stroke-linejoin="round"/>
<path d="M1265.85 621.583C1265.56 630.54 1262.12 639.278 1256.48 646.152C1253.59 649.723 1250.1 652.754 1246.16 655.055C1234.63 661.819 1219.69 661.955 1208.06 655.46C1196.4 648.94 1188.42 635.976 1187.74 622.393C1189.76 620.58 1191.57 618.606 1193.15 616.495C1194.9 614.112 1196.4 611.571 1197.61 608.865C1197.61 608.838 1197.64 608.838 1197.64 608.811C1197.87 608.865 1198.08 608.893 1198.32 608.945C1217.59 612.844 1241.64 617.85 1265.85 621.583Z" fill="#FE8C6D"/>
<path d="M1197.61 608.863C1197.85 608.918 1198.08 608.945 1198.32 608.945C1217.59 612.842 1241.64 617.848 1265.85 621.583C1265.56 630.541 1262.12 639.279 1256.48 646.153C1233.32 642.311 1211.16 631.946 1193.15 616.495" fill="#3E2336"/>
<path d="M1244.59 717.654C1255.32 689.87 1263.76 655.612 1268 621.341C1273.57 620.478 1279.13 619.616 1287.12 618.627C1285.65 647.986 1271.2 698.444 1261.25 721.68C1255.76 720.576 1250.27 719.473 1244.59 717.654Z" fill="#1F9EF2"/>
<path d="M1116.12 730.774C1089.41 770.632 1077.12 819.94 1083.74 868.498C1147.88 893.939 1220.48 897.479 1286.94 875.736C1281.24 837.54 1275.53 799.347 1268.42 761.215C1268.36 745.783 1266.61 730.358 1261.55 715.808C1228.58 713.974 1195.87 707.585 1164.55 697.727C1151.33 708.311 1136.27 716.597 1120.27 722.142C1118.5 725.563 1117.21 729.142 1116.12 730.774Z" fill="#1F9EF2"/>
<path d="M1178.78 706.644C1186.89 681.248 1186.71 646.308 1184.67 617.99C1176.74 618.261 1168.88 620.312 1161.56 624.001C1165.61 651.632 1164.36 680.024 1157.91 707.192C1163.97 707.173 1170.02 707.151 1178.78 706.644Z" fill="#1F9EF2"/>
<path d="M1117.52 735.271C1161.5 762.092 1214.86 773.193 1265.9 766.139" stroke="#106BCC" stroke-miterlimit="10" stroke-linecap="round" stroke-linejoin="round"/>
<path d="M1235 724.628C1218.96 723.163 1203.05 720.364 1186.58 716.881C1182.56 726.548 1180.98 737.989 1186.58 746.938C1193.12 757.391 1208.99 761.194 1220.5 755.693C1232.02 750.191 1238.1 736.694 1235 724.628Z" stroke="#106BCC" stroke-miterlimit="10" stroke-linecap="round" stroke-linejoin="round"/>
<path d="M1212.38 711.203C1211.52 714.016 1210.67 716.825 1209.81 719.638" stroke="#106BCC" stroke-miterlimit="10" stroke-linecap="round" stroke-linejoin="round"/>
<path d="M1199.92 757.586C1199.37 759.848 1198.81 762.11 1197.52 766.776C1194.01 804.731 1192.88 842.905 1194.13 880.999" stroke="#106BCC" stroke-miterlimit="10" stroke-linecap="round" stroke-linejoin="round"/>
<path d="M1143.97 750.225C1134.05 763.041 1116.41 769.347 1100.61 765.727" stroke="#106BCC" stroke-miterlimit="10" stroke-linecap="round" stroke-linejoin="round"/>
<path d="M1243.68 769.506C1248.64 779.449 1259.44 786.191 1270.55 786.268" stroke="#106BCC" stroke-miterlimit="10" stroke-linecap="round" stroke-linejoin="round"/>
<path d="M1084.93 861.244C1147.16 887.67 1219.14 890.321 1283.14 868.548" stroke="#106BCC" stroke-miterlimit="10" stroke-linecap="round" stroke-linejoin="round"/>
<path d="M1140.03 407.11C1130.98 379.594 1105.42 357.703 1076.58 354.976C1047.75 352.248 1017.63 370.1 1007.96 397.402C1003.64 409.594 1003.16 423.067 997.452 434.672C991.972 445.799 982.19 454.143 972.236 461.539C962.282 468.936 951.747 475.845 943.751 485.325C935.757 494.806 930.535 507.6 933.438 519.657C934.15 522.615 935.522 525.676 938.203 527.117C941.448 528.861 945.654 527.582 948.354 525.074C951.054 522.565 952.591 519.079 954.053 515.697C947.834 529.447 948.428 546.089 955.614 559.359C958.7 565.058 964.237 570.68 970.631 569.625C975.098 568.889 978.45 564.998 980.197 560.821C981.944 556.645 982.467 552.075 983.675 547.713C986.547 537.309 993.492 528.089 1002.69 522.45C1015.45 514.638 1031.18 513.98 1045.47 509.572C1067.22 502.862 1085.43 487.374 1099.28 469.314C1113.14 451.256 1123.11 430.581 1140.03 407.11Z" fill="#3E2336"/>
<path d="M1170.45 478.612C1189.71 451.876 1185.8 416.128 1161.71 398.764C1137.62 381.401 1102.47 388.999 1083.2 415.734C1063.93 442.469 1067.84 478.218 1091.94 495.581C1116.03 512.945 1151.18 505.347 1170.45 478.612Z" fill="#FFBE45"/>
<path d="M1333.24 579.983C1329.13 595.885 1317.11 609.04 1302.63 616.837C1281.26 628.354 1255.59 628.908 1231.53 625.578C1200.58 621.276 1170.03 610.785 1145.22 591.804C1120.4 572.822 1101.76 544.848 1095.76 511.601C1107.17 470.084 1136.45 433.783 1174.61 413.83C1212.77 393.875 1259.28 390.573 1302.96 401.313C1319.03 418.324 1326.02 442.053 1328.66 465.31C1330.82 484.375 1330.43 503.608 1331.52 522.757C1331.77 526.975 1332.07 531.195 1332.52 535.384C1332.93 539.602 1333.49 543.849 1333.96 548.096C1335.18 558.836 1335.93 569.604 1333.24 579.983Z" fill="#FE8C6D"/>
<path d="M1112.13 580.198C1100.16 562.779 1088.15 545.157 1080.12 525.607C1072.08 506.057 1068.2 484.188 1073.07 463.623C1077.95 443.057 1092.64 424.175 1115.65 416.061C1136.42 378.556 1177.93 353.45 1220.79 352.464C1263.65 351.478 1306.27 374.651 1328.74 411.16C1336.85 424.334 1342.5 439.267 1343.3 454.714C1344.1 470.162 1339.77 486.133 1330.48 497.075C1330.55 483.783 1328.44 470.485 1324.39 457.513C1297.39 456.574 1271.05 443.416 1254.08 422.393C1259.19 433.059 1264.31 443.728 1269.42 454.394C1270.52 456.67 1271.63 459.23 1270.87 461.637C1269.69 465.359 1264.97 466.375 1261.07 466.539C1247.71 467.109 1233.98 464.937 1222.27 458.466C1210.57 451.992 1201.09 440.88 1197.44 427.681C1198.98 456.13 1182.53 484.772 1156.58 497.259C1156.23 525.928 1148.68 554.481 1134.81 579.571C1128.13 576.701 1120.52 576.068 1112.13 580.198Z" fill="#3E2336"/>
<path d="M1142.1 567.068C1132.91 561.317 1121.09 557.576 1111.33 562.314C1100.61 567.517 1096.54 581.981 1100.82 593.102C1105.09 604.223 1115.92 611.849 1127.43 614.927C1134.84 616.91 1142.87 617.239 1150.1 614.689C1157.34 612.14 1163.66 606.452 1165.89 599.116" fill="#FE8C6D"/>
<path d="M1225.6 555.848C1225.82 547.764 1216.38 540.954 1204.51 540.636C1192.65 540.321 1182.86 546.617 1182.64 554.704C1182.43 562.788 1191.87 569.598 1203.73 569.916C1215.6 570.233 1225.39 563.932 1225.6 555.848Z" fill="#FB6F61"/>
<path d="M1232.51 535.201C1231.52 528.569 1226.41 523.84 1221.11 524.636C1215.8 525.433 1212.31 531.455 1213.3 538.088C1214.3 544.72 1219.41 549.449 1224.71 548.653C1230.02 547.856 1233.51 541.831 1232.51 535.201Z" fill="#3E2336"/>
<path d="M1333.96 548.1C1332.57 549.015 1331.02 549.82 1329.38 550.431C1319.86 554.037 1310.4 551.096 1308.23 543.853C1306.07 536.61 1312.04 527.811 1321.55 524.205C1325 522.901 1328.44 522.458 1331.52 522.762C1331.77 526.979 1332.07 531.199 1332.52 535.389C1332.93 539.606 1333.49 543.853 1333.96 548.1Z" fill="#FB6F61"/>
<path d="M1295.66 525.717C1294.67 519.084 1298.16 513.062 1303.46 512.265C1308.77 511.468 1313.88 516.198 1314.88 522.83C1315.87 529.463 1312.38 535.485 1307.07 536.282C1301.77 537.076 1296.66 532.346 1295.66 525.717Z" fill="#3E2336"/>
<path d="M1316.71 495.244C1307.59 486.774 1292.93 483.677 1280.65 487.626C1282.96 479.638 1292.78 474.128 1301.66 475.829C1310.55 477.529 1317.1 486.169 1316.71 495.244Z" fill="#3E2336"/>
<path d="M1231.13 495.605C1216.16 493.86 1200.37 501.241 1193.55 513.177C1192.47 507.457 1192.67 501.388 1195.39 496.106C1198.1 490.826 1203.61 486.478 1210.11 485.738C1214.68 485.218 1219.37 486.5 1223.2 488.781C1227.02 491.062 1230.04 494.282 1231.13 495.605Z" fill="#3E2336"/>
<path d="M1276.92 547.242C1280.13 545.092 1281.52 540.642 1280.08 537.175C1278.64 533.708 1274.51 531.603 1270.74 532.408" stroke="#E0483A" stroke-miterlimit="10" stroke-linecap="round" stroke-linejoin="round"/>
<path d="M1240.24 583.768C1244.74 593.182 1254.69 599.941 1265.07 599.859C1271.84 599.804 1278.36 596.901 1283.44 592.377C1285.4 590.633 1287.14 588.664 1288.62 586.492C1293.92 578.718 1295.82 568.912 1295.04 559.519C1294.34 559.552 1293.64 559.584 1292.96 559.595C1275.39 560.162 1258.48 558.308 1242.34 553.719C1241.82 554.527 1241.32 555.378 1240.9 556.233C1239.09 559.626 1237.97 563.306 1237.53 567.038C1236.87 572.743 1237.75 578.581 1240.24 583.768Z" fill="#3E2336"/>
<path d="M1240.9 556.233C1251.88 564.875 1266.06 569.227 1279.95 568.342C1284.82 568.052 1289.24 565.267 1291.94 561.17C1292.28 560.631 1292.62 560.113 1292.97 559.595C1275.39 560.162 1258.48 558.308 1242.34 553.719C1241.82 554.527 1241.32 555.378 1240.9 556.233Z" fill="white"/>
<path d="M1240.24 583.767C1244.74 593.182 1254.69 599.94 1265.07 599.858C1271.84 599.803 1278.36 596.901 1283.44 592.377C1280.18 582.828 1273.24 574.56 1264.27 570.017C1256.08 565.874 1246.4 564.943 1237.53 567.035C1236.87 572.742 1237.75 578.58 1240.24 583.767Z" fill="#FA4664"/>
<path d="M1423.25 471.41C1439.5 498.255 1438 534.882 1419.59 560.286C1402.13 584.393 1370.36 601.031 1367.54 630.724C1366.06 646.388 1373.59 661.488 1382.47 674.441C1391.35 687.394 1401.9 699.448 1407.89 713.987C1419.03 741.053 1411.25 774.832 1389.42 794.226" stroke="#3E2336" stroke-miterlimit="10" stroke-linecap="round" stroke-linejoin="round"/>
<path d="M1335.9 740.165C1357.67 749.394 1384.03 748.567 1403.93 735.808C1423.83 723.047 1435.76 697.906 1430.74 674.804C1427.24 658.713 1416.26 643.35 1419.84 627.279C1422.82 613.893 1435.13 604.758 1447.37 598.585C1459.61 592.413 1473.07 587.659 1482.58 577.779C1499.47 560.22 1498.26 530.529 1484.93 510.133C1471.6 489.738 1448.93 477.3 1425.88 469.383" stroke="#3E2336" stroke-miterlimit="10" stroke-linecap="round" stroke-linejoin="round"/>
<path d="M1389 328.574C1388.05 358.095 1387.1 387.615 1386.15 417.133" stroke="#3E2336" stroke-miterlimit="10" stroke-linecap="round" stroke-linejoin="round"/>
<path d="M1259.53 191.106C1271.87 259.025 1331.56 320.073 1387.06 309.982C1411.1 305.625 1430.42 288.6 1443.55 265.217C1460.77 234.647 1467.48 193.114 1460.5 154.636C1448.19 86.7196 1397.89 53.9597 1342.39 64.0481C1307.26 70.4287 1278.47 92.4211 1265.2 124.904C1257.49 143.756 1254.99 166.156 1259.53 191.106Z" fill="#59FF3E"/>
<path opacity="0.502" d="M1259.53 191.108C1271.87 259.027 1331.56 320.075 1387.06 309.984C1411.1 305.627 1430.42 288.602 1443.55 265.218C1434.02 274.521 1421.3 280.789 1408.07 283.117C1387.76 286.718 1366.61 281.857 1348.16 272.672C1319 258.197 1295.65 233.05 1281.66 203.669C1270.02 179.24 1264.76 151.995 1265.2 124.906C1257.49 143.758 1254.99 166.158 1259.53 191.108Z" fill="#39A328"/>
<path d="M1342.71 83.6424C1359.7 77.3138 1379.3 77.993 1395.9 85.4854C1412.5 92.9777 1425.89 107.193 1432.24 124.059C1435.6 132.978 1435.92 145.098 1427.53 149.707C1420.45 153.599 1411.39 149.494 1405.58 143.847C1399.78 138.2 1395.46 130.96 1388.65 126.537C1381.98 122.205 1373.73 121.121 1365.78 120.524C1357.83 119.927 1349.67 119.661 1342.3 116.643C1334.92 113.626 1328.37 107.086 1328.07 99.2405C1327.77 91.3949 1336.55 85.9344 1342.71 83.6424Z" fill="#B6FF3E"/>
<path d="M1394.19 304.865C1397.5 305.585 1399.34 309.63 1398.42 312.892C1397.51 316.153 1394.5 318.497 1391.27 319.527C1388.19 320.507 1384.69 320.444 1381.86 318.883C1379.03 317.322 1377.03 314.127 1377.35 310.909C1382.72 310.312 1387.96 308.551 1394.19 304.865Z" fill="#59FF3E"/>
<path d="M1391.8 310.293C1399.49 315.748 1405.63 324.032 1409.44 334.709C1407.47 337.71 1405.47 340.747 1402.88 343.058C1400.28 345.372 1396.98 346.917 1393.64 346.481C1390.03 346.01 1386.82 343.321 1383.21 342.763C1379.57 342.199 1376.04 343.853 1372.42 344.263C1368.79 344.674 1364.31 343.078 1363.14 338.543C1369.22 327.912 1377.79 319.174 1391.8 310.293Z" fill="#59FF3E"/>
<path d="M1398.08 314.957C1392.44 318.69 1385.09 319.719 1378.65 317.674" stroke="#3E2336" stroke-miterlimit="10" stroke-linecap="round" stroke-linejoin="round"/>
<path d="M1323.58 325.215C1344.01 356.48 1364.45 387.744 1384.88 419.006" stroke="#3E2336" stroke-miterlimit="10" stroke-linecap="round" stroke-linejoin="round"/>
<path d="M1137.91 297.977C1189.85 343.446 1274.57 354.058 1311.72 311.606C1327.82 293.231 1332.34 267.884 1328.06 241.407C1322.5 206.76 1301.89 170.087 1272.47 144.321C1220.55 98.8378 1160.8 104.509 1123.65 146.96C1100.13 173.827 1091.29 208.961 1101.13 242.642C1106.83 262.194 1118.82 281.281 1137.91 297.977Z" fill="#F63B50"/>
<path opacity="0.502" d="M1137.91 297.977C1189.85 343.446 1274.57 354.057 1311.72 311.606C1327.82 293.231 1332.34 267.884 1328.06 241.406C1326.39 254.619 1320.33 267.446 1311.43 277.507C1297.78 292.966 1278.2 302.331 1258.04 306.633C1226.21 313.457 1192.28 308.315 1163.04 294.031C1138.72 282.162 1117.64 264.116 1101.13 242.644C1106.83 262.194 1118.82 281.281 1137.91 297.977Z" fill="#AD2C3B"/>
<path d="M1136.09 162.092C1145.45 146.56 1161.21 134.889 1178.87 130.417C1196.53 125.948 1215.85 128.733 1231.32 137.98C1239.5 142.871 1247.3 152.157 1243.61 160.983C1240.49 168.435 1230.84 170.866 1222.78 170.061C1214.72 169.259 1206.84 166.277 1198.75 167.057C1190.83 167.821 1183.7 172.11 1177.11 176.59C1170.52 181.07 1163.97 185.941 1156.32 188.171C1148.67 190.4 1139.47 189.365 1134.35 183.411C1129.23 177.463 1132.7 167.72 1136.09 162.092Z" fill="#FE7272"/>
<path d="M1314.12 303.163C1317.16 301.665 1321.11 303.686 1322.42 306.81C1323.74 309.935 1322.85 313.64 1320.96 316.455C1319.16 319.142 1316.38 321.272 1313.19 321.811C1310 322.354 1306.45 321.094 1304.69 318.38C1308.53 314.571 1311.53 309.932 1314.12 303.163Z" fill="#F63B50"/>
<path d="M1320.9 308.52C1331.36 310.171 1341.36 314.643 1348.53 321.639C1340.59 326.56 1343.29 340.354 1335.69 345.795C1331.17 349.032 1324.98 347.852 1319.57 346.567C1314.16 345.283 1307.92 344.182 1303.48 347.523C1303.81 342.556 1304.37 337.604 1305.16 332.692C1305.72 329.219 1306.46 325.61 1308.67 322.869C1310.84 320.166 1314.13 318.668 1316.89 316.568C1319.65 314.467 1322.06 311.116 1320.9 308.52Z" fill="#F63B50"/>
<path d="M1324.19 307.715C1321.95 314.969 1315.47 320.739 1308.01 322.122" stroke="#3E2336" stroke-miterlimit="10" stroke-linecap="round" stroke-linejoin="round"/>
<path d="M964.906 180.792L964.756 181.057L964.922 181.312C971.705 191.747 977.283 203.11 981.378 215.251C969.88 214.31 958.52 212.131 947.456 208.786L947.112 208.682L946.904 208.974C938.591 220.613 929.549 231.723 919.92 242.303C914.682 230.91 912.799 217.043 913.254 203.218L913.265 202.904L912.987 202.759C901.668 196.814 889.425 191.51 877.184 186.229C887.554 179.33 898.411 173.255 909.623 168.016L909.906 167.884L909.911 167.571C910.08 156.436 911.855 145.176 915.565 134.071C925.55 139.924 934.795 146.962 943.15 154.982L943.36 155.183L943.638 155.101C955.972 151.443 968.567 148.748 981.304 147.126C976.549 158.759 971.042 169.975 964.906 180.792Z" fill="#FFBE45" stroke="black"/>
<path d="M1536.41 900.994C1541.49 897.497 1546.37 893.682 1551 889.506C1544.98 887.45 1538.78 885.911 1532.49 884.873C1530.5 879.505 1527.9 874.384 1524.71 869.639C1520.63 873.763 1517.39 878.383 1514.91 883.301C1508.76 883.208 1502.59 883.58 1496.46 884.437C1500.77 889.438 1505.08 894.438 1508.83 899.526C1505.64 905.589 1503.49 912.202 1503.44 918.427C1509.99 915.82 1516.4 912.846 1522.6 909.472C1526.81 913.363 1531.41 916.786 1536.36 919.675C1537.19 913.38 1537.18 907.109 1536.41 900.994Z" fill="#FFBE45" stroke="black"/>
<path d="M400.664 195.204L400.514 195.468L400.679 195.722C402.494 198.517 404.003 201.546 405.14 204.772C402.083 204.483 399.062 203.886 396.117 202.995L395.774 202.891L395.565 203.183C393.318 206.333 390.881 209.344 388.29 212.219C386.996 209.143 386.523 205.462 386.647 201.768L386.657 201.454L386.379 201.309C383.336 199.711 380.063 198.276 376.785 196.861C379.551 195.058 382.435 193.46 385.408 192.072L385.692 191.94L385.697 191.627C385.742 188.637 386.199 185.617 387.148 182.633C389.817 184.239 392.292 186.144 394.542 188.302L394.752 188.503L395.03 188.421C398.322 187.445 401.678 186.712 405.07 186.246C403.779 189.333 402.299 192.316 400.664 195.204Z" fill="#FFBE45" stroke="black"/>
<path d="M939.413 832.442C941.201 829.29 942.801 826.023 944.175 822.631C940.465 823.091 936.795 823.868 933.202 824.934C930.776 822.606 928.09 820.569 925.182 818.879C924.083 822.105 923.56 825.377 923.511 828.611C920.239 830.139 917.073 831.919 914.052 833.946C917.612 835.482 921.175 837.018 924.461 838.744C924.33 842.766 924.889 846.811 926.46 850.114C929.256 847.055 931.88 843.84 934.287 840.466C937.51 841.441 940.823 842.068 944.175 842.328C943.003 838.787 941.388 835.477 939.413 832.442Z" fill="#FFBE45" stroke="black"/>
<path d="M385.498 674.059C391.298 671.712 396.972 669.006 402.476 665.89C396.961 662.527 391.161 659.641 385.156 657.228C384.372 651.475 382.921 645.831 380.802 640.428C375.853 643.615 371.633 647.479 368.092 651.806C362.024 650.363 355.827 649.372 349.567 648.87C352.738 654.772 355.909 660.673 358.502 666.539C354.003 671.84 350.421 677.917 349 684.07C356.065 682.931 363.067 681.395 369.946 679.418C373.263 684.199 377.072 688.602 381.33 692.551C383.543 686.497 384.909 680.283 385.498 674.059Z" fill="#FFBE45" stroke="black"/>
<path d="M1533.59 296.799L1533.44 297.064L1533.61 297.319C1535.43 300.111 1536.93 303.14 1538.07 306.368C1535.01 306.079 1531.99 305.482 1529.05 304.591L1528.7 304.487L1528.49 304.779C1526.24 307.928 1523.81 310.94 1521.22 313.815C1519.92 310.738 1519.45 307.058 1519.58 303.363L1519.59 303.05L1519.31 302.904C1516.26 301.307 1512.99 299.872 1509.71 298.456C1512.48 296.654 1515.36 295.056 1518.34 293.668L1518.62 293.535L1518.62 293.222C1518.67 290.233 1519.13 287.213 1520.08 284.229C1522.75 285.835 1525.22 287.74 1527.47 289.898L1527.68 290.099L1527.96 290.016C1531.25 289.04 1534.61 288.308 1538 287.842C1536.71 290.929 1535.23 293.915 1533.59 296.799Z" fill="#FFBE45" stroke="black"/>
</svg>
