<svg width="1470" height="500" viewBox="0 0 1470 500" fill="none" xmlns="http://www.w3.org/2000/svg">
<g clip-path="url(#clip0_2645_720)">
<path d="M1470 0H0V500H1470V0Z" fill="#EBE7F1"/>
<mask id="mask0_2645_720" style="mask-type:luminance" maskUnits="userSpaceOnUse" x="0" y="0" width="1470" height="500">
<path d="M1470 0H0V500H1470V0Z" fill="white"/>
</mask>
<g mask="url(#mask0_2645_720)">
<path opacity="0.49" d="M877.607 227.889C869.801 150.658 843.948 73.324 792.524 15.177C741.1 -42.97 661.667 -79.138 585.001 -66.981C512.932 -55.553 450.632 -4.48902 377.857 0.821983C314.06 5.47898 253.872 -25.659 191.931 -41.624C93.0446 -67.113 -20.9954 -49.96 -94.5654 20.86C-168.135 91.68 -186.042 220.269 -119.246 297.511C-76.1024 347.403 -8.76243 357.46 33.4476 405.053C53.5896 427.765 67.9166 454.983 80.7246 482.505C98.5666 520.848 113.938 560.52 135.938 596.64C186.129 679.043 289.211 732.656 382.739 747.143C519.053 768.257 662.852 712.557 755.905 610.731C848.957 508.905 891.476 365.129 877.607 227.889Z" fill="#94CBCE"/>
</g>
<mask id="mask1_2645_720" style="mask-type:luminance" maskUnits="userSpaceOnUse" x="0" y="0" width="1470" height="500">
<path d="M1470 0H0V500H1470V0Z" fill="white"/>
</mask>
<g mask="url(#mask1_2645_720)">
<path opacity="0.49" d="M739.596 258.065C733.871 201.415 714.906 144.689 677.186 102.038C639.466 59.387 581.201 32.857 524.966 41.774C472.102 50.157 426.405 87.613 373.023 91.509C326.227 94.925 282.079 72.085 236.644 60.374C164.11 41.677 80.46 54.259 26.495 106.206C-27.47 158.153 -40.605 252.476 8.39099 309.133C40.038 345.729 89.433 353.106 120.394 388.016C135.168 404.675 145.678 424.64 155.072 444.828C168.16 472.953 179.434 502.053 195.572 528.547C232.388 588.991 308 628.317 376.604 638.943C476.592 654.431 582.071 613.574 650.326 538.883C718.581 464.194 749.77 358.733 739.596 258.065Z" fill="#94CBCE"/>
</g>
<mask id="mask2_2645_720" style="mask-type:luminance" maskUnits="userSpaceOnUse" x="0" y="0" width="1470" height="500">
<path d="M1470 0H0V500H1470V0Z" fill="white"/>
</mask>
<g mask="url(#mask2_2645_720)">
<path d="M680.214 354.629C680.734 355.458 681.212 356.31 681.645 357.185C682.234 357.246 682.853 356.958 682.875 356.263C682.886 355.902 682.873 355.552 682.838 355.212C682.905 353.912 683.179 352.617 683.3 351.326C683.472 349.498 683.581 347.661 683.636 345.826C683.738 342.39 683.283 338.979 682.634 335.61C681.511 329.775 680.051 323.631 676.46 318.768C674.86 316.601 672.517 313.804 669.52 314.064C666.942 314.287 665.202 316.779 664.556 319.075C662.895 324.984 665.933 331.612 668.712 336.684C670.596 340.122 672.664 343.408 674.962 346.582C676.114 348.173 677.236 349.783 678.337 351.41C678.982 352.36 679.76 353.47 680.214 354.629Z" fill="#2EB98E"/>
<path d="M681.502 377.509C681.514 377.546 681.543 377.575 681.565 377.608C682.538 376.412 683.707 375.369 684.907 374.411C686.536 373.111 688.267 371.947 689.907 370.662C691.78 369.194 693.599 367.653 695.315 366.003C697.93 363.489 700.749 360.586 702.231 357.225C702.38 356.814 702.527 356.402 702.648 355.972C703.106 354.356 703.528 352.366 702.813 350.754C702.088 349.121 700.219 348.492 698.579 349.005C696.723 349.585 695.21 351.12 693.967 352.55C692.196 354.588 690.742 356.827 689.43 359.181C687.888 361.947 686.335 364.716 684.839 367.507C683.291 370.393 682.336 373.595 681.221 376.666C681.09 377.031 681.247 377.353 681.502 377.509Z" fill="#2EB98E"/>
<path d="M701.533 382.284C701.632 380.224 700.134 379.037 698.163 379.122C696.196 379.207 694.319 380.146 692.642 381.1C690.057 382.571 687.86 384.546 685.607 386.466C683.107 388.596 680.693 390.871 678.404 393.225C677.11 394.555 675.806 395.862 674.401 397.077C673.111 398.192 671.501 399.095 670.402 400.396C670.122 400.728 670.111 401.11 670.251 401.431C670.226 401.442 670.2 401.452 670.174 401.463C669.63 401.699 669.795 402.608 670.429 402.512C675.61 401.724 680.836 399.923 685.59 397.74C690.372 395.545 694.829 392.58 698.242 388.533C699.694 386.81 701.42 384.627 701.533 382.284Z" fill="#2EB98E"/>
<path d="M662.201 415.169C666.039 416.321 670.173 415.948 674.053 415.219C676.843 414.695 679.714 414.046 682.346 412.877C684.508 411.916 687.095 410.637 688.045 408.308C688.834 406.376 687.729 404.732 685.842 404.158C681.863 402.948 677.699 404.822 674.242 406.657C672.037 407.828 669.82 408.958 667.594 410.089C666.345 410.723 665.075 411.402 663.722 411.784C662.458 412.141 660.993 412.086 659.926 412.924C659.916 412.932 659.911 412.942 659.901 412.951C659.887 412.944 659.871 412.939 659.857 412.933C659.305 412.675 658.887 413.183 658.94 413.647C658.982 414.009 660.685 414.626 661.001 414.752C661.396 414.908 661.796 415.047 662.201 415.169Z" fill="#2EB98E"/>
<path d="M663.387 408.901C664.711 404.653 664.963 400.406 664.774 395.992C664.595 391.821 664.161 387.553 662.411 383.711C661.712 382.177 660.634 380.798 658.991 380.253C657.605 379.793 656.541 380.704 656.028 381.96C654.343 386.088 656.242 390.652 657.518 394.65C658.974 399.213 660.811 403.835 661.624 408.569C661.779 409.471 661.766 410.399 661.611 411.302C661.746 411.395 661.909 411.448 662.072 411.466C662.736 410.77 663.108 409.796 663.387 408.901Z" fill="#2EB98E"/>
<path d="M678.529 381.204C678.699 378.267 678.641 375.624 677.935 372.753C676.503 366.925 674.568 360.781 670.749 356.037C669.932 355.023 669.034 354.134 667.927 353.439C667.041 352.883 665.754 352.185 664.71 352.026C662.844 351.742 661.537 353.294 660.831 354.825C659.768 357.132 660.247 359.538 661.195 361.797C662.389 364.643 663.814 367.449 665.441 370.07C668.522 375.034 672.58 379.359 674.818 384.81C675.363 386.138 675.818 387.545 676.106 388.979C676.602 389.249 677.266 389.028 677.388 388.39C677.474 387.939 677.482 387.469 677.457 386.993C678.226 385.184 678.415 383.171 678.529 381.204Z" fill="#2EB98E"/>
<path d="M646.602 422.739C652.28 420.492 657.212 416.664 661.594 412.462C666.024 408.213 669.832 403.372 673.089 398.177C679.708 387.618 683.724 375.282 683.526 362.749C683.466 358.981 682.973 355.239 682.079 351.579C681.201 347.984 680.035 343.588 677.461 340.816C676.984 340.303 676.21 340.701 676.394 341.395C676.816 342.99 677.566 344.462 678.197 345.983C678.877 347.619 679.453 349.297 679.926 351.004C680.806 354.181 681.259 357.466 681.4 360.757C681.686 367.437 680.623 374.187 678.724 380.582C675.546 391.281 669.805 401.156 662.368 409.461C657.781 414.583 652.408 418.795 646.301 421.961C645.836 422.201 646.089 422.942 646.602 422.739Z" fill="#4A3832"/>
<path d="M36.6908 273.379C35.7938 274.233 34.9418 275.127 34.1368 276.064C33.3958 275.955 32.7268 275.407 32.9178 274.549C33.0168 274.102 33.1438 273.678 33.2918 273.272C33.6168 271.657 33.6858 269.984 33.9418 268.363C34.3038 266.068 34.7438 263.782 35.2518 261.515C36.2028 257.271 37.8277 253.232 39.6777 249.305C42.8807 242.504 46.5928 235.429 52.5188 230.591C55.1588 228.435 58.9058 225.741 62.4988 226.997C65.5898 228.078 66.9428 231.676 67.0158 234.693C67.2028 242.456 61.4038 249.632 56.4088 254.978C53.0228 258.602 49.4598 261.983 45.6478 265.155C43.7378 266.744 41.8578 268.367 39.9988 270.016C38.9118 270.983 37.6098 272.101 36.6908 273.379Z" fill="#2EB98E"/>
<path d="M27.9498 301.025C27.9238 301.067 27.8788 301.093 27.8418 301.126C27.0238 299.355 25.9168 297.71 24.7458 296.161C23.1558 294.057 21.3978 292.089 19.7898 290C17.9528 287.614 16.2058 285.156 14.6188 282.596C12.2008 278.696 9.65277 274.254 8.88777 269.671C8.83277 269.121 8.78277 268.569 8.76877 268.004C8.71377 265.88 8.81877 263.308 10.1998 261.556C11.5998 259.781 14.0888 259.595 15.9368 260.737C18.0298 262.029 19.4048 264.384 20.4798 266.527C22.0128 269.58 23.0948 272.78 23.9658 276.076C24.9898 279.949 26.0278 283.83 26.9888 287.719C27.9828 291.741 28.1518 295.966 28.5578 300.08C28.6048 300.568 28.3118 300.914 27.9498 301.025Z" fill="#2EB98E"/>
<path d="M3.97712 309.297C6.89412 315.327 11.4301 320.356 16.6051 324.543C21.7511 328.707 27.5921 332.551 33.6971 335.139C34.4451 335.456 34.9311 334.393 34.3381 333.933C34.3101 333.912 34.2821 333.892 34.2541 333.87C34.5261 333.52 34.6321 333.048 34.3921 332.554C33.4521 330.615 31.7611 329.004 30.5291 327.234C29.1861 325.305 27.9971 323.295 26.8271 321.26C24.7581 317.658 22.5111 314.113 20.1131 310.72C17.9521 307.662 15.8771 304.553 13.1691 301.94C11.4131 300.246 9.40512 298.507 7.02112 297.787C4.63112 297.066 2.42312 298.052 1.89912 300.608C1.30312 303.516 2.73612 306.732 3.97712 309.297Z" fill="#2EB98E"/>
<path d="M39.8212 353.233C34.7552 353.444 29.8052 351.692 25.2762 349.585C22.0202 348.069 18.7032 346.375 15.8422 344.118C13.4922 342.264 10.7222 339.886 10.2852 336.733C9.92319 334.118 11.7922 332.448 14.2842 332.336C19.5402 332.099 24.0592 335.699 27.7222 339.031C30.0592 341.157 32.4232 343.235 34.7972 345.318C36.1292 346.486 37.4742 347.716 39.0132 348.608C40.4512 349.441 42.2652 349.832 43.3102 351.194C43.3202 351.207 43.3232 351.221 43.3332 351.234C43.3532 351.23 43.3732 351.229 43.3932 351.225C44.1502 351.082 44.5042 351.835 44.2942 352.387C44.1302 352.818 41.8492 353.041 41.4212 353.097C40.8902 353.166 40.3562 353.211 39.8212 353.233Z" fill="#2EB98E"/>
<path d="M40.3297 345.178C40.0357 339.556 41.0567 334.271 42.6707 328.919C44.1957 323.862 46.0636 318.766 49.4116 314.604C50.7486 312.942 52.5017 311.59 54.6867 311.435C56.5297 311.305 57.5487 312.755 57.7847 314.455C58.5587 320.044 54.8017 325.043 51.9857 329.545C48.7727 334.683 45.0737 339.774 42.5957 345.324C42.1237 346.381 41.8487 347.523 41.7557 348.679C41.5607 348.751 41.3457 348.764 41.1397 348.736C40.5427 347.673 40.3917 346.363 40.3297 345.178Z" fill="#2EB98E"/>
<path d="M30.4374 306.486C31.1484 302.832 32.0474 299.611 33.8114 296.312C37.3914 289.616 41.6864 282.689 47.8534 278.069C49.1724 277.081 50.5514 276.273 52.1264 275.767C53.3864 275.362 55.1824 274.91 56.5124 275.042C58.8894 275.278 60.0054 277.59 60.3914 279.688C60.9724 282.849 59.6324 285.648 57.7634 288.122C55.4094 291.238 52.7844 294.231 49.9684 296.935C44.6374 302.056 38.3094 306.088 33.8594 312.07C32.7754 313.528 31.7774 315.11 30.9754 316.777C30.2824 316.952 29.5374 316.474 29.5884 315.653C29.6244 315.074 29.7614 314.494 29.9414 313.918C29.5634 311.46 29.9614 308.932 30.4374 306.486Z" fill="#2EB98E"/>
<path d="M56.5755 367.396C50.3185 362.864 45.4695 356.627 41.4135 350.104C37.3125 343.509 34.1595 336.383 31.7935 328.994C26.9845 313.979 25.9225 297.599 30.0885 282.296C31.3405 277.696 33.1165 273.263 35.3585 269.056C37.5595 264.924 40.3665 259.899 44.3885 257.306C45.1335 256.826 45.9575 257.557 45.5155 258.35C44.4985 260.173 43.1195 261.743 41.8685 263.41C40.5235 265.203 39.2915 267.079 38.1775 269.024C36.1045 272.643 34.5205 276.529 33.3175 280.519C30.8765 288.619 30.0665 297.226 30.3925 305.66C30.9395 319.77 34.8855 333.673 41.4045 346.182C45.4245 353.896 50.6935 360.742 57.1885 366.535C57.6835 366.975 57.1405 367.805 56.5755 367.396Z" fill="#4A3832"/>
</g>
<mask id="mask3_2645_720" style="mask-type:luminance" maskUnits="userSpaceOnUse" x="0" y="0" width="1470" height="500">
<path d="M1470 0H0V500H1470V0Z" fill="white"/>
</mask>
<g mask="url(#mask3_2645_720)">
<path d="M280.363 272.286C280.363 272.286 348.071 298.376 364.126 308.886C380.129 319.396 407.539 326.737 421.746 327.16C435.901 327.636 465.635 325.787 476.62 321.245C483.169 318.498 483.063 311.844 481.848 306.932C483.96 312.003 487.5 318.393 491.724 317.548C498.589 316.174 516.916 311.633 524.204 304.291C531.175 297.373 527.848 283.852 527.479 282.426C528.007 283.641 532.179 293.517 535.665 296.527C539.309 299.748 543.428 296.052 554.413 288.763C561.068 284.327 567.089 277.831 571.367 271.335C574.114 267.057 576.226 262.832 577.282 259.029C580.028 249.418 556.209 253.062 543.428 217.36C530.594 181.71 547.548 159.264 520.56 115.851C493.572 72.386 445.511 83.793 446.462 86.117C446.462 86.117 420.847 82.42 404.369 84.269C403.101 84.428 401.728 84.586 400.25 84.797C382.082 87.49 347.383 96.31 333.44 120.868C318.335 147.381 310.572 173.946 300.537 210.546C290.451 247.094 280.363 272.286 280.363 272.286Z" fill="#7F312D"/>
<path d="M280.363 272.286C280.363 272.286 348.071 298.376 364.126 308.886C380.129 319.396 407.539 326.737 421.746 327.16C435.901 327.636 465.635 325.787 476.62 321.245C483.169 318.498 483.063 311.844 481.848 306.932C483.96 312.003 487.5 318.393 491.724 317.548C498.589 316.174 516.916 311.633 524.204 304.291C531.175 297.373 527.848 283.852 527.479 282.426C528.007 283.641 532.179 293.517 535.665 296.527C539.309 299.748 543.428 296.052 554.413 288.763C561.068 284.327 567.089 277.831 571.367 271.335C545.488 290.084 530.224 275.138 524.204 257.023C518.025 238.38 513.852 176.904 513.852 176.904C513.852 176.904 483.907 162.592 466.69 140.674C449.472 118.809 446.884 109.514 446.884 109.514C446.884 109.514 441.127 139.354 412.027 150.445C382.927 161.589 375.743 142.629 375.743 142.629C375.743 142.629 397.239 144.161 404.527 119.074C408.488 105.501 404.632 93.1951 400.249 84.7981C382.081 87.4911 347.382 96.3111 333.439 120.869C318.334 147.382 310.571 173.947 300.536 210.547C290.451 247.094 280.363 272.286 280.363 272.286Z" fill="#511715"/>
<path d="M451.111 362.914C451.111 362.914 454.966 364.816 463.733 364.129C472.711 363.443 486.918 359.957 507.462 348.813C547.918 326.843 586.683 281.053 586.683 281.053V235.263C586.683 235.263 579.342 240.175 563.18 254.487C559.959 257.392 556.315 260.613 552.353 264.31C528.587 286.334 477.516 303.921 477.516 303.921L451.111 362.914Z" fill="#FF9C7D"/>
<path opacity="0.29" d="M463.732 364.129C472.71 363.443 486.917 359.957 507.461 348.813C547.917 326.843 586.682 281.053 586.682 281.053V235.263C586.682 235.263 579.341 240.175 563.179 254.487C563.021 270.384 563.338 289.185 563.338 289.185C563.338 289.185 539.836 312.898 518.869 326.683C497.902 340.468 471.125 342.052 471.125 342.052L463.732 364.129Z" fill="#ED4A4A"/>
<path d="M567.725 282.796C567.725 292.038 571.263 303.499 578.763 304.82C583.886 305.718 600.364 306.404 612.088 306.562C617.476 306.721 621.859 306.721 623.654 306.562C629.358 306.14 637.703 303.499 640.344 292.038C642.985 280.63 657.508 203.153 658.828 178.964C660.148 154.723 659.515 146.483 651.381 136.238C642.561 125.253 613.514 128.791 595.926 129.636C581.349 130.376 576.702 135.657 574.59 143.896C574.115 145.586 573.797 147.487 573.481 149.441C571.686 160.901 567.725 273.553 567.725 282.796Z" fill="#106EB8"/>
<path d="M567.725 282.796C567.725 292.038 571.263 303.499 578.763 304.82C583.886 305.718 600.364 306.404 612.088 306.562L593.709 142.628C593.709 142.628 587.318 138.35 574.591 143.896C574.116 145.586 573.798 147.487 573.482 149.441C571.686 160.901 567.725 273.553 567.725 282.796Z" fill="#082B5E"/>
<path d="M666.328 136.255C674.502 146.474 675.13 154.74 673.81 178.946C672.49 203.153 657.966 280.613 655.325 292.056C652.684 303.499 644.322 306.14 638.6 306.58C632.879 307.02 601.191 306.14 593.708 304.819C586.226 303.499 582.705 292.055 582.705 282.813C582.705 273.571 586.666 160.901 588.426 149.457C590.186 138.014 593.267 130.533 610.872 129.652C628.478 128.773 657.526 125.252 666.328 136.255Z" fill="#66C2E7"/>
<path d="M643.092 165.302C643.092 173.495 648.273 180.138 654.664 180.138C661.055 180.138 666.236 173.495 666.236 165.302C666.236 157.109 661.055 150.466 654.664 150.466C648.273 150.467 643.092 157.109 643.092 165.302Z" fill="#106EB8"/>
<path d="M654.665 174.467C658.613 174.467 661.814 170.364 661.814 165.302C661.814 160.241 658.613 156.137 654.665 156.137C650.716 156.137 647.516 160.241 647.516 165.302C647.516 170.364 650.716 174.467 654.665 174.467Z" fill="#0A446B"/>
<path opacity="0.35" d="M613.546 141.053C601.558 138.892 594.229 147.258 594.229 147.258C594.229 147.258 587.536 280.822 589.907 290.803C592.278 300.785 606.913 299.792 606.913 299.792L613.546 141.053Z" fill="white"/>
<path d="M669.504 252.469C673.333 254.081 673.535 261.942 668.496 264.763C663.457 267.585 653.38 262.143 650.961 260.531C648.543 258.919 647.938 252.671 650.961 249.446C653.985 246.221 669.504 252.469 669.504 252.469Z" fill="#FF9C7D"/>
<path d="M671.116 234.33C678.976 236.949 676.96 245.616 673.736 249.042C670.511 252.468 666.883 250.251 664.465 250.251C662.046 250.251 649.954 246.019 646.326 244.809C642.698 243.6 642.698 234.329 644.512 231.306C646.326 228.283 651.163 227.88 656.201 229.29C661.241 230.702 671.116 234.33 671.116 234.33Z" fill="#FF9C7D"/>
<path d="M676.76 201.277C686.031 205.308 684.419 217.401 677.566 218.005C670.714 218.61 654.792 214.579 652.172 210.548C649.552 206.517 651.769 196.843 658.42 196.238C665.07 195.633 676.76 201.277 676.76 201.277Z" fill="#FF9C7D"/>
<path d="M679.581 223.044C680.917 229.496 680.992 236.547 673.132 235.136C665.271 233.726 648.745 229.09 646.931 227.075C645.117 225.059 643.908 220.222 646.931 215.789C649.954 211.355 653.38 211.556 657.008 212.564C660.636 213.571 678.372 217.199 679.581 223.044Z" fill="#FF9C7D"/>
<path d="M412.088 414.841C386.597 451.033 364.408 464.148 364.408 464.148C364.408 464.148 332.359 474.01 289.659 443.637C269.838 429.486 258.152 414.694 251.249 402.86C243.409 389.202 241.979 379.538 241.979 379.538C241.979 379.538 260.075 358.977 283.052 331.02C306.078 303.113 320.87 290.786 343.058 289.948C354.842 289.504 370.324 291.624 384.821 295.273L384.87 295.323C397.69 298.577 409.771 303.015 417.857 308.044C432.451 317.067 444.137 315.44 449.068 321.159C453.999 326.927 437.58 378.699 412.088 414.841Z" fill="#77459B"/>
<path opacity="0.57" d="M361.943 316.227C335.663 332.696 328.267 335.95 328.267 335.95C302.776 371.303 296.217 388.561 306.079 409.122C314.707 427.119 277.235 423.027 251.25 402.86C243.41 389.202 241.98 379.538 241.98 379.538C241.98 379.538 260.076 358.977 283.053 331.02C306.079 303.113 320.871 290.786 343.059 289.948C354.843 289.504 370.325 291.624 384.822 295.273L384.871 295.323C385.513 296.063 385.808 296.506 385.808 296.506C385.808 296.506 388.273 299.809 361.943 316.227Z" fill="#4B1E72"/>
<path d="M491.817 343.346C490.979 364.746 490.141 373.769 481.955 378.699C473.721 383.63 447.441 390.188 438.368 391.026C429.345 391.864 425.253 390.188 425.253 390.188C425.253 390.188 418.005 367.704 419.435 348.869C419.435 348.672 419.484 348.474 419.484 348.277C421.111 329.392 429.345 312.973 429.345 312.973C462.233 311.297 481.118 292.413 484.421 295.716C486.936 298.231 490.534 312.825 491.62 329.245C491.866 333.83 492.014 338.662 491.817 343.346Z" fill="#77459B"/>
<path opacity="0.57" d="M491.817 343.346C490.979 364.746 490.141 373.769 481.955 378.699C473.721 383.63 447.441 390.188 438.368 391.026C429.345 391.864 425.253 390.188 425.253 390.188C417.019 381.165 416.18 341.719 416.18 341.719C416.18 341.719 417.018 345.17 419.434 348.868C421.899 352.566 426.041 356.511 432.648 357.348C445.764 358.975 462.232 353.206 489.351 327.764L491.619 329.243C491.866 333.83 492.014 338.662 491.817 343.346Z" fill="#4B1E72"/>
<path d="M425.583 285.454C420.302 305.699 425.583 310.1 425.583 310.1C425.583 310.1 428.224 320.663 406.218 324.184C384.212 327.705 378.051 310.981 378.051 310.981C378.051 310.981 380.692 312.741 383.333 300.418C385.974 288.095 385.974 274.011 385.974 274.011L425.583 285.454Z" fill="#FF9C7D"/>
<path d="M330.272 222.43C341.68 229.718 344.902 216.937 344.902 216.937C344.902 216.937 340.308 232.465 360.007 262.674C376.062 287.391 433.841 305.031 472.606 285.859C481.215 281.581 488.873 275.508 494.946 267.269C514.17 241.179 515.333 207.325 512.903 183.347C506.142 180.601 499.963 177.485 494.313 174.158C460.089 153.983 445.513 126.361 445.513 126.361C445.513 126.361 435.003 152.874 395.657 170.724C373.633 180.706 354.092 178.646 341.1 174.949C341.681 180.653 342.473 185.988 342.526 186.674C341.734 185.829 332.175 176.164 324.306 186.252C316.065 196.815 318.812 215.088 330.272 222.43Z" fill="#FF9C7D"/>
<path opacity="0.29" d="M330.272 222.43C341.68 229.718 344.902 216.937 344.902 216.937C344.902 216.937 340.308 232.465 360.007 262.674C376.062 287.391 433.841 305.031 472.606 285.859C466.955 286.81 459.825 287.919 451.111 289.186C420.267 293.57 402.839 281.897 402.839 281.897C402.839 281.897 400.991 271.387 397.611 246.46C394.178 221.478 386.573 193.962 386.573 193.962C386.573 193.962 399.459 191.48 412.927 183.083C426.341 174.685 442.555 150.444 442.555 150.444C442.555 150.444 466.163 166.236 494.313 174.158C460.089 153.983 445.513 126.361 445.513 126.361C445.513 126.361 435.003 152.874 395.657 170.724C373.633 180.706 354.092 178.646 341.1 174.949C341.681 180.653 342.473 185.988 342.526 186.674C341.734 185.829 332.175 176.164 324.306 186.252C316.065 196.815 318.812 215.088 330.272 222.43Z" fill="#ED4A4A"/>
<path d="M483.088 198.443C483.088 203.637 485.146 207.848 487.686 207.848C490.226 207.848 492.284 203.637 492.284 198.443C492.284 193.248 490.225 189.038 487.686 189.038C485.147 189.038 483.088 193.249 483.088 198.443Z" fill="#590E0C"/>
<path d="M402.832 198.443C402.832 203.637 404.89 207.848 407.43 207.848C409.969 207.848 412.028 203.637 412.028 198.443C412.028 193.248 409.969 189.038 407.43 189.038C404.89 189.038 402.832 193.249 402.832 198.443Z" fill="#590E0C"/>
<path d="M460.172 195.064C461.878 196.471 462.45 198.822 462.655 201.023C462.86 203.223 462.812 205.507 463.671 207.543C464.413 209.305 465.792 210.764 466.394 212.579C467.607 216.237 464.998 220.479 461.327 221.652C457.656 222.824 453.467 221.282 450.863 218.44C448.26 215.598 447.085 211.675 446.904 207.825C446.775 205.082 447.13 202.257 448.395 199.82C450.159 196.423 456.327 191.892 460.172 195.064Z" fill="#EA5347"/>
<path d="M414.406 266.106C418.526 269.803 423.173 272.338 427.081 273.289C434.211 274.979 446.623 276.933 457.502 275.665C465.055 274.767 471.868 272.338 475.565 267.215C483.223 256.547 483.012 241.178 477.995 235.949C477.15 234.999 476.093 234.418 474.931 234.206C467.22 232.727 461.78 233.836 449.211 232.094C436.166 230.298 423.385 217.411 412.453 226.126C410.657 227.552 408.914 229.559 407.225 232.305C399.089 245.509 405.586 258.343 414.406 266.106Z" fill="#4F231D"/>
<path d="M412.451 226.126C412.451 229.823 413.771 235.527 420.584 239.805C431.464 246.724 462.413 250.262 470.968 247.146C477.253 244.875 478.045 238.907 477.993 235.949C477.148 234.999 476.091 234.418 474.929 234.206C467.218 232.727 461.778 233.836 449.209 232.094C436.164 230.298 423.383 217.412 412.451 226.126Z" fill="white"/>
<path d="M414.406 266.106C418.526 269.803 423.173 272.338 427.081 273.289C434.211 274.979 446.623 276.933 457.502 275.665C456.235 270.912 452.432 263.782 441.711 260.085C430.092 256.124 419.846 261.934 414.406 266.106Z" fill="#FFA399"/>
<path d="M496.514 183.954C489.366 180.809 483.362 181.952 480.217 183.096C477.072 184.24 476.214 179.38 476.786 177.092C477.358 174.805 483.934 171.659 491.082 172.804C498.23 173.948 500.231 176.235 500.517 178.522C500.803 180.809 499.698 185.355 496.514 183.954Z" fill="#590E0C"/>
<path d="M396.609 183.954C403.757 180.809 409.761 181.952 412.906 183.096C416.051 184.24 416.908 179.38 416.337 177.092C415.765 174.805 409.189 171.659 402.041 172.804C394.893 173.948 392.892 176.235 392.606 178.522C392.32 180.809 393.425 185.355 396.609 183.954Z" fill="#590E0C"/>
<path d="M637.719 115.13L658.845 84.7612L667.648 97.0842L637.719 115.13Z" fill="#77459B"/>
<path d="M606.912 111.608L602.51 73.3181L580.504 83.4411L606.912 111.608Z" fill="#77459B"/>
<path d="M670.289 133.174L703.298 119.09L699.337 147.258L670.289 133.174Z" fill="#77459B"/>
<path d="M563.341 126.572L541.775 97.0842L530.332 127.453L563.341 126.572Z" fill="#77459B"/>
<path d="M407.265 506.591C402.728 509.195 397.772 511.8 392.269 514.363C387.186 516.715 381.683 519.026 375.718 521.21C372.441 522.428 368.997 523.647 365.384 524.823C359.923 526.588 354.126 528.267 347.951 529.822C342.574 498.065 335.937 457.527 333.038 434.801C327.787 393.634 315.059 377.503 315.059 377.503C315.143 377.461 315.689 377.461 316.529 377.461C316.739 377.461 316.991 377.461 317.243 377.503H317.37C327.031 378.007 363.746 383.216 379.834 417.956C391.471 443.118 400.712 479.454 407.265 506.591Z" fill="#278ACC"/>
<path opacity="0.32" d="M392.268 514.363C387.185 516.715 381.682 519.026 375.717 521.21C372.44 522.428 368.996 523.647 365.383 524.823L335.264 396.994C335.264 396.994 339.423 397.456 345.514 401.489C351.731 405.563 359.923 413.377 367.862 428.08C380.589 451.73 389.411 497.728 392.268 514.363Z" fill="#081C3A"/>
<path d="M375.717 521.21C372.44 522.428 368.996 523.647 365.383 524.823C359.922 526.588 354.125 528.267 347.95 529.822C337.616 532.469 326.274 534.821 313.84 536.711C310.143 537.299 306.321 537.845 302.414 538.307C294.517 539.315 286.241 540.113 277.545 540.743C276.957 540.785 276.369 540.827 275.781 540.869C270.74 541.205 265.741 541.458 260.826 541.625C238.058 542.339 216.803 541.121 197.227 538.643C189.204 537.593 181.516 536.332 174.081 534.904C168.83 533.938 163.747 532.846 158.79 531.712C134.132 525.957 113.086 518.479 96.1151 511.128C95.8211 505.037 95.6101 498.946 95.5271 492.939V492.309C94.4771 418.124 117.455 399.136 118.841 398.044C118.883 398.002 118.883 398.002 118.925 398.002C118.925 398.002 169.501 370.908 254.525 372.714C258.138 372.797 261.582 372.882 264.943 373.008C287.333 373.806 304.262 375.402 317.242 377.502H317.369C317.957 377.586 318.545 377.712 319.133 377.796C320.393 378.385 321.779 379.014 323.249 379.771C333.415 384.686 339.044 388.718 345.513 401.489C348.412 407.118 351.436 414.469 355.133 424.341C365.089 451.141 373.28 504.239 375.717 521.21Z" fill="#278ACC"/>
<path opacity="0.32" d="M197.227 538.643C189.204 537.593 181.516 536.332 174.081 534.904C168.83 533.938 163.747 532.846 158.79 531.712C159.588 517.261 160.597 490.713 159.588 465.55C158.16 429.886 152.237 413.251 151.775 412.033C155.303 416.737 158.58 421.779 161.646 427.072C183.785 465.424 193.698 515.749 197.227 538.643Z" fill="#081C3A"/>
<path d="M313.84 536.71C310.143 537.298 306.321 537.844 302.414 538.306C294.517 539.314 286.241 540.112 277.545 540.742C276.957 540.784 276.369 540.826 275.781 540.868C270.74 541.204 265.741 541.457 260.826 541.624C261.456 534.357 262.086 527.258 262.843 520.411C266.498 486.385 269.48 462.818 271.244 449.586C272.378 441.016 273.009 436.774 273.009 436.774L290.19 442.697L290.526 442.823C290.526 442.823 291.03 444.377 292.038 447.36C295.734 458.913 305.774 492.015 313.84 536.71Z" fill="#77459B"/>
<path d="M247.2 435.578C251.319 439.381 261.882 445.507 271.231 449.574C274.136 450.788 276.935 451.845 279.364 452.479C282.797 453.536 285.49 453.799 286.863 453.06C287.55 452.69 288.289 452.056 289.028 451.264C290.032 450.208 291.035 448.888 292.039 447.356C296.58 440.596 301.228 429.611 302.549 422.376C304.345 412.13 298.324 411.549 288.078 400.722C283.43 395.757 280.525 392.43 277.621 390.265C277.516 390.212 277.516 390.16 277.463 390.106C277.41 390.053 277.41 390.053 277.41 390.053C274.03 387.466 270.703 386.303 264.629 385.67C264.629 385.67 257.394 389.261 253.802 397.077C250.211 404.894 239.965 428.977 247.2 435.578Z" fill="#77459B"/>
<path opacity="0.57" d="M286.872 447.234C286.872 447.234 280.991 446.898 279.353 452.485C278.975 453.745 278.849 455.341 279.059 457.274C279.521 461.685 278.681 498.861 277.546 540.743C276.958 540.785 276.37 540.827 275.782 540.869C270.741 541.205 265.742 541.458 260.827 541.625C261.457 534.358 262.087 527.259 262.844 520.412C266.499 486.386 269.481 462.819 271.245 449.587C261.877 445.512 251.333 439.379 247.217 435.599C239.95 428.962 250.2 404.891 253.813 397.078C257.383 389.264 264.651 385.651 264.651 385.651C270.7 386.324 274.019 387.458 277.421 390.062C261.206 386.029 253.477 395.019 253.224 408.546C252.846 426.483 267.675 431.23 273.01 436.775C278.428 442.32 286.872 447.234 286.872 447.234Z" fill="#4B1E72"/>
<path opacity="0.5" d="M313.84 536.71C310.143 537.298 306.321 537.844 302.414 538.306C296.617 501.129 290.862 463.364 289.013 451.266C288.677 448.662 288.467 447.233 288.467 447.233C288.467 447.233 289.181 445.469 290.189 442.696C292.373 436.689 295.776 426.061 295.272 419.592C294.642 410.687 279.477 392.539 277.629 390.271C280.528 392.414 283.426 395.774 288.089 400.732C298.339 411.527 304.346 412.116 302.54 422.365C301.238 429.591 296.575 440.596 292.038 447.359C295.734 458.913 305.774 492.015 313.84 536.71Z" fill="#A474CE"/>
<path d="M174.081 534.904C168.83 533.938 163.747 532.846 158.79 531.712C134.132 525.957 113.086 518.479 96.1151 511.128C94.9381 510.624 93.8041 510.12 92.6701 509.658C81.9581 504.827 73.0111 500.206 65.8691 496.174C68.7251 483.698 72.2541 470.088 76.2441 457.359C88.2581 419.427 102.247 401.405 118.84 398.045C118.882 398.003 118.882 398.003 118.924 398.003C128.417 396.071 136.146 393.761 144.254 400.104C149.673 404.305 155.26 412.37 161.645 427.073C162.528 429.047 163.409 431.148 164.292 433.374C175.761 462.105 175.551 507.557 174.081 534.904Z" fill="#278ACC"/>
<path opacity="0.32" d="M144.255 400.102L142.953 406.697C110.271 409.974 103.592 442.698 98.9291 471.389C97.7951 478.32 96.6191 485.461 95.5261 492.309C94.5181 498.442 93.5521 504.323 92.6701 509.658C81.9581 504.827 73.0111 500.206 65.8691 496.174C68.7251 483.698 72.2541 470.088 76.2441 457.359C88.2581 419.427 102.247 401.405 118.84 398.045C118.882 398.003 118.882 398.003 118.924 398.003C128.419 396.07 136.148 393.759 144.255 400.102Z" fill="#081C3A"/>
<path d="M283.932 330.202C283.806 330.748 283.68 331.336 283.596 331.882C281.873 340.536 280.739 348.559 280.067 355.742C277.799 378.762 279.731 393.507 279.731 393.507C279.731 393.507 250.535 394.305 225.499 387.752C200.463 381.157 202.563 374.604 202.563 374.604C202.563 374.604 203.319 373.049 204.285 369.815C206.05 364.186 208.612 353.474 209.494 336.797C210.502 317.978 211.846 305.039 212.561 299.242C212.813 296.889 212.98 295.714 212.98 295.714C212.98 295.714 231.758 303.905 255.408 313.777C279.059 323.648 283.932 330.202 283.932 330.202Z" fill="#FFCBB6"/>
<path opacity="0.29" d="M283.595 331.882C281.872 340.536 280.738 348.559 280.066 355.742C253.35 358.893 228.649 342.047 228.649 342.047C228.649 342.047 225.162 355.028 223.398 366.58C221.76 377.544 225.12 383.761 225.456 384.391L204.285 369.815C206.05 364.186 208.612 353.474 209.494 336.797C210.502 317.978 211.846 305.039 212.561 299.242C212.687 299.242 212.77 299.326 212.897 299.368C232.514 308.82 264.02 318.608 264.02 318.608L283.595 331.882Z" fill="#ED4A4A"/>
<path d="M373.492 317.054C366.561 323.817 358.117 329.404 348.581 333.689C317.622 347.719 275.236 348.181 236.253 331.84C185.298 310.5 172.15 272.694 171.351 264.461C170.511 256.269 168.453 247.238 168.453 247.238C168.453 247.238 152.448 249.674 149.171 232.409C148.163 227.242 147.701 223.293 147.911 220.059C148.373 212.54 152.532 208.675 162.319 201.198C176.266 190.527 188.616 195.443 191.893 180.656C195.169 165.869 210.796 127.223 210.796 127.223L250.242 94.373H314.345L359.545 100.128L373.492 103.404L380.633 116.09L384.161 122.307C385.842 155.997 391.597 186.41 398.99 215.186C406.384 243.918 403.065 288.32 373.492 317.054Z" fill="#FFCBB6"/>
<path opacity="0.29" d="M380.632 116.089L378.49 119.072C360.636 135.875 343.497 123.272 343.497 123.272C343.497 123.272 335.768 132.724 318.965 133.438C302.162 134.11 291.66 125.037 291.66 125.037C291.66 125.037 272.084 135.875 262.255 137.261C253.181 138.605 248.602 134.741 248.014 134.236C248.77 135.16 253.853 142.133 244.401 155.492C234.278 169.816 223.776 168.094 223.776 168.094C223.776 168.094 237.05 183.847 219.911 203.422C202.772 223.039 189.456 221.275 189.456 221.275C189.456 221.275 193.32 275.213 221.297 306.34C249.316 337.51 309.513 341.374 327.366 337.846C337.154 335.956 344.211 334.527 348.579 333.687C317.62 347.717 275.234 348.179 236.251 331.838C185.296 310.498 172.148 272.692 171.349 264.459C170.509 256.267 168.451 247.236 168.451 247.236C168.451 247.236 152.446 249.672 149.169 232.407C148.161 227.24 147.699 223.291 147.909 220.057C148.371 212.538 152.53 208.673 162.317 201.196C176.264 190.525 188.614 195.441 191.891 180.654C195.167 165.867 210.794 127.221 210.794 127.221L250.24 94.3711H314.343L359.543 100.126L373.49 103.402L380.632 116.089Z" fill="#ED4A4A"/>
<path d="M191.848 356.2C184.462 363.076 181.916 371.989 180.643 376.064C179.37 380.138 183.699 388.543 197.96 397.966C210.774 406.432 244.31 420.377 252.46 419.358C260.61 418.339 270.542 396.183 270.032 393.127C269.522 390.071 256.789 386.506 241 381.667C225.21 376.829 209.93 366.132 208.147 363.586C206.364 361.039 208.402 351.616 208.402 351.616C208.402 351.616 203.309 351.107 198.979 352.38C194.649 353.653 191.848 356.2 191.848 356.2Z" fill="#66C2E7"/>
<path d="M270.031 393.127C274.87 397.456 282.51 410.19 288.368 414.011C294.225 417.831 299.573 414.011 306.704 407.644C313.834 401.277 320.202 394.91 318.674 389.053C317.146 383.196 303.393 375.046 296.263 372.244C289.132 369.443 278.945 366.896 278.945 366.896C278.945 366.896 279.709 370.461 276.908 379.375C274.106 388.289 270.031 393.127 270.031 393.127Z" fill="#66C2E7"/>
<path d="M415.687 113.084V113.43C416.575 140.746 380.827 140.154 380.827 140.154C380.827 134.73 371.163 115.501 371.163 115.501C371.163 115.501 367.564 121.516 356.125 118.509C344.685 115.501 341.678 110.669 341.678 110.669C341.678 110.669 326.64 122.108 308.593 120.875C290.547 119.692 283.94 110.077 283.94 110.077C283.94 110.077 274.917 122.7 259.878 124.475C244.84 126.349 234.633 116.093 234.633 116.093C234.633 116.093 229.751 138.971 222.602 151.002C215.354 163.033 199.724 163.625 199.724 163.625C199.724 163.625 206.331 178.023 203.323 187.686C200.316 197.301 190.701 203.317 175.613 201.542C160.623 199.717 151.601 205.733 151.601 225.554C151.601 245.425 168.463 247.249 168.463 247.249C168.463 247.249 170.534 256.272 171.323 264.457C171.816 269.19 176.303 283.538 189.616 299.021C177.289 295.471 173.591 283.983 173.591 283.983C173.591 283.983 171.175 288.273 167.527 290.393C164.568 292.118 155.693 295.077 149.727 285.019C149.283 293.943 146.473 298.134 144.895 299.811C144.205 300.501 143.761 300.797 143.761 300.797C143.761 300.797 143.761 300.797 143.712 300.797C143.12 300.797 137.056 300.254 136.563 279.694C135.922 258.048 134.738 224.372 129.956 184.039C125.075 143.755 122.708 147.355 134.738 128.125C134.738 128.125 107.669 123.885 113.685 107.071C114.227 105.642 114.72 104.409 115.312 103.422C117.629 99.3301 120.44 98.0972 123.152 98.0972C127.639 98.0972 131.78 101.746 132.274 102.19C131.978 101.697 126.949 93.0192 126.949 86.6092C126.949 81.4812 129.858 70.8802 136.811 69.4992C138.783 69.1542 141.101 69.4991 143.763 70.9781C152.392 75.7611 151.405 83.3052 150.173 87.1512C152.687 81.4812 160.577 67.6262 179.856 57.7152C204.509 45.0932 203.326 52.3412 236.411 38.4862C246.321 34.3932 255.837 28.2302 264.959 22.2642C286.26 8.31016 305.391 -4.80484 321.81 10.8252C345.28 33.0622 328.466 46.3262 328.466 46.3262C328.466 46.3262 329.403 46.5232 331.523 46.7702C335.468 47.1152 343.258 47.5102 356.127 46.3262C365.495 45.4872 374.912 41.9382 383.492 41.0012C393.206 39.8672 401.785 41.9872 407.85 54.7082C419.338 78.8192 395.228 83.6021 395.228 83.6021C395.228 83.6021 399.469 84.0462 404.054 87.3002C409.277 90.9942 415.046 98.3902 415.687 113.084Z" fill="#893020"/>
<path opacity="0.61" d="M415.687 113.429C416.575 140.745 380.827 140.153 380.827 140.153C380.827 134.729 371.163 115.5 371.163 115.5C371.163 115.5 367.564 121.515 356.125 118.508C344.685 115.5 341.678 110.668 341.678 110.668C341.678 110.668 326.64 122.107 308.593 120.874C290.547 119.691 283.94 110.076 283.94 110.076C283.94 110.076 274.917 122.699 259.878 124.474C244.84 126.348 234.633 116.092 234.633 116.092C234.633 116.092 229.751 138.97 222.602 151.001C215.354 163.032 199.724 163.624 199.724 163.624C199.724 163.624 206.331 178.022 203.323 187.685C200.316 197.3 190.701 203.316 175.613 201.541C160.623 199.716 151.601 205.732 151.601 225.553C151.601 245.424 168.463 247.248 168.463 247.248C168.463 247.248 170.534 256.271 171.323 264.456C171.816 269.189 176.303 283.537 189.616 299.02C177.289 295.47 173.591 283.982 173.591 283.982C173.591 283.982 171.175 288.272 167.527 290.392C164.568 292.117 155.693 295.076 149.727 285.018C149.678 285.708 149.629 286.349 149.579 286.941C149.481 287.877 149.382 288.715 149.234 289.554C149.234 289.702 149.185 289.801 149.185 289.949C149.136 290.294 149.086 290.59 148.987 290.837C148.741 292.118 148.445 293.203 148.1 294.19C148.001 294.535 147.854 294.831 147.755 295.127C147.508 295.719 147.262 296.211 147.015 296.705C146.916 296.853 146.867 297.05 146.768 297.197C146.571 297.493 146.423 297.789 146.226 298.036C145.783 298.825 145.289 299.416 144.895 299.811C144.205 300.501 143.761 300.797 143.761 300.797C143.761 300.797 143.761 300.797 143.712 300.797C143.12 300.797 137.056 300.254 136.563 279.694C135.922 258.048 134.738 224.372 129.956 184.039C125.075 143.755 122.708 147.355 134.738 128.125C134.738 128.125 107.669 123.885 113.685 107.071C114.227 105.642 114.72 104.409 115.312 103.422C116.643 107.416 119.404 111.656 123.152 113.333C132.964 117.722 147.065 121.666 147.065 121.666C147.065 121.666 138.634 129.357 138.881 162.738C139.127 196.119 147.065 200.556 147.065 200.556C147.065 200.556 151.108 191.385 158.8 186.701C166.443 182.017 183.256 186.849 189.37 179.157C195.138 171.909 183.847 156.032 182.467 154.06C183.503 155.095 190.455 161.111 201.302 142.423C213.086 122.158 215.404 99.033 215.404 99.033C215.404 99.033 236.853 116.882 257.068 111.606C277.334 106.33 289.907 89.615 289.907 89.615C289.907 89.615 285.173 102.337 313.427 106.527C341.679 110.669 349.174 94.841 349.174 94.841C349.174 94.841 351.146 105.836 367.91 106.527C380.632 107.02 386.203 102.336 388.126 100.117C387.288 102.089 387.683 106.281 398.875 112.444C406.171 116.486 411.693 115.599 415.687 113.429Z" fill="#511715"/>
<path d="M154.716 103.676C154.716 103.676 144.417 101.035 138.872 89.6281C135.703 83.2371 134.225 76.2131 136.812 69.5061C129.841 70.8791 126.936 81.4951 126.936 86.6181C126.936 93.2201 132.323 102.251 132.323 102.251C132.323 102.251 127.94 98.0791 123.133 98.0791C136.231 109.274 154.716 103.676 154.716 103.676Z" fill="#511715"/>
<path d="M380.865 81.1771C381.657 81.3891 390.424 83.4481 404.05 87.3041C399.455 84.0301 395.23 83.6071 395.23 83.6071C395.23 83.6071 419.313 78.8011 407.852 54.7181C401.778 41.9901 393.223 39.8771 383.505 40.9871C391.797 48.8031 395.546 60.2641 392.642 67.1301C386.833 80.7551 381.499 81.1771 380.865 81.1771Z" fill="#AA4F43"/>
<path d="M320.34 33.487C319.6 47.324 309.777 54.56 309.777 54.56C309.777 54.56 308.668 61.056 331.536 46.744C329.424 46.533 328.473 46.321 328.473 46.321C328.473 46.321 345.268 33.065 321.818 10.83C305.393 -4.80296 286.274 8.29504 264.938 22.238C310.41 1.11205 320.973 21.287 320.34 33.487Z" fill="#AA4F43"/>
<path d="M365.145 195.8C365.145 202.611 368.646 208.133 372.966 208.133C377.285 208.133 380.787 202.611 380.787 195.8C380.787 188.988 377.285 183.467 372.966 183.467C368.646 183.467 365.145 188.988 365.145 195.8Z" fill="#590E0C"/>
<path d="M261.672 195.8C261.672 202.611 265.174 208.133 269.492 208.133C273.812 208.133 277.313 202.611 277.313 195.8C277.313 188.988 273.811 183.467 269.492 183.467C265.174 183.467 261.672 188.988 261.672 195.8Z" fill="#590E0C"/>
<path d="M334.466 195.325C338.239 194.916 342.475 196.338 344.26 199.687C345.644 202.285 345.336 205.512 346.618 208.163C349.182 213.465 356.97 214.559 359.489 219.882C360.741 222.53 360.339 225.771 358.878 228.309C357.418 230.848 355.014 232.739 352.396 234.054C343.525 238.51 331.75 236.12 325.318 228.559C316.412 218.09 318.713 197.031 334.466 195.325Z" fill="#FF8B7B"/>
<path d="M350.106 141.355C349.282 150.421 348.301 157.598 350.708 160.606C353.114 163.614 358.529 156.996 365.147 156.996C371.765 156.996 380.187 162.411 383.796 163.012C387.406 163.614 386.202 147.972 383.194 143.16C380.186 138.347 375.374 135.339 366.951 135.339C358.529 135.339 350.708 134.738 350.106 141.355Z" fill="#893020"/>
<path d="M300.775 140.754C302.321 153.898 301.978 156.997 296.564 158.802C291.15 160.607 284.532 148.575 272.501 149.779C260.469 150.982 256.258 156.998 250.242 158.201C244.226 159.404 243.023 143.161 244.827 135.942C246.632 128.723 262.875 124.512 274.907 126.316C286.938 128.121 299.571 130.527 300.775 140.754Z" fill="#893020"/>
<path d="M283.105 281.607C288.281 293.543 298.315 303.261 313.42 305.584C321.923 306.905 329.687 305.637 336.447 302.732C349.65 297.134 358.787 285.25 361.216 273.632C362.167 269.301 362.114 264.97 360.952 261.062C357.942 250.869 338.665 257.471 323.031 247.225C310.778 239.25 299.265 226.786 289.917 232.437C287.329 234.021 284.952 236.979 282.735 241.838C277.4 253.351 277.454 268.773 283.105 281.607Z" fill="#4F231D"/>
<path d="M289.918 232.437C290.341 236.926 291.872 242.102 295.358 247.859C306.765 266.503 317.011 270.093 343.471 274.318C351.287 275.586 357.044 275.005 361.216 273.632C362.167 269.301 362.114 264.97 360.952 261.062C357.942 250.869 338.665 257.471 323.031 247.225C310.78 239.249 299.267 226.786 289.918 232.437Z" fill="white"/>
<path d="M283.105 281.607C288.281 293.543 298.315 303.261 313.42 305.584C321.923 306.905 329.687 305.637 336.447 302.732C334.44 293.7 328.948 282.082 314.001 277.909C299.899 273.948 289.601 277.54 283.105 281.607Z" fill="#FFA399"/>
<path d="M116.53 286.941C119.33 321.376 184.344 334.896 195.223 336.903C196.226 337.114 196.755 337.22 196.755 337.22L197.547 330.354L201.297 297.134C201.297 297.134 201.244 297.134 201.138 297.134C199.078 296.923 178.375 294.705 157.673 278.332C135.808 261.061 134.805 239.778 134.805 239.778L134.752 239.831C133.589 240.359 113.573 250.499 116.53 286.941Z" fill="#FF9C7D"/>
<path d="M189.415 327.819C189.626 332.36 191.157 335.16 193.376 336.11C193.904 336.321 194.485 336.585 195.224 336.902C198.499 338.328 203.516 340.546 206.79 341.18C210.751 341.972 220.469 343.398 224.747 341.391C226.701 340.441 227.494 339.49 227.546 338.645C227.705 337.641 226.754 336.796 225.381 336.585C225.222 336.585 225.064 336.585 224.853 336.532C223.427 336.373 220.945 336.268 218.568 336.162C218.304 336.162 218.039 336.162 217.828 336.109C215.187 336.004 212.864 335.845 212.283 335.581C211.068 335.106 211.649 334.895 212.652 334.367C213.602 333.839 229.235 335.899 232.563 333.944C233.936 333.152 234.728 331.938 234.887 330.828C234.993 330.353 234.993 329.93 234.887 329.561C234.782 328.927 234.464 328.399 233.937 328.082C233.62 327.818 233.198 327.713 232.669 327.659C229.606 327.448 214.395 327.976 213.392 327.237C212.599 326.656 212.864 326.339 214.079 326.075C214.132 326.075 214.132 326.075 214.132 326.075C214.343 326.022 214.555 325.97 214.819 325.917C216.72 325.653 228.814 326.551 232.089 325.811C235.047 325.23 237.423 324.702 238.163 322.801C238.269 322.537 238.322 322.273 238.374 321.956C238.691 319.315 239.272 316.516 234.624 317.097C231.561 317.519 224.378 317.308 219.731 317.097H219.361C217.301 316.938 215.77 316.833 215.506 316.78C214.82 316.622 214.028 316.358 214.503 315.935C214.608 315.829 214.82 315.724 215.189 315.565C216.721 314.984 218.78 315.195 223.745 315.354C226.755 315.459 230.821 315.512 234.149 314.984C235.047 314.825 235.733 314.72 236.103 314.615C236.262 314.562 236.42 314.562 236.578 314.509C237.634 314.245 238.532 313.823 239.166 313.348C240.592 312.239 241.437 310.654 241.437 309.281V309.228C241.437 308.12 240.75 307.169 239.272 306.852C235.944 306.112 231.878 307.327 226.702 306.957C221.526 306.535 213.868 305.953 213.868 305.953C213.868 305.953 214.29 304.897 216.931 304.422C219.572 303.893 222.001 304.211 225.381 302.151C228.814 300.144 226.49 296.605 224.747 296.5C223.004 296.394 222.74 296.605 219.783 296.5C216.826 296.394 213.392 295.76 211.227 295.76C209.009 295.76 201.298 297.028 201.298 297.028C201.298 297.028 201.245 297.08 201.139 297.133C200.294 297.714 195.594 301.2 193.481 305.636C191.157 310.495 190.312 316.304 189.52 323.382C189.362 325.019 189.309 326.499 189.415 327.819Z" fill="#FF9C7D"/>
<path opacity="0.29" d="M236.578 314.509C237.634 314.245 238.532 313.823 239.166 313.348C240.592 312.239 241.437 310.654 241.437 309.281C240.486 310.074 239.007 310.865 236.789 311.394C230.557 312.82 212.548 309.228 212.548 309.228C212.548 309.228 212.284 312.344 212.759 314.035C212.97 314.775 213.551 315.409 214.502 315.936C215.611 316.517 217.195 316.887 219.361 317.098H219.731C222.741 317.203 230.294 315.778 234.149 314.985C235.047 314.826 235.733 314.721 236.103 314.616C236.261 314.562 236.419 314.562 236.578 314.509Z" fill="#ED4A4A"/>
<path opacity="0.29" d="M232.087 325.811C235.045 325.23 237.421 324.702 238.161 322.801C236.947 323.118 234.886 323.118 231.718 322.906C225.591 322.484 211.807 321.216 211.807 321.216C211.807 321.216 212.916 325.388 214.078 326.074C214.131 326.074 214.131 326.074 214.131 326.074C214.395 326.127 214.606 326.127 214.818 325.916C216.243 324.597 232.087 325.811 232.087 325.811Z" fill="#ED4A4A"/>
<path opacity="0.29" d="M234.886 329.561C234.781 328.927 234.463 328.399 233.936 328.082C234.306 328.611 234.622 329.139 234.886 329.561Z" fill="#ED4A4A"/>
<path opacity="0.29" d="M232.563 333.944C233.936 333.152 234.728 331.938 234.887 330.828C234.412 331.568 232.511 332.095 228.127 332.254C221.842 332.465 211.596 329.138 211.596 329.138C211.596 329.138 210.857 332.254 212.653 334.366C213.602 333.84 229.235 335.899 232.563 333.944Z" fill="#ED4A4A"/>
<path opacity="0.29" d="M218.566 336.163C220.573 336.374 222.791 336.427 224.851 336.533C223.425 336.374 220.943 336.269 218.566 336.163Z" fill="#ED4A4A"/>
<path opacity="0.29" d="M116.53 286.941C119.33 321.376 184.344 334.896 195.223 336.903C198.498 338.329 203.515 340.547 206.789 341.181C210.75 341.973 220.468 343.399 224.746 341.392C226.7 340.442 227.493 339.491 227.545 338.646C224.218 339.121 219.465 339.596 213.286 338.541C206.526 337.326 203.885 332.52 198.392 330.619C198.128 330.513 197.864 330.46 197.547 330.354C195.646 329.72 193.005 329.034 189.414 327.819C181.439 325.178 168.764 320.002 149.645 307.96C120.65 289.686 122.076 265.128 134.751 239.83C133.589 240.359 113.573 250.499 116.53 286.941Z" fill="#ED4A4A"/>
</g>
<mask id="mask4_2645_720" style="mask-type:luminance" maskUnits="userSpaceOnUse" x="0" y="0" width="1470" height="500">
<path d="M1470 0H0V500H1470V0Z" fill="white"/>
</mask>
<g mask="url(#mask4_2645_720)">
<path d="M80.3136 36.8911C79.9986 40.5161 77.2446 50.2551 70.6836 52.9421C77.0346 53.4501 82.6196 55.7681 86.8336 61.7471C88.2006 55.2701 91.8296 49.9311 96.3836 46.5221C91.9706 46.2551 86.6776 45.0481 80.3136 36.8911Z" fill="#FF8303"/>
<path d="M676.831 79.2202C676.516 82.8452 673.762 92.5842 667.201 95.2712C673.552 95.7792 679.136 98.0972 683.351 104.076C684.717 97.5992 688.347 92.2602 692.901 88.8512C688.488 88.5832 683.194 87.3772 676.831 79.2202Z" fill="#FF8303"/>
<path d="M582.21 334.47C581.895 338.095 579.141 347.834 572.58 350.521C578.931 351.029 584.515 353.347 588.73 359.326C590.096 352.849 593.726 347.51 598.28 344.101C593.866 343.833 588.573 342.627 582.21 334.47Z" fill="#FF8303"/>
<path d="M77.7208 147.274C75.1058 149.803 66.6378 155.348 59.9238 153.073C64.3838 157.622 67.0788 163.035 66.3388 170.313C71.6188 166.321 77.8598 164.671 83.5338 165.086C80.3778 161.988 77.1738 157.605 77.7208 147.274Z" fill="#FF8303"/>
<path d="M101.33 280.995C98.7152 283.524 90.2472 289.069 83.5332 286.794C87.9932 291.343 90.6882 296.756 89.9482 304.034C95.2282 300.042 101.469 298.392 107.143 298.807C103.987 295.708 100.783 291.326 101.33 280.995Z" fill="#FF8303"/>
</g>
<mask id="mask5_2645_720" style="mask-type:luminance" maskUnits="userSpaceOnUse" x="0" y="0" width="1470" height="500">
<path d="M1470 0H0V500H1470V0Z" fill="white"/>
</mask>
<g mask="url(#mask5_2645_720)">
<path d="M574.931 454.776C565.841 460.562 554.651 464.132 545.411 465.16C528.838 467.002 518.4 454.66 512.995 429.995C511.365 422.533 511.972 416.343 513.976 411.476C521.747 392.434 550.708 393.623 549.617 418.391C557.25 405.224 577.215 403.908 586.758 414.375C589.124 416.962 590.851 420.266 591.594 424.303C593.996 437.377 586.015 447.733 574.931 454.776Z" fill="#FF4B50"/>
<g opacity="0.15">
<path d="M574.931 454.776C565.841 460.562 554.651 464.132 545.411 465.16C528.838 467.002 518.4 454.66 512.995 429.995C511.365 422.533 511.972 416.343 513.976 411.476C513.186 418.853 514.848 426.538 518.515 433.041C523.69 442.234 532.589 449.073 542.513 452.651C552.443 456.243 563.338 456.718 573.75 454.996C574.149 454.928 574.536 454.868 574.931 454.776Z" fill="#005219"/>
</g>
</g>
<mask id="mask6_2645_720" style="mask-type:luminance" maskUnits="userSpaceOnUse" x="0" y="0" width="1470" height="500">
<path d="M1470 0H0V500H1470V0Z" fill="white"/>
</mask>
<g mask="url(#mask6_2645_720)">
<path d="M525.455 59.002C520.077 61.595 513.686 62.832 508.535 62.797C499.295 62.733 494.354 55.262 492.983 41.337C492.571 37.124 493.308 33.758 494.728 31.21C500.243 21.236 516.103 23.774 513.892 37.333C518.949 30.583 530.021 31.158 534.592 37.538C535.726 39.115 536.462 41.046 536.608 43.316C537.079 50.668 532.013 55.847 525.455 59.002Z" fill="#FF4B50"/>
<g opacity="0.15">
<path d="M525.455 59.002C520.077 61.595 513.686 62.832 508.535 62.797C499.295 62.733 494.354 55.262 492.983 41.337C492.571 37.124 493.308 33.758 494.728 31.21C493.814 35.218 494.228 39.555 495.824 43.372C498.074 48.768 502.526 53.11 507.755 55.724C512.986 58.347 518.951 59.316 524.793 59.046C525.016 59.035 525.232 59.027 525.455 59.002Z" fill="#005219"/>
</g>
</g>
<path d="M819.32 86.3805C827.323 81.1605 822.029 66.1205 811.729 73.7205C802.542 80.4975 811.24 91.6505 819.32 86.3805Z" fill="#E5B303"/>
<path d="M829.183 122.026C829.183 122.026 821.799 91.2707 814.416 83.4757L819.947 77.2537C838.638 90.4217 858.102 92.1647 858.102 92.1647" fill="#E5B303"/>
<path d="M897.466 50.3206C906.928 51.6466 912.823 36.8316 900.065 35.7896C888.687 34.8596 887.912 48.9816 897.466 50.3206Z" fill="#E5B303"/>
<path d="M881.475 83.6685C881.475 83.6685 896.123 55.6365 895.682 44.9085L903.94 43.8545C909.373 66.0635 922.896 80.1695 922.896 80.1695" fill="#E5B303"/>
<path d="M939.26 39.5964C939.998 43.6914 940.72 47.6314 941.437 51.4624C943.28 61.4954 945.053 70.6234 946.581 78.6774L946.584 78.6924C948.063 86.6604 949.317 93.5814 950.157 99.3814C950.901 104.378 951.331 108.518 951.369 111.724C951.5 122.779 931.594 142.342 901.848 155.748C871.45 169.458 841.149 178.731 827.355 164.972C826.25 163.878 825.103 162.651 823.889 161.326C823.886 161.311 823.886 161.311 823.883 161.295C813.364 149.59 799.862 129.994 790.245 116.462C787.361 112.399 784.839 108.881 782.834 106.289L788.923 100.389C790.122 101.004 791.306 101.544 792.475 102.007C809.886 108.823 823.794 97.5174 832.136 78.7094C835.489 71.1544 837.95 62.3844 839.362 53.1114C840.596 45.1714 841.063 36.8784 840.699 28.6244L845.982 26.4624C850.525 31.3024 854.898 35.5274 859.116 39.1344C863.605 42.9884 867.899 46.1844 872.023 48.7644C900.478 66.6594 920.26 55.9224 931.617 37.2254L939.26 39.5964Z" fill="#FFC703"/>
<path d="M792.475 102.009C793.368 106.881 792.534 112.065 790.245 116.463C787.361 112.4 784.839 108.882 782.834 106.29L788.923 100.39C790.122 101.006 791.306 101.546 792.475 102.009Z" fill="#E5B303"/>
<path d="M941.434 51.4666C943.284 61.4936 945.055 70.6216 946.576 78.6856C944.02 73.5966 934.907 78.8336 929.547 84.7376C925.163 89.5696 923.298 94.8515 929.643 95.2645C943.737 96.1605 913.253 128.821 913.253 128.821L898.057 133.581L887.324 127.618L894.539 103.633C906.887 99.5415 918.836 92.8865 927.568 83.9175C936.06 75.1965 941.54 64.3086 941.434 51.4666Z" fill="#6C6C6B"/>
<path d="M951.376 111.726C951.433 117.202 946.563 124.8 937.999 132.663C937.355 133.269 936.692 133.876 935.991 134.463C935.366 135.012 934.721 135.562 934.058 136.111C931.614 138.12 928.961 140.147 926.081 142.136C922.803 144.41 919.241 146.665 915.451 148.825C911.207 151.25 906.678 153.581 901.866 155.741C897.034 157.92 892.222 159.985 887.485 161.842H887.466C862.266 171.808 838.961 176.545 827.365 164.987C826.247 163.888 825.11 162.657 823.898 161.33C823.879 161.311 823.879 161.311 823.879 161.311C821.473 156.044 823.405 149.999 828.275 143.747C828.294 143.728 828.313 143.728 828.332 143.709C830.132 141.397 832.33 139.067 834.888 136.736C860.012 113.734 917.631 90.9015 942.054 95.6765C946.848 96.6235 950.429 100.698 950.959 105.53C951.206 107.879 951.357 109.963 951.376 111.726Z" fill="#F0BB03"/>
<path d="M930.003 122.032L927.426 123.529L934.058 136.11C931.614 138.119 928.961 140.146 926.081 142.135L919.355 129.819L927.18 123.244L932.523 118.753L937.999 132.66C937.355 133.266 936.692 133.873 935.991 134.46L930.003 122.032Z" fill="#6C6C6B"/>
<path d="M914.242 142.322C909.533 146.095 907.487 151.948 915.459 148.823C911.211 151.253 906.673 153.583 901.865 155.746C897.042 157.911 892.23 159.979 887.489 161.843L887.474 161.846L887.471 161.831C900.678 155.825 908.674 147.898 900.249 150.259L900.007 141.822C900.007 141.822 916.434 132.751 917.132 132.201C917.831 131.665 918.948 138.534 914.242 142.322Z" fill="#6C6C6B"/>
<path d="M845.781 147.114C845.781 147.114 831.985 156.198 832.76 151.437C833.52 146.679 832.666 138.902 828.322 143.711C830.123 141.389 832.334 139.064 834.892 136.733C832.315 146.112 837.707 144.577 841.107 141.382C844.507 138.186 845.781 147.114 845.781 147.114Z" fill="#6C6C6B"/>
<path d="M943.949 112.899C938.53 130.88 895.993 157.008 864.162 163.469C851.827 165.951 841.122 165.515 834.775 160.513C832.899 159.035 831.971 157.273 831.914 155.359C831.137 136.165 913.35 98.5745 937.754 102.704C941.714 103.367 944.158 105.129 944.48 108.237C944.631 109.716 944.442 111.27 943.949 112.899Z" fill="#E57603"/>
<path d="M937.753 102.707C937.696 103.616 937.507 104.545 937.204 105.492C931.804 123.454 889.248 149.582 857.417 156.043C847.337 158.089 838.318 158.165 831.914 155.361C831.137 136.167 913.349 98.5756 937.753 102.707Z" fill="#CE6A03"/>
<path d="M776.154 96.2416C767.574 105.361 777.972 121.982 789.733 110.021C802.227 97.3136 784.817 87.0346 776.154 96.2416Z" fill="#FFC703"/>
<path d="M934.89 25.4315C922.686 28.2305 922.071 47.8265 938.5 44.4375C955.953 40.8365 947.213 22.6055 934.89 25.4315Z" fill="#FFC703"/>
<path d="M834.252 15.5705C820.429 24.8825 829.033 49.5195 847.822 37.4555C867.783 24.6395 848.209 6.16848 834.252 15.5705Z" fill="#FFC703"/>
<path d="M858.099 64.3435C858.298 69.3135 852.637 84.4405 843.281 90.1185C854.528 89.2725 866.077 91.6975 873.516 98.4035C874.367 89.2695 877.813 78.2365 884.022 72.2205C877.344 73.2515 869.169 73.2985 858.099 64.3435Z" fill="#6C6C6B"/>
<path d="M858.1 64.3435C858.299 69.3135 855.968 83.2695 846.613 88.9485C856.246 87.6285 865.064 88.9845 872.503 95.6905C873.354 86.5565 877.815 78.2365 884.024 72.2195C877.345 73.2515 869.17 73.2985 858.1 64.3435Z" fill="#FF8303"/>
<path d="M907.03 72.8156C899.095 75.2966 901.899 87.3206 911.076 84.6346C921.205 81.6696 915.501 70.1676 907.03 72.8156Z" fill="#6C6C6B"/>
<path d="M907.591 72.4506C900.258 74.7436 902.85 85.8535 911.33 83.3715C920.689 80.6325 915.419 70.0036 907.591 72.4506Z" fill="#FF8303"/>
<path d="M830.438 107.631C821.743 111.961 828.194 124.706 837.128 117.844C843.589 112.881 837.259 104.234 830.438 107.631Z" fill="#6C6C6B"/>
<path d="M830.902 106.638C822.89 110.628 828.834 122.37 837.066 116.048C843.019 111.476 837.187 103.509 830.902 106.638Z" fill="#FF8303"/>
<path d="M872.02 48.7676C863.342 48.2796 858.623 49.4606 853.697 52.8356C844.815 58.9156 838.344 67.2506 832.139 78.7176C835.491 71.1596 837.95 62.3906 839.369 53.1136C842.696 53.4646 846.189 52.8306 849.112 51.2206C853.808 48.6426 857.116 44.1876 859.115 39.1426C863.604 42.9936 867.897 46.1836 872.02 48.7676Z" fill="#6C6C6B"/>
<path d="M842.563 16.0415C838.36 17.0515 838.981 23.1525 845.377 22.3555C851.775 21.5585 850.387 14.1605 842.563 16.0415Z" fill="#6C6C6B"/>
<path d="M936.056 29.0105C932.954 29.7565 933.412 34.2595 938.134 33.6715C942.856 33.0835 941.832 27.6225 936.056 29.0105Z" fill="#6C6C6B"/>
<path d="M781.846 95.1904C778.743 95.9364 779.201 100.439 783.923 99.8514C788.645 99.2634 787.621 93.8024 781.846 95.1904Z" fill="#6C6C6B"/>
<path d="M887.466 161.84C872.403 167.877 853.972 174.87 837.606 171.306C833.393 170.293 829.253 168.151 826.289 164.932L823.344 161.846C822.459 160.321 822.145 158.45 822.086 156.701C822.234 146.584 831.879 138.009 839.128 132C860.189 115.876 885.027 104.898 910.593 98.1815C920.82 95.7705 931.585 93.7435 942.052 95.6755C936.82 94.8435 931.505 95.1695 926.292 95.8695C897.523 100.366 863.247 115.558 840.201 133.346C833.694 138.69 827.268 144.32 824.365 152.252C823.89 153.694 823.613 155.191 823.629 156.679C823.642 158.166 823.957 159.638 824.567 160.994L824.412 160.772C826.422 162.819 828.192 165.063 830.441 166.611C845.404 176.916 871.767 167.42 887.466 161.84Z" fill="#FFDF6E"/>
<path d="M1113.33 81.0763C1116.45 75.9884 1114.86 69.3328 1109.77 66.2107C1104.68 63.0886 1098.03 64.6822 1094.91 69.7701C1091.78 74.858 1093.38 81.5136 1098.47 84.6358C1103.55 87.7579 1110.21 86.1642 1113.33 81.0763Z" fill="#E5BE3B"/>
<path d="M1248.69 105.889C1250.93 96.4542 1245.11 86.9855 1235.67 84.7403C1226.24 82.495 1216.77 88.3234 1214.52 97.7583C1212.28 107.193 1218.11 116.662 1227.54 118.907C1236.98 121.152 1246.44 115.324 1248.69 105.889Z" fill="#E5BE3B"/>
<path d="M1360.3 113.597C1365.15 113.597 1369.08 109.666 1369.08 104.817C1369.08 99.9678 1365.15 96.0369 1360.3 96.0369C1355.45 96.0369 1351.52 99.9678 1351.52 104.817C1351.52 109.666 1355.45 113.597 1360.3 113.597Z" fill="#E5BE3B"/>
<path d="M896.959 356.722C896.959 360.494 893.902 363.551 890.13 363.551C886.358 363.551 883.301 360.494 883.301 356.722C883.301 352.95 886.359 349.893 890.13 349.893C893.901 349.893 896.959 352.95 896.959 356.722Z" fill="#E5BE3B"/>
<path d="M1251.29 455.418C1255.42 454.244 1257.82 449.943 1256.64 445.811C1255.47 441.68 1251.17 439.282 1247.04 440.457C1242.91 441.631 1240.51 445.932 1241.68 450.064C1242.86 454.195 1247.16 456.592 1251.29 455.418Z" fill="#E5BE3B"/>
<path d="M1344.49 360.234C1344.49 362.174 1342.92 363.746 1340.98 363.746C1339.04 363.746 1337.47 362.174 1337.47 360.234C1337.47 358.294 1339.04 356.722 1340.98 356.722C1342.92 356.722 1344.49 358.294 1344.49 360.234Z" fill="#E5BE3B"/>
<path d="M992.413 346.38C992.413 348.32 990.84 349.892 988.901 349.892C986.962 349.892 985.389 348.319 985.389 346.38C985.389 344.441 986.961 342.868 988.901 342.868C990.841 342.868 992.413 344.441 992.413 346.38Z" fill="#E5BE3B"/>
<path d="M1351.52 171.89C1355.4 171.89 1358.54 168.745 1358.54 164.866C1358.54 160.987 1355.4 157.842 1351.52 157.842C1347.64 157.842 1344.49 160.987 1344.49 164.866C1344.49 168.745 1347.64 171.89 1351.52 171.89Z" fill="#E5BE3B"/>
<path d="M1002.16 432.407C1008.45 430.231 1011.78 423.373 1009.6 417.088C1007.43 410.803 1000.57 407.472 994.286 409.647C988.001 411.823 984.67 418.681 986.845 424.966C989.021 431.251 995.879 434.582 1002.16 432.407Z" fill="#E5BE3B"/>
<path d="M918.938 123.969L918.469 143.844L904.5 144.406L900.938 188.844L881.156 189.875L881.25 145.438L867.281 146.188L867.844 124.062L918.938 123.969ZM978.422 155.094C978.422 157.938 978.094 160.688 977.438 163.344C976.781 165.969 975.828 168.438 974.578 170.75C973.359 173.062 971.859 175.188 970.078 177.125C968.328 179.031 966.344 180.672 964.125 182.047C961.938 183.422 959.547 184.5 956.953 185.281C954.359 186.031 951.609 186.406 948.703 186.406C945.891 186.406 943.203 186.047 940.641 185.328C938.109 184.609 935.734 183.609 933.516 182.328C931.297 181.016 929.281 179.453 927.469 177.641C925.688 175.797 924.156 173.766 922.875 171.547C921.625 169.297 920.641 166.891 919.922 164.328C919.234 161.766 918.891 159.094 918.891 156.312C918.891 153.594 919.219 150.938 919.875 148.344C920.531 145.719 921.469 143.25 922.688 140.938C923.938 138.625 925.438 136.5 927.188 134.562C928.938 132.625 930.891 130.953 933.047 129.547C935.234 128.141 937.594 127.047 940.125 126.266C942.656 125.484 945.328 125.094 948.141 125.094C952.672 125.094 956.797 125.797 960.516 127.203C964.266 128.609 967.453 130.625 970.078 133.25C972.734 135.844 974.781 139 976.219 142.719C977.688 146.406 978.422 150.531 978.422 155.094ZM957.609 156.312C957.609 154.969 957.406 153.672 957 152.422C956.625 151.141 956.062 150.016 955.312 149.047C954.562 148.047 953.625 147.25 952.5 146.656C951.406 146.031 950.141 145.719 948.703 145.719C947.234 145.719 945.922 145.984 944.766 146.516C943.609 147.047 942.609 147.781 941.766 148.719C940.953 149.625 940.328 150.703 939.891 151.953C939.453 153.172 939.234 154.469 939.234 155.844C939.234 157.156 939.422 158.469 939.797 159.781C940.172 161.094 940.734 162.281 941.484 163.344C942.234 164.406 943.156 165.266 944.25 165.922C945.375 166.578 946.672 166.906 948.141 166.906C949.609 166.906 950.922 166.625 952.078 166.062C953.266 165.469 954.266 164.688 955.078 163.719C955.891 162.719 956.516 161.578 956.953 160.297C957.391 159.016 957.609 157.688 957.609 156.312ZM1031.34 124.906L1030.88 144.781L1016.91 145.344L1015.22 188.844L995.438 189.875L993.656 146.375L979.688 147.125L980.25 125L1031.34 124.906ZM1087.03 186.969L1063.78 189.969L1060.97 179.375H1050.28L1047.94 189.969L1024.03 187.625L1042.69 125.188L1068.75 123.875L1087.03 186.969ZM1059.28 165.031L1055.72 148.719L1052.25 165.031H1059.28ZM1129.12 166.156L1127.16 186.969L1087.69 190.062L1089.19 123.125H1113.56L1110.09 166.156H1129.12ZM1213.27 159.219C1213.27 163.688 1213.12 168.141 1212.84 172.578C1212.56 177.016 1212.23 181.469 1211.86 185.938L1187.77 187.062C1188.48 181.625 1189.12 176.188 1189.69 170.75C1190.28 165.281 1190.58 159.812 1190.58 154.344C1190.58 154 1190.56 153.406 1190.53 152.562C1190.5 151.688 1190.44 150.703 1190.34 149.609C1190.28 148.516 1190.17 147.391 1190.02 146.234C1189.89 145.047 1189.7 143.969 1189.45 143C1189.23 142 1188.95 141.188 1188.61 140.562C1188.27 139.938 1187.86 139.625 1187.39 139.625C1186.3 139.625 1185.44 140.047 1184.81 140.891C1184.19 141.703 1183.72 142.688 1183.41 143.844C1183.12 145 1182.95 146.188 1182.89 147.406C1182.83 148.594 1182.8 149.562 1182.8 150.312C1182.8 151.625 1182.83 152.938 1182.89 154.25C1182.95 155.562 1182.98 156.906 1182.98 158.281C1182.98 163.125 1182.86 167.953 1182.61 172.766C1182.39 177.578 1182.11 182.406 1181.77 187.25L1159.55 188.094C1160.27 182.656 1160.89 177.234 1161.42 171.828C1161.98 166.391 1162.27 160.938 1162.27 155.469C1162.27 155.125 1162.25 154.5 1162.22 153.594C1162.19 152.688 1162.12 151.672 1162.03 150.547C1161.97 149.422 1161.86 148.25 1161.7 147.031C1161.55 145.812 1161.34 144.703 1161.09 143.703C1160.88 142.672 1160.59 141.828 1160.25 141.172C1159.91 140.516 1159.48 140.188 1158.98 140.188C1158.2 140.188 1157.55 140.5 1157.02 141.125C1156.48 141.719 1156.05 142.5 1155.7 143.469C1155.39 144.438 1155.14 145.516 1154.95 146.703C1154.8 147.859 1154.67 149 1154.58 150.125C1154.52 151.25 1154.47 152.297 1154.44 153.266C1154.44 154.203 1154.42 154.906 1154.39 155.375L1153.36 189.594H1129.73C1130.23 184.312 1130.73 179.016 1131.23 173.703C1131.77 168.391 1132.22 163.094 1132.59 157.812C1133 152.5 1133.33 147.188 1133.58 141.875C1133.83 136.562 1133.95 131.25 1133.95 125.938L1156.27 125L1156.17 130.438C1156.86 129.562 1157.64 128.688 1158.52 127.812C1159.39 126.906 1160.31 126.109 1161.28 125.422C1162.28 124.703 1163.33 124.125 1164.42 123.688C1165.55 123.25 1166.7 123.031 1167.89 123.031C1169.42 123.031 1170.8 123.156 1172.02 123.406C1173.23 123.625 1174.33 124.016 1175.3 124.578C1176.3 125.141 1177.17 125.922 1177.92 126.922C1178.67 127.891 1179.33 129.125 1179.89 130.625C1180.89 129.531 1181.89 128.516 1182.89 127.578C1183.92 126.641 1185 125.844 1186.12 125.188C1187.25 124.5 1188.47 123.969 1189.78 123.594C1191.09 123.219 1192.55 123.031 1194.14 123.031C1197.17 123.031 1199.75 123.625 1201.88 124.812C1204 125.969 1205.77 127.516 1207.17 129.453C1208.61 131.391 1209.72 133.609 1210.5 136.109C1211.31 138.609 1211.92 141.203 1212.33 143.891C1212.73 146.578 1212.98 149.25 1213.08 151.906C1213.2 154.562 1213.27 157 1213.27 159.219ZM1269.89 153.125C1269.89 155.844 1269.7 158.562 1269.33 161.281C1263.98 161.625 1258.67 162.188 1253.39 162.969C1248.11 163.719 1242.83 164.469 1237.55 165.219C1238.36 167.469 1239.62 169.266 1241.34 170.609C1243.09 171.953 1245.17 172.625 1247.58 172.625C1248.83 172.625 1250.19 172.391 1251.66 171.922C1253.16 171.453 1254.64 170.875 1256.11 170.188C1257.58 169.469 1258.98 168.703 1260.33 167.891C1261.67 167.078 1262.83 166.344 1263.8 165.688L1261.55 186.969C1260.33 187.906 1259 188.703 1257.56 189.359C1256.16 190.016 1254.69 190.547 1253.16 190.953C1251.62 191.359 1250.08 191.656 1248.52 191.844C1246.95 192.031 1245.42 192.125 1243.92 192.125C1240.83 192.125 1238 191.703 1235.44 190.859C1232.88 190.016 1230.55 188.844 1228.45 187.344C1226.39 185.812 1224.58 184.016 1223.02 181.953C1221.45 179.891 1220.16 177.641 1219.12 175.203C1218.09 172.766 1217.31 170.188 1216.78 167.469C1216.25 164.75 1215.98 162 1215.98 159.219C1215.98 156.312 1216.25 153.406 1216.78 150.5C1217.31 147.594 1218.11 144.797 1219.17 142.109C1220.27 139.422 1221.62 136.938 1223.25 134.656C1224.91 132.344 1226.83 130.328 1229.02 128.609C1231.2 126.891 1233.67 125.547 1236.42 124.578C1239.2 123.609 1242.27 123.125 1245.61 123.125C1248.39 123.125 1250.92 123.516 1253.2 124.297C1255.52 125.047 1257.56 126.109 1259.34 127.484C1261.16 128.828 1262.72 130.438 1264.03 132.312C1265.38 134.188 1266.47 136.25 1267.31 138.5C1268.19 140.719 1268.83 143.078 1269.23 145.578C1269.67 148.047 1269.89 150.562 1269.89 153.125ZM1251.14 150.688C1251.14 149.812 1251.05 148.922 1250.86 148.016C1250.67 147.078 1250.36 146.234 1249.92 145.484C1249.52 144.734 1248.97 144.125 1248.28 143.656C1247.59 143.156 1246.73 142.906 1245.7 142.906C1244.45 142.906 1243.34 143.25 1242.38 143.938C1241.44 144.594 1240.62 145.438 1239.94 146.469C1239.25 147.469 1238.69 148.562 1238.25 149.75C1237.81 150.938 1237.48 152.031 1237.27 153.031L1251.14 151.719V150.688ZM1331.16 167.281C1331.16 170.812 1331.11 174.312 1331.02 177.781C1330.95 181.219 1330.84 184.688 1330.69 188.188L1303.69 187.719C1304.62 182.188 1305.44 176.672 1306.12 171.172C1306.81 165.641 1307.16 160.062 1307.16 154.438C1307.16 154.031 1307.14 153.375 1307.11 152.469C1307.08 151.562 1307.02 150.547 1306.92 149.422C1306.83 148.266 1306.69 147.094 1306.5 145.906C1306.34 144.688 1306.11 143.578 1305.8 142.578C1305.52 141.578 1305.16 140.766 1304.72 140.141C1304.31 139.484 1303.81 139.156 1303.22 139.156C1302.16 139.156 1301.25 139.469 1300.5 140.094C1299.78 140.719 1299.17 141.531 1298.67 142.531C1298.2 143.5 1297.83 144.594 1297.55 145.812C1297.27 147.031 1297.05 148.25 1296.89 149.469C1296.77 150.688 1296.67 151.844 1296.61 152.938C1296.58 154 1296.56 154.875 1296.56 155.562C1296.41 161.094 1296.28 166.594 1296.19 172.062C1296.09 177.5 1295.97 183 1295.81 188.562L1271.91 189.594C1272.53 178.562 1273.12 167.594 1273.69 156.688C1274.28 145.781 1274.75 134.812 1275.09 123.781L1297.22 122.656L1297.03 130.156C1297.91 129.094 1298.84 128.094 1299.84 127.156C1300.88 126.219 1301.97 125.422 1303.12 124.766C1304.28 124.078 1305.5 123.547 1306.78 123.172C1308.09 122.766 1309.47 122.562 1310.91 122.562C1313.56 122.562 1315.89 123 1317.89 123.875C1319.89 124.75 1321.61 125.938 1323.05 127.438C1324.48 128.938 1325.69 130.719 1326.66 132.781C1327.62 134.812 1328.41 136.984 1329 139.297C1329.59 141.609 1330.05 144.031 1330.36 146.562C1330.67 149.062 1330.88 151.531 1330.97 153.969C1331.09 156.406 1331.16 158.766 1331.16 161.047C1331.16 163.328 1331.16 165.406 1331.16 167.281ZM1385.25 124.906L1384.78 144.781L1370.81 145.344L1369.12 188.844L1349.34 189.875L1347.56 146.375L1333.59 147.125L1334.16 125L1385.25 124.906ZM1439.3 153.125C1439.3 155.844 1439.11 158.562 1438.73 161.281C1433.39 161.625 1428.08 162.188 1422.8 162.969C1417.52 163.719 1412.23 164.469 1406.95 165.219C1407.77 167.469 1409.03 169.266 1410.75 170.609C1412.5 171.953 1414.58 172.625 1416.98 172.625C1418.23 172.625 1419.59 172.391 1421.06 171.922C1422.56 171.453 1424.05 170.875 1425.52 170.188C1426.98 169.469 1428.39 168.703 1429.73 167.891C1431.08 167.078 1432.23 166.344 1433.2 165.688L1430.95 186.969C1429.73 187.906 1428.41 188.703 1426.97 189.359C1425.56 190.016 1424.09 190.547 1422.56 190.953C1421.03 191.359 1419.48 191.656 1417.92 191.844C1416.36 192.031 1414.83 192.125 1413.33 192.125C1410.23 192.125 1407.41 191.703 1404.84 190.859C1402.28 190.016 1399.95 188.844 1397.86 187.344C1395.8 185.812 1393.98 184.016 1392.42 181.953C1390.86 179.891 1389.56 177.641 1388.53 175.203C1387.5 172.766 1386.72 170.188 1386.19 167.469C1385.66 164.75 1385.39 162 1385.39 159.219C1385.39 156.312 1385.66 153.406 1386.19 150.5C1386.72 147.594 1387.52 144.797 1388.58 142.109C1389.67 139.422 1391.03 136.938 1392.66 134.656C1394.31 132.344 1396.23 130.328 1398.42 128.609C1400.61 126.891 1403.08 125.547 1405.83 124.578C1408.61 123.609 1411.67 123.125 1415.02 123.125C1417.8 123.125 1420.33 123.516 1422.61 124.297C1424.92 125.047 1426.97 126.109 1428.75 127.484C1430.56 128.828 1432.12 130.438 1433.44 132.312C1434.78 134.188 1435.88 136.25 1436.72 138.5C1437.59 140.719 1438.23 143.078 1438.64 145.578C1439.08 148.047 1439.3 150.562 1439.3 153.125ZM1420.55 150.688C1420.55 149.812 1420.45 148.922 1420.27 148.016C1420.08 147.078 1419.77 146.234 1419.33 145.484C1418.92 144.734 1418.38 144.125 1417.69 143.656C1417 143.156 1416.14 142.906 1415.11 142.906C1413.86 142.906 1412.75 143.25 1411.78 143.938C1410.84 144.594 1410.03 145.438 1409.34 146.469C1408.66 147.469 1408.09 148.562 1407.66 149.75C1407.22 150.938 1406.89 152.031 1406.67 153.031L1420.55 151.719V150.688ZM926.062 276.5C924.594 278.344 922.781 279.953 920.625 281.328C918.469 282.703 916.156 283.844 913.688 284.75C911.219 285.656 908.688 286.344 906.094 286.812C903.5 287.25 901.031 287.469 898.688 287.469C894.156 287.469 889.984 286.703 886.172 285.172C882.359 283.641 879.062 281.516 876.281 278.797C873.531 276.047 871.375 272.781 869.812 269C868.25 265.219 867.469 261.094 867.469 256.625C867.469 253.219 867.859 249.906 868.641 246.688C869.422 243.469 870.531 240.453 871.969 237.641C873.438 234.828 875.219 232.25 877.312 229.906C879.406 227.562 881.781 225.547 884.438 223.859C887.094 222.172 890 220.875 893.156 219.969C896.344 219.031 899.719 218.562 903.281 218.562C904.625 218.562 906.062 218.625 907.594 218.75C909.125 218.844 910.641 219.031 912.141 219.312C913.672 219.562 915.156 219.922 916.594 220.391C918.031 220.859 919.344 221.438 920.531 222.125L919.219 240.031C917.469 239.375 915.656 238.938 913.781 238.719C911.938 238.469 910.125 238.344 908.344 238.344C905.844 238.344 903.5 238.688 901.312 239.375C899.156 240.031 897.266 241.016 895.641 242.328C894.047 243.641 892.781 245.281 891.844 247.25C890.906 249.219 890.438 251.5 890.438 254.094C890.438 255.719 890.656 257.297 891.094 258.828C891.531 260.328 892.188 261.672 893.062 262.859C893.969 264.016 895.078 264.953 896.391 265.672C897.734 266.391 899.281 266.75 901.031 266.75C902.219 266.75 903.438 266.594 904.688 266.281C905.969 265.969 907.062 265.438 907.969 264.688L908.156 261.031L896.906 260.844L897.469 246.781C902.125 246.625 906.781 246.5 911.438 246.406C916.094 246.281 920.781 246.125 925.5 245.938L926.062 276.5ZM984.609 241.812C984.609 244.25 984.391 246.469 983.953 248.469C983.547 250.438 982.891 252.25 981.984 253.906C981.078 255.562 979.906 257.094 978.469 258.5C977.031 259.906 975.297 261.25 973.266 262.531L984.422 282.406L963.328 286.531L956.109 266.562L950.297 266.75L949.453 286.25H929.297C929.453 279.125 929.594 272.031 929.719 264.969C929.875 257.906 930.047 250.812 930.234 243.688C930.297 240.094 930.359 236.531 930.422 233C930.484 229.469 930.609 225.906 930.797 222.312C932.984 221.5 935.141 220.828 937.266 220.297C939.391 219.766 941.516 219.359 943.641 219.078C945.797 218.766 947.969 218.562 950.156 218.469C952.375 218.344 954.641 218.281 956.953 218.281C960.516 218.281 963.953 218.781 967.266 219.781C970.609 220.75 973.562 222.219 976.125 224.188C978.688 226.156 980.734 228.609 982.266 231.547C983.828 234.484 984.609 237.906 984.609 241.812ZM963.609 243.312C963.609 242 963.422 240.797 963.047 239.703C962.703 238.609 962.172 237.672 961.453 236.891C960.766 236.078 959.891 235.453 958.828 235.016C957.797 234.547 956.578 234.312 955.172 234.312C954.547 234.312 953.938 234.359 953.344 234.453C952.75 234.516 952.172 234.625 951.609 234.781L950.859 252.219H951.984C953.328 252.219 954.688 252.047 956.062 251.703C957.469 251.359 958.719 250.828 959.812 250.109C960.938 249.391 961.844 248.469 962.531 247.344C963.25 246.219 963.609 244.875 963.609 243.312ZM1047 282.969L1023.75 285.969L1020.94 275.375H1010.25L1007.91 285.969L984 283.625L1002.66 221.188L1028.72 219.875L1047 282.969ZM1019.25 261.031L1015.69 244.719L1012.22 261.031H1019.25ZM1091.81 220.906L1091.34 240.781L1077.38 241.344L1075.69 284.844L1055.91 285.875L1054.12 242.375L1040.16 243.125L1040.72 221L1091.81 220.906ZM1150.36 221C1148.95 232 1147.75 242.953 1146.75 253.859C1145.75 264.734 1144.8 275.688 1143.89 286.719L1124.67 288.125L1125.52 280.906C1124.89 281.625 1124.16 282.25 1123.31 282.781C1122.5 283.312 1121.62 283.75 1120.69 284.094C1119.75 284.406 1118.78 284.641 1117.78 284.797C1116.78 284.922 1115.83 284.969 1114.92 284.938C1112.8 284.906 1110.8 284.5 1108.92 283.719C1107.05 282.906 1105.33 281.844 1103.77 280.531C1102.2 279.188 1100.8 277.641 1099.55 275.891C1098.3 274.109 1097.23 272.25 1096.36 270.312C1095.52 268.344 1094.86 266.344 1094.39 264.312C1093.95 262.281 1093.73 260.312 1093.73 258.406C1093.73 255.594 1093.78 252.688 1093.88 249.688C1094 246.656 1094.2 243.625 1094.48 240.594C1094.77 237.562 1095.12 234.562 1095.56 231.594C1096.03 228.625 1096.61 225.781 1097.3 223.062C1101.11 223.25 1104.94 223.422 1108.78 223.578C1112.62 223.734 1116.45 223.781 1120.27 223.719C1119.55 226.438 1118.83 229.172 1118.11 231.922C1117.42 234.641 1116.8 237.391 1116.23 240.172C1115.67 242.922 1115.22 245.688 1114.88 248.469C1114.53 251.25 1114.36 254.062 1114.36 256.906C1114.36 257.562 1114.39 258.5 1114.45 259.719C1114.52 260.938 1114.67 262.141 1114.92 263.328C1115.2 264.516 1115.61 265.562 1116.14 266.469C1116.7 267.344 1117.48 267.781 1118.48 267.781C1119.67 267.781 1120.73 267.281 1121.67 266.281C1122.61 265.25 1123.44 263.875 1124.16 262.156C1124.88 260.438 1125.48 258.453 1125.98 256.203C1126.52 253.953 1126.95 251.609 1127.3 249.172C1127.67 246.703 1127.97 244.219 1128.19 241.719C1128.41 239.219 1128.56 236.875 1128.66 234.688C1128.78 232.469 1128.86 230.484 1128.89 228.734C1128.95 226.984 1128.98 225.625 1128.98 224.656C1128.98 224.031 1128.97 223.422 1128.94 222.828C1128.91 222.234 1128.86 221.625 1128.8 221C1130.83 221.062 1132.84 221.109 1134.84 221.141C1136.84 221.172 1138.86 221.188 1140.89 221.188C1142.45 221.188 1144.02 221.188 1145.58 221.188C1147.17 221.156 1148.77 221.094 1150.36 221ZM1177.64 221L1174.36 284.844L1154.58 285.875L1152.7 222.312L1177.64 221ZM1231.12 220.906L1230.66 240.781L1216.69 241.344L1215 284.844L1195.22 285.875L1193.44 242.375L1179.47 243.125L1180.03 221L1231.12 220.906ZM1290.8 251.094C1290.8 253.938 1290.47 256.688 1289.81 259.344C1289.16 261.969 1288.2 264.438 1286.95 266.75C1285.73 269.062 1284.23 271.188 1282.45 273.125C1280.7 275.031 1278.72 276.672 1276.5 278.047C1274.31 279.422 1271.92 280.5 1269.33 281.281C1266.73 282.031 1263.98 282.406 1261.08 282.406C1258.27 282.406 1255.58 282.047 1253.02 281.328C1250.48 280.609 1248.11 279.609 1245.89 278.328C1243.67 277.016 1241.66 275.453 1239.84 273.641C1238.06 271.797 1236.53 269.766 1235.25 267.547C1234 265.297 1233.02 262.891 1232.3 260.328C1231.61 257.766 1231.27 255.094 1231.27 252.312C1231.27 249.594 1231.59 246.938 1232.25 244.344C1232.91 241.719 1233.84 239.25 1235.06 236.938C1236.31 234.625 1237.81 232.5 1239.56 230.562C1241.31 228.625 1243.27 226.953 1245.42 225.547C1247.61 224.141 1249.97 223.047 1252.5 222.266C1255.03 221.484 1257.7 221.094 1260.52 221.094C1265.05 221.094 1269.17 221.797 1272.89 223.203C1276.64 224.609 1279.83 226.625 1282.45 229.25C1285.11 231.844 1287.16 235 1288.59 238.719C1290.06 242.406 1290.8 246.531 1290.8 251.094ZM1269.98 252.312C1269.98 250.969 1269.78 249.672 1269.38 248.422C1269 247.141 1268.44 246.016 1267.69 245.047C1266.94 244.047 1266 243.25 1264.88 242.656C1263.78 242.031 1262.52 241.719 1261.08 241.719C1259.61 241.719 1258.3 241.984 1257.14 242.516C1255.98 243.047 1254.98 243.781 1254.14 244.719C1253.33 245.625 1252.7 246.703 1252.27 247.953C1251.83 249.172 1251.61 250.469 1251.61 251.844C1251.61 253.156 1251.8 254.469 1252.17 255.781C1252.55 257.094 1253.11 258.281 1253.86 259.344C1254.61 260.406 1255.53 261.266 1256.62 261.922C1257.75 262.578 1259.05 262.906 1260.52 262.906C1261.98 262.906 1263.3 262.625 1264.45 262.062C1265.64 261.469 1266.64 260.688 1267.45 259.719C1268.27 258.719 1268.89 257.578 1269.33 256.297C1269.77 255.016 1269.98 253.688 1269.98 252.312Z" fill="#094D78"/>
<circle cx="1090.5" cy="398.5" r="101.5" fill="#D9D9D9"/>
<path d="M1016.33 368.812C1016.33 371.25 1016.11 373.469 1015.67 375.469C1015.27 377.438 1014.61 379.25 1013.7 380.906C1012.8 382.562 1011.62 384.094 1010.19 385.5C1008.75 386.906 1007.02 388.25 1004.98 389.531L1016.14 409.406L995.047 413.531L987.828 393.562L982.016 393.75L981.172 413.25H961.016C961.172 406.125 961.312 399.031 961.438 391.969C961.594 384.906 961.766 377.812 961.953 370.688C962.016 367.094 962.078 363.531 962.141 360C962.203 356.469 962.328 352.906 962.516 349.312C964.703 348.5 966.859 347.828 968.984 347.297C971.109 346.766 973.234 346.359 975.359 346.078C977.516 345.766 979.688 345.562 981.875 345.469C984.094 345.344 986.359 345.281 988.672 345.281C992.234 345.281 995.672 345.781 998.984 346.781C1002.33 347.75 1005.28 349.219 1007.84 351.188C1010.41 353.156 1012.45 355.609 1013.98 358.547C1015.55 361.484 1016.33 364.906 1016.33 368.812ZM995.328 370.312C995.328 369 995.141 367.797 994.766 366.703C994.422 365.609 993.891 364.672 993.172 363.891C992.484 363.078 991.609 362.453 990.547 362.016C989.516 361.547 988.297 361.312 986.891 361.312C986.266 361.312 985.656 361.359 985.062 361.453C984.469 361.516 983.891 361.625 983.328 361.781L982.578 379.219H983.703C985.047 379.219 986.406 379.047 987.781 378.703C989.188 378.359 990.438 377.828 991.531 377.109C992.656 376.391 993.562 375.469 994.25 374.344C994.969 373.219 995.328 371.875 995.328 370.312ZM1030.95 420.469L1031.42 402C1030.42 401.812 1029.41 401.594 1028.38 401.344C1027.34 401.062 1026.33 400.781 1025.33 400.5C1024.36 400.188 1023.42 399.875 1022.52 399.562C1021.61 399.25 1020.8 398.938 1020.08 398.625L1021.67 387.094C1023.64 388.094 1025.84 388.844 1028.28 389.344C1030.72 389.844 1033.14 390.094 1035.55 390.094C1035.98 390.094 1036.52 390.078 1037.14 390.047C1037.8 390.016 1038.42 389.938 1039.02 389.812C1039.61 389.656 1040.11 389.422 1040.52 389.109C1040.95 388.797 1041.17 388.375 1041.17 387.844C1041.17 387.281 1040.86 386.859 1040.23 386.578C1039.64 386.266 1038.92 386.047 1038.08 385.922C1037.27 385.766 1036.44 385.672 1035.59 385.641C1034.75 385.609 1034.11 385.594 1033.67 385.594C1031.64 385.594 1029.8 385.328 1028.14 384.797C1026.48 384.266 1025.05 383.516 1023.83 382.547C1022.64 381.547 1021.72 380.359 1021.06 378.984C1020.41 377.609 1020.08 376.062 1020.08 374.344C1020.08 372.75 1020.34 371.266 1020.88 369.891C1021.44 368.516 1022.2 367.266 1023.17 366.141C1024.17 365.016 1025.34 364.031 1026.69 363.188C1028.06 362.312 1029.55 361.594 1031.14 361.031L1030.39 341.25L1035.45 341.719V359.906C1035.89 359.812 1036.31 359.75 1036.72 359.719C1037.12 359.656 1037.55 359.594 1037.98 359.531L1037.89 341.25L1042.95 341.344L1042.3 359.531C1044.36 359.594 1046.44 359.797 1048.53 360.141C1050.62 360.453 1052.55 360.969 1054.3 361.688L1053.08 373.594C1051.42 373.156 1049.72 372.781 1047.97 372.469C1046.22 372.156 1044.55 372 1042.95 372C1042.45 372 1041.78 372.016 1040.94 372.047C1040.12 372.078 1039.31 372.172 1038.5 372.328C1037.72 372.484 1037.03 372.719 1036.44 373.031C1035.88 373.344 1035.61 373.781 1035.64 374.344C1035.67 374.812 1035.88 375.172 1036.25 375.422C1036.62 375.641 1037.09 375.812 1037.66 375.938C1038.25 376.031 1038.91 376.078 1039.62 376.078C1040.34 376.078 1041.03 376.062 1041.69 376.031C1042.38 376 1043.02 375.969 1043.61 375.938C1044.2 375.906 1044.67 375.906 1045.02 375.938C1046.89 376.031 1048.58 376.359 1050.08 376.922C1051.58 377.484 1052.86 378.25 1053.92 379.219C1054.98 380.156 1055.8 381.281 1056.36 382.594C1056.92 383.906 1057.2 385.344 1057.2 386.906C1057.2 389.094 1056.83 391.031 1056.08 392.719C1055.36 394.406 1054.34 395.875 1053.03 397.125C1051.72 398.344 1050.14 399.359 1048.3 400.172C1046.48 400.953 1044.48 401.531 1042.3 401.906L1043.05 420.375L1038.45 420.844L1038.27 402.375C1037.83 402.438 1037.39 402.469 1036.95 402.469C1036.52 402.469 1036.08 402.469 1035.64 402.469H1035.45L1035.55 420.75L1030.95 420.469ZM1137.27 380.438C1137.27 383.188 1136.95 385.922 1136.33 388.641C1135.73 391.359 1134.86 393.969 1133.7 396.469C1132.55 398.969 1131.12 401.297 1129.44 403.453C1127.78 405.609 1125.88 407.484 1123.72 409.078C1121.56 410.672 1119.19 411.922 1116.59 412.828C1114.03 413.734 1111.27 414.188 1108.3 414.188C1105.3 414.188 1102.5 413.734 1099.91 412.828C1097.31 411.922 1094.94 410.672 1092.78 409.078C1090.66 407.484 1088.75 405.609 1087.06 403.453C1085.38 401.297 1083.95 398.969 1082.8 396.469C1081.64 393.969 1080.75 391.359 1080.12 388.641C1079.53 385.891 1079.23 383.156 1079.23 380.438C1079.23 377.719 1079.53 374.984 1080.12 372.234C1080.75 369.484 1081.64 366.859 1082.8 364.359C1083.95 361.859 1085.38 359.531 1087.06 357.375C1088.75 355.188 1090.66 353.297 1092.78 351.703C1094.94 350.109 1097.31 348.859 1099.91 347.953C1102.53 347.047 1105.33 346.594 1108.3 346.594C1111.27 346.594 1114.03 347.047 1116.59 347.953C1119.19 348.859 1121.56 350.109 1123.72 351.703C1125.88 353.297 1127.78 355.188 1129.44 357.375C1131.12 359.531 1132.55 361.859 1133.7 364.359C1134.86 366.859 1135.73 369.484 1136.33 372.234C1136.95 374.984 1137.27 377.719 1137.27 380.438ZM1117.48 381.844C1117.48 380.469 1117.3 378.938 1116.92 377.25C1116.55 375.562 1115.97 373.984 1115.19 372.516C1114.41 371.047 1113.41 369.812 1112.19 368.812C1110.97 367.812 1109.52 367.312 1107.83 367.312C1106.11 367.312 1104.64 367.812 1103.42 368.812C1102.2 369.812 1101.19 371.047 1100.38 372.516C1099.59 373.984 1099.02 375.562 1098.64 377.25C1098.27 378.938 1098.08 380.469 1098.08 381.844C1098.08 383.219 1098.27 384.75 1098.64 386.438C1099.02 388.125 1099.59 389.703 1100.38 391.172C1101.19 392.641 1102.2 393.875 1103.42 394.875C1104.64 395.875 1106.11 396.375 1107.83 396.375C1109.52 396.375 1110.97 395.875 1112.19 394.875C1113.41 393.875 1114.41 392.641 1115.19 391.172C1115.97 389.703 1116.55 388.125 1116.92 386.438C1117.3 384.75 1117.48 383.219 1117.48 381.844ZM1158.12 403.594C1158.09 405.062 1157.77 406.688 1157.14 408.469C1156.55 410.25 1155.69 412.016 1154.56 413.766C1153.44 415.484 1152.08 417.109 1150.48 418.641C1148.92 420.203 1147.16 421.5 1145.19 422.531C1145.19 422.5 1145.17 422.125 1145.14 421.406C1145.11 420.719 1145.06 419.859 1145 418.828C1144.97 417.828 1144.92 416.75 1144.86 415.594C1144.8 414.438 1144.75 413.406 1144.72 412.5C1142.78 411.781 1141.25 410.578 1140.12 408.891C1139 407.203 1138.44 405.344 1138.44 403.312C1138.44 401.969 1138.69 400.703 1139.19 399.516C1139.72 398.328 1140.42 397.297 1141.3 396.422C1142.2 395.516 1143.25 394.797 1144.44 394.266C1145.62 393.734 1146.91 393.469 1148.28 393.469C1149.62 393.469 1150.89 393.734 1152.08 394.266C1153.3 394.797 1154.34 395.516 1155.22 396.422C1156.12 397.297 1156.84 398.328 1157.38 399.516C1157.91 400.703 1158.16 401.969 1158.12 403.312V403.594ZM1217.42 380.438C1217.42 383.188 1217.11 385.922 1216.48 388.641C1215.89 391.359 1215.02 393.969 1213.86 396.469C1212.7 398.969 1211.28 401.297 1209.59 403.453C1207.94 405.609 1206.03 407.484 1203.88 409.078C1201.72 410.672 1199.34 411.922 1196.75 412.828C1194.19 413.734 1191.42 414.188 1188.45 414.188C1185.45 414.188 1182.66 413.734 1180.06 412.828C1177.47 411.922 1175.09 410.672 1172.94 409.078C1170.81 407.484 1168.91 405.609 1167.22 403.453C1165.53 401.297 1164.11 398.969 1162.95 396.469C1161.8 393.969 1160.91 391.359 1160.28 388.641C1159.69 385.891 1159.39 383.156 1159.39 380.438C1159.39 377.719 1159.69 374.984 1160.28 372.234C1160.91 369.484 1161.8 366.859 1162.95 364.359C1164.11 361.859 1165.53 359.531 1167.22 357.375C1168.91 355.188 1170.81 353.297 1172.94 351.703C1175.09 350.109 1177.47 348.859 1180.06 347.953C1182.69 347.047 1185.48 346.594 1188.45 346.594C1191.42 346.594 1194.19 347.047 1196.75 347.953C1199.34 348.859 1201.72 350.109 1203.88 351.703C1206.03 353.297 1207.94 355.188 1209.59 357.375C1211.28 359.531 1212.7 361.859 1213.86 364.359C1215.02 366.859 1215.89 369.484 1216.48 372.234C1217.11 374.984 1217.42 377.719 1217.42 380.438ZM1197.64 381.844C1197.64 380.469 1197.45 378.938 1197.08 377.25C1196.7 375.562 1196.12 373.984 1195.34 372.516C1194.56 371.047 1193.56 369.812 1192.34 368.812C1191.12 367.812 1189.67 367.312 1187.98 367.312C1186.27 367.312 1184.8 367.812 1183.58 368.812C1182.36 369.812 1181.34 371.047 1180.53 372.516C1179.75 373.984 1179.17 375.562 1178.8 377.25C1178.42 378.938 1178.23 380.469 1178.23 381.844C1178.23 383.219 1178.42 384.75 1178.8 386.438C1179.17 388.125 1179.75 389.703 1180.53 391.172C1181.34 392.641 1182.36 393.875 1183.58 394.875C1184.8 395.875 1186.27 396.375 1187.98 396.375C1189.67 396.375 1191.12 395.875 1192.34 394.875C1193.56 393.875 1194.56 392.641 1195.34 391.172C1196.12 389.703 1196.7 388.125 1197.08 386.438C1197.45 384.75 1197.64 383.219 1197.64 381.844ZM1278.17 380.438C1278.17 383.188 1277.86 385.922 1277.23 388.641C1276.64 391.359 1275.77 393.969 1274.61 396.469C1273.45 398.969 1272.03 401.297 1270.34 403.453C1268.69 405.609 1266.78 407.484 1264.62 409.078C1262.47 410.672 1260.09 411.922 1257.5 412.828C1254.94 413.734 1252.17 414.188 1249.2 414.188C1246.2 414.188 1243.41 413.734 1240.81 412.828C1238.22 411.922 1235.84 410.672 1233.69 409.078C1231.56 407.484 1229.66 405.609 1227.97 403.453C1226.28 401.297 1224.86 398.969 1223.7 396.469C1222.55 393.969 1221.66 391.359 1221.03 388.641C1220.44 385.891 1220.14 383.156 1220.14 380.438C1220.14 377.719 1220.44 374.984 1221.03 372.234C1221.66 369.484 1222.55 366.859 1223.7 364.359C1224.86 361.859 1226.28 359.531 1227.97 357.375C1229.66 355.188 1231.56 353.297 1233.69 351.703C1235.84 350.109 1238.22 348.859 1240.81 347.953C1243.44 347.047 1246.23 346.594 1249.2 346.594C1252.17 346.594 1254.94 347.047 1257.5 347.953C1260.09 348.859 1262.47 350.109 1264.62 351.703C1266.78 353.297 1268.69 355.188 1270.34 357.375C1272.03 359.531 1273.45 361.859 1274.61 364.359C1275.77 366.859 1276.64 369.484 1277.23 372.234C1277.86 374.984 1278.17 377.719 1278.17 380.438ZM1258.39 381.844C1258.39 380.469 1258.2 378.938 1257.83 377.25C1257.45 375.562 1256.88 373.984 1256.09 372.516C1255.31 371.047 1254.31 369.812 1253.09 368.812C1251.88 367.812 1250.42 367.312 1248.73 367.312C1247.02 367.312 1245.55 367.812 1244.33 368.812C1243.11 369.812 1242.09 371.047 1241.28 372.516C1240.5 373.984 1239.92 375.562 1239.55 377.25C1239.17 378.938 1238.98 380.469 1238.98 381.844C1238.98 383.219 1239.17 384.75 1239.55 386.438C1239.92 388.125 1240.5 389.703 1241.28 391.172C1242.09 392.641 1243.11 393.875 1244.33 394.875C1245.55 395.875 1247.02 396.375 1248.73 396.375C1250.42 396.375 1251.88 395.875 1253.09 394.875C1254.31 393.875 1255.31 392.641 1256.09 391.172C1256.88 389.703 1257.45 388.125 1257.83 386.438C1258.2 384.75 1258.39 383.219 1258.39 381.844Z" fill="#03A9F5"/>
</g>
<defs>
<clipPath id="clip0_2645_720">
<rect width="1470" height="500" fill="white"/>
</clipPath>
</defs>
</svg>
