<?xml version="1.0" encoding="UTF-8" standalone="no"?>
<svg
   xmlns:dc="http://purl.org/dc/elements/1.1/"
   xmlns:cc="http://creativecommons.org/ns#"
   xmlns:rdf="http://www.w3.org/1999/02/22-rdf-syntax-ns#"
   xmlns:svg="http://www.w3.org/2000/svg"
   xmlns="http://www.w3.org/2000/svg"
   xmlns:sodipodi="http://sodipodi.sourceforge.net/DTD/sodipodi-0.dtd"
   xmlns:inkscape="http://www.inkscape.org/namespaces/inkscape"
   fill="#000000"
   version="1.1"
   id="Layer_1"
   width="800px"
   height="800px"
   viewBox="0 0 42 42"
   sodipodi:docname="cancel-svgrepo-com.svg"
   inkscape:version="1.0.1 (3bc2e813f5, 2020-09-07)">
  <metadata
     id="metadata9">
    <rdf:RDF>
      <cc:Work
         rdf:about="">
        <dc:format>image/svg+xml</dc:format>
        <dc:type
           rdf:resource="http://purl.org/dc/dcmitype/StillImage" />
      </cc:Work>
    </rdf:RDF>
  </metadata>
  <sodipodi:namedview
     pagecolor="#ffffff"
     bordercolor="#666666"
     borderopacity="1"
     objecttolerance="10"
     gridtolerance="10"
     guidetolerance="10"
     inkscape:pageopacity="0"
     inkscape:pageshadow="2"
     inkscape:window-width="1366"
     inkscape:window-height="696"
     id="namedview7"
     showgrid="false"
     inkscape:zoom="0.6525"
     inkscape:cx="128.73563"
     inkscape:cy="400"
     inkscape:window-x="0"
     inkscape:window-y="0"
     inkscape:window-maximized="1"
     inkscape:current-layer="Layer_1" />
  <defs
     id="defs2" />
  <path
     fill-rule="evenodd"
     d="M21.002,26.588l10.357,10.604c1.039,1.072,1.715,1.083,2.773,0l2.078-2.128
	c1.018-1.042,1.087-1.726,0-2.839L25.245,21L36.211,9.775c1.027-1.055,1.047-1.767,0-2.84l-2.078-2.127
	c-1.078-1.104-1.744-1.053-2.773,0L21.002,15.412L10.645,4.809c-1.029-1.053-1.695-1.104-2.773,0L5.794,6.936
	c-1.048,1.073-1.029,1.785,0,2.84L16.759,21L5.794,32.225c-1.087,1.113-1.029,1.797,0,2.839l2.077,2.128
	c1.049,1.083,1.725,1.072,2.773,0L21.002,26.588z"
     style="stroke:#ffd13e;fill:#ffd13e;fill-opacity:1;stroke-opacity:1"
     id="path4" />
</svg>
