<svg height="64px" width="64px" version="1.1" id="_x32_" xmlns="http://www.w3.org/2000/svg" xmlns:xlink="http://www.w3.org/1999/xlink" viewBox="-40.96 -40.96 593.92 593.92" xml:space="preserve" fill="#1769d3" stroke="#1e2299" stroke-width="0.00512"><g id="SVGRepo_bgCarrier" stroke-width="0"></g><g id="SVGRepo_tracerCarrier" stroke-linecap="round" stroke-linejoin="round"></g><g id="SVGRepo_iconCarrier"> <style type="text/css"> .st0{fill:#1a21ff;} </style> <g> <path class="st0" d="M457.735,81.068l-76.1-76.093c-6.628-6.627-17.364-6.635-23.992-0.016c-6.627,6.628-6.627,17.365,0,23.992 l50.743,50.744c2.897,2.905,2.897,7.613-0.015,10.525l-4.671,4.686c-2.912,2.904-7.628,2.904-10.54,0l-53.489-53.496 c-5.111-5.104-13.361-5.104-18.472-0.008c-5.08,5.095-5.08,13.361,0.016,18.464l53.489,53.497c2.912,2.904,2.912,7.62,0,10.532 l-4.687,4.678c-2.912,2.912-7.612,2.912-10.524,0.008l-53.505-53.504c-5.095-5.095-13.361-5.095-18.456,0 c-5.096,5.103-5.096,13.353,0,18.457l53.504,53.504c2.912,2.904,2.912,7.62,0,10.532l-4.686,4.679 c-2.912,2.904-7.628,2.904-10.525,0.007l-53.504-53.504c-5.095-5.095-13.376-5.095-18.456,0c-5.111,5.096-5.111,13.361,0,18.457 l53.504,53.504c2.896,2.904,2.896,7.62,0,10.525l-4.686,4.686c-2.912,2.912-7.629,2.912-10.541,0l-53.504-53.504 c-5.095-5.096-13.361-5.096-18.456,0c-5.096,5.103-5.096,13.361,0.014,18.456l53.489,53.504c2.912,2.912,2.912,7.621,0,10.525 L269,229.599c-2.897,2.904-7.629,2.904-10.525,0.008l-53.504-53.505c-5.096-5.11-13.361-5.095-18.457,0 c-5.095,5.088-5.095,13.361,0,18.457l53.504,53.504c2.897,2.904,2.897,7.613-0.015,10.525l-4.671,4.686 c-2.912,2.912-7.628,2.912-10.524,0l-50.744-50.729c-6.627-6.627-17.364-6.627-23.992-0.008c-6.628,6.62-6.628,17.372,0,23.999 l69.503,72.977c-55.93,56.347-126.313,86.064-155.734,115.493c-36.321,36.314-24.508,65.462-12.193,77.769 c12.299,12.299,32.257,12.299,44.556,0l187.567-187.559l20.428-20.428L460.328,138.66c7.916-7.909,12.299-18.684,12.163-29.877 C472.354,97.591,465.848,88.795,457.735,81.068z"></path> </g> </g></svg>