<svg width="32" height="32" viewBox="0 0 32 32" fill="none" xmlns="http://www.w3.org/2000/svg">
<g clip-path="url(#clip0_2749_66)">
<path fill-rule="evenodd" clip-rule="evenodd" d="M15.9995 22.4628C19.7061 22.4628 22.7109 19.5693 22.7109 16C22.7109 12.4306 19.7061 9.53711 15.9995 9.53711C12.2929 9.53711 9.28809 12.4306 9.28809 16C9.28809 19.5693 12.2929 22.4628 15.9995 22.4628ZM20.4738 16C20.4738 18.3795 18.4706 20.3085 15.9995 20.3085C13.5285 20.3085 11.5252 18.3795 11.5252 16C11.5252 13.6204 13.5285 11.6914 15.9995 11.6914C18.4706 11.6914 20.4738 13.6204 20.4738 16Z" fill="white"/>
<path fill-rule="evenodd" clip-rule="evenodd" d="M0.339844 14.9223V17.0766C0.339844 18.7443 1.65149 20.1168 3.33548 20.2897C3.47842 20.6811 3.64032 21.0637 3.82009 21.4366C2.71663 22.7062 2.78433 24.5998 4.0232 25.7929L5.60509 27.3162C6.81577 28.482 8.72135 28.5708 10.0379 27.5825C10.5238 27.8149 11.0265 28.0198 11.5438 28.1951C11.7234 29.8168 13.1487 31.0799 14.8805 31.0799H17.1176C18.849 31.0799 20.274 29.8174 20.4541 28.1962C20.9242 28.037 21.3823 27.8534 21.8266 27.647C23.1389 28.5663 24.9869 28.456 26.1706 27.3162L27.7524 25.7929C28.9361 24.653 29.0507 22.8735 28.0961 21.6098C28.3102 21.1824 28.5007 20.7418 28.6659 20.2895C30.3491 20.1158 31.6598 18.7436 31.6598 17.0766V14.9223C31.6598 13.2554 30.3491 11.8833 28.6659 11.7096C28.4837 11.2107 28.2707 10.726 28.0291 10.2575C29.0545 8.98976 28.9621 7.15537 27.7517 5.98983L26.1698 4.46651C24.9312 3.27381 22.9653 3.20837 21.647 4.27016C21.259 4.09679 20.861 3.94067 20.454 3.80286C20.2736 2.18209 18.8486 0.919922 17.1176 0.919922H14.8805C13.1491 0.919922 11.7239 2.18267 11.5439 3.80397C11.0868 3.95886 10.6412 4.13684 10.2085 4.33641C8.8907 3.20617 6.86966 3.24952 5.60588 4.46651L4.02397 5.98982C2.76017 7.20682 2.71515 9.15301 3.8889 10.422C3.68143 10.8391 3.49644 11.2687 3.33548 11.7093C1.65149 11.8823 0.339844 13.2548 0.339844 14.9223ZM18.2362 4.15135C18.2362 3.55647 17.7354 3.07421 17.1176 3.07421H14.8805C14.2627 3.07421 13.7619 3.55647 13.7619 4.15135V4.56356C13.7619 5.07579 13.3853 5.51152 12.8744 5.65442C12.081 5.87637 11.3239 6.1807 10.6139 6.55713C10.1479 6.80416 9.56163 6.75245 9.1855 6.39025L8.76967 5.98983C8.33284 5.56917 7.62461 5.56917 7.18777 5.98982L5.60588 7.51313C5.16904 7.93378 5.16904 8.6158 5.60588 9.03644L6.02172 9.43688C6.39785 9.79908 6.45155 10.3636 6.19502 10.8123C5.8039 11.4965 5.48773 12.2259 5.25721 12.9905C5.10887 13.4825 4.65634 13.8452 4.12435 13.8452H3.69556C3.07779 13.8452 2.57699 14.3275 2.57699 14.9223V17.0766C2.57699 17.6715 3.07779 18.1538 3.69556 18.1538H4.12435C4.65634 18.1538 5.10886 18.5166 5.25721 19.0085C5.47357 19.7262 5.76538 20.4129 6.12381 21.0602C6.3712 21.507 6.31408 22.0635 5.94226 22.4215L5.60509 22.7463C5.16827 23.1669 5.16827 23.8488 5.60509 24.2696L7.187 25.7929C7.62382 26.2135 8.33207 26.2135 8.76889 25.7929L9.04107 25.5308C9.42151 25.1644 10.0161 25.1161 10.4839 25.3719C11.2313 25.7808 12.0324 26.1091 12.8744 26.3447C13.3853 26.4875 13.7619 26.9233 13.7619 27.4355V27.8485C13.7619 28.4434 14.2627 28.9256 14.8805 28.9256H17.1176C17.7354 28.9256 18.2362 28.4434 18.2362 27.8485V27.4364C18.2362 26.9241 18.6129 26.4883 19.1239 26.3454C19.9184 26.1234 20.6765 25.8188 21.3873 25.4419C21.8533 25.195 22.4396 25.2467 22.8157 25.6089L23.0068 25.7929C23.4436 26.2135 24.1519 26.2135 24.5887 25.7929L26.1706 24.2696C26.6074 23.8488 26.6074 23.1669 26.1706 22.7463L25.9795 22.5623C25.6033 22.2001 25.5496 21.6355 25.8062 21.1868C26.1974 20.5026 26.5135 19.7732 26.7441 19.0085C26.8924 18.5166 27.345 18.1538 27.8769 18.1538H28.3041C28.9219 18.1538 29.4227 17.6715 29.4227 17.0766V14.9223C29.4227 14.3275 28.9219 13.8452 28.3041 13.8452H27.8769C27.345 13.8452 26.8924 13.4825 26.7441 12.9905C26.4994 12.1792 26.1584 11.4073 25.7335 10.6872C25.4678 10.2367 25.518 9.66409 25.8984 9.29773L26.1698 9.03644C26.6066 8.6158 26.6066 7.93378 26.1698 7.51313L24.5879 5.98982C24.1511 5.56917 23.4428 5.56917 23.006 5.98982L22.6697 6.31369C22.2978 6.67174 21.7199 6.72676 21.2559 6.48852C20.5833 6.14315 19.8697 5.86201 19.1239 5.65361C18.6129 5.51081 18.2362 5.07502 18.2362 4.56268V4.15135Z" fill="white"/>
</g>
<defs>
<clipPath id="clip0_2749_66">
<rect width="31.32" height="30.16" fill="white" transform="translate(0.339844 0.919922)"/>
</clipPath>
</defs>
</svg>
