<?xml version="1.0" encoding="utf-8"?>
<svg fill="#000000" version="1.1" id="Capa_1" width="800px" height="800px" viewBox="0 0 468.465 468.465" xmlns="http://www.w3.org/2000/svg">
  <defs/>
  <g>
    <path d="M389.716,155.819c-70.967-79.56-157.81-118.248-193.969-86.381c-36.144,31.861-7.939,122.22,63.008,201.797&#10;&#9;&#9;c70.961,79.573,157.798,118.255,193.96,86.381C488.868,325.752,460.672,235.404,389.716,155.819z M396.135,199.794&#10;&#9;&#9;c2.194-1.962,7.009-0.161,10.769,4.03c3.762,4.188,5.023,9.172,2.846,11.138c-2.198,1.973-7.021,0.161-10.774-4.02&#10;&#9;&#9;C395.21,206.747,393.945,201.767,396.135,199.794z M323.526,139.436c1.177,0.536,2.276,5.256,2.474,10.528&#10;&#9;&#9;c0.196,5.272-0.603,9.105-1.761,8.586c-1.167-0.556-2.283-5.257-2.483-10.542C321.564,142.741,322.361,138.891,323.526,139.436z&#10;&#9;&#9; M247.422,223.305c-2.194,1.967-7.013,0.17-10.762-4.016c-3.767-4.181-5.044-9.179-2.85-11.141&#10;&#9;&#9;c2.191-1.97,7.019-0.172,10.777,4.019C248.347,216.358,249.607,221.335,247.422,223.305z M270.642,197.928&#10;&#9;&#9;c-5.551-2.303-10.142-5.094-10.229-6.218c-0.107-1.133,4.318-0.198,9.861,2.111c5.554,2.293,10.146,5.082,10.254,6.214&#10;&#9;&#9;C280.61,201.151,276.194,200.216,270.642,197.928z M280.851,163.614c-5.002,4.49-17.216-0.985-27.293-12.211&#10;&#9;&#9;c-10.086-11.228-14.202-23.975-9.216-28.457c5.001-4.484,17.232,0.969,27.31,12.208&#10;&#9;&#9;C281.742,146.385,285.863,159.143,280.851,163.614z M296.188,112.886c-2.182,1.961-7.01,0.164-10.769-4.017&#10;&#9;&#9;c-3.754-4.186-5.029-9.176-2.834-11.132c2.185-1.967,7.004-0.17,10.758,4.016C297.107,105.938,298.372,110.921,296.188,112.886z&#10;&#9;&#9; M327.517,256.779c-3.706,3.319-11.831,0.261-18.172-6.788c-6.344-7.069-8.488-15.491-4.795-18.801&#10;&#9;&#9;c3.707-3.316,11.836-0.285,18.178,6.792C329.071,245.045,331.215,253.45,327.517,256.779z M358.503,310.185&#10;&#9;&#9;c-2.205,1.98-7.015,0.174-10.777-4.016c-3.754-4.183-5.028-9.161-2.834-11.131c2.181-1.971,7.013-0.164,10.767,4.016&#10;&#9;&#9;C359.412,303.246,360.673,308.235,358.503,310.185z M353.819,210.071c-6.342-7.078-8.055-15.88-3.801-19.686&#10;&#9;&#9;c4.239-3.797,12.815-1.171,19.157,5.907c6.335,7.062,8.044,15.874,3.814,19.68C368.741,219.776,360.164,217.127,353.819,210.071z&#10;&#9;&#9; M381.19,290.042c-5.213-4.422-9.078-8.669-8.657-9.473c0.405-0.81,4.98,2.114,10.164,6.533c5.202,4.421,9.087,8.679,8.671,9.478&#10;&#9;&#9;S386.372,294.458,381.19,290.042z M421.236,293.483c-2.293,2.058-10.721-3.639-18.854-12.685&#10;&#9;&#9;c-8.13-9.061-12.873-18.062-10.582-20.12c2.266-2.041,10.708,3.633,18.846,12.7C418.785,282.431,423.511,291.438,421.236,293.483z&#10;&#9;&#9; M243.822,288.296c-8.072-9.062-15.625-18.299-22.717-27.64c-2.652,1.024-5.662,1.538-8.832,1.303&#10;&#9;&#9;c-9.48-0.726-16.692-7.436-16.116-15.031c0.348-4.521,3.406-8.279,7.8-10.466c-13.27-20.227-24.133-40.602-32.131-60.353&#10;&#9;&#9;C79.243,177.611,4.994,219.877,0.238,277.768c-5.245,64.115,76.663,122.961,182.949,131.404&#10;&#9;&#9;c65.495,5.22,124.892-9.97,162.123-37.383C311.002,352.723,275.797,324.154,243.822,288.296z M94.34,216.492&#10;&#9;&#9;c5.61,0.438,9.924,3.929,9.614,7.86c-0.278,3.901-5.075,6.742-10.679,6.324c-5.61-0.417-9.923-3.941-9.628-7.859&#10;&#9;&#9;C83.942,218.919,88.737,216.071,94.34,216.492z M98.414,300.86c-15.051-1.139-26.717-9.314-26.042-18.245&#10;&#9;&#9;c0.679-8.935,13.426-15.288,28.472-14.14c15.051,1.13,26.71,9.292,26.032,18.233C126.201,295.65,113.451,301.976,98.414,300.86z&#10;&#9;&#9; M131.736,380.89c-5.614-0.401-9.922-3.926-9.633-7.833c0.299-3.939,5.09-6.772,10.698-6.337c5.603,0.405,9.913,3.918,9.614,7.839&#10;&#9;&#9;C142.125,378.485,137.339,381.31,131.736,380.89z M142.478,328.739c-5.672,3.037-10.955,4.734-11.778,3.754&#10;&#9;&#9;c-0.84-0.979,3.07-4.263,8.731-7.283c5.657-3.076,10.944-4.761,11.789-3.786C152.043,322.399,148.131,325.658,142.478,328.739z&#10;&#9;&#9; M155.562,241.105c-1.232,0.591-5.241-2.823-8.956-7.601c-3.702-4.807-5.701-9.206-4.477-9.778c1.246-0.6,5.24,2.834,8.945,7.62&#10;&#9;&#9;C154.776,236.147,156.785,240.514,155.562,241.105z M206.307,341.516c-9.469-0.711-16.751-6.642-16.239-13.252&#10;&#9;&#9;c0.493-6.601,8.556-11.383,18.025-10.677c9.476,0.712,16.744,6.638,16.244,13.265C223.843,337.444,215.764,342.217,206.307,341.516&#10;&#9;&#9;z M283.346,352.17c-0.293,3.924-5.078,6.753-10.687,6.342c-5.607-0.403-9.916-3.918-9.618-7.855&#10;&#9;&#9;c0.289-3.925,5.076-6.746,10.692-6.339C279.335,344.756,283.636,348.28,283.346,352.17z" style="fill: rgb(84, 42, 12);"/>
  </g>
</svg>