<svg width="25" height="25" viewBox="0 0 25 25" fill="none" xmlns="http://www.w3.org/2000/svg">
<g clip-path="url(#clip0_2582_386)">
<path d="M5.41667 0C2.44468 0 0 2.44468 0 5.41667V19.5833C0 22.5553 2.44468 25 5.41667 25H12.5658C15.3264 25 17.6307 22.8903 17.9447 20.2083H14.5598C14.3051 21.0692 13.5293 21.6667 12.5658 21.6667H5.41667C4.23368 21.6667 3.33333 20.7663 3.33333 19.5833V5.41667C3.33333 4.23368 4.23368 3.33333 5.41667 3.33333H12.5658C13.5293 3.33333 14.3051 3.93082 14.5598 4.79167H17.9447C17.6307 2.10971 15.3264 0 12.5658 0H5.41667Z" fill="white"/>
<path d="M19.8693 7.5C19.6504 7.49999 19.4337 7.54309 19.2315 7.62684C19.0293 7.71059 18.8455 7.83336 18.6908 7.98812C18.536 8.14288 18.4132 8.32662 18.3294 8.52884C18.2457 8.73105 18.2026 8.94779 18.2026 9.16667C18.2026 9.38555 18.2457 9.60228 18.3294 9.8045C18.4132 10.0067 18.536 10.1904 18.6908 10.3452L19.1789 10.8333H6.82194C6.37991 10.8333 5.95599 11.0089 5.64343 11.3215C5.33087 11.634 5.15527 12.058 5.15527 12.5C5.15527 12.942 5.33087 13.366 5.64343 13.6785C5.95599 13.9911 6.37991 14.1667 6.82194 14.1667H19.1789L18.6908 14.6548C18.536 14.8096 18.4132 14.9933 18.3294 15.1955C18.2457 15.3977 18.2026 15.6145 18.2026 15.8333C18.2026 16.0522 18.2457 16.2689 18.3294 16.4712C18.4132 16.6734 18.536 16.8571 18.6908 17.0119C18.8455 17.1667 19.0293 17.2894 19.2315 17.3732C19.4337 17.457 19.6504 17.5001 19.8693 17.5001C20.0882 17.5001 20.3049 17.457 20.5071 17.3732C20.7093 17.2894 20.8931 17.1667 21.0479 17.0119L24.0808 13.9789C24.3555 13.8411 24.5867 13.63 24.7489 13.369C24.9111 13.1081 24.998 12.8073 25 12.5C24.9996 12.188 24.9116 11.8824 24.7461 11.6179C24.5806 11.3534 24.3442 11.1407 24.0637 11.004L21.0479 7.98812C20.8931 7.83336 20.7093 7.71059 20.5071 7.62684C20.3049 7.54309 20.0882 7.49999 19.8693 7.5Z" fill="white"/>
</g>
<defs>
<clipPath id="clip0_2582_386">
<rect width="25" height="25" fill="white"/>
</clipPath>
</defs>
</svg>
