<!DOCTYPE svg PUBLIC "-//W3C//DTD SVG 1.1//EN" "http://www.w3.org/Graphics/SVG/1.1/DTD/svg11.dtd">
<!-- Uploaded to: SVG Repo, www.svgrepo.com, Transformed by: SVG Repo Mixer Tools -->
<svg viewBox="0 0 600 600" version="1.1" id="svg9724" sodipodi:docname="exit.svg" inkscape:version="1.2.2 (1:1.2.2+202212051550+b0a8486541)" width="64px" height="64px" xmlns:inkscape="http://www.inkscape.org/namespaces/inkscape" xmlns:sodipodi="http://sodipodi.sourceforge.net/DTD/sodipodi-0.dtd" xmlns="http://www.w3.org/2000/svg" xmlns:svg="http://www.w3.org/2000/svg" fill="#000000">
<g id="SVGRepo_bgCarrier" stroke-width="0"/>
<g id="SVGRepo_tracerCarrier" stroke-linecap="round" stroke-linejoin="round"/>
<g id="SVGRepo_iconCarrier"> <defs id="defs9728"/> <sodipodi:namedview id="namedview9726" pagecolor="#ffffff" bordercolor="#666666" borderopacity="1.0" inkscape:showpageshadow="2" inkscape:pageopacity="0.0" inkscape:pagecheckerboard="0" inkscape:deskcolor="#d1d1d1" showgrid="true" inkscape:zoom="0.84118632" inkscape:cx="445.79898" inkscape:cy="283.52815" inkscape:window-width="1920" inkscape:window-height="1009" inkscape:window-x="0" inkscape:window-y="1080" inkscape:window-maximized="1" inkscape:current-layer="svg9724" showguides="true"> <inkscape:grid type="xygrid" id="grid9972" originx="0" originy="0"/> <sodipodi:guide position="-260,300" orientation="0,-1" id="guide383" inkscape:locked="false"/> <sodipodi:guide position="300,520" orientation="1,0" id="guide385" inkscape:locked="false"/> <sodipodi:guide position="240,520" orientation="0,-1" id="guide939" inkscape:locked="false"/> <sodipodi:guide position="220,80" orientation="0,-1" id="guide941" inkscape:locked="false"/> <sodipodi:guide position="620,240" orientation="-0.70710678,-0.70710678" id="guide1075" inkscape:locked="false"/> <sodipodi:guide position="450,190" orientation="0.70710678,-0.70710678" id="guide1077" inkscape:locked="false"/> </sodipodi:namedview> <path id="rect348" style="color:#c41c1c;fill:#c41c1c;stroke-linecap:round;stroke-linejoin:round;-inkscape-stroke:none;paint-order:stroke fill markers" d="M 130 0 C 58.672245 0 0 58.672245 0 130 L 0 470 C 0 541.32776 58.672245 600 130 600 L 301.57812 600 C 367.83331 600 423.13643 549.36696 430.67188 485 L 349.43555 485 C 343.32179 505.66026 324.7036 520 301.57812 520 L 130 520 C 101.60826 520 80 498.39174 80 470 L 80 130 C 80 101.60826 101.60826 80 130 80 L 301.57812 80 C 324.7036 80 343.32179 94.339739 349.43555 115 L 430.67188 115 C 423.13642 50.633038 367.83331 0 301.57812 0 L 130 0 z "/> <path id="path1073" style="color:#c41c1c;fill:#c41c1c;stroke-linecap:round;-inkscape-stroke:none" d="m 476.86328,179.99911 a 40,40 0 0 0 -28.28516,11.71484 40,40 0 0 0 0,56.57032 l 11.71485,11.71484 H 163.72656 a 40,40 0 0 0 -40,40 40,40 0 0 0 40,40 h 296.56641 l -11.71485,11.71484 a 40,40 0 0 0 0,56.57032 40,40 0 0 0 56.57032,0 l 72.79101,-72.79102 A 40,40 0 0 0 600,299.99911 40,40 0 0 0 577.5293,264.09481 l -72.38086,-72.38086 a 40,40 0 0 0 -28.28516,-11.71484 z"/> </g>
</svg>