<svg width="34" height="38" viewBox="0 0 34 38" fill="none" xmlns="http://www.w3.org/2000/svg">
<path fill-rule="evenodd" clip-rule="evenodd" d="M4.17547 32.0524C4.17547 33.137 5.1108 33.6007 6.26325 33.6007H8.35102C9.50347 33.6007 10.4388 33.137 10.4388 32.0524V30.0874C10.4388 27.9161 12.3074 25.7408 14.6143 25.7408H18.7899C21.0969 25.7408 22.9654 27.9161 22.9654 30.0874V32.0524C22.9654 33.137 23.9008 33.6007 25.0532 33.6007H27.141C28.2934 33.6007 29.2288 33.137 29.2288 32.0524V16.2088C29.2288 15.9474 29.1181 15.6979 28.9239 15.5132L18.199 5.42113C17.3827 4.65283 16.0612 4.65283 15.2469 5.42113L4.48028 15.5525C4.28612 15.7372 4.17547 15.9868 4.17547 16.2462V32.0524ZM-7.34329e-05 15.1791C-7.34329e-05 14.6584 0.219113 14.1613 0.607441 13.7919L13.7583 1.35364C15.3868 -0.184921 18.032 -0.190779 19.6668 1.34189L32.7905 13.6524C33.183 14.0218 33.4043 14.5209 33.4043 15.0436V34.0173C33.4043 36.1886 31.5357 37.5306 29.2288 37.5306H22.9654C20.6584 37.5306 18.7899 36.1886 18.7899 34.0173V32.0524C18.7899 30.9677 17.8546 30.0874 16.7021 30.0874C15.5497 30.0874 14.6143 30.9677 14.6143 32.0524V34.0173C14.6143 36.1886 12.7458 37.5306 10.4388 37.5306H4.17547C1.86848 37.5306 -7.34329e-05 36.1886 -7.34329e-05 34.0173V15.1791Z" fill="#1B8FD6"/>
</svg>
