<svg width="2488" height="2488" viewBox="0 0 2488 2488" fill="none" xmlns="http://www.w3.org/2000/svg">
<path d="M1243.6 0C559.622 0 0 559.622 0 1243.6C0 1927.59 559.622 2487.21 1243.6 2487.21C1927.59 2487.21 2487.21 1927.59 2487.21 1243.6C2487.21 559.622 1927.59 0 1243.6 0ZM1243.6 310.901C1448.8 310.901 1635.34 376.19 1787.68 485.006L485.006 1787.68C376.19 1635.34 310.901 1448.8 310.901 1243.6C310.901 727.509 727.509 310.901 1243.6 310.901ZM2002.2 699.528C2111.02 851.869 2176.31 1038.41 2176.31 1243.6C2176.31 1759.7 1759.7 2176.31 1243.6 2176.31C1038.41 2176.31 851.869 2111.02 699.528 2002.2L2002.2 699.528Z" fill="#850000"/>
</svg>
