<svg fill="#000000" viewBox="-1 0 19 19" xmlns="http://www.w3.org/2000/svg" class="cf-icon-svg" stroke="#000000"><g id="SVGRepo_bgCarrier" stroke-width="0"></g><g id="SVGRepo_tracerCarrier" stroke-linecap="round" stroke-linejoin="round"></g><g id="SVGRepo_iconCarrier"><path d="m15.867 7.593-1.534.967a.544.544 0 0 1-.698-.118l-.762-.957v7.256a.476.476 0 0 1-.475.475h-7.79a.476.476 0 0 1-.475-.475V7.477l-.769.965a.544.544 0 0 1-.697.118l-1.535-.967a.387.387 0 0 1-.083-.607l2.245-2.492a2.814 2.814 0 0 1 2.092-.932h.935a2.374 2.374 0 0 0 4.364 0h.934a2.816 2.816 0 0 1 2.093.933l2.24 2.49a.388.388 0 0 1-.085.608z"></path></g></svg>