<svg width="39" height="38" viewBox="0 0 39 38" fill="none" xmlns="http://www.w3.org/2000/svg">
<path fill-rule="evenodd" clip-rule="evenodd" d="M34.0226 5.43239C33.9056 4.48734 33.1001 3.77264 32.1476 3.77264H27.4714C27.9184 6.81717 28.3089 10.9746 27.6525 13.5004C30.6875 13.7494 33.2416 13.1363 34.1244 12.6364C34.4885 11.5367 34.4225 8.658 34.0226 5.43239ZM30.5857 17.2675C28.4504 17.4297 26.0472 17.2996 24.0666 16.6356C22.5481 17.0903 20.6995 17.3352 18.866 17.3352C17.0815 17.3352 15.3329 17.1016 13.9408 16.6338C12.328 17.1186 10.2568 17.4012 7.94981 17.3145V32.0675C7.94981 33.1087 8.793 33.9538 9.83613 33.9538H17.3814V28.2948C17.3814 27.2536 18.2246 26.4085 19.2677 26.4085C20.309 26.4085 21.1541 27.2536 21.1541 28.2948V33.9538H28.6994C29.7406 33.9538 30.5857 33.1087 30.5857 32.0675V17.2675ZM10.8529 13.4308C10.27 10.8579 10.6077 6.7719 11.0019 3.77264H6.33704C5.36747 3.77264 4.56201 4.51223 4.45826 5.47614C4.09797 8.79229 4.0678 11.7385 4.44318 12.8363C5.88433 13.6418 9.11368 13.6478 10.8529 13.4308ZM14.5727 12.8363C16.4647 13.8926 22.0859 13.7229 24.0024 12.6364C24.4269 11.35 24.2646 7.63395 23.6685 3.77264H14.7953C14.2501 7.74335 14.1332 11.5536 14.5727 12.8363ZM36.935 15.2168C36.3654 15.7845 35.4505 16.2393 34.3583 16.5845V33.9538C34.3583 36.0363 32.6682 37.7264 30.5857 37.7264H7.94981C5.86543 37.7264 4.17717 36.0363 4.17717 33.9538V16.7526C2.98879 16.4037 2.01736 15.8977 1.46656 15.2168C-0.133042 13.2361 0.408304 7.08883 0.942133 3.24073C1.20056 1.37705 2.79641 0 4.67707 0H33.7793C35.6411 0 37.2218 1.34677 37.5085 3.18593C38.114 7.08496 38.7534 13.3983 36.935 15.2168ZM13.6088 18.8632C12.5656 18.8632 11.7225 19.7083 11.7225 20.7495V24.5222C11.7225 25.5634 12.5656 26.4085 13.6088 26.4085C14.65 26.4085 15.4951 25.5634 15.4951 24.5222V20.7495C15.4951 19.7083 14.65 18.8632 13.6088 18.8632ZM26.813 20.7495V24.5222C26.813 25.5634 25.968 26.4085 24.9267 26.4085C23.8836 26.4085 23.0404 25.5634 23.0404 24.5222V20.7495C23.0404 19.7083 23.8836 18.8632 24.9267 18.8632C25.968 18.8632 26.813 19.7083 26.813 20.7495Z" fill="#4E4B4B"/>
</svg>
