<svg width="88" height="104" viewBox="0 0 88 104" fill="none" xmlns="http://www.w3.org/2000/svg">
<path d="M85.0004 16.467L69.5339 1.0106C68.1869 -0.335511 66.0049 -0.337136 64.6578 1.00735C63.311 2.35366 63.311 4.53462 64.6578 5.88073L74.9708 16.1881C75.5595 16.7782 75.5595 17.7345 74.9677 18.326L74.0184 19.2779C73.4266 19.8677 72.4681 19.8677 71.8763 19.2779L61.0052 8.41147C59.9665 7.37472 58.2897 7.37472 57.251 8.40984C56.2185 9.44476 56.2185 11.1238 57.2542 12.1603L68.1253 23.0269C68.7171 23.6168 68.7171 24.5747 68.1253 25.1662L67.1727 26.1165C66.5809 26.708 65.6256 26.708 65.0338 26.1181L54.1595 15.2501C53.124 14.2152 51.444 14.2152 50.4085 15.2501C49.3728 16.2866 49.3728 17.9624 50.4085 18.9992L61.2826 29.8672C61.8745 30.457 61.8745 31.415 61.2826 32.0065L60.3303 32.9569C59.7384 33.5468 58.78 33.5468 58.1912 32.9583L47.3171 22.0903C46.2816 21.0554 44.5986 21.0554 43.5661 22.0903C42.5274 23.1254 42.5274 24.8043 43.5661 25.8394L54.4402 36.7074C55.0288 37.2973 55.0288 38.2552 54.4402 38.8453L53.4878 39.7972C52.896 40.3887 51.9373 40.3887 51.3455 39.7972L40.4714 28.9291C39.4359 27.894 37.7559 27.894 36.7204 28.9291C35.6847 29.9657 35.6847 31.6431 36.7233 32.678L47.5943 43.546C48.1861 44.1375 48.1861 45.094 47.5943 45.6839L46.6421 46.6374C46.0533 47.2273 45.0916 47.2273 44.503 46.639L33.629 35.7708C32.5932 34.7328 30.9135 34.7359 29.8778 35.7708C28.8423 36.8043 28.8423 38.4848 29.8778 39.5199L40.7519 50.3879C41.3406 50.9778 41.3406 51.9343 40.7488 52.5258L39.7995 53.4776C39.2077 54.0691 38.2492 54.0691 37.6606 53.4776L27.3475 43.1733C26.0006 41.8272 23.8184 41.8272 22.4714 43.1717C21.1243 44.5164 21.1243 46.7004 22.4714 48.0465L36.597 62.8699C25.2299 74.3154 10.9254 80.3517 4.94587 86.3295C-2.43596 93.7058 -0.0351038 99.6265 2.46778 102.126C4.96741 104.625 9.02365 104.625 11.5233 102.126L49.6442 64.0284L53.7959 59.8789L85.5274 28.1654C87.1362 26.5589 88.027 24.3702 87.9994 22.0966C87.9715 19.8232 86.6493 18.0366 85.0004 16.467Z" fill="#EBF7FF"/>
</svg>
