<svg width="80" height="60" viewBox="0 0 80 60" fill="none" xmlns="http://www.w3.org/2000/svg">
<rect x="2.5" y="2.5" width="75" height="55" rx="7.5" fill="#F1953E" stroke="#E17B1C" stroke-width="5"/>
<path d="M34.912 38L31.552 31.76H31.048V38H26.344V21.08H33.76C35.12 21.08 36.272 21.32 37.216 21.8C38.16 22.264 38.872 22.912 39.352 23.744C39.832 24.56 40.072 25.48 40.072 26.504C40.072 27.656 39.752 28.672 39.112 29.552C38.488 30.416 37.568 31.032 36.352 31.4L40.168 38H34.912ZM31.048 28.544H33.376C34.016 28.544 34.496 28.392 34.816 28.088C35.136 27.784 35.296 27.344 35.296 26.768C35.296 26.224 35.128 25.8 34.792 25.496C34.472 25.176 34 25.016 33.376 25.016H31.048V28.544ZM52.9152 35.24H46.9152L46.0032 38H41.0592L47.2272 21.08H52.6512L58.7952 38H53.8272L52.9152 35.24ZM51.7392 31.64L49.9152 26.168L48.1152 31.64H51.7392Z" fill="white"/>
</svg>
