<svg width="80" height="60" viewBox="0 0 80 60" fill="none" xmlns="http://www.w3.org/2000/svg">
<rect x="2.5" y="2.5" width="75" height="55" rx="7.5" fill="#3EADF1" stroke="#157DBE" stroke-width="5"/>
<path d="M34.144 29.312C35.136 29.536 35.92 30.032 36.496 30.8C37.088 31.552 37.384 32.416 37.384 33.392C37.384 34.832 36.888 35.96 35.896 36.776C34.904 37.592 33.512 38 31.72 38H23.344V21.08H31.456C33.184 21.08 34.536 21.464 35.512 22.232C36.504 23 37 24.08 37 25.472C37 26.464 36.736 27.296 36.208 27.968C35.696 28.624 35.008 29.072 34.144 29.312ZM28.048 27.8H30.424C31.608 27.8 32.2 27.312 32.2 26.336C32.2 25.328 31.608 24.824 30.424 24.824H28.048V27.8ZM30.784 34.208C31.968 34.208 32.56 33.712 32.56 32.72C32.56 32.208 32.4 31.816 32.08 31.544C31.776 31.272 31.336 31.136 30.76 31.136H28.048V34.208H30.784ZM50.1496 35.24H44.1496L43.2376 38H38.2936L44.4616 21.08H49.8856L56.0296 38H51.0616L50.1496 35.24ZM48.9736 31.64L47.1496 26.168L45.3496 31.64H48.9736Z" fill="white"/>
</svg>
