<svg width="80" height="60" viewBox="0 0 80 60" fill="none" xmlns="http://www.w3.org/2000/svg">
<rect x="2.5" y="2.5" width="75" height="55" rx="7.5" fill="#3EADF1" stroke="#157DBE" stroke-width="5"/>
<path d="M33.144 26.648C32.872 26.2 32.496 25.856 32.016 25.616C31.552 25.376 31 25.256 30.36 25.256C29.176 25.256 28.24 25.64 27.552 26.408C26.88 27.176 26.544 28.208 26.544 29.504C26.544 30.96 26.904 32.072 27.624 32.84C28.36 33.592 29.424 33.968 30.816 33.968C32.464 33.968 33.64 33.224 34.344 31.736H29.616V28.352H38.4V32.912C38.032 33.808 37.488 34.648 36.768 35.432C36.064 36.216 35.168 36.864 34.08 37.376C32.992 37.872 31.752 38.12 30.36 38.12C28.664 38.12 27.16 37.76 25.848 37.04C24.552 36.304 23.544 35.288 22.824 33.992C22.12 32.68 21.768 31.184 21.768 29.504C21.768 27.84 22.12 26.36 22.824 25.064C23.544 23.752 24.552 22.736 25.848 22.016C27.144 21.28 28.64 20.912 30.336 20.912C32.464 20.912 34.224 21.424 35.616 22.448C37.008 23.472 37.872 24.872 38.208 26.648H33.144ZM48.6201 38.168C47.0361 38.168 45.5801 37.8 44.2521 37.064C42.9241 36.312 41.8681 35.28 41.0841 33.968C40.3161 32.64 39.9321 31.144 39.9321 29.48C39.9321 27.816 40.3161 26.328 41.0841 25.016C41.8681 23.688 42.9241 22.656 44.2521 21.92C45.5801 21.184 47.0361 20.816 48.6201 20.816C50.2201 20.816 51.6761 21.184 52.9881 21.92C54.3161 22.656 55.3641 23.688 56.1321 25.016C56.9001 26.328 57.2841 27.816 57.2841 29.48C57.2841 31.144 56.9001 32.64 56.1321 33.968C55.3641 35.28 54.3161 36.312 52.9881 37.064C51.6601 37.8 50.2041 38.168 48.6201 38.168ZM48.6201 33.8C49.8201 33.8 50.7641 33.408 51.4521 32.624C52.1561 31.84 52.5081 30.792 52.5081 29.48C52.5081 28.136 52.1561 27.08 51.4521 26.312C50.7641 25.528 49.8201 25.136 48.6201 25.136C47.4041 25.136 46.4521 25.528 45.7641 26.312C45.0761 27.08 44.7321 28.136 44.7321 29.48C44.7321 30.808 45.0761 31.864 45.7641 32.648C46.4521 33.416 47.4041 33.8 48.6201 33.8Z" fill="white"/>
</svg>
