<svg width="80" height="60" viewBox="0 0 80 60" fill="none" xmlns="http://www.w3.org/2000/svg">
<rect x="2.5" y="2.5" width="75" height="55" rx="7.5" fill="#3EADF1" stroke="#157DBE" stroke-width="5"/>
<path d="M36.552 21.08V32.288C36.552 34.192 36.032 35.648 34.992 36.656C33.968 37.664 32.552 38.168 30.744 38.168C28.824 38.168 27.288 37.632 26.136 36.56C25 35.488 24.432 33.944 24.432 31.928H29.088C29.104 33.256 29.592 33.92 30.552 33.92C31.416 33.92 31.848 33.376 31.848 32.288V21.08H36.552ZM50.0636 35.24H44.0636L43.1516 38H38.2076L44.3756 21.08H49.7996L55.9436 38H50.9756L50.0636 35.24ZM48.8876 31.64L47.0636 26.168L45.2636 31.64H48.8876Z" fill="white"/>
</svg>
