<svg width="80" height="60" viewBox="0 0 80 60" fill="none" xmlns="http://www.w3.org/2000/svg">
<rect x="2.5" y="2.5" width="75" height="55" rx="7.5" fill="#3EADF1" stroke="#157DBE" stroke-width="5"/>
<path d="M23.912 38L20.552 31.76H20.048V38H15.344V21.08H22.76C24.12 21.08 25.272 21.32 26.216 21.8C27.16 22.264 27.872 22.912 28.352 23.744C28.832 24.56 29.072 25.48 29.072 26.504C29.072 27.656 28.752 28.672 28.112 29.552C27.488 30.416 26.568 31.032 25.352 31.4L29.168 38H23.912ZM20.048 28.544H22.376C23.016 28.544 23.496 28.392 23.816 28.088C24.136 27.784 24.296 27.344 24.296 26.768C24.296 26.224 24.128 25.8 23.792 25.496C23.472 25.176 23 25.016 22.376 25.016H20.048V28.544ZM41.9152 35.24H35.9152L35.0032 38H30.0592L36.2272 21.08H41.6512L47.7952 38H42.8272L41.9152 35.24ZM40.7392 31.64L38.9152 26.168L37.1152 31.64H40.7392ZM65.0004 38H60.2964L54.0324 28.544V38H49.3284V21.08H54.0324L60.2964 30.656V21.08H65.0004V38Z" fill="white"/>
</svg>
