<svg width="80" height="60" viewBox="0 0 80 60" fill="none" xmlns="http://www.w3.org/2000/svg">
<rect x="2.5" y="2.5" width="75" height="55" rx="7.5" fill="#F1953E" stroke="#E17B1C" stroke-width="5"/>
<path d="M31.12 33.8C31.824 33.8 32.44 33.632 32.968 33.296C33.512 32.96 33.936 32.472 34.24 31.832H39.304C38.936 33.528 38.168 34.92 37 36.008C35.848 37.096 34.408 37.768 32.68 38.024V38.888C33.464 38.888 34.176 39.12 34.816 39.584C35.472 40.048 35.8 40.76 35.8 41.72C35.8 42.696 35.456 43.416 34.768 43.88C34.08 44.344 33.264 44.576 32.32 44.576H28.408V42.104H31.768C32.296 42.104 32.56 41.936 32.56 41.6C32.56 41.264 32.296 41.096 31.768 41.096H29.896V38.048C28.456 37.872 27.2 37.4 26.128 36.632C25.056 35.864 24.224 34.872 23.632 33.656C23.056 32.424 22.768 31.04 22.768 29.504C22.768 27.84 23.112 26.36 23.8 25.064C24.504 23.752 25.496 22.736 26.776 22.016C28.056 21.28 29.528 20.912 31.192 20.912C33.304 20.912 35.08 21.48 36.52 22.616C37.96 23.736 38.888 25.264 39.304 27.2H34.24C33.936 26.56 33.512 26.072 32.968 25.736C32.44 25.4 31.824 25.232 31.12 25.232C30.032 25.232 29.16 25.624 28.504 26.408C27.864 27.176 27.544 28.208 27.544 29.504C27.544 30.816 27.864 31.864 28.504 32.648C29.16 33.416 30.032 33.8 31.12 33.8ZM52.2355 35.24H46.2355L45.3235 38H40.3795L46.5475 21.08H51.9715L58.1155 38H53.1475L52.2355 35.24ZM51.0595 31.64L49.2355 26.168L47.4355 31.64H51.0595ZM44.0275 20C44.4755 17.392 45.6755 16.088 47.6275 16.088C47.9955 16.088 48.3235 16.144 48.6115 16.256C48.9155 16.368 49.2595 16.528 49.6435 16.736C49.9155 16.88 50.1475 16.992 50.3395 17.072C50.5315 17.152 50.7235 17.192 50.9155 17.192C51.5075 17.192 51.8595 16.824 51.9715 16.088H54.3475C54.1235 17.448 53.6995 18.44 53.0755 19.064C52.4675 19.672 51.6915 19.976 50.7475 19.976C50.3955 19.976 50.0755 19.928 49.7875 19.832C49.4995 19.72 49.1475 19.56 48.7315 19.352C48.4595 19.208 48.2275 19.096 48.0355 19.016C47.8435 18.936 47.6515 18.896 47.4595 18.896C46.8835 18.896 46.5235 19.264 46.3795 20H44.0275Z" fill="white"/>
</svg>
