<svg width="42" height="47" viewBox="0 0 42 47" fill="none" xmlns="http://www.w3.org/2000/svg">
<path fill-rule="evenodd" clip-rule="evenodd" d="M5.16735 39.4736C5.16735 40.8176 6.32486 41.3921 7.75109 41.3921H10.3348C11.7611 41.3921 12.9186 40.8176 12.9186 39.4736V37.0388C12.9186 34.3483 15.2311 31.6529 18.0861 31.6529H23.2536C26.1086 31.6529 28.4211 34.3483 28.4211 37.0388V39.4736C28.4211 40.8176 29.5786 41.3921 31.0048 41.3921H33.5886C35.0148 41.3921 36.1723 40.8176 36.1723 39.4736V19.8416C36.1723 19.5177 36.0354 19.2085 35.7951 18.9796L22.5224 6.47448C21.5121 5.52247 19.8766 5.52247 18.869 6.47448L5.54456 19.0284C5.30427 19.2573 5.16735 19.5665 5.16735 19.8879V39.4736ZM-0.000152588 18.5658C-0.000152588 17.9205 0.271103 17.3045 0.751682 16.8468L17.0267 1.4344C19.042 -0.47206 22.3157 -0.479319 24.3388 1.41983L40.5802 16.674C41.066 17.1317 41.3398 17.7502 41.3398 18.3978V41.9084C41.3398 44.5989 39.0274 46.2617 36.1723 46.2617H28.4211C25.5661 46.2617 23.2536 44.5989 23.2536 41.9084V39.4736C23.2536 38.1296 22.0961 37.0388 20.6698 37.0388C19.2436 37.0388 18.0861 38.1296 18.0861 39.4736V41.9084C18.0861 44.5989 15.7736 46.2617 12.9186 46.2617H5.16735C2.3123 46.2617 -0.000152588 44.5989 -0.000152588 41.9084V18.5658Z" fill="white"/>
</svg>
