<svg width="78" height="78" viewBox="0 0 78 78" fill="none" xmlns="http://www.w3.org/2000/svg">
<circle cx="39" cy="39" r="39" fill="#A54F1E"/>
<path d="M27.6253 26.1415V46.5839C26.7491 46.3496 25.8149 46.1734 24.9984 46.1734C23.1301 46.1734 21.2038 46.8182 19.6269 47.8716C18.05 48.925 17 50.6251 17 52.6157C17 54.7245 18.0519 56.3065 19.6269 57.3599C21.2019 58.4133 23.1301 59 24.9984 59C26.7509 59 28.7351 58.4133 30.312 57.3599C31.8889 56.3065 32.881 54.7245 32.881 52.6157V31.1762L50.6883 26.0797V40.1959C49.8699 39.9616 48.8778 39.8435 48.0016 39.8435C46.1911 39.8435 44.207 40.3702 42.6301 41.4255C41.0532 42.4808 40.0611 44.179 40.0611 46.1696C40.0611 48.2783 41.0532 49.9185 42.6301 50.9138C44.207 51.9691 46.1911 52.612 48.0016 52.612C49.7541 52.612 51.7962 51.9672 53.3731 50.9138C55.0079 49.9185 56 48.2783 56 46.1696V19.1668C56 17.8772 55.1237 17 53.8402 17C53.7225 17 53.0218 17.2343 51.9139 17.5267C49.5785 18.1715 46.0753 19.1668 42.1051 20.3383C40.0611 20.865 38.2506 21.4517 36.4421 21.9203C34.6896 22.447 33.1725 22.9756 31.8291 23.3261C30.4279 23.7366 29.5516 23.9709 29.2022 24.0872C28.268 24.3796 27.6253 25.2006 27.6253 26.1378V26.1415Z" fill="white"/>
<path d="M66 11L11 66" stroke="#511E0B" stroke-width="6"/>
</svg>
