<svg width="80" height="60" viewBox="0 0 80 60" fill="none" xmlns="http://www.w3.org/2000/svg">
<rect x="2.5" y="2.5" width="75" height="55" rx="7.5" fill="#EE3EF1" stroke="#DD1CE1" stroke-width="5"/>
<path d="M22.768 29.504C22.768 27.84 23.112 26.36 23.8 25.064C24.504 23.752 25.496 22.736 26.776 22.016C28.056 21.28 29.528 20.912 31.192 20.912C33.304 20.912 35.08 21.48 36.52 22.616C37.96 23.736 38.888 25.264 39.304 27.2H34.24C33.936 26.56 33.512 26.072 32.968 25.736C32.44 25.4 31.824 25.232 31.12 25.232C30.032 25.232 29.16 25.624 28.504 26.408C27.864 27.176 27.544 28.208 27.544 29.504C27.544 30.816 27.864 31.864 28.504 32.648C29.16 33.416 30.032 33.8 31.12 33.8C31.824 33.8 32.44 33.632 32.968 33.296C33.512 32.96 33.936 32.472 34.24 31.832H39.304C38.888 33.768 37.96 35.304 36.52 36.44C35.08 37.56 33.304 38.12 31.192 38.12C29.528 38.12 28.056 37.76 26.776 37.04C25.496 36.304 24.504 35.288 23.8 33.992C23.112 32.68 22.768 31.184 22.768 29.504ZM52.2355 35.24H46.2355L45.3235 38H40.3795L46.5475 21.08H51.9715L58.1155 38H53.1475L52.2355 35.24ZM51.0595 31.64L49.2355 26.168L47.4355 31.64H51.0595Z" fill="white"/>
</svg>
