<?xml version="1.0" ?>
<!-- Uploaded to: SVG Repo, www.svgrepo.com, Generator: SVG Repo Mixer Tools -->
<svg width="800px" height="800px" viewBox="0 0 128 128" version="1.1" xml:space="preserve" xmlns="http://www.w3.org/2000/svg" xmlns:xlink="http://www.w3.org/1999/xlink">
<style type="text/css">
	.st0{fill:#69A401;}
	.st1{fill:#EFE691;}
	.st2{fill:#B20000;}
	.st3{fill:#DF1801;}
	.st4{fill:#F40603;}
	.st5{fill:#FFEEEE;}
	.st6{fill:#847B3C;}
	.st7{fill:#CEB600;}
	.st8{fill:#F8CD02;}
	.st9{fill:#F7C800;}
	.st10{fill:#F6E8B9;}
	.st11{fill:#F6E9CA;}
	.st12{fill:#CF8A11;}
	.st13{fill:#286F0D;}
	.st14{fill:#63271D;}
	.st15{fill:#EB8102;}
	.st16{fill:#E37303;}
	.st17{fill:#D97102;}
	.st18{fill:#BF6302;}
	.st19{fill:#EA9735;}
	.st20{fill:#3E1A01;}
	.st21{fill:#C96A0A;}
	.st22{fill:#CE2335;}
	.st23{fill:#C0242D;}
	.st24{fill:#BA1A23;}
	.st25{fill:#F9DCC7;}
	.st26{fill:#DBE2CE;}
	.st27{fill:#7D4B12;}
	.st28{fill:#75480C;}
	.st29{fill:#66410C;}
	.st30{fill:#88550D;}
	.st31{fill:#FFFEE9;}
	.st32{fill:#9B9F1A;}
	.st33{fill:#F6E177;}
	.st34{fill:#443A00;}
	.st35{fill:#305209;}
	.st36{fill:#7F7C04;}
	.st37{fill:#BAB424;}
	.st38{fill:#F7CF43;}
	.st39{fill:#DE940E;}
	.st40{fill:#5F570A;}
	.st41{fill:#175424;}
	.st42{fill:#215B25;}
	.st43{fill:#1B5020;}
	.st44{fill:#C0F9C0;}
	.st45{fill:#F3DA78;}
	.st46{fill:#BC441C;}
	.st47{fill:#148E2E;}
	.st48{fill:#283767;}
	.st49{fill:#425285;}
	.st50{fill:#CFDFFF;}
	.st51{fill:#1F2C55;}
	.st52{fill:#776220;}
	.st53{fill:#90236B;}
	.st54{fill:#5D1A47;}
	.st55{fill:#99499A;}
	.st56{fill:#FCCAFA;}
	.st57{fill:#917C31;}
	.st58{fill:#F4C435;}
	.st59{fill:#F1BC02;}
	.st60{fill:#F0B102;}
	.st61{fill:#F1F7BA;}
	.st62{fill:#E3DCB9;}
	.st63{fill:#BD6800;}
	.st64{fill:#E19704;}
	.st65{fill:#B2CA2B;}
	.st66{fill:#AFC20F;}
	.st67{fill:#B9CB00;}
	.st68{fill:#E5F392;}
	.st69{fill:#F78202;}
	.st70{fill:#F79613;}
	.st71{fill:#331F07;}
	.st72{fill:#402B16;}
	.st73{fill:#669404;}
	.st74{fill:#F58E13;}
	.st75{fill:#D87117;}
	.st76{fill:#216604;}
	.st77{fill:#286D08;}
	.st78{fill:#C8C625;}
	.st79{fill:#2C441F;}
	.st80{fill:#F1E6BF;}
	.st81{fill:#F2BE2E;}
	.st82{fill:#BF8F33;}
	.st83{fill:#568804;}
	.st84{fill:#669614;}
	.st85{fill:#688E0C;}
	.st86{fill:#4C7005;}
	.st87{fill:#A0CA49;}
	.st88{fill:#99BD70;}
	.st89{fill:#78AA25;}
	.st90{fill:#4B7C23;}
	.st91{fill:#EADBC8;}
	.st92{fill:#F0D5B0;}
	.st93{fill:#DF2B2B;}
	.st94{fill:#D1262C;}
	.st95{fill:#B7252C;}
	.st96{fill:#46670C;}
	.st97{fill:#F49D5B;}
	.st98{fill:#F57A55;}
	.st99{fill:#F1C3A7;}
	.st100{fill:#CC0917;}
	.st101{fill:#DC1035;}
	.st102{fill:#9BAC0F;}
	.st103{fill:#667A1D;}
	.st104{fill:#7A9D18;}
	.st105{fill:#F6F7E6;}
	.st106{fill:#F0194D;}
	.st107{fill:#362420;}
	.st108{fill:#530618;}
	.st109{fill:#44041A;}
	.st110{fill:#490419;}
	.st111{fill:#F8A459;}
	.st112{fill:#871B22;}
	.st113{fill:#600613;}
	.st114{fill:#F8C790;}
	.st115{fill:#447832;}
	.st116{fill:#7C473D;}
	.st117{fill:#441432;}
	.st118{fill:#51163F;}
	.st119{fill:#5B1A41;}
	.st120{fill:#FCEBF9;}
	.st121{fill:#ECE5CE;}
	.st122{fill:#BC3E2C;}
	.st123{fill:#A60F26;}
	.st124{fill:#C61632;}
	.st125{fill:#BD1331;}
	.st126{fill:#F8B772;}
	.st127{fill:#F7DDAC;}
	.st128{fill:#850E11;}
	.st129{fill:#191200;}
	.st130{fill:#553D2D;}
	.st131{fill:#F9E2D2;}
	.st132{fill:#CA8937;}
	.st133{fill:#462D16;}
	.st134{fill:#6D8916;}
	.st135{fill:#96B54E;}
	.st136{fill:#E3E2DE;}
	.st137{fill:#261811;}
	.st138{fill:#525C11;}
	.st139{fill:#14581E;}
	.st140{fill:#3D7712;}
	.st141{fill:#9BC148;}
	.st142{fill:#E22434;}
	.st143{fill:#C6DD9E;}
	.st144{fill:#F89A07;}
	.st145{fill:#F7A410;}
	.st146{fill:#F8AB19;}
	.st147{fill:#F7B81C;}
	.st148{fill:#E5870A;}
	.st149{fill:#97A304;}
	.st150{fill:#A88C5C;}
	.st151{fill:#ADC21E;}
	.st152{fill:#A3BA0B;}
	.st153{fill:#8D9E08;}
	.st154{fill:#E0DAB9;}
	.st155{fill:#684219;}
	.st156{fill:#777F05;}
	.st157{fill:#F2E9C4;}
	.st158{fill:#CBB465;}
	.st159{fill:#FFF5CA;}
	.st160{fill:#E52828;}
	.st161{fill:#F87302;}
	.st162{fill:#FF7B22;}
	.st163{fill:#FC7F10;}
	.st164{fill:#F8A200;}
	.st165{fill:#F8DC91;}
	.st166{fill:#FFFFFF;}
	.st167{fill:#F5D7D5;}
	.st168{fill:#EDA07A;}
	.st169{fill:#FCBEBE;}
	.st170{fill:#EAD991;}
	.st171{fill:#582612;}
</style>
<g id="_x33_0_Mulberry"/>
<g id="_x32_9_Star_Fruit"/>
<g id="_x32_8_Apricot"/>
<g id="_x32_7_Litchi"/>
<g id="_x32_6_Kiwi"/>
<g id="_x32_5_Jackfruit"/>
<g id="_x32_4_Avacado"/>
<g id="_x32_3_Blueberry"/>
<g id="_x32_2_Purple_Grapes"/>
<g id="_x32_1_Melon"/>
<g id="_x32_0_Green_Grapes"/>
<g id="_x31_9_Papaya"/>
<g id="_x31_8_Pineapple"/>
<g id="_x31_7_Banana"/>
<g id="_x31_6_Tender_Coconut"/>
<g id="_x31_5_Strawberry">
<g id="XMLID_884_">
<g id="XMLID_892_">
<path class="st93" d="M80.199,43.337c-9.783-24.503-38.562-8.365-38.562-8.365S12.905,18.834,3.122,43.337     c-6.572,16.462,17.324,40.612,30.469,52.269c4.613,4.091,11.614,4.078,16.237-0.002C62.999,83.982,86.834,59.956,80.199,43.337z" id="XMLID_902_"/>
<path class="st94" d="M21.722,43.337c2.604-6.522,6.551-10.164,10.941-11.998     C23.377,28.618,9.377,27.67,3.122,43.337c-6.572,16.462,17.324,40.612,30.469,52.269c4.613,4.091,11.614,4.078,16.237-0.002     c0.385-0.34,0.781-0.692,1.183-1.053C37.675,82.543,15.341,59.318,21.722,43.337z" id="XMLID_1235_"/>
<path class="st95" d="M43.924,95.606C30.779,83.948,6.883,59.798,13.455,43.337     c3.295-8.253,8.74-11.892,14.513-13.093c-8.813-1.51-19.577-0.104-24.846,13.093c-6.572,16.462,17.324,40.612,30.469,52.269     c3.708,3.289,8.958,3.919,13.277,1.923C45.82,97.043,44.825,96.405,43.924,95.606z" id="XMLID_813_"/>
<path class="st96" d="M27.108,25.412c-1.898,0.44-3.793,0.639-5.324,0.372c0,0,0.298,2.97,5.449,7.141     c-2.104,2.066-4.38,5.446-5.449,10.899c0,0,6.712,3.467,12.965,1.172c0.771,2.822,2.614,6.448,6.887,10.083     c0,0,6.413-3.974,7.516-10.44c2.874,0.756,6.993,1.001,12.336-0.815c0,0-0.298-7.441-5.449-11.612     c2.104-2.066,4.38-2.466,5.449-7.918c0,0-0.062,0.016-0.18,0.043c-7.319,1.678-14.31-2.349-14.351-9.729L46.847,2H34.425     l0.147,14.411v0C34.469,20.731,31.392,24.419,27.108,25.412z" id="XMLID_900_"/>
<path class="st97" d="M41.637,69.193c-1.104,0-2-0.896-2-2v-4.133c0-1.104,0.896-2,2-2s2,0.896,2,2v4.133     C43.637,68.298,42.741,69.193,41.637,69.193z"/>
<path class="st97" d="M26.461,69.193c-1.104,0-2-0.896-2-2v-4.133c0-1.104,0.896-2,2-2s2,0.896,2,2v4.133     C28.461,68.298,27.565,69.193,26.461,69.193z"/>
<path class="st97" d="M56.812,69.193c-1.104,0-2-0.896-2-2v-4.133c0-1.104,0.896-2,2-2s2,0.896,2,2v4.133     C58.812,68.298,57.916,69.193,56.812,69.193z"/>
<path class="st97" d="M34.049,84.095c-1.104,0-2-0.896-2-2v-4.132c0-1.104,0.896-2,2-2s2,0.896,2,2v4.132     C36.049,83.2,35.153,84.095,34.049,84.095z"/>
<path class="st97" d="M49.225,84.095c-1.104,0-2-0.896-2-2v-4.132c0-1.104,0.896-2,2-2s2,0.896,2,2v4.132     C51.225,83.2,50.329,84.095,49.225,84.095z"/>
<path class="st97" d="M14.32,54.292c-1.104,0-2-0.896-2-2v-4.133c0-1.104,0.896-2,2-2s2,0.896,2,2v4.133     C16.32,53.396,15.425,54.292,14.32,54.292z"/>
<path class="st97" d="M68.952,54.292c-1.104,0-2-0.896-2-2v-4.133c0-1.104,0.896-2,2-2s2,0.896,2,2v4.133     C70.952,53.396,70.057,54.292,68.952,54.292z"/>
<path class="st97" d="M51.012,56.358c-1.104,0-2-0.896-2-2v-4.133c0-1.104,0.896-2,2-2s2,0.896,2,2v4.133     C53.012,55.462,52.116,56.358,51.012,56.358z"/>
<path class="st97" d="M31.388,54.292c-1.104,0-2-0.896-2-2v-4.133c0-1.104,0.896-2,2-2s2,0.896,2,2v4.133     C33.388,53.396,32.492,54.292,31.388,54.292z"/>
<path class="st97" d="M41.637,95.571c-1.104,0-2-0.896-2-2v-4.132c0-1.104,0.896-2,2-2s2,0.896,2,2v4.132     C43.637,94.676,42.741,95.571,41.637,95.571z"/>
</g>
<g id="XMLID_885_">
<path class="st98" d="M112.025,124.813c24.525-9.876,9.485-38.403,8.646-39.953H55.089     c0.001,3.015,1.054,6.033,3.154,8.432C70.202,106.962,94.925,131.7,112.025,124.813z" id="XMLID_891_"/>
<g id="XMLID_886_">
<path class="st99" d="M97.74,102.808c-11.42,0-22.062-5.702-22.766-6.087c-0.969-0.529-1.325-1.743-0.796-2.712      c0.526-0.969,1.742-1.328,2.713-0.798c0.248,0.136,24.943,13.335,37.305-1.632c0.703-0.851,1.964-0.972,2.815-0.269      s0.972,1.964,0.269,2.815C111.831,100.724,104.644,102.808,97.74,102.808z"/>
<path class="st99" d="M79.447,105.741c-0.569,0-1.135-0.242-1.53-0.711c-0.712-0.844-0.604-2.106,0.24-2.818l4.939-4.166      l-1.64-6.087c-0.288-1.066,0.344-2.164,1.41-2.452c1.073-0.286,2.164,0.345,2.451,1.411l1.972,7.316      c0.202,0.75-0.048,1.549-0.642,2.049l-5.913,4.986C80.36,105.586,79.902,105.741,79.447,105.741z"/>
<path class="st99" d="M88.972,111.051c-0.773,0-1.51-0.451-1.836-1.206c-0.439-1.013,0.026-2.191,1.04-2.63      c2.438-1.056,4.341-3.1,5.221-5.609l0.521-1.484c0.762-3.155-0.127-6.425-2.387-8.764l-0.565-0.585      c-0.768-0.795-0.745-2.061,0.049-2.828c0.797-0.767,2.061-0.746,2.828,0.049l0.565,0.585c3.246,3.359,4.505,8.069,3.368,12.6      c-0.015,0.059-0.032,0.117-0.052,0.174l-0.552,1.575c-1.249,3.559-3.948,6.459-7.406,7.957      C89.507,110.998,89.237,111.051,88.972,111.051z"/>
<path class="st99" d="M101.466,115.761c-0.564,0-1.126-0.238-1.521-0.701c-0.718-0.84-0.618-2.102,0.222-2.82      c4.038-3.451,6.98-7.97,8.507-13.067l0.882-2.945c0.317-1.059,1.44-1.657,2.489-1.342c1.059,0.317,1.659,1.432,1.343,2.49      l-0.882,2.945c-1.748,5.836-5.116,11.009-9.741,14.961C102.388,115.603,101.926,115.761,101.466,115.761z"/>
</g>
<path class="st100" d="M112.025,118.61c-17.101,6.886-41.824-17.851-53.783-31.521     c-0.608-0.695-1.117-1.446-1.549-2.229h-1.604c0.001,3.015,1.054,6.033,3.154,8.432c11.96,13.67,36.682,38.408,53.783,31.521     c12.408-4.997,14.683-14.764,13.8-23.4C125.068,108.175,121.514,114.789,112.025,118.61z" id="XMLID_439_"/>
</g>
</g>
</g>
<g id="_x31_4_Dragon_Fruit"/>
<g id="_x31_3_Plum"/>
<g id="_x31_2_Fig"/>
<g id="_x31_1_Peach"/>
<g id="_x31_0_Cherry"/>
<g id="_x30_9_Sapota"/>
<g id="_x30_8_Custard_Apple"/>
<g id="_x30_7_Watermelon"/>
<g id="_x30_6_Mango"/>
<g id="_x30_5_Pear"/>
<g id="_x30_4_Guava"/>
<g id="_x30_3_Pomegranate"/>
<g id="_x30_2_Orange"/>
<g id="_x30_1_Apple"/>
</svg>