<svg width="33" height="38" viewBox="0 0 33 38" fill="none" xmlns="http://www.w3.org/2000/svg">
<path fill-rule="evenodd" clip-rule="evenodd" d="M4.3461 31.7208C4.3461 32.7836 5.26141 33.2379 6.38921 33.2379H8.43233C9.56013 33.2379 10.4754 32.7836 10.4754 31.7208V29.7955C10.4754 27.6679 12.304 25.5365 14.5617 25.5365H18.6479C20.9055 25.5365 22.7341 27.6679 22.7341 29.7955V31.7208C22.7341 32.7836 23.6494 33.2379 24.7772 33.2379H26.8204C27.9482 33.2379 28.8635 32.7836 28.8635 31.7208V16.1967C28.8635 15.9406 28.7552 15.6961 28.5652 15.5151L18.0697 5.62656C17.2708 4.87376 15.9775 4.87376 15.1807 5.62656L4.64438 15.5536C4.45437 15.7346 4.3461 15.9792 4.3461 16.2333V31.7208ZM0.259869 15.1878C0.259869 14.6776 0.474365 14.1905 0.854389 13.8285L13.724 1.64109C15.3176 0.133552 17.9063 0.127812 19.506 1.62958L32.349 13.6919C32.7331 14.0538 32.9497 14.5429 32.9497 15.055V33.6461C32.9497 35.7736 31.1211 37.0886 28.8635 37.0886H22.7341C20.4765 37.0886 18.6479 35.7736 18.6479 33.6461V31.7208C18.6479 30.658 17.7326 29.7955 16.6048 29.7955C15.477 29.7955 14.5617 30.658 14.5617 31.7208V33.6461C14.5617 35.7736 12.7331 37.0886 10.4754 37.0886H4.3461C2.08846 37.0886 0.259869 35.7736 0.259869 33.6461V15.1878Z" fill="#1C96E1"/>
</svg>
