<svg width="54" height="54" viewBox="0 0 54 54" fill="none" xmlns="http://www.w3.org/2000/svg">
<path fill-rule="evenodd" clip-rule="evenodd" d="M39.2325 26.9929L51.4681 14.7679C54.844 11.3985 54.844 5.91265 51.4681 2.54325C48.0879 -0.84775 42.6105 -0.84775 39.2325 2.54325L26.9989 14.7679L14.7654 2.54325C11.3895 -0.84775 5.91211 -0.84775 2.53191 2.54325C-0.84397 5.91265 -0.84397 11.3985 2.53191 14.7679L14.7654 26.9929L2.53191 39.2395C-0.84397 42.6089 -0.84397 48.095 2.53191 51.4644C5.91211 54.8554 11.3895 54.8554 14.7654 51.4644L26.9989 39.2395L39.2325 51.4644C42.6105 54.8554 48.0879 54.8554 51.4681 51.4644C54.844 48.095 54.844 42.6089 51.4681 39.2395L39.2325 26.9929Z" fill="#E11C1C"/>
</svg>
