<svg width="1007" height="735" viewBox="0 0 1007 735" fill="none" xmlns="http://www.w3.org/2000/svg">
<g filter="url(#filter0_d_2389_868)">
<path fill-rule="evenodd" clip-rule="evenodd" d="M157.24 506.121C108.03 471.806 77.8648 419.075 81.2594 361.658C86.9091 266.098 183.378 193.743 296.729 200.049C299.857 200.223 302.965 200.456 306.051 200.744C330.819 131.1 399.743 81 480.894 81C549.278 81 608.98 116.577 640.893 169.446C663.56 162.111 688.035 158.109 713.564 158.109C830.632 158.109 925.535 242.259 925.535 346.064C925.535 397.265 902.445 443.685 864.995 477.583C865.605 482.935 865.918 488.364 865.918 493.857C865.918 582.579 784.361 654.502 683.756 654.502C625.483 654.502 573.601 630.372 540.257 592.824C506.779 630.71 458.453 654.501 404.716 654.501C358.851 654.501 316.927 637.169 284.813 608.534C269.625 625.848 246.998 636.83 221.727 636.83C175.997 636.83 138.925 600.868 138.925 556.508C138.925 537.427 145.784 519.9 157.24 506.121Z" fill="white"/>
</g>
<defs>
<filter id="filter0_d_2389_868" x="0.5" y="0.5" width="1005.53" height="734.502" filterUnits="userSpaceOnUse" color-interpolation-filters="sRGB">
<feFlood flood-opacity="0" result="BackgroundImageFix"/>
<feColorMatrix in="SourceAlpha" type="matrix" values="0 0 0 0 0 0 0 0 0 0 0 0 0 0 0 0 0 0 127 0" result="hardAlpha"/>
<feOffset/>
<feGaussianBlur stdDeviation="40.25"/>
<feComposite in2="hardAlpha" operator="out"/>
<feColorMatrix type="matrix" values="0 0 0 0 0 0 0 0 0 0 0 0 0 0 0 0 0 0 0.25 0"/>
<feBlend mode="normal" in2="BackgroundImageFix" result="effect1_dropShadow_2389_868"/>
<feBlend mode="normal" in="SourceGraphic" in2="effect1_dropShadow_2389_868" result="shape"/>
</filter>
</defs>
</svg>
