<svg width="120" height="206" viewBox="0 0 120 206" fill="none" xmlns="http://www.w3.org/2000/svg">
<path d="M120 66.0714C120 29.3651 93 0 60 0C27 0 0 29.3651 0 66.0714C0 93.9683 16.5 118.194 39 127.738L32.25 134.345C30.75 135.813 30 138.016 30 140.218C30 142.421 31.5 144.623 33 145.357C39.75 149.762 46.5 151.964 54 152.698L57.75 163.71C58.5 166.647 58.5 169.583 57 171.786C53.25 179.127 53.25 187.202 57 194.544L60.75 201.151C62.25 204.087 64.5 205.556 67.5 205.556C69 205.556 69.75 205.556 70.5 204.821C74.25 203.353 75.75 198.948 73.5 195.278L69.75 188.671C68.25 185.734 68.25 182.064 69.75 179.127C72.75 173.254 73.5 166.647 71.25 160.04L69 152.698C75 151.23 80.25 149.028 85.5 146.091C87 144.623 88.5 143.155 88.5 140.952C88.5 138.75 87.75 136.548 86.25 135.079L79.5 128.472C103.5 118.194 120 93.9683 120 66.0714Z" fill="#E1C01C"/>
<path d="M52.1575 42.072V68.952C52.1575 71.64 52.8188 73.7093 54.1415 75.16C55.4642 76.6107 57.4055 77.336 59.9655 77.336C62.5255 77.336 64.4882 76.6107 65.8535 75.16C67.2188 73.7093 67.9015 71.64 67.9015 68.952V42.072H78.8455V68.888C78.8455 72.8987 77.9922 76.2907 76.2855 79.064C74.5788 81.8373 72.2748 83.928 69.3735 85.336C66.5148 86.744 63.3148 87.448 59.7735 87.448C56.2322 87.448 53.0535 86.7653 50.2375 85.4C47.4642 83.992 45.2668 81.9013 43.6455 79.128C42.0242 76.312 41.2135 72.8987 41.2135 68.888V42.072H52.1575Z" fill="white"/>
</svg>
