<svg width="120" height="206" viewBox="0 0 120 206" fill="none" xmlns="http://www.w3.org/2000/svg">
<path d="M120 66.0714C120 29.3651 93 0 60 0C27 0 0 29.3651 0 66.0714C0 93.9683 16.5 118.194 39 127.738L32.25 134.345C30.75 135.813 30 138.016 30 140.218C30 142.421 31.5 144.623 33 145.357C39.75 149.762 46.5 151.964 54 152.698L57.75 163.71C58.5 166.647 58.5 169.583 57 171.786C53.25 179.127 53.25 187.202 57 194.544L60.75 201.151C62.25 204.087 64.5 205.556 67.5 205.556C69 205.556 69.75 205.556 70.5 204.821C74.25 203.353 75.75 198.948 73.5 195.278L69.75 188.671C68.25 185.734 68.25 182.064 69.75 179.127C72.75 173.254 73.5 166.647 71.25 160.04L69 152.698C75 151.23 80.25 149.028 85.5 146.091C87 144.623 88.5 143.155 88.5 140.952C88.5 138.75 87.75 136.548 86.25 135.079L79.5 128.472C103.5 118.194 120 93.9683 120 66.0714Z" fill="#E17B1C"/>
<path d="M60.5598 87.448C56.3358 87.448 52.4531 86.4667 48.9118 84.504C45.4131 82.5413 42.6184 79.8107 40.5278 76.312C38.4797 72.7707 37.4557 68.8027 37.4557 64.408C37.4557 60.0133 38.4797 56.0667 40.5278 52.568C42.6184 49.0693 45.4131 46.3387 48.9118 44.376C52.4531 42.4133 56.3358 41.432 60.5598 41.432C64.7838 41.432 68.6451 42.4133 72.1438 44.376C75.6851 46.3387 78.4584 49.0693 80.4638 52.568C82.5118 56.0667 83.5358 60.0133 83.5358 64.408C83.5358 68.8027 82.5118 72.7707 80.4638 76.312C78.4158 79.8107 75.6424 82.5413 72.1438 84.504C68.6451 86.4667 64.7838 87.448 60.5598 87.448ZM60.5598 77.464C64.1438 77.464 67.0024 76.2693 69.1357 73.88C71.3118 71.4907 72.3998 68.3333 72.3998 64.408C72.3998 60.44 71.3118 57.2827 69.1357 54.936C67.0024 52.5467 64.1438 51.352 60.5598 51.352C56.9331 51.352 54.0318 52.5253 51.8558 54.872C49.7224 57.2187 48.6558 60.3973 48.6558 64.408C48.6558 68.376 49.7224 71.5547 51.8558 73.944C54.0318 76.2907 56.9331 77.464 60.5598 77.464Z" fill="white"/>
</svg>
