<svg width="134" height="232" viewBox="0 0 134 232" fill="none" xmlns="http://www.w3.org/2000/svg">
<path d="M134 74.75C134 33.5 103.85 0.5 67 0.5C30.15 0.5 0 33.5 0 74.75C0 106.1 18.425 133.325 43.55 144.05L36.0125 151.475C34.3375 153.125 33.5 155.6 33.5 158.075C33.5 160.55 35.175 163.025 36.85 163.85C44.3875 168.8 51.925 171.275 60.3 172.1L64.4875 184.475C65.325 187.775 65.325 191.075 63.65 193.55C59.4625 201.8 59.4625 210.875 63.65 219.125L67.8375 226.55C69.5125 229.85 72.025 231.5 75.375 231.5C77.05 231.5 77.8875 231.5 78.725 230.675C82.9125 229.025 84.5875 224.075 82.075 219.95L77.8875 212.525C76.2125 209.225 76.2125 205.1 77.8875 201.8C81.2375 195.2 82.075 187.775 79.5625 180.35L77.05 172.1C83.75 170.45 89.6125 167.975 95.475 164.675C97.15 163.025 98.825 161.375 98.825 158.9C98.825 156.425 97.9875 153.95 96.3125 152.3L88.775 144.875C115.575 133.325 134 106.1 134 74.75Z" fill="#6AC3FA"/>
</svg>
