<?xml version="1.0" encoding="iso-8859-1"?>
<!-- Uploaded to: SVG Repo, www.svgrepo.com, Generator: SVG Repo Mixer Tools -->
<svg height="800px" width="800px" version="1.1" id="Layer_1" xmlns="http://www.w3.org/2000/svg" xmlns:xlink="http://www.w3.org/1999/xlink" 
	 viewBox="0 0 512 512" xml:space="preserve">
<g>
	<path style="fill:#8C6D50;" d="M194.778,222.099h-66.781c-9.217,0-16.584-7.473-16.584-16.695v-66.781
		c0-9.223,7.367-16.695,16.584-16.695h66.781c9.217,0,16.695,7.473,16.695,16.695v66.781
		C211.473,214.628,203.995,222.099,194.778,222.099z"/>
	<path style="fill:#8C6D50;" d="M261.559,222.099h-66.781c-9.217,0-16.584-7.473-16.584-16.695V105.232
		c0-9.223,7.367-16.695,16.584-16.695h66.781c9.217,0,16.695,7.473,16.695,16.695v100.172
		C278.255,214.628,270.776,222.099,261.559,222.099z"/>
</g>
<path style="fill:#765B43;" d="M261.559,88.536h-66.781h-0.001v133.563h0.001h66.781c9.217,0,16.695-7.473,16.695-16.695V105.232
	C278.255,96.009,270.776,88.536,261.559,88.536z"/>
<path style="fill:#E2E7EC;" d="M294.95,188.709H94.606c-27.619,0-50.086,22.468-50.086,50.086v100.172
	c0,9.223,7.478,16.695,16.695,16.695h242.083l41.738-83.477v-33.391C345.036,211.176,322.569,188.709,294.95,188.709z"/>
<path style="fill:#CCD5E0;" d="M294.95,188.709H194.777v166.954h108.521l41.738-83.477v-33.391
	C345.036,211.176,322.569,188.709,294.95,188.709z"/>
<path style="fill:#78A8E2;" d="M508.838,262.425c-3.141-4.353-8.174-6.934-13.543-6.934H328.341c-6.956,0-13.185,4.315-15.63,10.831
	l-20.978,55.951H16.694c-5.369,0-10.402,2.581-13.543,6.934s-3.989,9.95-2.294,15.038l37.196,111.591H453.51l57.62-178.372
	C512.827,272.376,511.979,266.778,508.838,262.425z"/>
<path style="fill:#6B96C8;" d="M495.294,255.49H328.341c-6.956,0-13.185,4.315-15.63,10.831l-20.978,55.951h-96.957v133.563H453.51
	l57.62-178.372c1.695-5.087,0.848-10.685-2.294-15.038C505.695,258.071,500.664,255.49,495.294,255.49z"/>
<path style="fill:#8C6D50;" d="M161.387,289.05h-33.391c-9.217,0-16.695-7.473-16.695-16.695s7.478-16.695,16.695-16.695h33.391
	c9.217,0,16.695,7.473,16.695,16.695S170.604,289.05,161.387,289.05z"/>
<path style="fill:#765B43;" d="M261.559,289.05h-33.391c-9.217,0-16.695-7.473-16.695-16.695s7.478-16.695,16.695-16.695h33.391
	c9.217,0,16.695,7.473,16.695,16.695S270.776,289.05,261.559,289.05z"/>
<path style="fill:#A7E2E2;" d="M511.876,473.198c-1.113,9.238-9.461,15.694-18.586,14.581
	c-23.709-2.783-46.304-12.243-65.002-26.824c-48.194,37.732-118.759,37.732-166.954,0c-19.589,15.248-42.629,24.375-66.559,27.158
	c-5.565,0.779-11.242,1.113-16.918,1.113c-29.717,0-59.324-9.461-83.477-28.271c-18.809,14.692-41.516,24.153-65.446,26.935
	c-9.126,1.002-17.473-5.454-18.476-14.692c-1.112-9.127,5.454-17.363,14.582-18.476c21.704-2.56,42.072-12.466,57.542-27.826
	c6.234-6.233,17.364-6.344,23.597,0c23.262,23.262,57.097,32.278,88.597,27.269c20.369-3.228,39.736-12.243,54.76-27.269
	c6.457-6.567,17.029-6.567,23.597,0c38.176,38.177,105.181,38.177,143.356,0c6.457-6.567,17.029-6.567,23.597,0
	c15.359,15.36,35.617,25.154,57.208,27.826C506.424,455.723,512.99,464.071,511.876,473.198z"/>
<path style="fill:#537DAF;" d="M403.47,355.831h-33.391c-9.217,0-16.695-7.473-16.695-16.695c0-9.223,7.478-16.695,16.695-16.695
	h33.391c9.217,0,16.695,7.473,16.695,16.695C420.165,348.359,412.687,355.831,403.47,355.831z"/>
<path style="fill:#E8C870;" d="M61.215,88.536c-19.043,0-36.716-9.462-47.281-25.303c-5.12-7.674-3.043-18.038,4.63-23.152
	c7.663-5.109,18.032-3.049,23.152,4.63c4.424,6.63,11.532,10.435,19.5,10.435s15.076-3.804,19.5-10.435
	c10.565-15.842,28.239-21.964,47.281-21.964s36.716,6.123,47.281,21.964c5.12,7.674,3.043,18.038-4.63,23.152
	c-7.674,5.103-18.032,3.043-23.152-4.63c-4.424-6.63-11.532-10.435-19.5-10.435s-15.076,3.804-19.5,10.435
	C97.932,79.075,80.258,88.536,61.215,88.536z"/>
<path style="fill:#8AC8C8;" d="M511.876,473.198c-1.113,9.238-9.461,15.694-18.586,14.581
	c-23.709-2.783-46.304-12.243-65.002-26.824c-48.194,37.732-118.759,37.732-166.954,0c-19.589,15.248-42.629,24.375-66.559,27.158
	v-33.947c20.369-3.228,39.736-12.243,54.76-27.269c6.457-6.567,17.029-6.567,23.597,0c38.176,38.177,105.181,38.177,143.356,0
	c6.457-6.567,17.029-6.567,23.597,0c15.359,15.36,35.617,25.154,57.208,27.826C506.424,455.723,512.99,464.071,511.876,473.198z"/>
</svg>