<?xml version="1.0" ?>
<!-- Uploaded to: SVG Repo, www.svgrepo.com, Generator: SVG Repo Mixer Tools -->
<svg width="800px" height="800px" viewBox="0 0 128 128" version="1.1" xml:space="preserve" xmlns="http://www.w3.org/2000/svg" xmlns:xlink="http://www.w3.org/1999/xlink">
<style type="text/css">
	.st0{fill:#69A401;}
	.st1{fill:#EFE691;}
	.st2{fill:#B20000;}
	.st3{fill:#DF1801;}
	.st4{fill:#F40603;}
	.st5{fill:#FFEEEE;}
	.st6{fill:#847B3C;}
	.st7{fill:#CEB600;}
	.st8{fill:#F8CD02;}
	.st9{fill:#F7C800;}
	.st10{fill:#F6E8B9;}
	.st11{fill:#F6E9CA;}
	.st12{fill:#CF8A11;}
	.st13{fill:#286F0D;}
	.st14{fill:#63271D;}
	.st15{fill:#EB8102;}
	.st16{fill:#E37303;}
	.st17{fill:#D97102;}
	.st18{fill:#BF6302;}
	.st19{fill:#EA9735;}
	.st20{fill:#3E1A01;}
	.st21{fill:#C96A0A;}
	.st22{fill:#CE2335;}
	.st23{fill:#C0242D;}
	.st24{fill:#BA1A23;}
	.st25{fill:#F9DCC7;}
	.st26{fill:#DBE2CE;}
	.st27{fill:#7D4B12;}
	.st28{fill:#75480C;}
	.st29{fill:#66410C;}
	.st30{fill:#88550D;}
	.st31{fill:#FFFEE9;}
	.st32{fill:#9B9F1A;}
	.st33{fill:#F6E177;}
	.st34{fill:#443A00;}
	.st35{fill:#305209;}
	.st36{fill:#7F7C04;}
	.st37{fill:#BAB424;}
	.st38{fill:#F7CF43;}
	.st39{fill:#DE940E;}
	.st40{fill:#5F570A;}
	.st41{fill:#175424;}
	.st42{fill:#215B25;}
	.st43{fill:#1B5020;}
	.st44{fill:#C0F9C0;}
	.st45{fill:#F3DA78;}
	.st46{fill:#BC441C;}
	.st47{fill:#148E2E;}
	.st48{fill:#283767;}
	.st49{fill:#425285;}
	.st50{fill:#CFDFFF;}
	.st51{fill:#1F2C55;}
	.st52{fill:#776220;}
	.st53{fill:#90236B;}
	.st54{fill:#5D1A47;}
	.st55{fill:#99499A;}
	.st56{fill:#FCCAFA;}
	.st57{fill:#917C31;}
	.st58{fill:#F4C435;}
	.st59{fill:#F1BC02;}
	.st60{fill:#F0B102;}
	.st61{fill:#F1F7BA;}
	.st62{fill:#E3DCB9;}
	.st63{fill:#BD6800;}
	.st64{fill:#E19704;}
	.st65{fill:#B2CA2B;}
	.st66{fill:#AFC20F;}
	.st67{fill:#B9CB00;}
	.st68{fill:#E5F392;}
	.st69{fill:#F78202;}
	.st70{fill:#F79613;}
	.st71{fill:#331F07;}
	.st72{fill:#402B16;}
	.st73{fill:#669404;}
	.st74{fill:#F58E13;}
	.st75{fill:#D87117;}
	.st76{fill:#216604;}
	.st77{fill:#286D08;}
	.st78{fill:#C8C625;}
	.st79{fill:#2C441F;}
	.st80{fill:#F1E6BF;}
	.st81{fill:#F2BE2E;}
	.st82{fill:#BF8F33;}
	.st83{fill:#568804;}
	.st84{fill:#669614;}
	.st85{fill:#688E0C;}
	.st86{fill:#4C7005;}
	.st87{fill:#A0CA49;}
	.st88{fill:#99BD70;}
	.st89{fill:#78AA25;}
	.st90{fill:#4B7C23;}
	.st91{fill:#EADBC8;}
	.st92{fill:#F0D5B0;}
	.st93{fill:#DF2B2B;}
	.st94{fill:#D1262C;}
	.st95{fill:#B7252C;}
	.st96{fill:#46670C;}
	.st97{fill:#F49D5B;}
	.st98{fill:#F57A55;}
	.st99{fill:#F1C3A7;}
	.st100{fill:#CC0917;}
	.st101{fill:#DC1035;}
	.st102{fill:#9BAC0F;}
	.st103{fill:#667A1D;}
	.st104{fill:#7A9D18;}
	.st105{fill:#F6F7E6;}
	.st106{fill:#F0194D;}
	.st107{fill:#362420;}
	.st108{fill:#530618;}
	.st109{fill:#44041A;}
	.st110{fill:#490419;}
	.st111{fill:#F8A459;}
	.st112{fill:#871B22;}
	.st113{fill:#600613;}
	.st114{fill:#F8C790;}
	.st115{fill:#447832;}
	.st116{fill:#7C473D;}
	.st117{fill:#441432;}
	.st118{fill:#51163F;}
	.st119{fill:#5B1A41;}
	.st120{fill:#FCEBF9;}
	.st121{fill:#ECE5CE;}
	.st122{fill:#BC3E2C;}
	.st123{fill:#A60F26;}
	.st124{fill:#C61632;}
	.st125{fill:#BD1331;}
	.st126{fill:#F8B772;}
	.st127{fill:#F7DDAC;}
	.st128{fill:#850E11;}
	.st129{fill:#191200;}
	.st130{fill:#553D2D;}
	.st131{fill:#F9E2D2;}
	.st132{fill:#CA8937;}
	.st133{fill:#462D16;}
	.st134{fill:#6D8916;}
	.st135{fill:#96B54E;}
	.st136{fill:#E3E2DE;}
	.st137{fill:#261811;}
	.st138{fill:#525C11;}
	.st139{fill:#14581E;}
	.st140{fill:#3D7712;}
	.st141{fill:#9BC148;}
	.st142{fill:#E22434;}
	.st143{fill:#C6DD9E;}
	.st144{fill:#F89A07;}
	.st145{fill:#F7A410;}
	.st146{fill:#F8AB19;}
	.st147{fill:#F7B81C;}
	.st148{fill:#E5870A;}
	.st149{fill:#97A304;}
	.st150{fill:#A88C5C;}
	.st151{fill:#ADC21E;}
	.st152{fill:#A3BA0B;}
	.st153{fill:#8D9E08;}
	.st154{fill:#E0DAB9;}
	.st155{fill:#684219;}
	.st156{fill:#777F05;}
	.st157{fill:#F2E9C4;}
	.st158{fill:#CBB465;}
	.st159{fill:#FFF5CA;}
	.st160{fill:#E52828;}
	.st161{fill:#F87302;}
	.st162{fill:#FF7B22;}
	.st163{fill:#FC7F10;}
	.st164{fill:#F8A200;}
	.st165{fill:#F8DC91;}
	.st166{fill:#FFFFFF;}
	.st167{fill:#F5D7D5;}
	.st168{fill:#EDA07A;}
	.st169{fill:#FCBEBE;}
	.st170{fill:#EAD991;}
	.st171{fill:#582612;}
</style>
<g id="_x33_0_Mulberry"/>
<g id="_x32_9_Star_Fruit"/>
<g id="_x32_8_Apricot"/>
<g id="_x32_7_Litchi"/>
<g id="_x32_6_Kiwi"/>
<g id="_x32_5_Jackfruit"/>
<g id="_x32_4_Avacado"/>
<g id="_x32_3_Blueberry"/>
<g id="_x32_2_Purple_Grapes"/>
<g id="_x32_1_Melon"/>
<g id="_x32_0_Green_Grapes"/>
<g id="_x31_9_Papaya"/>
<g id="_x31_8_Pineapple"/>
<g id="_x31_7_Banana">
<g id="XMLID_940_">
<g id="XMLID_950_">
<g id="XMLID_1400_">
<path class="st58" d="M125.718,27.615c-1.131-3.397-5.485-4.791-8.284-2.467      c-45.048,37.406-73.954,17.255-90.513,9.753c-3.523-1.596-7.597-1.941-10.82,0.203c-0.148,0.098-0.295,0.214-0.442,0.33      l-7.954-6.019L2,35.601l8.033,8.561c-0.276,0.79-0.468,1.51-0.546,2.093c-0.464,3.488,2.295,7.634,5.392,10.211      c59.642,49.634,109.026,0.167,110.987-23.914C125.979,31.159,126.159,28.94,125.718,27.615z" id="XMLID_1409_"/>
<g id="XMLID_1407_">
<path class="st59" d="M10.033,44.162c-0.276,0.79-0.468,1.51-0.546,2.093       c-0.464,3.488,2.295,7.634,5.392,10.211c59.642,49.634,109.026,0.167,110.987-23.914c0.113-1.393,0.293-3.612-0.148-4.936       c-0.397-1.192-1.195-2.131-2.179-2.755c-10.643,25.061-57.329,57.94-110.4,13.775" id="XMLID_1408_"/>
</g>
<g id="XMLID_1405_">
<path class="st78" d="M15.659,35.434c-3.315-2.509-3.315-2.509-6.216-4.704l-1.738-1.315L2,35.601       l8.033,8.561" id="XMLID_1406_"/>
</g>
<g id="XMLID_1403_">
<path class="st60" d="M10.033,44.162c-0.276,0.79-0.468,1.51-0.546,2.093       c-0.464,3.488,2.295,7.634,5.392,10.211c59.642,49.634,109.026,0.167,110.987-23.914c0.113-1.393,0.293-3.612-0.148-4.936       c-0.07-0.21-0.153-0.413-0.246-0.607C120.374,51.823,72.401,96.13,14.879,48.261c-1.447-1.204-3.09-3.368-4.096-5.03" id="XMLID_1404_"/>
</g>
<g id="XMLID_1401_">
<path class="st79" d="M119.803,24.07c0.01,0.987,0.451,2.064,1.317,2.923       c1.416,1.405,3.414,1.709,4.638,0.778c-0.015-0.051-0.024-0.108-0.04-0.156C124.876,25.086,122.247,23.67,119.803,24.07z" id="XMLID_1402_"/>
</g>
</g>
</g>
<g id="XMLID_941_">
<ellipse class="st80" cx="98.087" cy="82.288" id="XMLID_949_" rx="21.7" ry="21.712"/>
<path class="st81" d="M98.087,100.923c-11.465,0-20.831-8.903-21.622-20.174     c-0.036,0.51-0.078,1.019-0.078,1.538c0,11.991,9.715,21.712,21.7,21.712c11.985,0,21.7-9.721,21.7-21.712     c0-0.519-0.042-1.028-0.078-1.538C118.917,92.02,109.552,100.923,98.087,100.923z" id="XMLID_1284_"/>
<g id="XMLID_942_">
<g>
<path class="st82" d="M98.301,73.676c-1.104,0-2-0.896-2-2v-2.403c0-1.104,0.896-2,2-2s2,0.896,2,2v2.403       C100.301,72.78,99.406,73.676,98.301,73.676z"/>
<path class="st82" d="M89.895,78.283c-0.339,0-0.683-0.086-0.998-0.268l-2.08-1.201c-0.957-0.553-1.284-1.776-0.732-2.732       c0.553-0.957,1.774-1.284,2.732-0.732l2.08,1.201c0.957,0.553,1.284,1.776,0.732,2.732       C91.258,77.925,90.586,78.283,89.895,78.283z"/>
<path class="st82" d="M87.604,89.071c-0.691,0-1.363-0.358-1.733-0.999c-0.553-0.957-0.226-2.18,0.73-2.732l2.08-1.202       c0.959-0.553,2.18-0.225,2.732,0.73c0.553,0.957,0.226,2.18-0.73,2.732l-2.08,1.202C88.288,88.985,87.944,89.071,87.604,89.071       z"/>
<path class="st82" d="M97.873,95.251c-1.104,0-2-0.896-2-2v-2.403c0-1.104,0.896-2,2-2s2,0.896,2,2v2.403       C99.873,94.355,98.977,95.251,97.873,95.251z"/>
<path class="st82" d="M108.355,89.442c-0.339,0-0.683-0.086-0.998-0.268l-2.08-1.201c-0.957-0.553-1.284-1.776-0.732-2.732       c0.553-0.957,1.775-1.284,2.732-0.732l2.08,1.201c0.957,0.553,1.284,1.776,0.732,2.732       C109.718,89.084,109.046,89.442,108.355,89.442z"/>
<path class="st82" d="M106.493,78.654c-0.691,0-1.363-0.358-1.734-1c-0.552-0.956-0.225-2.18,0.732-2.732l2.08-1.201       c0.957-0.552,2.179-0.224,2.732,0.732c0.552,0.956,0.225,2.18-0.732,2.732l-2.08,1.201       C107.176,78.568,106.833,78.654,106.493,78.654z"/>
</g>
</g>
</g>
</g>
</g>
<g id="_x31_6_Tender_Coconut"/>
<g id="_x31_5_Strawberry"/>
<g id="_x31_4_Dragon_Fruit"/>
<g id="_x31_3_Plum"/>
<g id="_x31_2_Fig"/>
<g id="_x31_1_Peach"/>
<g id="_x31_0_Cherry"/>
<g id="_x30_9_Sapota"/>
<g id="_x30_8_Custard_Apple"/>
<g id="_x30_7_Watermelon"/>
<g id="_x30_6_Mango"/>
<g id="_x30_5_Pear"/>
<g id="_x30_4_Guava"/>
<g id="_x30_3_Pomegranate"/>
<g id="_x30_2_Orange"/>
<g id="_x30_1_Apple"/>
</svg>