<?xml version="1.0" ?>
<!-- Uploaded to: SVG Repo, www.svgrepo.com, Generator: SVG Repo Mixer Tools -->
<svg width="800px" height="800px" viewBox="0 0 128 128" version="1.1" xml:space="preserve" xmlns="http://www.w3.org/2000/svg" xmlns:xlink="http://www.w3.org/1999/xlink">
<style type="text/css">
	.st0{fill:#69A401;}
	.st1{fill:#EFE691;}
	.st2{fill:#B20000;}
	.st3{fill:#DF1801;}
	.st4{fill:#F40603;}
	.st5{fill:#FFEEEE;}
	.st6{fill:#847B3C;}
	.st7{fill:#CEB600;}
	.st8{fill:#F8CD02;}
	.st9{fill:#F7C800;}
	.st10{fill:#F6E8B9;}
	.st11{fill:#F6E9CA;}
	.st12{fill:#CF8A11;}
	.st13{fill:#286F0D;}
	.st14{fill:#63271D;}
	.st15{fill:#EB8102;}
	.st16{fill:#E37303;}
	.st17{fill:#D97102;}
	.st18{fill:#BF6302;}
	.st19{fill:#EA9735;}
	.st20{fill:#3E1A01;}
	.st21{fill:#C96A0A;}
	.st22{fill:#CE2335;}
	.st23{fill:#C0242D;}
	.st24{fill:#BA1A23;}
	.st25{fill:#F9DCC7;}
	.st26{fill:#DBE2CE;}
	.st27{fill:#7D4B12;}
	.st28{fill:#75480C;}
	.st29{fill:#66410C;}
	.st30{fill:#88550D;}
	.st31{fill:#FFFEE9;}
	.st32{fill:#9B9F1A;}
	.st33{fill:#F6E177;}
	.st34{fill:#443A00;}
	.st35{fill:#305209;}
	.st36{fill:#7F7C04;}
	.st37{fill:#BAB424;}
	.st38{fill:#F7CF43;}
	.st39{fill:#DE940E;}
	.st40{fill:#5F570A;}
	.st41{fill:#175424;}
	.st42{fill:#215B25;}
	.st43{fill:#1B5020;}
	.st44{fill:#C0F9C0;}
	.st45{fill:#F3DA78;}
	.st46{fill:#BC441C;}
	.st47{fill:#148E2E;}
	.st48{fill:#283767;}
	.st49{fill:#425285;}
	.st50{fill:#CFDFFF;}
	.st51{fill:#1F2C55;}
	.st52{fill:#776220;}
	.st53{fill:#90236B;}
	.st54{fill:#5D1A47;}
	.st55{fill:#99499A;}
	.st56{fill:#FCCAFA;}
	.st57{fill:#917C31;}
	.st58{fill:#F4C435;}
	.st59{fill:#F1BC02;}
	.st60{fill:#F0B102;}
	.st61{fill:#F1F7BA;}
	.st62{fill:#E3DCB9;}
	.st63{fill:#BD6800;}
	.st64{fill:#E19704;}
	.st65{fill:#B2CA2B;}
	.st66{fill:#AFC20F;}
	.st67{fill:#B9CB00;}
	.st68{fill:#E5F392;}
	.st69{fill:#F78202;}
	.st70{fill:#F79613;}
	.st71{fill:#331F07;}
	.st72{fill:#402B16;}
	.st73{fill:#669404;}
	.st74{fill:#F58E13;}
	.st75{fill:#D87117;}
	.st76{fill:#216604;}
	.st77{fill:#286D08;}
	.st78{fill:#C8C625;}
	.st79{fill:#2C441F;}
	.st80{fill:#F1E6BF;}
	.st81{fill:#F2BE2E;}
	.st82{fill:#BF8F33;}
	.st83{fill:#568804;}
	.st84{fill:#669614;}
	.st85{fill:#688E0C;}
	.st86{fill:#4C7005;}
	.st87{fill:#A0CA49;}
	.st88{fill:#99BD70;}
	.st89{fill:#78AA25;}
	.st90{fill:#4B7C23;}
	.st91{fill:#EADBC8;}
	.st92{fill:#F0D5B0;}
	.st93{fill:#DF2B2B;}
	.st94{fill:#D1262C;}
	.st95{fill:#B7252C;}
	.st96{fill:#46670C;}
	.st97{fill:#F49D5B;}
	.st98{fill:#F57A55;}
	.st99{fill:#F1C3A7;}
	.st100{fill:#CC0917;}
	.st101{fill:#DC1035;}
	.st102{fill:#9BAC0F;}
	.st103{fill:#667A1D;}
	.st104{fill:#7A9D18;}
	.st105{fill:#F6F7E6;}
	.st106{fill:#F0194D;}
	.st107{fill:#362420;}
	.st108{fill:#530618;}
	.st109{fill:#44041A;}
	.st110{fill:#490419;}
	.st111{fill:#F8A459;}
	.st112{fill:#871B22;}
	.st113{fill:#600613;}
	.st114{fill:#F8C790;}
	.st115{fill:#447832;}
	.st116{fill:#7C473D;}
	.st117{fill:#441432;}
	.st118{fill:#51163F;}
	.st119{fill:#5B1A41;}
	.st120{fill:#FCEBF9;}
	.st121{fill:#ECE5CE;}
	.st122{fill:#BC3E2C;}
	.st123{fill:#A60F26;}
	.st124{fill:#C61632;}
	.st125{fill:#BD1331;}
	.st126{fill:#F8B772;}
	.st127{fill:#F7DDAC;}
	.st128{fill:#850E11;}
	.st129{fill:#191200;}
	.st130{fill:#553D2D;}
	.st131{fill:#F9E2D2;}
	.st132{fill:#CA8937;}
	.st133{fill:#462D16;}
	.st134{fill:#6D8916;}
	.st135{fill:#96B54E;}
	.st136{fill:#E3E2DE;}
	.st137{fill:#261811;}
	.st138{fill:#525C11;}
	.st139{fill:#14581E;}
	.st140{fill:#3D7712;}
	.st141{fill:#9BC148;}
	.st142{fill:#E22434;}
	.st143{fill:#C6DD9E;}
	.st144{fill:#F89A07;}
	.st145{fill:#F7A410;}
	.st146{fill:#F8AB19;}
	.st147{fill:#F7B81C;}
	.st148{fill:#E5870A;}
	.st149{fill:#97A304;}
	.st150{fill:#A88C5C;}
	.st151{fill:#ADC21E;}
	.st152{fill:#A3BA0B;}
	.st153{fill:#8D9E08;}
	.st154{fill:#E0DAB9;}
	.st155{fill:#684219;}
	.st156{fill:#777F05;}
	.st157{fill:#F2E9C4;}
	.st158{fill:#CBB465;}
	.st159{fill:#FFF5CA;}
	.st160{fill:#E52828;}
	.st161{fill:#F87302;}
	.st162{fill:#FF7B22;}
	.st163{fill:#FC7F10;}
	.st164{fill:#F8A200;}
	.st165{fill:#F8DC91;}
	.st166{fill:#FFFFFF;}
	.st167{fill:#F5D7D5;}
	.st168{fill:#EDA07A;}
	.st169{fill:#FCBEBE;}
	.st170{fill:#EAD991;}
	.st171{fill:#582612;}
</style>
<g id="_x33_0_Mulberry"/>
<g id="_x32_9_Star_Fruit"/>
<g id="_x32_8_Apricot"/>
<g id="_x32_7_Litchi"/>
<g id="_x32_6_Kiwi"/>
<g id="_x32_5_Jackfruit"/>
<g id="_x32_4_Avacado"/>
<g id="_x32_3_Blueberry"/>
<g id="_x32_2_Purple_Grapes"/>
<g id="_x32_1_Melon"/>
<g id="_x32_0_Green_Grapes"/>
<g id="_x31_9_Papaya"/>
<g id="_x31_8_Pineapple"/>
<g id="_x31_7_Banana"/>
<g id="_x31_6_Tender_Coconut"/>
<g id="_x31_5_Strawberry"/>
<g id="_x31_4_Dragon_Fruit"/>
<g id="_x31_3_Plum"/>
<g id="_x31_2_Fig"/>
<g id="_x31_1_Peach"/>
<g id="_x31_0_Cherry"/>
<g id="_x30_9_Sapota"/>
<g id="_x30_8_Custard_Apple"/>
<g id="_x30_7_Watermelon"/>
<g id="_x30_6_Mango"/>
<g id="_x30_5_Pear">
<g id="XMLID_341_">
<g id="XMLID_1424_">
<path class="st149" d="M46.086,11.277c1.197-0.255,9.036-1.785,15.999,3.467     c8.19,6.178,7.837,16.211,7.793,17.043c-2.015-0.139-11.861-1.031-18.609-9.288C47.812,18.269,46.576,13.83,46.086,11.277z" id="XMLID_4082_"/>
<path class="st150" d="M38.634,36.145c-0.904,0-1.724-0.617-1.943-1.535c-0.938-3.92-0.942-7.994-0.016-11.781     c2.454-10.025,15.04-19.55,16.745-20.553c0.952-0.558,2.178-0.242,2.738,0.71c0.56,0.953,0.241,2.178-0.711,2.738     C53.289,6.993,42.527,15.742,40.56,23.78c-0.776,3.172-0.769,6.595,0.021,9.899c0.257,1.075-0.406,2.154-1.48,2.411     C38.944,36.127,38.788,36.145,38.634,36.145z"/>
<path class="st151" d="M64.343,65.05c-3.487-3.737-5.319-8.661-5.201-13.762c0-0.119,0-0.297,0-0.415     c0.059-7.889-4.314-14.83-10.815-18.389c-2.482-1.364-5.555-0.949-7.564,1.068c-0.65,0.652-1.477,0.949-2.364,0.949     c-0.827,0-1.714-0.297-2.364-0.949l0,0c-2.009-2.017-5.082-2.432-7.505-1.127c-6.442,3.5-10.815,10.381-10.815,18.27     c0,0.297,0,0.534,0,0.83c0.177,4.923-1.596,9.788-4.964,13.406C6.723,71.278,3,79.879,3,89.371     c-0.059,12.991,6.973,27.999,17.374,34.168c4.905,2.966,11.228,2.135,15.306-1.958c0.768-0.771,1.773-1.186,2.778-1.186     c1.005,0,2.009,0.415,2.778,1.186l0,0c4.078,4.093,10.401,4.864,15.365,1.898c10.401-6.229,17.315-21.118,17.315-34.109     C73.857,79.939,70.252,71.397,64.343,65.05L64.343,65.05z" id="XMLID_1490_"/>
<path class="st152" d="M32.575,123.539c-10.401-6.169-17.434-21.177-17.374-34.168     c0-9.491,3.723-18.092,9.751-24.44c3.369-3.618,5.141-8.483,4.964-13.406c0-0.297,0-0.534,0-0.831     c0-6.587,3.055-12.463,7.811-16.264c-0.613-0.12-1.215-0.402-1.691-0.88c-2.009-2.017-5.082-2.432-7.505-1.127     c-6.442,3.5-10.815,10.381-10.815,18.27c0,0.297,0,0.534,0,0.831c0.177,4.923-1.596,9.788-4.964,13.406     C6.723,71.278,3,79.879,3,89.371c-0.059,12.991,6.973,27.999,17.374,34.168c3.883,2.348,8.652,2.308,12.495,0.162     C32.772,123.644,32.672,123.597,32.575,123.539z" id="XMLID_1451_"/>
<path class="st153" d="M26.475,123.539C16.074,117.369,9.041,102.362,9.1,89.371     c0-9.491,3.723-18.092,9.751-24.44c3.369-3.618,5.141-8.483,4.964-13.406c0-0.297,0-0.534,0-0.831     c0-7.861,4.343-14.718,10.746-18.23c-1.867-1.016-4.143-1.057-6.031-0.04c-6.442,3.5-10.815,10.381-10.815,18.27     c0,0.297,0,0.534,0,0.831c0.177,4.923-1.596,9.788-4.964,13.406C6.723,71.278,3,79.879,3,89.371     c-0.059,12.991,6.973,27.999,17.374,34.168c2.899,1.753,6.291,2.17,9.424,1.381C28.65,124.627,27.529,124.176,26.475,123.539z" id="XMLID_1420_"/>
<path class="st25" d="M23.744,105.905c-0.17,0-0.342-0.022-0.514-0.067c-1.462-0.388-5.131-1.69-7.622-5.406     c-3.061-4.563-2.151-9.406-1.8-10.782c0.272-1.069,1.357-1.713,2.433-1.443c1.07,0.273,1.716,1.363,1.442,2.433     c-0.247,0.969-0.89,4.379,1.247,7.564c1.733,2.585,4.302,3.496,5.325,3.768c1.067,0.283,1.704,1.378,1.421,2.446     C25.438,105.313,24.63,105.905,23.744,105.905z"/>
</g>
<g id="XMLID_342_">
<path class="st154" d="M120.935,97.33h-71.14c0,0.694-0.246,0.421-0.786,0.966     c-1.67,1.685-2.014,4.262-0.933,6.294c2.898,5.402,8.597,9.069,15.131,9.069c0.246,0,0.442,0,0.688,0     c4.077-0.149,8.106,1.338,11.103,4.163c5.256,5.055,12.38,8.177,20.24,8.177c10.759,0.05,23.188-5.848,28.297-14.57     c2.456-4.113,1.769-9.416-1.621-12.836C121.286,97.962,120.948,98.156,120.935,97.33z" id="XMLID_344_"/>
<path class="st155" d="M97.089,107.103h-5.675c-1.104,0-2-0.896-2-2s0.896-2,2-2h5.675c1.104,0,2,0.896,2,2     S98.193,107.103,97.089,107.103z"/>
<path class="st156" d="M123.533,107.429c-5.109,8.722-17.538,14.62-28.297,14.57     c-7.86,0-14.984-3.122-20.24-8.177c-2.997-2.825-7.025-4.312-11.103-4.163c-0.246,0-0.442,0-0.688,0     c-6.534,0-12.232-3.667-15.131-9.069c-0.087-0.164-0.15-0.337-0.219-0.507c-0.578,1.449-0.527,3.105,0.219,4.507     c2.898,5.402,8.597,9.069,15.131,9.069c0.246,0,0.442,0,0.688,0c4.077-0.149,8.106,1.338,11.103,4.163     c5.256,5.055,12.38,8.177,20.24,8.177c10.759,0.049,23.188-5.848,28.297-14.57c1.347-2.256,1.743-4.869,1.271-7.333     C124.58,105.25,124.161,106.379,123.533,107.429z" id="XMLID_334_"/>
</g>
</g>
</g>
<g id="_x30_4_Guava"/>
<g id="_x30_3_Pomegranate"/>
<g id="_x30_2_Orange"/>
<g id="_x30_1_Apple"/>
</svg>