<svg width="135" height="219" viewBox="0 0 135 219" fill="none" xmlns="http://www.w3.org/2000/svg">
<path d="M78.6292 164.271L77.1506 159.446C82.3574 157.947 87.0548 155.883 91.7204 153.273L92.0109 153.111L92.2487 152.878C92.3071 152.821 92.3675 152.762 92.4296 152.702C93.7981 151.369 96 149.225 96 145.952C96 143.239 95.0831 140.333 92.9988 138.293L88.8407 134.223C111.93 122.799 127.5 98.6479 127.5 71.0714C127.5 33.2072 99.5934 2.5 65 2.5C30.4066 2.5 2.5 33.2072 2.5 71.0714C2.5 98.5291 17.9467 122.641 39.6603 133.488L35.5012 137.559C33.4169 139.599 32.5 142.504 32.5 145.218C32.5 146.868 33.0528 148.416 33.8061 149.645C34.5159 150.803 35.5312 151.883 36.7459 152.524C43.327 156.796 49.94 159.09 57.1447 160.006L60.3508 169.42C61.0032 172.036 60.8274 174.066 59.9337 175.378L59.8452 175.508L59.7736 175.648C55.6588 183.704 55.6588 192.625 59.7736 200.681L59.7986 200.73L59.8258 200.778L63.5499 207.339C64.4505 209.085 65.6467 210.537 67.1963 211.548C68.774 212.578 70.5734 213.056 72.5 213.056C72.5802 213.056 72.6627 213.056 72.747 213.056C73.9081 213.063 75.4434 213.071 76.8373 211.971C81.7603 209.759 83.5699 203.812 80.6548 199.01L76.9534 192.488C75.8413 190.273 75.8489 187.471 76.9763 185.264C80.2526 178.85 81.0992 171.557 78.6292 164.271Z" fill="#6AC3FA" stroke="black" stroke-width="5"/>
<path d="M65.5598 94.448C61.3358 94.448 57.4531 93.4667 53.9118 91.504C50.4131 89.5413 47.6184 86.8107 45.5278 83.312C43.4797 79.7707 42.4557 75.8027 42.4557 71.408C42.4557 67.0133 43.4797 63.0667 45.5278 59.568C47.6184 56.0693 50.4131 53.3387 53.9118 51.376C57.4531 49.4133 61.3358 48.432 65.5598 48.432C69.7838 48.432 73.6451 49.4133 77.1438 51.376C80.6851 53.3387 83.4584 56.0693 85.4638 59.568C87.5118 63.0667 88.5358 67.0133 88.5358 71.408C88.5358 75.8027 87.5118 79.7707 85.4638 83.312C83.4158 86.8107 80.6424 89.5413 77.1438 91.504C73.6451 93.4667 69.7838 94.448 65.5598 94.448ZM65.5598 84.464C69.1438 84.464 72.0024 83.2693 74.1357 80.88C76.3118 78.4907 77.3998 75.3333 77.3998 71.408C77.3998 67.44 76.3118 64.2827 74.1357 61.936C72.0024 59.5467 69.1438 58.352 65.5598 58.352C61.9331 58.352 59.0318 59.5253 56.8558 61.872C54.7224 64.2187 53.6558 67.3973 53.6558 71.408C53.6558 75.376 54.7224 78.5547 56.8558 80.944C59.0318 83.2907 61.9331 84.464 65.5598 84.464Z" fill="black"/>
</svg>
