<svg width="58" height="44" viewBox="0 0 58 44" fill="none" xmlns="http://www.w3.org/2000/svg">
<path d="M30.3533 3.20279C27.4529 2.1102 21.2984 5.57778 16.2051 10.1144H12.4321C9.93055 10.1144 7.53145 11.1155 5.7626 12.8973C3.99372 14.679 3 17.0955 3 19.6153V24.3657C3 26.8854 3.99372 29.3021 5.7626 31.084C7.53145 32.8656 9.93055 33.8665 12.4321 33.8665H16.2051C21.1805 38.4744 27.335 41.871 30.3533 40.8021C35.3052 38.9495 36.1302 28.9261 36.1302 21.9905C36.1302 15.0548 35.3052 5.05545 30.3533 3.20279Z" stroke="white" stroke-width="5" stroke-linecap="round" stroke-linejoin="round"/>
<path d="M49.4795 8.47559C53.0144 12.0387 55.0003 16.8701 55.0003 21.9074C55.0003 26.9448 53.0144 31.7762 49.4795 35.3392" stroke="white" stroke-width="5" stroke-linecap="round" stroke-linejoin="round"/>
<path d="M44.4775 30.3991C46.6877 28.1719 47.9295 25.1516 47.9295 22.0026C47.9295 18.8535 46.6877 15.8335 44.4775 13.6064" stroke="white" stroke-width="5" stroke-linecap="round" stroke-linejoin="round"/>
</svg>
