<svg width="65" height="63" viewBox="0 0 65 63" fill="none" xmlns="http://www.w3.org/2000/svg">
<path d="M44.9925 13.5553C47.8341 13.5553 50.1382 11.2501 50.1382 8.40802C50.1382 5.56582 47.8341 3.26172 44.9925 3.26172C42.1494 3.26172 39.8452 5.56594 39.8452 8.40802C39.8452 11.2501 42.1494 13.5553 44.9925 13.5553Z" fill="#E11C1C"/>
<path d="M64.5572 28.3258L61.1449 23.1931C60.3157 21.9803 59.2161 20.9771 57.9348 20.2586L51.2422 16.5107C50.0159 15.9374 49.0882 15.5726 47.9232 15.7302L44.7209 16.1656C43.5269 16.3272 42.4385 16.9357 41.6747 17.8675L35.5794 24.354L29.9963 26.4126C28.9386 26.8023 28.371 27.9507 28.7054 29.0267L28.7313 29.1095C29.0599 30.1688 30.1502 30.7938 31.2298 30.545L35.7796 29.4952C36.9141 29.2329 37.992 28.7655 38.957 28.1146L42.1214 25.9876L43.2387 34.4828C43.3207 35.1058 43.1952 35.7391 42.8811 36.2842L33.4069 52.74C32.731 53.9112 33.1311 55.4099 34.3003 56.092L34.3817 56.1397C35.4887 56.7843 36.9047 56.4733 37.6374 55.4245L48.2268 40.2758L51.4359 46.6804C51.6733 47.1542 51.9873 47.5843 52.3656 47.9533L59.4834 54.9134C60.382 55.7914 61.8032 55.8297 62.7463 55.0036L62.8604 54.904C63.3443 54.4801 63.6377 53.8809 63.676 53.2394C63.7143 52.5988 63.4946 51.9675 63.0644 51.4898L57.0547 44.7961L53.7898 32.9788L53.7784 32.9892L52.8414 23.7445L56.151 25.234L61.4422 30.8032C62.1077 31.5049 63.1857 31.6179 63.9817 31.0686L64.0357 31.0312C64.9189 30.4237 65.152 29.2193 64.5572 28.3258Z" fill="#E11C1C"/>
<path d="M16.3639 11.6752L5.48581 4.24562H33.2973V0H0V55.1922H5.48581L16.3639 62.6219V60.4991V55.1922H29.6297V50.9467H16.3639V11.6752Z" fill="#E11C1C"/>
</svg>
