<svg width="78" height="78" viewBox="0 0 78 78" fill="none" xmlns="http://www.w3.org/2000/svg">
<circle cx="39" cy="39" r="36.5" fill="#73E11C" stroke="#337808" stroke-width="5"/>
<path fill-rule="evenodd" clip-rule="evenodd" d="M23.1673 53.4736C23.1673 54.8176 24.3249 55.3921 25.7511 55.3921H28.3348C29.7611 55.3921 30.9186 54.8176 30.9186 53.4736V51.0388C30.9186 48.3483 33.2311 45.6529 36.0861 45.6529H41.2536C44.1086 45.6529 46.4211 48.3483 46.4211 51.0388V53.4736C46.4211 54.8176 47.5786 55.3921 49.0048 55.3921H51.5886C53.0148 55.3921 54.1723 54.8176 54.1723 53.4736V33.8416C54.1723 33.5177 54.0354 33.2085 53.7951 32.9796L40.5224 20.4745C39.5121 19.5225 37.8766 19.5225 36.869 20.4745L23.5446 33.0284C23.3043 33.2573 23.1673 33.5665 23.1673 33.8879V53.4736ZM17.9998 32.5658C17.9998 31.9205 18.2711 31.3045 18.7517 30.8468L35.0267 15.4344C37.042 13.5279 40.3157 13.5207 42.3388 15.4198L58.5802 30.674C59.066 31.1317 59.3398 31.7502 59.3398 32.3978V55.9084C59.3398 58.5989 57.0274 60.2617 54.1723 60.2617H46.4211C43.5661 60.2617 41.2536 58.5989 41.2536 55.9084V53.4736C41.2536 52.1296 40.0961 51.0388 38.6698 51.0388C37.2436 51.0388 36.0861 52.1296 36.0861 53.4736V55.9084C36.0861 58.5989 33.7736 60.2617 30.9186 60.2617H23.1673C20.3123 60.2617 17.9998 58.5989 17.9998 55.9084V32.5658Z" fill="white"/>
</svg>
