<?xml version="1.0" ?>
<!-- Uploaded to: SVG Repo, www.svgrepo.com, Generator: SVG Repo Mixer Tools -->
<svg width="800px" height="800px" viewBox="0 0 128 128" version="1.1" xml:space="preserve" xmlns="http://www.w3.org/2000/svg" xmlns:xlink="http://www.w3.org/1999/xlink">
<style type="text/css">
	.st0{fill:#69A401;}
	.st1{fill:#EFE691;}
	.st2{fill:#B20000;}
	.st3{fill:#DF1801;}
	.st4{fill:#F40603;}
	.st5{fill:#FFEEEE;}
	.st6{fill:#847B3C;}
	.st7{fill:#CEB600;}
	.st8{fill:#F8CD02;}
	.st9{fill:#F7C800;}
	.st10{fill:#F6E8B9;}
	.st11{fill:#F6E9CA;}
	.st12{fill:#CF8A11;}
	.st13{fill:#286F0D;}
	.st14{fill:#63271D;}
	.st15{fill:#EB8102;}
	.st16{fill:#E37303;}
	.st17{fill:#D97102;}
	.st18{fill:#BF6302;}
	.st19{fill:#EA9735;}
	.st20{fill:#3E1A01;}
	.st21{fill:#C96A0A;}
	.st22{fill:#CE2335;}
	.st23{fill:#C0242D;}
	.st24{fill:#BA1A23;}
	.st25{fill:#F9DCC7;}
	.st26{fill:#DBE2CE;}
	.st27{fill:#7D4B12;}
	.st28{fill:#75480C;}
	.st29{fill:#66410C;}
	.st30{fill:#88550D;}
	.st31{fill:#FFFEE9;}
	.st32{fill:#9B9F1A;}
	.st33{fill:#F6E177;}
	.st34{fill:#443A00;}
	.st35{fill:#305209;}
	.st36{fill:#7F7C04;}
	.st37{fill:#BAB424;}
	.st38{fill:#F7CF43;}
	.st39{fill:#DE940E;}
	.st40{fill:#5F570A;}
	.st41{fill:#175424;}
	.st42{fill:#215B25;}
	.st43{fill:#1B5020;}
	.st44{fill:#C0F9C0;}
	.st45{fill:#F3DA78;}
	.st46{fill:#BC441C;}
	.st47{fill:#148E2E;}
	.st48{fill:#283767;}
	.st49{fill:#425285;}
	.st50{fill:#CFDFFF;}
	.st51{fill:#1F2C55;}
	.st52{fill:#776220;}
	.st53{fill:#90236B;}
	.st54{fill:#5D1A47;}
	.st55{fill:#99499A;}
	.st56{fill:#FCCAFA;}
	.st57{fill:#917C31;}
	.st58{fill:#F4C435;}
	.st59{fill:#F1BC02;}
	.st60{fill:#F0B102;}
	.st61{fill:#F1F7BA;}
	.st62{fill:#E3DCB9;}
	.st63{fill:#BD6800;}
	.st64{fill:#E19704;}
	.st65{fill:#B2CA2B;}
	.st66{fill:#AFC20F;}
	.st67{fill:#B9CB00;}
	.st68{fill:#E5F392;}
	.st69{fill:#F78202;}
	.st70{fill:#F79613;}
	.st71{fill:#331F07;}
	.st72{fill:#402B16;}
	.st73{fill:#669404;}
	.st74{fill:#F58E13;}
	.st75{fill:#D87117;}
	.st76{fill:#216604;}
	.st77{fill:#286D08;}
	.st78{fill:#C8C625;}
	.st79{fill:#2C441F;}
	.st80{fill:#F1E6BF;}
	.st81{fill:#F2BE2E;}
	.st82{fill:#BF8F33;}
	.st83{fill:#568804;}
	.st84{fill:#669614;}
	.st85{fill:#688E0C;}
	.st86{fill:#4C7005;}
	.st87{fill:#A0CA49;}
	.st88{fill:#99BD70;}
	.st89{fill:#78AA25;}
	.st90{fill:#4B7C23;}
	.st91{fill:#EADBC8;}
	.st92{fill:#F0D5B0;}
	.st93{fill:#DF2B2B;}
	.st94{fill:#D1262C;}
	.st95{fill:#B7252C;}
	.st96{fill:#46670C;}
	.st97{fill:#F49D5B;}
	.st98{fill:#F57A55;}
	.st99{fill:#F1C3A7;}
	.st100{fill:#CC0917;}
	.st101{fill:#DC1035;}
	.st102{fill:#9BAC0F;}
	.st103{fill:#667A1D;}
	.st104{fill:#7A9D18;}
	.st105{fill:#F6F7E6;}
	.st106{fill:#F0194D;}
	.st107{fill:#362420;}
	.st108{fill:#530618;}
	.st109{fill:#44041A;}
	.st110{fill:#490419;}
	.st111{fill:#F8A459;}
	.st112{fill:#871B22;}
	.st113{fill:#600613;}
	.st114{fill:#F8C790;}
	.st115{fill:#447832;}
	.st116{fill:#7C473D;}
	.st117{fill:#441432;}
	.st118{fill:#51163F;}
	.st119{fill:#5B1A41;}
	.st120{fill:#FCEBF9;}
	.st121{fill:#ECE5CE;}
	.st122{fill:#BC3E2C;}
	.st123{fill:#A60F26;}
	.st124{fill:#C61632;}
	.st125{fill:#BD1331;}
	.st126{fill:#F8B772;}
	.st127{fill:#F7DDAC;}
	.st128{fill:#850E11;}
	.st129{fill:#191200;}
	.st130{fill:#553D2D;}
	.st131{fill:#F9E2D2;}
	.st132{fill:#CA8937;}
	.st133{fill:#462D16;}
	.st134{fill:#6D8916;}
	.st135{fill:#96B54E;}
	.st136{fill:#E3E2DE;}
	.st137{fill:#261811;}
	.st138{fill:#525C11;}
	.st139{fill:#14581E;}
	.st140{fill:#3D7712;}
	.st141{fill:#9BC148;}
	.st142{fill:#E22434;}
	.st143{fill:#C6DD9E;}
	.st144{fill:#F89A07;}
	.st145{fill:#F7A410;}
	.st146{fill:#F8AB19;}
	.st147{fill:#F7B81C;}
	.st148{fill:#E5870A;}
	.st149{fill:#97A304;}
	.st150{fill:#A88C5C;}
	.st151{fill:#ADC21E;}
	.st152{fill:#A3BA0B;}
	.st153{fill:#8D9E08;}
	.st154{fill:#E0DAB9;}
	.st155{fill:#684219;}
	.st156{fill:#777F05;}
	.st157{fill:#F2E9C4;}
	.st158{fill:#CBB465;}
	.st159{fill:#FFF5CA;}
	.st160{fill:#E52828;}
	.st161{fill:#F87302;}
	.st162{fill:#FF7B22;}
	.st163{fill:#FC7F10;}
	.st164{fill:#F8A200;}
	.st165{fill:#F8DC91;}
	.st166{fill:#FFFFFF;}
	.st167{fill:#F5D7D5;}
	.st168{fill:#EDA07A;}
	.st169{fill:#FCBEBE;}
	.st170{fill:#EAD991;}
	.st171{fill:#582612;}
</style>
<g id="_x33_0_Mulberry"/>
<g id="_x32_9_Star_Fruit"/>
<g id="_x32_8_Apricot"/>
<g id="_x32_7_Litchi"/>
<g id="_x32_6_Kiwi"/>
<g id="_x32_5_Jackfruit"/>
<g id="_x32_4_Avacado"/>
<g id="_x32_3_Blueberry"/>
<g id="_x32_2_Purple_Grapes"/>
<g id="_x32_1_Melon"/>
<g id="_x32_0_Green_Grapes"/>
<g id="_x31_9_Papaya"/>
<g id="_x31_8_Pineapple"/>
<g id="_x31_7_Banana"/>
<g id="_x31_6_Tender_Coconut"/>
<g id="_x31_5_Strawberry"/>
<g id="_x31_4_Dragon_Fruit"/>
<g id="_x31_3_Plum"/>
<g id="_x31_2_Fig"/>
<g id="_x31_1_Peach"/>
<g id="_x31_0_Cherry">
<g id="XMLID_663_">
<g id="XMLID_682_">
<path class="st35" d="M79.242,19.247c-4.774-3.107-10.387-3.413-15.242-1.5c0.72,5.542,3.685,10.623,8.459,13.73     c4.774,3.107,10.354,3.489,15.209,1.576C86.948,27.511,84.016,22.354,79.242,19.247z" id="XMLID_684_"/>
<path class="st130" d="M97.474,75.912c-0.291,0-0.587-0.064-0.866-0.198l-9.005-4.334c-16.619-8-26.18-30.591-25.918-48.896     l-5.25,4.668C44.036,37.49,35.485,58.261,32.491,74.279c-0.203,1.086-1.249,1.803-2.333,1.598     c-1.086-0.203-1.802-1.248-1.599-2.333c2.897-15.497,11.253-37.74,25.265-49.423l8.824-7.846     c0.007-0.007,0.015-0.014,0.022-0.021L75.883,4.505c0.825-0.735,2.092-0.659,2.823,0.166c0.734,0.826,0.66,2.09-0.165,2.824     L65.902,18.733c-1.752,17.182,7.296,41.273,23.435,49.042l9.005,4.334c0.995,0.479,1.414,1.674,0.935,2.67     C98.933,75.494,98.218,75.912,97.474,75.912z"/>
</g>
<g id="XMLID_679_">
<path class="st93" d="M38.709,122.909c6.858-1.606,15.009-10.526,17.641-19.703     c2.216-7.207,2.023-13.346,1.173-17.866c-1.606-8.542-8.476-15.102-16.814-15.492c-0.295-0.014-0.592-0.021-0.89-0.021     c-3.036,0-5.904,0.726-8.457,2.013c-0.527,0.266-1.144,0.266-1.672,0c-2.552-1.287-5.421-2.013-8.457-2.013     C10.611,69.828,2,77.63,2,89.569C2,106.059,11.325,129.323,38.709,122.909z" id="XMLID_681_"/>
<path class="st94" d="M20.6,89.569c0-8.186,4.049-14.425,10.018-17.54c-0.317,0.016-0.636-0.041-0.928-0.189     c-2.552-1.287-5.421-2.013-8.457-2.013C10.611,69.828,2,77.63,2,89.569c0,16.49,9.325,39.754,36.709,33.34     c0.331-0.078,0.668-0.187,1.004-0.298C25.774,117.866,20.6,101.845,20.6,89.569z" id="XMLID_28_"/>
<path class="st95" d="M12.333,89.569c0-9.874,5.896-16.903,13.941-19.045c-1.607-0.449-3.295-0.697-5.042-0.697     C10.611,69.828,2,77.63,2,89.569c0,15.761,8.532,37.691,33.197,33.999C18.424,120.621,12.333,102.889,12.333,89.569z" id="XMLID_1627_"/>
<path class="st25" d="M13.654,104.27c-0.87,0-1.671-0.572-1.922-1.45C10.52,98.582,9.878,94,9.878,89.569     c0-1.779,0.179-3.521,0.532-5.179c0.23-1.08,1.288-1.77,2.373-1.54c1.08,0.23,1.77,1.292,1.539,2.373     c-0.295,1.385-0.444,2.847-0.444,4.346c0,4.063,0.588,8.265,1.7,12.15c0.304,1.062-0.311,2.169-1.372,2.473     C14.021,104.245,13.837,104.27,13.654,104.27z"/>
</g>
<g id="XMLID_676_">
<path class="st93" d="M89.291,122.909c-6.858-1.606-15.009-10.526-17.641-19.703     c-2.216-7.207-2.023-13.346-1.173-17.866c1.606-8.542,8.476-15.102,16.814-15.492c0.295-0.014,0.592-0.021,0.89-0.021     c3.036,0,5.904,0.726,8.457,2.013c0.527,0.266,1.144,0.266,1.672,0c2.552-1.287,5.421-2.013,8.457-2.013     c10.622,0,19.233,7.802,19.233,19.742C126,106.059,116.675,129.323,89.291,122.909z" id="XMLID_678_"/>
<path class="st94" d="M90.25,103.207c-2.216-7.207-2.023-13.346-1.173-17.866     c1.601-8.513,11.515-14.65,9.233-13.499c-0.527,0.266-1.144,0.266-1.671,0c-2.552-1.287-5.421-2.013-8.457-2.013     c-0.298,0-0.595,0.007-0.89,0.021c-8.339,0.39-15.208,6.95-16.814,15.492c-0.85,4.52-1.043,10.659,1.173,17.866     c2.631,9.177,10.783,18.096,17.641,19.703c6.998,1.639,12.81,1.331,17.596-0.298C100.256,120.426,92.754,111.94,90.25,103.207z" id="XMLID_104_"/>
<path class="st95" d="M99.624,122.909c-6.858-1.606-15.009-10.526-17.641-19.703     c-2.216-7.207-2.023-13.346-1.173-17.866c1.329-7.07,6.268-12.769,12.656-14.749c-1.679-0.494-3.451-0.763-5.285-0.763     c-0.298,0-0.595,0.007-0.89,0.021c-8.339,0.39-15.208,6.95-16.814,15.492c-0.85,4.52-1.043,10.659,1.173,17.866     c2.631,9.177,10.783,18.096,17.641,19.703c5.264,1.233,9.854,1.361,13.845,0.66C101.996,123.398,100.834,123.192,99.624,122.909z     " id="XMLID_1724_"/>
<path class="st25" d="M114.346,104.27c-0.183,0-0.367-0.025-0.552-0.078c-1.062-0.304-1.676-1.411-1.372-2.473     c1.112-3.885,1.7-8.087,1.7-12.15c0-1.499-0.149-2.961-0.444-4.346c-0.23-1.08,0.459-2.143,1.539-2.373     c1.084-0.229,2.143,0.459,2.373,1.54c0.354,1.658,0.532,3.4,0.532,5.179c0,4.43-0.642,9.012-1.854,13.25     C116.017,103.698,115.216,104.27,114.346,104.27z"/>
</g>
</g>
</g>
<g id="_x30_9_Sapota"/>
<g id="_x30_8_Custard_Apple"/>
<g id="_x30_7_Watermelon"/>
<g id="_x30_6_Mango"/>
<g id="_x30_5_Pear"/>
<g id="_x30_4_Guava"/>
<g id="_x30_3_Pomegranate"/>
<g id="_x30_2_Orange"/>
<g id="_x30_1_Apple"/>
</svg>