<?xml version="1.0" ?>
<!-- Uploaded to: SVG Repo, www.svgrepo.com, Generator: SVG Repo Mixer Tools -->
<svg width="800px" height="800px" viewBox="0 0 128 128" version="1.1" xml:space="preserve" xmlns="http://www.w3.org/2000/svg" xmlns:xlink="http://www.w3.org/1999/xlink">
<style type="text/css">
	.st0{fill:#69A401;}
	.st1{fill:#EFE691;}
	.st2{fill:#B20000;}
	.st3{fill:#DF1801;}
	.st4{fill:#F40603;}
	.st5{fill:#FFEEEE;}
	.st6{fill:#847B3C;}
	.st7{fill:#CEB600;}
	.st8{fill:#F8CD02;}
	.st9{fill:#F7C800;}
	.st10{fill:#F6E8B9;}
	.st11{fill:#F6E9CA;}
	.st12{fill:#CF8A11;}
	.st13{fill:#286F0D;}
	.st14{fill:#63271D;}
	.st15{fill:#EB8102;}
	.st16{fill:#E37303;}
	.st17{fill:#D97102;}
	.st18{fill:#BF6302;}
	.st19{fill:#EA9735;}
	.st20{fill:#3E1A01;}
	.st21{fill:#C96A0A;}
	.st22{fill:#CE2335;}
	.st23{fill:#C0242D;}
	.st24{fill:#BA1A23;}
	.st25{fill:#F9DCC7;}
	.st26{fill:#DBE2CE;}
	.st27{fill:#7D4B12;}
	.st28{fill:#75480C;}
	.st29{fill:#66410C;}
	.st30{fill:#88550D;}
	.st31{fill:#FFFEE9;}
	.st32{fill:#9B9F1A;}
	.st33{fill:#F6E177;}
	.st34{fill:#443A00;}
	.st35{fill:#305209;}
	.st36{fill:#7F7C04;}
	.st37{fill:#BAB424;}
	.st38{fill:#F7CF43;}
	.st39{fill:#DE940E;}
	.st40{fill:#5F570A;}
	.st41{fill:#175424;}
	.st42{fill:#215B25;}
	.st43{fill:#1B5020;}
	.st44{fill:#C0F9C0;}
	.st45{fill:#F3DA78;}
	.st46{fill:#BC441C;}
	.st47{fill:#148E2E;}
	.st48{fill:#283767;}
	.st49{fill:#425285;}
	.st50{fill:#CFDFFF;}
	.st51{fill:#1F2C55;}
	.st52{fill:#776220;}
	.st53{fill:#90236B;}
	.st54{fill:#5D1A47;}
	.st55{fill:#99499A;}
	.st56{fill:#FCCAFA;}
	.st57{fill:#917C31;}
	.st58{fill:#F4C435;}
	.st59{fill:#F1BC02;}
	.st60{fill:#F0B102;}
	.st61{fill:#F1F7BA;}
	.st62{fill:#E3DCB9;}
	.st63{fill:#BD6800;}
	.st64{fill:#E19704;}
	.st65{fill:#B2CA2B;}
	.st66{fill:#AFC20F;}
	.st67{fill:#B9CB00;}
	.st68{fill:#E5F392;}
	.st69{fill:#F78202;}
	.st70{fill:#F79613;}
	.st71{fill:#331F07;}
	.st72{fill:#402B16;}
	.st73{fill:#669404;}
	.st74{fill:#F58E13;}
	.st75{fill:#D87117;}
	.st76{fill:#216604;}
	.st77{fill:#286D08;}
	.st78{fill:#C8C625;}
	.st79{fill:#2C441F;}
	.st80{fill:#F1E6BF;}
	.st81{fill:#F2BE2E;}
	.st82{fill:#BF8F33;}
	.st83{fill:#568804;}
	.st84{fill:#669614;}
	.st85{fill:#688E0C;}
	.st86{fill:#4C7005;}
	.st87{fill:#A0CA49;}
	.st88{fill:#99BD70;}
	.st89{fill:#78AA25;}
	.st90{fill:#4B7C23;}
	.st91{fill:#EADBC8;}
	.st92{fill:#F0D5B0;}
	.st93{fill:#DF2B2B;}
	.st94{fill:#D1262C;}
	.st95{fill:#B7252C;}
	.st96{fill:#46670C;}
	.st97{fill:#F49D5B;}
	.st98{fill:#F57A55;}
	.st99{fill:#F1C3A7;}
	.st100{fill:#CC0917;}
	.st101{fill:#DC1035;}
	.st102{fill:#9BAC0F;}
	.st103{fill:#667A1D;}
	.st104{fill:#7A9D18;}
	.st105{fill:#F6F7E6;}
	.st106{fill:#F0194D;}
	.st107{fill:#362420;}
	.st108{fill:#530618;}
	.st109{fill:#44041A;}
	.st110{fill:#490419;}
	.st111{fill:#F8A459;}
	.st112{fill:#871B22;}
	.st113{fill:#600613;}
	.st114{fill:#F8C790;}
	.st115{fill:#447832;}
	.st116{fill:#7C473D;}
	.st117{fill:#441432;}
	.st118{fill:#51163F;}
	.st119{fill:#5B1A41;}
	.st120{fill:#FCEBF9;}
	.st121{fill:#ECE5CE;}
	.st122{fill:#BC3E2C;}
	.st123{fill:#A60F26;}
	.st124{fill:#C61632;}
	.st125{fill:#BD1331;}
	.st126{fill:#F8B772;}
	.st127{fill:#F7DDAC;}
	.st128{fill:#850E11;}
	.st129{fill:#191200;}
	.st130{fill:#553D2D;}
	.st131{fill:#F9E2D2;}
	.st132{fill:#CA8937;}
	.st133{fill:#462D16;}
	.st134{fill:#6D8916;}
	.st135{fill:#96B54E;}
	.st136{fill:#E3E2DE;}
	.st137{fill:#261811;}
	.st138{fill:#525C11;}
	.st139{fill:#14581E;}
	.st140{fill:#3D7712;}
	.st141{fill:#9BC148;}
	.st142{fill:#E22434;}
	.st143{fill:#C6DD9E;}
	.st144{fill:#F89A07;}
	.st145{fill:#F7A410;}
	.st146{fill:#F8AB19;}
	.st147{fill:#F7B81C;}
	.st148{fill:#E5870A;}
	.st149{fill:#97A304;}
	.st150{fill:#A88C5C;}
	.st151{fill:#ADC21E;}
	.st152{fill:#A3BA0B;}
	.st153{fill:#8D9E08;}
	.st154{fill:#E0DAB9;}
	.st155{fill:#684219;}
	.st156{fill:#777F05;}
	.st157{fill:#F2E9C4;}
	.st158{fill:#CBB465;}
	.st159{fill:#FFF5CA;}
	.st160{fill:#E52828;}
	.st161{fill:#F87302;}
	.st162{fill:#FF7B22;}
	.st163{fill:#FC7F10;}
	.st164{fill:#F8A200;}
	.st165{fill:#F8DC91;}
	.st166{fill:#FFFFFF;}
	.st167{fill:#F5D7D5;}
	.st168{fill:#EDA07A;}
	.st169{fill:#FCBEBE;}
	.st170{fill:#EAD991;}
	.st171{fill:#582612;}
</style>
<g id="_x33_0_Mulberry"/>
<g id="_x32_9_Star_Fruit"/>
<g id="_x32_8_Apricot"/>
<g id="_x32_7_Litchi"/>
<g id="_x32_6_Kiwi"/>
<g id="_x32_5_Jackfruit"/>
<g id="_x32_4_Avacado"/>
<g id="_x32_3_Blueberry"/>
<g id="_x32_2_Purple_Grapes"/>
<g id="_x32_1_Melon"/>
<g id="_x32_0_Green_Grapes"/>
<g id="_x31_9_Papaya"/>
<g id="_x31_8_Pineapple"/>
<g id="_x31_7_Banana"/>
<g id="_x31_6_Tender_Coconut"/>
<g id="_x31_5_Strawberry"/>
<g id="_x31_4_Dragon_Fruit"/>
<g id="_x31_3_Plum"/>
<g id="_x31_2_Fig"/>
<g id="_x31_1_Peach"/>
<g id="_x31_0_Cherry"/>
<g id="_x30_9_Sapota"/>
<g id="_x30_8_Custard_Apple"/>
<g id="_x30_7_Watermelon">
<g id="XMLID_416_">
<g id="XMLID_424_">
<ellipse class="st139" cx="52.579" cy="57.875" id="XMLID_440_" rx="50.579" ry="55.875"/>
<path class="st139" d="M26.257,57.875c0-23.781,7.368-47.809,26.322-55.875C24.645,2,2,27.016,2,57.875     c0,30.859,22.645,55.875,50.579,55.875C35.459,104.796,26.257,80.191,26.257,57.875z" id="XMLID_667_"/>
<path class="st140" d="M78.901,57.875c0-23.883-7.24-47.88-26.322-55.875     c-18.954,8.066-26.322,32.094-26.322,55.875c0,22.316,9.201,46.921,26.322,55.875C70.733,105.268,78.901,81.02,78.901,57.875z" id="XMLID_669_"/>
<path class="st141" d="M52.579,2c-0.693,0-1.38,0.027-2.067,0.058v111.635c0.686,0.031,1.374,0.058,2.067,0.058     s1.38-0.027,2.067-0.058V2.058C53.96,2.027,53.272,2,52.579,2z" id="XMLID_845_"/>
<path class="st141" d="M12.833,67.782c-0.991,0-1.852-0.736-1.981-1.745c-0.344-2.681-0.519-5.427-0.519-8.162     c0-12.216,3.416-23.896,9.877-33.778c0.605-0.924,1.844-1.183,2.769-0.579c0.924,0.604,1.184,1.844,0.579,2.769     c-6.035,9.229-9.225,20.153-9.225,31.589c0,2.565,0.164,5.139,0.486,7.652c0.141,1.096-0.634,2.098-1.729,2.239     C13.004,67.776,12.918,67.782,12.833,67.782z"/>
<path class="st141" d="M93.718,67.782c-0.085,0-0.17-0.005-0.257-0.016c-1.096-0.141-1.87-1.143-1.729-2.238     c0.323-2.517,0.486-5.091,0.486-7.652c0-11.437-3.19-22.36-9.225-31.589c-0.604-0.925-0.345-2.164,0.579-2.769     c0.925-0.605,2.164-0.346,2.769,0.579c6.462,9.882,9.877,21.562,9.877,33.778c0,2.73-0.174,5.476-0.519,8.161     C95.57,67.045,94.709,67.782,93.718,67.782z"/>
</g>
<g id="XMLID_417_">
<path class="st142" d="M26.797,99.097c7.539,16.004,29.071,26.891,49.616,26.903     c21.201,0.012,42.498-10.034,49.586-26.848L26.797,99.097z" id="XMLID_423_"/>
<path class="st129" d="M76.408,112.781c-1.104,0-2-0.895-2-1.999l-0.004-6.636c0-1.104,0.894-2,1.999-2.001c0,0,0,0,0.001,0     c1.104,0,2,0.895,2,1.999l0.004,6.636C78.408,111.885,77.514,112.781,76.408,112.781     C76.409,112.781,76.408,112.781,76.408,112.781z"/>
<path class="st129" d="M64.152,112.774c-1.104,0-2-0.895-2-1.999l-0.003-6.636c0-1.104,0.895-2,1.999-2.001c0,0,0,0,0.001,0     c1.104,0,2,0.895,2,1.999l0.003,6.636C66.153,111.878,65.258,112.774,64.152,112.774     C64.153,112.774,64.153,112.774,64.152,112.774z"/>
<path class="st129" d="M88.663,112.788c-1.104,0-2-0.895-2-1.999l-0.004-6.636c0-1.104,0.894-2,1.999-2.001c0,0,0,0,0.001,0     c1.104,0,2,0.895,2,1.999l0.004,6.636C90.663,111.892,89.769,112.788,88.663,112.788     C88.664,112.788,88.663,112.788,88.663,112.788z"/>
<path class="st129" d="M51.896,110.316c-1.104,0-2-0.895-2-1.999l-0.002-4.185c0-1.104,0.894-2,1.999-2.001c0,0,0,0,0.001,0     c1.104,0,2,0.895,2,1.999l0.002,4.185C53.897,109.42,53.002,110.316,51.896,110.316     C51.897,110.316,51.897,110.316,51.896,110.316z"/>
<path class="st129" d="M100.916,110.344c-1.104,0-2-0.895-2-1.999l-0.002-4.185c0-1.104,0.894-2,1.999-2.001c0,0,0,0,0.001,0     c1.104,0,2,0.895,2,1.999l0.002,4.185C102.917,109.447,102.022,110.343,100.916,110.344     C100.917,110.344,100.917,110.344,100.916,110.344z"/>
<path class="st143" d="M76.414,119.8c-17.763-0.01-36.256-8.154-45.813-20.701l-3.803-0.002     c7.539,16.004,29.071,26.891,49.616,26.903c21.201,0.012,42.498-10.034,49.586-26.848l-3.454-0.002     C113.377,112.203,94.861,119.81,76.414,119.8z" id="XMLID_155_"/>
<path class="st140" d="M76.414,122.9c-19.188-0.011-39.234-9.51-47.94-23.802l-1.676-0.001     c7.539,16.004,29.071,26.891,49.616,26.903c21.201,0.012,42.498-10.034,49.586-26.848l-1.508-0.001     C116.225,114.092,96.278,122.911,76.414,122.9z" id="XMLID_1071_"/>
</g>
</g>
</g>
<g id="_x30_6_Mango"/>
<g id="_x30_5_Pear"/>
<g id="_x30_4_Guava"/>
<g id="_x30_3_Pomegranate"/>
<g id="_x30_2_Orange"/>
<g id="_x30_1_Apple"/>
</svg>