<svg width="80" height="60" viewBox="0 0 80 60" fill="none" xmlns="http://www.w3.org/2000/svg">
<rect x="2.5" y="2.5" width="75" height="55" rx="7.5" fill="#F13E3E" stroke="#E11C1C" stroke-width="5"/>
<path d="M35.144 29.312C36.136 29.536 36.92 30.032 37.496 30.8C38.088 31.552 38.384 32.416 38.384 33.392C38.384 34.832 37.888 35.96 36.896 36.776C35.904 37.592 34.512 38 32.72 38H24.344V21.08H32.456C34.184 21.08 35.536 21.464 36.512 22.232C37.504 23 38 24.08 38 25.472C38 26.464 37.736 27.296 37.208 27.968C36.696 28.624 36.008 29.072 35.144 29.312ZM29.048 27.8H31.424C32.608 27.8 33.2 27.312 33.2 26.336C33.2 25.328 32.608 24.824 31.424 24.824H29.048V27.8ZM31.784 34.208C32.968 34.208 33.56 33.712 33.56 32.72C33.56 32.208 33.4 31.816 33.08 31.544C32.776 31.272 32.336 31.136 31.76 31.136H29.048V34.208H31.784ZM51.1496 35.24H45.1496L44.2376 38H39.2936L45.4616 21.08H50.8856L57.0296 38H52.0616L51.1496 35.24ZM49.9736 31.64L48.1496 26.168L46.3496 31.64H49.9736Z" fill="white"/>
</svg>
