<svg width="80" height="60" viewBox="0 0 80 60" fill="none" xmlns="http://www.w3.org/2000/svg">
<rect x="2.5" y="2.5" width="75" height="55" rx="7.5" fill="#EE3EF1" stroke="#DD1CE1" stroke-width="5"/>
<path d="M39.144 29.312C40.136 29.536 40.92 30.032 41.496 30.8C42.088 31.552 42.384 32.416 42.384 33.392C42.384 34.832 41.888 35.96 40.896 36.776C39.904 37.592 38.512 38 36.72 38H28.344V21.08H36.456C38.184 21.08 39.536 21.464 40.512 22.232C41.504 23 42 24.08 42 25.472C42 26.464 41.736 27.296 41.208 27.968C40.696 28.624 40.008 29.072 39.144 29.312ZM33.048 27.8H35.424C36.608 27.8 37.2 27.312 37.2 26.336C37.2 25.328 36.608 24.824 35.424 24.824H33.048V27.8ZM35.784 34.208C36.968 34.208 37.56 33.712 37.56 32.72C37.56 32.208 37.4 31.816 37.08 31.544C36.776 31.272 36.336 31.136 35.76 31.136H33.048V34.208H35.784ZM49.1496 21.08V38H44.4456V21.08H49.1496Z" fill="white"/>
</svg>
