<svg width="80" height="60" viewBox="0 0 80 60" fill="none" xmlns="http://www.w3.org/2000/svg">
<rect x="2.5" y="2.5" width="75" height="55" rx="7.5" fill="#F1953E" stroke="#E17B1C" stroke-width="5"/>
<path d="M30.144 29.312C31.136 29.536 31.92 30.032 32.496 30.8C33.088 31.552 33.384 32.416 33.384 33.392C33.384 34.832 32.888 35.96 31.896 36.776C30.904 37.592 29.512 38 27.72 38H19.344V21.08H27.456C29.184 21.08 30.536 21.464 31.512 22.232C32.504 23 33 24.08 33 25.472C33 26.464 32.736 27.296 32.208 27.968C31.696 28.624 31.008 29.072 30.144 29.312ZM24.048 27.8H26.424C27.608 27.8 28.2 27.312 28.2 26.336C28.2 25.328 27.608 24.824 26.424 24.824H24.048V27.8ZM26.784 34.208C27.968 34.208 28.56 33.712 28.56 32.72C28.56 32.208 28.4 31.816 28.08 31.544C27.776 31.272 27.336 31.136 26.76 31.136H24.048V34.208H26.784ZM40.0536 21.08V30.896C40.0536 31.808 40.2616 32.512 40.6776 33.008C41.1096 33.504 41.7576 33.752 42.6216 33.752C43.4856 33.752 44.1336 33.504 44.5656 33.008C45.0136 32.496 45.2376 31.792 45.2376 30.896V21.08H49.9416V30.896C49.9416 32.448 49.6136 33.776 48.9576 34.88C48.3016 35.968 47.4056 36.792 46.2696 37.352C45.1496 37.896 43.9016 38.168 42.5256 38.168C41.1496 38.168 39.9176 37.896 38.8296 37.352C37.7576 36.792 36.9096 35.968 36.2856 34.88C35.6776 33.792 35.3736 32.464 35.3736 30.896V21.08H40.0536ZM58.9155 38.168C56.9475 38.168 55.3315 37.704 54.0675 36.776C52.8035 35.832 52.1235 34.488 52.0275 32.744H57.0435C57.0915 33.336 57.2675 33.768 57.5715 34.04C57.8755 34.312 58.2675 34.448 58.7475 34.448C59.1795 34.448 59.5315 34.344 59.8035 34.136C60.0915 33.912 60.2355 33.608 60.2355 33.224C60.2355 32.728 60.0035 32.344 59.5395 32.072C59.0755 31.8 58.3235 31.496 57.2835 31.16C56.1795 30.792 55.2835 30.44 54.5955 30.104C53.9235 29.752 53.3315 29.248 52.8195 28.592C52.3235 27.92 52.0755 27.048 52.0755 25.976C52.0755 24.888 52.3475 23.96 52.8915 23.192C53.4355 22.408 54.1875 21.816 55.1475 21.416C56.1075 21.016 57.1955 20.816 58.4115 20.816C60.3795 20.816 61.9475 21.28 63.1155 22.208C64.2995 23.12 64.9315 24.408 65.0115 26.072H59.8995C59.8835 25.56 59.7235 25.176 59.4195 24.92C59.1315 24.664 58.7555 24.536 58.2915 24.536C57.9395 24.536 57.6515 24.64 57.4275 24.848C57.2035 25.056 57.0915 25.352 57.0915 25.736C57.0915 26.056 57.2115 26.336 57.4515 26.576C57.7075 26.8 58.0195 27 58.3875 27.176C58.7555 27.336 59.2995 27.544 60.0195 27.8C61.0915 28.168 61.9715 28.536 62.6595 28.904C63.3635 29.256 63.9635 29.76 64.4595 30.416C64.9715 31.056 65.2275 31.872 65.2275 32.864C65.2275 33.872 64.9715 34.776 64.4595 35.576C63.9635 36.376 63.2355 37.008 62.2755 37.472C61.3315 37.936 60.2115 38.168 58.9155 38.168Z" fill="white"/>
</svg>
