<svg width="80" height="60" viewBox="0 0 80 60" fill="none" xmlns="http://www.w3.org/2000/svg">
<rect x="2.5" y="2.5" width="75" height="55" rx="7.5" fill="#F1953E" stroke="#E17B1C" stroke-width="5"/>
<path d="M27.768 29.504C27.768 27.84 28.112 26.36 28.8 25.064C29.504 23.752 30.496 22.736 31.776 22.016C33.056 21.28 34.528 20.912 36.192 20.912C38.304 20.912 40.08 21.48 41.52 22.616C42.96 23.736 43.888 25.264 44.304 27.2H39.24C38.936 26.56 38.512 26.072 37.968 25.736C37.44 25.4 36.824 25.232 36.12 25.232C35.032 25.232 34.16 25.624 33.504 26.408C32.864 27.176 32.544 28.208 32.544 29.504C32.544 30.816 32.864 31.864 33.504 32.648C34.16 33.416 35.032 33.8 36.12 33.8C36.824 33.8 37.44 33.632 37.968 33.296C38.512 32.96 38.936 32.472 39.24 31.832H44.304C43.888 33.768 42.96 35.304 41.52 36.44C40.08 37.56 38.304 38.12 36.192 38.12C34.528 38.12 33.056 37.76 31.776 37.04C30.496 36.304 29.504 35.288 28.8 33.992C28.112 32.68 27.768 31.184 27.768 29.504ZM51.2355 21.08V38H46.5315V21.08H51.2355Z" fill="white"/>
</svg>
