<svg width="80" height="60" viewBox="0 0 80 60" fill="none" xmlns="http://www.w3.org/2000/svg">
<rect x="2.5" y="2.5" width="75" height="55" rx="7.5" fill="#3EADF1" stroke="#157DBE" stroke-width="5"/>
<path d="M18.768 29.504C18.768 27.84 19.112 26.36 19.8 25.064C20.504 23.752 21.496 22.736 22.776 22.016C24.056 21.28 25.528 20.912 27.192 20.912C29.304 20.912 31.08 21.48 32.52 22.616C33.96 23.736 34.888 25.264 35.304 27.2H30.24C29.936 26.56 29.512 26.072 28.968 25.736C28.44 25.4 27.824 25.232 27.12 25.232C26.032 25.232 25.16 25.624 24.504 26.408C23.864 27.176 23.544 28.208 23.544 29.504C23.544 30.816 23.864 31.864 24.504 32.648C25.16 33.416 26.032 33.8 27.12 33.8C27.824 33.8 28.44 33.632 28.968 33.296C29.512 32.96 29.936 32.472 30.24 31.832H35.304C34.888 33.768 33.96 35.304 32.52 36.44C31.08 37.56 29.304 38.12 27.192 38.12C25.528 38.12 24.056 37.76 22.776 37.04C21.496 36.304 20.504 35.288 19.8 33.992C19.112 32.68 18.768 31.184 18.768 29.504ZM42.2355 21.08V38H37.5315V21.08H42.2355ZM55.6183 35.24H49.6183L48.7063 38H43.7623L49.9303 21.08H55.3543L61.4983 38H56.5303L55.6183 35.24ZM54.4423 31.64L52.6183 26.168L50.8183 31.64H54.4423Z" fill="white"/>
</svg>
