<svg width="80" height="60" viewBox="0 0 80 60" fill="none" xmlns="http://www.w3.org/2000/svg">
<rect x="2.5" y="2.5" width="75" height="55" rx="7.5" fill="#B93EF1" stroke="#A21CE1" stroke-width="5"/>
<path d="M35.816 21.08V24.824H29.048V27.8H34.04V31.376H29.048V38H24.344V21.08H35.816ZM45.9091 38.168C44.3251 38.168 42.8691 37.8 41.5411 37.064C40.2131 36.312 39.1571 35.28 38.3731 33.968C37.6051 32.64 37.2211 31.144 37.2211 29.48C37.2211 27.816 37.6051 26.328 38.3731 25.016C39.1571 23.688 40.2131 22.656 41.5411 21.92C42.8691 21.184 44.3251 20.816 45.9091 20.816C47.5091 20.816 48.9651 21.184 50.2771 21.92C51.6051 22.656 52.6531 23.688 53.4211 25.016C54.1891 26.328 54.5731 27.816 54.5731 29.48C54.5731 31.144 54.1891 32.64 53.4211 33.968C52.6531 35.28 51.6051 36.312 50.2771 37.064C48.9491 37.8 47.4931 38.168 45.9091 38.168ZM45.9091 33.8C47.1091 33.8 48.0531 33.408 48.7411 32.624C49.4451 31.84 49.7971 30.792 49.7971 29.48C49.7971 28.136 49.4451 27.08 48.7411 26.312C48.0531 25.528 47.1091 25.136 45.9091 25.136C44.6931 25.136 43.7411 25.528 43.0531 26.312C42.3651 27.08 42.0211 28.136 42.0211 29.48C42.0211 30.808 42.3651 31.864 43.0531 32.648C43.7411 33.416 44.6931 33.8 45.9091 33.8Z" fill="white"/>
</svg>
