<svg width="80" height="60" viewBox="0 0 80 60" fill="none" xmlns="http://www.w3.org/2000/svg">
<rect x="2.5" y="2.5" width="75" height="55" rx="7.5" fill="#F1953E" stroke="#E17B1C" stroke-width="5"/>
<path d="M28.144 26.648C27.872 26.2 27.496 25.856 27.016 25.616C26.552 25.376 26 25.256 25.36 25.256C24.176 25.256 23.24 25.64 22.552 26.408C21.88 27.176 21.544 28.208 21.544 29.504C21.544 30.96 21.904 32.072 22.624 32.84C23.36 33.592 24.424 33.968 25.816 33.968C27.464 33.968 28.64 33.224 29.344 31.736H24.616V28.352H33.4V32.912C33.032 33.808 32.488 34.648 31.768 35.432C31.064 36.216 30.168 36.864 29.08 37.376C27.992 37.872 26.752 38.12 25.36 38.12C23.664 38.12 22.16 37.76 20.848 37.04C19.552 36.304 18.544 35.288 17.824 33.992C17.12 32.68 16.768 31.184 16.768 29.504C16.768 27.84 17.12 26.36 17.824 25.064C18.544 23.752 19.552 22.736 20.848 22.016C22.144 21.28 23.64 20.912 25.336 20.912C27.464 20.912 29.224 21.424 30.616 22.448C32.008 23.472 32.872 24.872 33.208 26.648H28.144ZM40.1161 21.08V30.896C40.1161 31.808 40.3241 32.512 40.7401 33.008C41.1721 33.504 41.8201 33.752 42.6841 33.752C43.5481 33.752 44.1961 33.504 44.6281 33.008C45.0761 32.496 45.3001 31.792 45.3001 30.896V21.08H50.0041V30.896C50.0041 32.448 49.6761 33.776 49.0201 34.88C48.3641 35.968 47.4681 36.792 46.3321 37.352C45.2121 37.896 43.9641 38.168 42.5881 38.168C41.2121 38.168 39.9801 37.896 38.8921 37.352C37.8201 36.792 36.9721 35.968 36.3481 34.88C35.7401 33.792 35.4361 32.464 35.4361 30.896V21.08H40.1161ZM57.298 24.848V27.608H62.698V31.184H57.298V34.232H63.418V38H52.594V21.08H63.418V24.848H57.298Z" fill="white"/>
</svg>
