<svg width="101" height="60" viewBox="0 0 101 60" fill="none" xmlns="http://www.w3.org/2000/svg">
<rect x="2.5" y="2.5" width="96" height="55" rx="7.5" fill="#3EADF1" stroke="#157DBE" stroke-width="5"/>
<path d="M31.016 38H26.312L20.048 28.544V38H15.344V21.08H20.048L26.312 30.656V21.08H31.016V38ZM48.8396 21.08V38H44.1356V31.208H38.3996V38H33.6956V21.08H38.3996V27.44H44.1356V21.08H48.8396ZM62.2355 35.24H56.2355L55.3235 38H50.3795L56.5475 21.08H61.9715L68.1155 38H63.1475L62.2355 35.24ZM61.0595 31.64L59.2355 26.168L57.4355 31.64H61.0595ZM54.0275 20C54.4755 17.392 55.6755 16.088 57.6275 16.088C57.9955 16.088 58.3235 16.144 58.6115 16.256C58.9155 16.368 59.2595 16.528 59.6435 16.736C59.9155 16.88 60.1475 16.992 60.3395 17.072C60.5315 17.152 60.7235 17.192 60.9155 17.192C61.5075 17.192 61.8595 16.824 61.9715 16.088H64.3475C64.1235 17.448 63.6995 18.44 63.0755 19.064C62.4675 19.672 61.6915 19.976 60.7475 19.976C60.3955 19.976 60.0755 19.928 59.7875 19.832C59.4995 19.72 59.1475 19.56 58.7315 19.352C58.4595 19.208 58.2275 19.096 58.0355 19.016C57.8435 18.936 57.6515 18.896 57.4595 18.896C56.8835 18.896 56.5235 19.264 56.3795 20H54.0275ZM77.7607 38.168C76.1767 38.168 74.7207 37.8 73.3927 37.064C72.0647 36.312 71.0087 35.28 70.2247 33.968C69.4567 32.64 69.0727 31.144 69.0727 29.48C69.0727 27.816 69.4567 26.328 70.2247 25.016C71.0087 23.688 72.0647 22.656 73.3927 21.92C74.7207 21.184 76.1767 20.816 77.7607 20.816C79.3607 20.816 80.8167 21.184 82.1287 21.92C83.4567 22.656 84.5047 23.688 85.2727 25.016C86.0407 26.328 86.4247 27.816 86.4247 29.48C86.4247 31.144 86.0407 32.64 85.2727 33.968C84.5047 35.28 83.4567 36.312 82.1287 37.064C80.8007 37.8 79.3447 38.168 77.7607 38.168ZM77.7607 33.8C78.9607 33.8 79.9047 33.408 80.5927 32.624C81.2967 31.84 81.6487 30.792 81.6487 29.48C81.6487 28.136 81.2967 27.08 80.5927 26.312C79.9047 25.528 78.9607 25.136 77.7607 25.136C76.5447 25.136 75.5927 25.528 74.9047 26.312C74.2167 27.08 73.8727 28.136 73.8727 29.48C73.8727 30.808 74.2167 31.864 74.9047 32.648C75.5927 33.416 76.5447 33.8 77.7607 33.8Z" fill="white"/>
</svg>
