<svg width="80" height="60" viewBox="0 0 80 60" fill="none" xmlns="http://www.w3.org/2000/svg">
<rect x="2.5" y="2.5" width="75" height="55" rx="7.5" fill="#3EADF1" stroke="#157DBE" stroke-width="5"/>
<path d="M40.456 38.168C38.872 38.168 37.416 37.8 36.088 37.064C34.76 36.312 33.704 35.28 32.92 33.968C32.152 32.64 31.768 31.144 31.768 29.48C31.768 27.816 32.152 26.328 32.92 25.016C33.704 23.688 34.76 22.656 36.088 21.92C37.416 21.184 38.872 20.816 40.456 20.816C42.056 20.816 43.512 21.184 44.824 21.92C46.152 22.656 47.2 23.688 47.968 25.016C48.736 26.328 49.12 27.816 49.12 29.48C49.12 31.144 48.736 32.64 47.968 33.968C47.2 35.28 46.152 36.312 44.824 37.064C43.496 37.8 42.04 38.168 40.456 38.168ZM40.456 33.8C41.656 33.8 42.6 33.408 43.288 32.624C43.992 31.84 44.344 30.792 44.344 29.48C44.344 28.136 43.992 27.08 43.288 26.312C42.6 25.528 41.656 25.136 40.456 25.136C39.24 25.136 38.288 25.528 37.6 26.312C36.912 27.08 36.568 28.136 36.568 29.48C36.568 30.808 36.912 31.864 37.6 32.648C38.288 33.416 39.24 33.8 40.456 33.8ZM40.48 18.176L36.616 20.096V16.952L40.48 15.104L44.296 16.952V20.096L40.48 18.176Z" fill="white"/>
</svg>
