<svg width="80" height="60" viewBox="0 0 80 60" fill="none" xmlns="http://www.w3.org/2000/svg">
<rect x="2.5" y="2.5" width="75" height="55" rx="7.5" fill="#3EF150" stroke="#1FCB30" stroke-width="5"/>
<path d="M37.712 26.72C37.712 27.744 37.472 28.68 36.992 29.528C36.528 30.36 35.816 31.032 34.856 31.544C33.912 32.04 32.752 32.288 31.376 32.288H29.048V38H24.344V21.08H31.376C32.736 21.08 33.888 21.32 34.832 21.8C35.792 22.28 36.512 22.944 36.992 23.792C37.472 24.64 37.712 25.616 37.712 26.72ZM30.92 28.544C32.248 28.544 32.912 27.936 32.912 26.72C32.912 25.488 32.248 24.872 30.92 24.872H29.048V28.544H30.92ZM50.3058 35.24H44.3058L43.3938 38H38.4498L44.6178 21.08H50.0418L56.1858 38H51.2178L50.3058 35.24ZM49.1298 31.64L47.3058 26.168L45.5058 31.64H49.1298Z" fill="white"/>
</svg>
