<svg width="80" height="60" viewBox="0 0 80 60" fill="none" xmlns="http://www.w3.org/2000/svg">
<rect x="2.5" y="2.5" width="75" height="55" rx="7.5" fill="#F13E3E" stroke="#E32121" stroke-width="5"/>
<path d="M37.088 21.08V24.824H32.576V38H27.872V24.824H23.408V21.08H37.088ZM46.9404 38.168C45.3564 38.168 43.9004 37.8 42.5724 37.064C41.2444 36.312 40.1884 35.28 39.4044 33.968C38.6364 32.64 38.2524 31.144 38.2524 29.48C38.2524 27.816 38.6364 26.328 39.4044 25.016C40.1884 23.688 41.2444 22.656 42.5724 21.92C43.9004 21.184 45.3564 20.816 46.9404 20.816C48.5404 20.816 49.9964 21.184 51.3084 21.92C52.6364 22.656 53.6844 23.688 54.4524 25.016C55.2204 26.328 55.6044 27.816 55.6044 29.48C55.6044 31.144 55.2204 32.64 54.4524 33.968C53.6844 35.28 52.6364 36.312 51.3084 37.064C49.9804 37.8 48.5244 38.168 46.9404 38.168ZM46.9404 33.8C48.1404 33.8 49.0844 33.408 49.7724 32.624C50.4764 31.84 50.8284 30.792 50.8284 29.48C50.8284 28.136 50.4764 27.08 49.7724 26.312C49.0844 25.528 48.1404 25.136 46.9404 25.136C45.7244 25.136 44.7724 25.528 44.0844 26.312C43.3964 27.08 43.0524 28.136 43.0524 29.48C43.0524 30.808 43.3964 31.864 44.0844 32.648C44.7724 33.416 45.7244 33.8 46.9404 33.8Z" fill="white"/>
</svg>
