<svg width="101" height="101" viewBox="0 0 101 101" fill="none" xmlns="http://www.w3.org/2000/svg">
<rect x="2.5" y="2.5" width="96" height="96" rx="12.5" fill="#9CDEF6" stroke="#03A9F5" stroke-width="5"/>
<path d="M51.3533 32.2028C48.4529 31.1102 42.2984 34.5778 37.2051 39.1144H33.4321C30.9306 39.1144 28.5314 40.1155 26.7626 41.8973C24.9937 43.679 24 46.0955 24 48.6153V53.3657C24 55.8854 24.9937 58.3021 26.7626 60.084C28.5314 61.8656 30.9306 62.8665 33.4321 62.8665H37.2051C42.1805 67.4744 48.335 70.871 51.3533 69.8021C56.3052 67.9495 57.1302 57.9261 57.1302 50.9905C57.1302 44.0548 56.3052 34.0555 51.3533 32.2028Z" stroke="#03A9F5" stroke-width="5" stroke-linecap="round" stroke-linejoin="round"/>
<path d="M70.4795 37.4756C74.0144 41.0387 76.0003 45.8701 76.0003 50.9074C76.0003 55.9448 74.0144 60.7762 70.4795 64.3392" stroke="#03A9F5" stroke-width="5" stroke-linecap="round" stroke-linejoin="round"/>
<path d="M65.4775 59.3991C67.6877 57.1719 68.9295 54.1516 68.9295 51.0026C68.9295 47.8535 67.6877 44.8335 65.4775 42.6064" stroke="#03A9F5" stroke-width="5" stroke-linecap="round" stroke-linejoin="round"/>
</svg>
