<svg width="197" height="197" viewBox="0 0 197 197" fill="none" xmlns="http://www.w3.org/2000/svg">
<circle cx="98.5" cy="98.5" r="88.5" fill="#FF8181" stroke="#E11C1C" stroke-width="20"/>
<path fill-rule="evenodd" clip-rule="evenodd" d="M49 106.901V69.3012C49 64.1078 53.3855 60 58.8 60H68.5999V116.4H58.8C53.3855 116.4 49 112.094 49 106.901ZM146.652 100.631L138.135 69.9171C136.734 64.0845 131.32 60 125.077 60H78.3999V116.301L86.8229 145.417C87.8176 151.607 94.5208 155.762 101.312 153.261C105.374 151.762 107.8 147.706 107.8 143.528V121.001C107.8 118.406 109.995 116.4 112.7 116.4H133.593C142.212 116.4 148.587 108.682 146.652 100.631Z" fill="#E11C1C"/>
</svg>
