<svg width="228" height="228" viewBox="0 0 228 228" fill="none" xmlns="http://www.w3.org/2000/svg">
<circle cx="114" cy="114" r="106.5" fill="#9CFFA5" stroke="#15BE26" stroke-width="15"/>
<path fill-rule="evenodd" clip-rule="evenodd" d="M57 104.1V147.216C57 153.171 62.0648 157.882 68.318 157.882H79.6358V93.2077H68.318C62.0648 93.2077 57 98.1444 57 104.1ZM169.777 111.289L159.942 146.509C158.324 153.198 152.071 157.882 144.861 157.882H90.9538V93.3208L100.682 59.9329C101.83 52.835 109.572 48.0706 117.415 50.9378C122.106 52.6571 124.907 57.3081 124.907 62.0994V87.9313C124.907 90.9063 127.443 93.2077 130.566 93.2077H154.696C164.65 93.2077 172.013 102.057 169.777 111.289Z" fill="#15BE26"/>
</svg>
